<?xml version="1.0" standalone="no"?>
<!DOCTYPE svg PUBLIC "-//W3C//DTD SVG 1.1//EN" "http://www.w3.org/Graphics/SVG/1.1/DTD/svg11.dtd" >
<svg xmlns="http://www.w3.org/2000/svg" xmlns:xlink="http://www.w3.org/1999/xlink" version="1.1">
<metadata>
Created by FontForge 20170924 at Wed Nov  5 06:32:01 2014
 By www-data
Original Fonts are (c) Bitstream. OpenDyslexic changes and additional glyphs by Abelardo Gonzalez are licensed under a Creative Commons Attribution 3.0 Unported License.
Based on a work at http://dyslexicfonts.com. 2012 by Abelardo Gonzalez. Copying is an act of love. Please copy.
Bitstream license available here: http://opendyslexic.org/legal/
</metadata>
<defs>
<font id="OpenDyslexic-Bold" horiz-adv-x="651" >
  <font-face 
    font-family="OpenDyslexic"
    font-weight="700"
    font-stretch="normal"
    units-per-em="1000"
    panose-1="0 0 8 0 0 0 0 0 0 0"
    ascent="800"
    descent="-200"
    x-height="547"
    cap-height="729"
    bbox="-55 -9358 1259 1169"
    underline-thickness="50"
    underline-position="-213"
    stemh="28"
    stemv="136"
    unicode-range="U+0020-FB02"
  />
<missing-glyph horiz-adv-x="658" 
d="M585 -168v874h-512v-874h512zM164 616h331v-611h-331v611z" />
    <glyph glyph-name="fi" unicode="fi" horiz-adv-x="680" 
d="M279 547v27c0 21 4 39 13 53v-1c9 12 25 18 51 18l96 22v104l-106 -11c-58 -10 -102 -29 -133 -58c-31 -31 -47 -76 -47 -137v-17h-80v-97h80l-9 -450h148c0 36 -1 73 -2 110c-2 38 -3 76 -4 115c-2 76 -4 152 -7 225h193l-9 -450h144l-14 547h-314zM472 602h121v143
h-121v-143z" />
    <glyph glyph-name="fl" unicode="fl" horiz-adv-x="713" 
d="M589 746h-252c-64 0 -109 -14 -139 -43c-30 -30 -44 -75 -44 -138l-3 -18h-78v-102h75l-13 -445h173l-28 445h133v102h-135l-4 37c0 26 4 44 13 52c8 8 25 12 49 12h132v-648h172l-1 132c-12 0 -33 0 -50 -1v615z" />
    <glyph glyph-name=".notdef" horiz-adv-x="658" 
d="M585 -168v874h-512v-874h512zM164 616h331v-611h-331v611z" />
    <glyph glyph-name="NULL" horiz-adv-x="220" 
 />
    <glyph glyph-name="NULL" horiz-adv-x="220" 
 />
    <glyph glyph-name="space" unicode=" " horiz-adv-x="391" 
 />
    <glyph glyph-name="exclam" unicode="!" horiz-adv-x="310" 
d="M77 0h154l-11 152h-131zM83 400v1l-10 -182h163l-15 182l-5 316l-133 -2v-315z" />
    <glyph glyph-name="quotedbl" unicode="&#x22;" horiz-adv-x="503" 
d="M103 717l-30 -304h153l-6 304h-117zM284 717l-5 -304h151l-28 304h-118z" />
    <glyph glyph-name="numbersign" unicode="#" horiz-adv-x="821" 
d="M445 295h-95l28 116h95zM452 707h-112c-7 -30 -15 -61 -23 -94s-16 -65 -23 -96h-169v-106h142l-29 -116h-165v-107h139l-47 -188h110l47 188h96l-47 -188h111l47 188h167v107h-140c3 11 6 22 8 31c5 19 9 37 14 55c2 10 4 19 6 30h164v106h-137l47 190h-110l-48 -190
h-96z" />
    <glyph glyph-name="dollar" unicode="$" horiz-adv-x="624" 
d="M368 -134l-7 140c55 5 93 22 129 51c40 33 60 78 61 135c-5 106 -70 154 -198 179c0 16 0 31 1 46v43s0 29 1 43c0 14 0 29 1 45c46 -5 99 -23 158 -55l3 113c-57 20 -106 32 -160 36l2 107l-82 1l-2 -109c-124 -11 -193 -74 -195 -180c2 -50 19 -90 52 -121
c30 -27 72 -47 133 -60c0 -13 0 -26 -1 -38v-36c-1 -12 -1 -23 -1 -35c-1 -12 -1 -25 -1 -37c-53 5 -115 30 -187 77l-2 -154c67 -30 129 -46 185 -52l-11 -137zM266 544l-3 -162c-55 14 -82 42 -82 79c0 43 37 73 85 83zM353 133l-4 126c52 -14 75 -37 75 -76
c0 -18 -6 -30 -18 -36c-13 -5 -31 -10 -53 -14z" />
    <glyph glyph-name="percent" unicode="%" horiz-adv-x="967" 
d="M719 299c40 0 65 -37 65 -100c0 -62 -25 -100 -65 -100c-42 0 -67 38 -67 100c0 63 25 100 67 100zM719 394c-107 0 -176 -81 -176 -204c0 -124 67 -203 176 -203c53 0 95 18 127 56c33 37 48 86 48 147c0 123 -68 204 -175 204zM249 635c41 0 66 -41 66 -106
c0 -68 -25 -107 -66 -107c-42 0 -67 39 -67 107c0 66 26 106 67 106zM202 -13h116l452 742h-116zM249 729c-54 0 -96 -19 -129 -56c-31 -37 -47 -86 -47 -147c0 -124 67 -204 176 -204c107 0 175 80 175 204c0 122 -70 203 -175 203z" />
    <glyph glyph-name="ampersand" unicode="&#x26;" horiz-adv-x="849" 
d="M237 377l217 -223c-37 -28 -79 -41 -126 -41c-88 0 -153 59 -153 137c0 45 19 84 62 127zM305 466c-27 28 -44 49 -53 63l1 -1c-7 14 -11 26 -11 38c0 21 8 39 23 52c17 14 39 21 66 21c39 0 90 -17 151 -51l49 100c-65 27 -124 41 -177 41c-61 0 -110 -17 -147 -49h1
c-38 -34 -57 -78 -57 -133c0 -35 13 -72 37 -109c-76 -61 -115 -131 -115 -209c0 -72 26 -130 76 -175s113 -67 192 -67c78 0 145 23 209 74l59 -61h166l-147 150c25 37 39 74 47 111c3 20 7 45 10 70s5 50 7 70h-122c-2 -45 -6 -81 -11 -108c-4 -19 -11 -38 -21 -57z" />
    <glyph glyph-name="quotesingle" unicode="'" horiz-adv-x="261" 
d="M73 717v-290h115v290h-115z" />
    <glyph glyph-name="parenleft" unicode="(" horiz-adv-x="443" 
d="M370 739l-115 10c-111 -144 -170 -281 -182 -419c0 -141 27 -288 91 -446l138 -9c-84 178 -94 309 -99 445c5 137 63 273 167 419z" />
    <glyph glyph-name="parenright" unicode=")" horiz-adv-x="443" 
d="M263 752l-113 10c42 -90 68 -168 79 -238c11 -69 16 -137 16 -205c-14 -135 -68 -275 -172 -422l149 -9c42 77 75 146 104 212c29 69 44 139 44 210c0 69 -8 138 -21 210c-14 72 -43 148 -86 232z" />
    <glyph glyph-name="asterisk" unicode="*" horiz-adv-x="607" 
d="M534 580l-45 77c-22 -13 -45 -27 -69 -42s-48 -30 -72 -44v158h-88v-158l-142 86l-45 -77c24 -13 48 -26 74 -40c26 -15 51 -29 77 -42l-151 -82l46 -77c22 14 45 28 69 43c24 14 48 29 72 43v-158h88v158l141 -86l45 77c-46 25 -100 54 -150 82z" />
    <glyph glyph-name="plus" unicode="+" horiz-adv-x="767" 
d="M327 622v-254h-254v-114h254v-254h113v254h254v114h-254v254h-113z" />
    <glyph glyph-name="comma" unicode="," horiz-adv-x="351" 
d="M126 36l-53 -167h94l110 158v120h-151v-111z" />
    <glyph glyph-name="hyphen" unicode="-" horiz-adv-x="434" 
d="M73 218l283 5l4 111l-282 -5z" />
    <glyph glyph-name="period" unicode="." horiz-adv-x="294" 
d="M49 0h172v184h-172v-184z" />
    <glyph glyph-name="slash" unicode="/" horiz-adv-x="528" 
d="M73 -86l144 -5l238 797l-105 2z" />
    <glyph glyph-name="zero" unicode="0" horiz-adv-x="653" 
d="M331 656c84 0 125 -77 125 -231c-6 -73 -19 -132 -41 -172s-53 -61 -93 -61c-41 0 -70 17 -87 51l1 -1c-19 39 -29 98 -29 182c0 155 41 232 124 232zM331 729c-82 0 -145 -33 -188 -95c-43 -63 -66 -155 -70 -276c0 -242 84 -371 249 -371c164 0 251 130 258 370
c0 242 -84 372 -249 372zM327 324c-42 0 -52 49 -52 86c0 57 6 113 52 113c41 0 51 -43 51 -113c0 -37 -10 -86 -51 -86z" />
    <glyph glyph-name="one" unicode="1" horiz-adv-x="588" 
d="M86 0h429v164h-151v553h-111l-180 -36v-121l164 32v-428h-151v-164z" />
    <glyph glyph-name="two" unicode="2" horiz-adv-x="615" 
d="M542 168h-219c12 30 34 60 65 91c20 22 36 39 49 52c12 13 20 22 23 26c30 36 50 66 61 93c11 28 17 56 17 87c0 64 -23 116 -69 155c-46 38 -106 57 -181 57c-55 0 -125 -17 -210 -51v-136c88 49 157 73 212 73c72 0 119 -43 119 -104c0 -19 -6 -39 -16 -60
c-11 -22 -31 -48 -59 -80c-14 -17 -48 -45 -102 -85c-54 -41 -110 -87 -159 -127v-159h469v168z" />
    <glyph glyph-name="three" unicode="3" horiz-adv-x="631" 
d="M542 535c0 60 -23 108 -68 143v-1c-44 35 -103 52 -178 52c-57 0 -123 -10 -202 -33v-113c84 29 145 42 194 42c82 0 126 -33 126 -91c0 -56 -43 -87 -122 -87h-101v-112h97c91 0 142 -46 142 -96c0 -10 -13 -27 -40 -50c-27 -22 -66 -34 -119 -34c-63 0 -131 20 -198 59
v-189c75 -25 141 -38 200 -38c91 0 162 20 211 59c48 40 74 100 74 179c0 48 -15 89 -42 122c-16 18 -35 32 -58 42c55 31 84 81 84 146z" />
    <glyph glyph-name="four" unicode="4" horiz-adv-x="679" 
d="M376 305h-176l180 282zM73 272v-80h298l-10 -192h162c0 15 -1 30 -2 46c0 17 -1 33 -2 49c-1 17 -2 33 -3 50c-1 16 -2 32 -2 47h91v113h-92l-4 412h-144z" />
    <glyph glyph-name="five" unicode="5" horiz-adv-x="623" 
d="M102 717v-388c66 30 120 44 167 44c94 0 148 -40 148 -123c0 -18 -13 -39 -39 -62c-24 -25 -61 -37 -109 -37c-62 0 -125 18 -196 57v-187c74 -23 139 -34 198 -34c175 0 279 92 279 249c0 153 -105 250 -265 250c-23 0 -43 -3 -71 -8v134h286v105h-398z" />
    <glyph glyph-name="six" unicode="6" horiz-adv-x="653" 
d="M334 377c72 0 116 -51 116 -141c0 -48 -40 -81 -116 -81s-116 33 -116 81c0 90 44 141 116 141zM535 571v125c-62 22 -113 33 -161 33c-184 0 -301 -148 -301 -371c0 -238 90 -371 261 -371c148 0 246 99 246 249c0 77 -22 137 -65 182c-44 46 -102 68 -175 68
c-52 0 -96 -15 -133 -46c19 115 75 175 170 175c44 0 98 -15 158 -44z" />
    <glyph glyph-name="seven" unicode="7" horiz-adv-x="616" 
d="M73 612h341l-251 -612h206l173 657v60h-469v-105z" />
    <glyph glyph-name="eight" unicode="8" horiz-adv-x="668" 
d="M334 332c80 0 123 -41 123 -113c0 -17 -11 -35 -32 -53h1c-22 -20 -52 -29 -92 -29c-79 0 -123 47 -123 82c0 72 43 113 123 113zM120 332c-31 -34 -47 -75 -47 -123c0 -71 24 -126 72 -165c46 -38 109 -57 189 -57c158 0 261 78 261 222c0 96 -63 149 -115 172
c55 32 81 85 81 154c0 53 -20 97 -60 133c-39 35 -95 52 -167 52c-143 0 -227 -77 -227 -185c0 -69 26 -122 81 -154c-26 -11 -48 -28 -68 -49zM227 553c0 24 8 44 26 60c19 17 46 25 81 25c18 0 33 -2 46 -6c27 -8 62 -30 62 -79c0 -59 -40 -94 -108 -94
c-69 0 -107 35 -107 94z" />
    <glyph glyph-name="nine" unicode="9" horiz-adv-x="652" 
d="M117 200v-180c62 -22 113 -33 162 -33c183 0 300 148 300 371c0 121 -23 213 -67 276c-44 62 -109 95 -194 95c-74 0 -133 -23 -178 -69c-44 -45 -67 -105 -67 -181s22 -137 64 -182c44 -44 102 -67 176 -67c50 0 95 16 132 47c-7 -47 -22 -77 -42 -91
c-29 -20 -71 -31 -128 -31c-44 0 -98 15 -158 45zM311 404c-49 0 -87 5 -114 16c-22 8 -32 33 -32 74c0 88 55 140 146 140c89 0 145 -53 145 -140c0 -41 -11 -66 -33 -74c-27 -11 -65 -16 -112 -16z" />
    <glyph glyph-name="colon" unicode=":" horiz-adv-x="302" 
d="M73 0h156v176h-156v-176zM73 372h156v166h-156v-166z" />
    <glyph glyph-name="semicolon" unicode=";" horiz-adv-x="338" 
d="M118 366h147v170h-147v-170zM120 33l-47 -182h100l90 175v110h-143v-103z" />
    <glyph glyph-name="less" unicode="&#x3c;" horiz-adv-x="795" 
d="M722 575l-638 -170l-11 -128l599 -278l13 148l-419 191l445 116z" />
    <glyph glyph-name="equal" unicode="=" horiz-adv-x="767" 
d="M73 347h621v113h-621v-113zM73 161h621v127h-621v-127z" />
    <glyph glyph-name="greater" unicode="&#x3e;" horiz-adv-x="795" 
d="M531 320l-445 -115l-13 -149l638 170l11 128l-598 279l-11 -121z" />
    <glyph glyph-name="question" unicode="?" horiz-adv-x="542" 
d="M157 -4h156v165h-156v-165zM315 183v74c0 30 1 45 5 56c1 3 2 6 5 10c4 7 10 15 17 26c3 5 6 10 10 16c6 6 11 12 17 18c5 6 10 12 16 18c26 28 46 53 59 73c16 24 24 49 24 76c0 54 -18 97 -54 130s-84 49 -145 49c-65 0 -130 -20 -196 -60v-116c75 51 135 79 180 79
c28 0 50 -9 65 -27c17 -18 26 -37 26 -59c-2 -11 -8 -19 -16 -27c-10 -12 -27 -25 -50 -44l-46 -41c-29 -28 -48 -55 -58 -78c-9 -24 -14 -52 -14 -85v-88h155z" />
    <glyph glyph-name="at" unicode="@" horiz-adv-x="990" 
d="M382 300c0 33 9 59 27 78c19 19 44 29 75 29c62 0 103 -41 103 -107s-38 -106 -102 -106c-66 0 -103 40 -103 106zM607 81v-43c43 1 81 5 116 15c-71 -53 -147 -77 -220 -77c-46 0 -87 5 -125 17c-35 11 -68 31 -98 60c-35 39 -67 77 -83 104h1c-16 27 -24 63 -24 109
c0 110 53 210 144 270c56 37 121 55 193 55c101 0 189 -40 250 -116c35 -45 53 -99 53 -159c0 -49 -12 -90 -34 -121c-18 -23 -42 -40 -71 -49v331h-102v-32c-33 28 -76 41 -127 41c-57 0 -104 -21 -140 -63c-37 -42 -54 -95 -54 -160c0 -131 79 -223 194 -223
c53 0 92 12 127 41zM838 115c53 50 79 117 79 203c0 78 -26 153 -74 216c-80 102 -198 160 -333 160c-120 0 -229 -44 -312 -125c-80 -81 -125 -188 -125 -303c0 -121 43 -226 125 -307c82 -79 186 -121 305 -121c97 0 196 36 284 104l-57 113c44 13 80 33 108 60z" />
    <glyph glyph-name="A" unicode="A" horiz-adv-x="835" 
d="M520 260h-204c9 27 18 53 26 79c9 26 17 51 26 76c8 24 16 49 24 74s17 50 25 76zM73 0h167l35 113h284l26 -113h177l-288 729h-113z" />
    <glyph glyph-name="B" unicode="B" horiz-adv-x="684" 
d="M204 331h132c45 0 79 -9 100 -27c20 -17 29 -30 29 -40c0 -36 -9 -59 -27 -71c-21 -12 -55 -19 -102 -19h-132v157zM204 629h120c82 0 117 -41 117 -100c0 -57 -39 -86 -117 -86h-120v186zM73 0h267c164 0 270 76 270 212c0 86 -41 150 -131 183c47 26 70 74 70 145
c0 60 -21 107 -62 140c-41 32 -101 49 -179 49h-235v-729z" />
    <glyph glyph-name="C" unicode="C" horiz-adv-x="741" 
d="M668 540v151c-103 50 -168 55 -253 51c-221 -10 -342 -147 -342 -378c0 -232 136 -378 357 -378c86 0 164 26 238 76v215c-82 -75 -157 -111 -233 -111c-151 0 -224 49 -226 198c0 172 64 263 211 263c76 0 137 -11 248 -87z" />
    <glyph glyph-name="D" unicode="D" horiz-adv-x="765" 
d="M208 615h95c88 0 153 -19 195 -59c43 -40 63 -100 63 -180c-14 -61 -41 -107 -71 -130c-34 -23 -96 -35 -187 -35h-95v404zM73 0h211c138 0 240 29 307 88c67 60 101 153 101 277c0 123 -35 216 -100 276c-67 57 -172 88 -308 88h-211v-729z" />
    <glyph glyph-name="E" unicode="E" horiz-adv-x="629" 
d="M73 0h483v181h-352v149h329v115h-329v168h344v116h-475v-729z" />
    <glyph glyph-name="F" unicode="F" horiz-adv-x="586" 
d="M73 0h160l-9 312h264v134h-269c1 30 2 56 4 82s3 52 4 80h286v121h-415z" />
    <glyph glyph-name="G" unicode="G" horiz-adv-x="788" 
d="M571 257v-57c-10 -8 -24 -13 -42 -17h1c-25 -6 -52 -8 -85 -8c-81 0 -140 13 -178 40h1c-36 27 -55 82 -59 159c0 175 79 263 236 263c82 0 161 -32 247 -105v140c-78 49 -161 70 -255 70c-227 0 -364 -142 -364 -378c0 -117 32 -210 96 -278c65 -66 155 -100 268 -100
c104 0 196 29 278 87v312h-292v-128h148z" />
    <glyph glyph-name="H" unicode="H" horiz-adv-x="721" 
d="M73 0h145v232h284v-232h145l-9 729h-136v-330h-284v330h-135z" />
    <glyph glyph-name="I" unicode="I" horiz-adv-x="296" 
d="M73 0h150l-9 729h-126z" />
    <glyph glyph-name="J" unicode="J" horiz-adv-x="473" 
d="M265 731l-27 -677c0 -15 -8 -30 -23 -44s-43 -23 -76 -25l-66 15v-193l72 -7c80 1 137 21 173 59c35 37 54 100 56 188l26 676z" />
    <glyph glyph-name="K" unicode="K" horiz-adv-x="769" 
d="M73 0h160c-1 22 -2 45 -4 69c-2 48 -5 98 -8 147c-1 25 -3 49 -4 72l203 -288h275l-386 387l364 342h-174l-284 -268l8 268h-130z" />
    <glyph glyph-name="L" unicode="L" horiz-adv-x="620" 
d="M73 0h463l11 181h-338l4 548h-130z" />
    <glyph glyph-name="M" unicode="M" horiz-adv-x="865" 
d="M73 0h172c-3 82 -6 165 -8 250c-3 84 -6 168 -8 252l134 -392h139l134 391l-16 -501h172l-29 729h-161l-169 -353l-161 353h-169z" />
    <glyph glyph-name="N" unicode="N" horiz-adv-x="717" 
d="M73 0h157c-4 83 -8 168 -12 256c-4 87 -8 173 -12 259l273 -515h165v729h-123l-13 -509l-270 495h-146z" />
    <glyph glyph-name="O" unicode="O" horiz-adv-x="824" 
d="M413 628c123 0 202 -97 202 -264c0 -129 -73 -162 -202 -162c-65 0 -116 11 -153 33c-33 22 -51 64 -51 129c0 81 20 149 56 196c36 43 87 68 148 68zM413 742c-103 0 -186 -35 -248 -104c-61 -69 -92 -159 -92 -274c0 -114 31 -205 92 -274c62 -69 145 -104 248 -104
c102 0 184 35 246 104c61 69 92 160 92 274c0 115 -31 205 -92 274c-62 69 -144 104 -246 104z" />
    <glyph glyph-name="P" unicode="P" horiz-adv-x="654" 
d="M237 652h99c82 0 128 -40 128 -111c0 -72 -46 -112 -128 -112h-107c1 41 2 77 4 113c1 35 2 71 4 110zM73 0h150l9 269h95c84 0 146 21 189 62s65 98 65 173c0 148 -85 225 -254 225h-224z" />
    <glyph glyph-name="Q" unicode="Q" horiz-adv-x="879" 
d="M413 628c123 0 202 -98 202 -264c0 -63 -24 -109 -72 -136c-34 5 -75 18 -116 37l-9 -15c-3 -6 -7 -12 -11 -18c-3 -6 -7 -12 -11 -19c-3 -6 -7 -11 -10 -17l-32 6c-24 3 -58 15 -95 36c-33 20 -50 62 -50 126c0 81 20 149 56 196c36 43 87 68 148 68zM806 -123l-163 182
c24 29 45 64 68 106c26 49 39 116 39 199c0 228 -133 378 -337 378c-207 0 -340 -150 -340 -378c0 -229 135 -378 335 -378h13s11 1 18 1l97 -110h270z" />
    <glyph glyph-name="R" unicode="R" horiz-adv-x="734" 
d="M543 511c0 73 -22 128 -64 164c-41 36 -100 54 -176 54h-230v-729h149v292h51c66 0 96 -17 138 -104v1l74 -189h176c-15 31 -35 69 -54 107c-20 39 -39 78 -55 109c-30 58 -59 101 -92 126c53 32 83 90 83 169zM213 643h100c62 0 127 -28 127 -132
c0 -43 -64 -86 -127 -86h-100v218z" />
    <glyph glyph-name="S" unicode="S" horiz-adv-x="670" 
d="M556 567v134c-81 27 -155 41 -222 41c-159 0 -261 -82 -261 -217c0 -115 66 -179 213 -207l57 -11c41 -9 76 -23 94 -38c16 -16 25 -30 25 -43c0 -15 -11 -30 -35 -47c-27 -19 -64 -29 -114 -29c-67 0 -145 27 -237 79v-193c89 -33 170 -50 237 -50c187 0 284 77 284 223
c0 124 -70 195 -220 224h1l-57 11c-48 9 -80 20 -96 34c-14 11 -21 30 -21 55c0 61 51 95 141 95c56 0 123 -20 211 -61z" />
    <glyph glyph-name="T" unicode="T" horiz-adv-x="769" 
d="M73 613l245 9l-18 -622h169l-18 622l245 -10v117h-623v-116z" />
    <glyph glyph-name="U" unicode="U" horiz-adv-x="713" 
d="M73 729v-451c0 -192 97 -292 284 -292s283 99 283 292v451h-131v-374c0 -69 -12 -119 -36 -149v1c-23 -28 -62 -42 -116 -42s-93 14 -116 42v-1c-24 30 -36 80 -36 149v374h-132z" />
    <glyph glyph-name="V" unicode="V" horiz-adv-x="833" 
d="M506 0l253 729h-135l-207 -488l-208 488h-136l254 -729h179z" />
    <glyph glyph-name="W" unicode="W" horiz-adv-x="1070" 
d="M236 0h174c20 49 40 104 62 162c21 58 42 114 62 169l115 -331h164l184 729h-128c-24 -77 -49 -155 -75 -235c-25 -80 -50 -164 -74 -243l-135 297h-106c-23 -47 -48 -94 -73 -143s-50 -97 -74 -145l-132 469h-127z" />
    <glyph glyph-name="X" unicode="X" horiz-adv-x="812" 
d="M325 343l-252 -343h199l134 229l134 -229h198l-242 342l224 387h-144l-162 -276l-162 276h-143z" />
    <glyph glyph-name="Y" unicode="Y" horiz-adv-x="791" 
d="M311 250v-250h164v250l242 479h-142l-179 -334l-181 334h-142z" />
    <glyph glyph-name="Z" unicode="Z" horiz-adv-x="749" 
d="M84 613h403l-414 -455v-158h602v176h-425l415 456v97h-581v-116z" />
    <glyph glyph-name="bracketleft" unicode="[" horiz-adv-x="376" 
d="M73 -123h230v138h-110v629h110v102h-230v-869z" />
    <glyph glyph-name="backslash" unicode="\" horiz-adv-x="482" 
d="M73 717l201 -810l135 -6l-220 813z" />
    <glyph glyph-name="bracketright" unicode="]" horiz-adv-x="376" 
d="M73 746v-102h109v-634h-109v-133h230v869h-230z" />
    <glyph glyph-name="asciicircum" unicode="^" horiz-adv-x="819" 
d="M367 717l-294 -290h195l141 194l142 -194h195l-294 290h-85z" />
    <glyph glyph-name="underscore" unicode="_" horiz-adv-x="668" 
d="M73 -102v-118h522v118h-522z" />
    <glyph glyph-name="grave" unicode="`" horiz-adv-x="433" 
d="M73 783l115 -207h171l-156 207h-130z" />
    <glyph glyph-name="a" unicode="a" horiz-adv-x="614" 
d="M374 261v-1c0 -97 -25 -109 -99 -109c-28 0 -52 3 -71 8c-12 4 -20 15 -24 31c1 25 8 42 24 53c17 12 54 18 112 18h58zM541 0v310c0 167 -79 249 -238 249c-57 0 -121 -14 -192 -41v-111c66 35 126 54 182 54c78 -6 123 -44 127 -102h-99c-166 0 -248 -65 -248 -192
c0 -54 17 -98 52 -131s80 -49 138 -49c68 0 118 19 157 55v-42h121z" />
    <glyph glyph-name="b" unicode="b" horiz-adv-x="640" 
d="M438 200c-21 -15 -47 -25 -81 -27c-74 0 -111 39 -123 118c1 55 13 99 35 129c22 27 52 43 90 43c37 0 66 -14 84 -43c20 -29 32 -71 34 -127c-8 -46 -21 -78 -39 -93zM94 103l100 -62c37 -38 84 -54 145 -54c136 0 227 117 227 286s-91 286 -227 286
c-61 0 -106 -15 -143 -52l8 239h-121z" />
    <glyph glyph-name="c" unicode="c" horiz-adv-x="587" 
d="M514 405v116c-57 25 -112 38 -166 38c-170 0 -275 -110 -275 -286c0 -172 106 -286 270 -286c59 0 114 13 171 39l-3 175c-39 -23 -69 -33 -90 -34h-72c-45 4 -88 14 -110 28c-19 14 -32 43 -36 80c1 113 51 181 149 181c45 0 100 -17 162 -51z" />
    <glyph glyph-name="d" unicode="d" horiz-adv-x="648" 
d="M455 746l-8 -242c-37 37 -86 55 -147 55c-136 0 -227 -117 -227 -286s91 -286 227 -286c61 0 109 16 145 54v-41h121l9 746h-120zM203 417v-1c22 30 52 45 90 45c37 0 65 -17 83 -46c19 -30 29 -74 31 -127c-3 -98 -36 -112 -116 -112c-40 0 -68 8 -86 24s-31 44 -37 85
c1 56 13 100 35 132z" />
    <glyph glyph-name="e" unicode="e" 
d="M578 276v52c-6 77 -29 134 -68 171h1c-39 37 -95 57 -169 60c-165 0 -263 -114 -269 -290c0 -86 26 -154 77 -204c52 -49 120 -75 205 -78c69 0 138 15 208 45l-2 158c-44 -23 -81 -37 -109 -39c-31 -3 -59 -4 -92 -4c-49 4 -94 15 -122 32c-21 15 -36 49 -40 97h380z
M464 386h-256c4 18 16 37 35 56v-1c24 25 57 38 99 38c36 0 65 -13 86 -38c15 -18 29 -38 36 -55z" />
    <glyph glyph-name="f" unicode="f" horiz-adv-x="485" 
d="M407 726l-91 10c-45 0 -83 -12 -114 -38c-33 -26 -48 -71 -49 -133l-3 -18h-77v-120h75l-13 -427h158c-2 68 -5 140 -7 213s-4 146 -7 214h133v120h-135c0 3 0 6 -1 9v5c-1 2 -1 3 -1 5c-1 2 -1 5 -1 8c0 27 2 43 8 48c4 5 18 8 31 8l94 -11v107z" />
    <glyph glyph-name="g" unicode="g" horiz-adv-x="648" 
d="M409 284c0 -105 -47 -112 -131 -112c-41 0 -71 6 -88 16c-14 12 -25 45 -30 98c0 28 3 52 8 74c11 43 39 98 116 98c40 0 71 -16 92 -45c21 -30 33 -74 33 -129zM575 547h-119c0 -6 -1 -14 -2 -22s-2 -17 -3 -25c-37 41 -86 59 -151 59c-137 0 -227 -114 -227 -280
c0 -165 90 -279 227 -279c41 0 76 8 106 24c10 6 18 12 26 17c-9 -18 -19 -36 -35 -54c-22 -25 -59 -39 -107 -39c-47 0 -100 15 -165 51v-193c60 -21 117 -32 178 -32c85 0 149 23 191 70c41 44 63 128 67 237z" />
    <glyph glyph-name="h" unicode="h" horiz-adv-x="630" 
d="M547 327v-1c0 154 -67 233 -196 233c-60 0 -107 -17 -146 -57l8 244h-121l-19 -746h140c-1 48 -3 101 -5 153c-1 53 -3 106 -4 154c0 90 49 152 128 152c63 0 95 -50 95 -135l-10 -324h140z" />
    <glyph glyph-name="i" unicode="i" horiz-adv-x="269" 
d="M74 0h120l-4 547h-111zM73 603h122l-6 143h-110z" />
    <glyph glyph-name="j" unicode="j" horiz-adv-x="427" 
d="M219 545l-23 -483c-1 -21 -2 -38 -4 -51c-3 -13 -6 -22 -10 -27c-9 -9 -27 -15 -54 -16h-52l-3 -162l65 -1c60 2 104 19 133 50c27 30 42 81 44 150l19 538zM232 603h122l-6 143h-110z" />
    <glyph glyph-name="k" unicode="k" horiz-adv-x="677" 
d="M73 0h150l-12 204l166 -204h227c-22 22 -46 45 -72 70l-78 75c-27 25 -53 51 -79 76c-25 25 -50 48 -73 71l206 255h-154l-146 -171l5 370h-121z" />
    <glyph glyph-name="l" unicode="l" horiz-adv-x="329" 
d="M73 0h182v140h-56v606h-116z" />
    <glyph glyph-name="m" unicode="m" horiz-adv-x="947" 
d="M458 528c-31 20 -68 31 -109 31c-57 0 -101 -16 -138 -49l3 37h-122l-19 -547h149c-1 48 -3 101 -5 153c-2 53 -3 106 -5 154c0 45 13 84 37 115c23 31 53 46 90 46c60 0 87 -40 88 -124l-34 -344h154l5 306c0 93 44 157 118 157c57 0 74 -35 74 -125l-25 -338h155
c-1 51 -3 107 -5 164c-2 56 -3 111 -5 163v-1c0 74 -16 133 -48 173c-31 39 -77 60 -136 60c-88 0 -131 -37 -167 -90c-13 24 -32 44 -55 59z" />
    <glyph glyph-name="n" unicode="n" horiz-adv-x="644" 
d="M570 0l-14 327c-8 149 -74 232 -202 232c-39 0 -73 -9 -103 -25c-15 -9 -29 -17 -43 -26v43h-120l-15 -551h154l-15 312c0 90 41 143 133 143c62 0 86 -42 86 -126l-19 -329h158z" />
    <glyph glyph-name="o" unicode="o" 
d="M326 461c76 0 127 -64 127 -173c0 -53 -11 -85 -31 -99c-23 -13 -56 -21 -96 -21c-84 0 -128 14 -128 120c0 109 50 173 128 173zM326 559c-80 0 -142 -26 -186 -77c-45 -51 -67 -121 -67 -209s22 -158 67 -209c44 -51 106 -77 186 -77c156 0 252 110 252 286
s-96 286 -252 286z" />
    <glyph glyph-name="p" unicode="p" horiz-adv-x="649" 
d="M194 -194l8 236c37 -37 86 -55 147 -55c134 0 227 117 227 286c0 168 -93 286 -227 286c-57 0 -102 -16 -138 -47l3 35h-122l-12 -488l-31 -253h145zM486 288c0 -112 -39 -127 -120 -127s-129 16 -129 127c0 57 12 102 34 134v-1c23 31 53 46 90 46c38 0 68 -15 90 -46
c23 -31 35 -75 35 -133z" />
    <glyph glyph-name="q" unicode="q" horiz-adv-x="754" 
d="M165 285c0 58 12 102 35 134h-1c23 30 53 45 91 45c37 0 67 -15 90 -45c23 -33 35 -77 35 -134c0 -55 -11 -89 -32 -101c-23 -14 -55 -21 -96 -21c-80 0 -122 12 -122 122zM598 -62l-45 65c-2 3 -4 31 -4 38l26 506h-118c-2 -13 -4 -30 -6 -47c-37 41 -86 59 -151 59
c-136 0 -227 -117 -227 -286s91 -286 227 -286c62 0 107 14 144 52l-8 -233h104c11 0 21 1 51 9l90 24c-27 14 -57 62 -83 99z" />
    <glyph glyph-name="r" unicode="r" horiz-adv-x="478" 
d="M405 409l-1 133c-29 6 -43 8 -55 8c-44 0 -81 -9 -113 -28v1c-5 -3 -9 -6 -14 -9c-5 -2 -10 -5 -14 -8v36h-110l-25 -542h145l-10 274c0 50 10 90 29 120c17 26 46 40 87 40c11 0 22 0 34 -3c12 -4 26 -10 47 -22z" />
    <glyph glyph-name="s" unicode="s" horiz-adv-x="573" 
d="M473 414v112c-57 23 -117 33 -181 33c-139 0 -215 -59 -215 -168c0 -91 52 -131 162 -153h-1l30 -7c47 -10 73 -18 79 -23c7 -8 13 -19 21 -32c0 -15 -9 -27 -24 -34c-15 -8 -39 -12 -72 -12c-55 0 -122 20 -199 60v-166c76 -25 142 -37 198 -37c139 0 229 65 229 172
c0 47 -16 84 -44 109c-27 23 -73 43 -136 56c-4 0 -9 1 -13 3l-15 3c-41 9 -71 20 -84 30c-12 10 -18 23 -18 39c0 39 39 62 111 62c52 0 109 -16 172 -47z" />
    <glyph glyph-name="t" unicode="t" horiz-adv-x="501" 
d="M140 673l-5 -126h-62v-102h62l-5 -258c0 -139 55 -187 194 -187h104v161h-104c-30 0 -49 5 -56 13c-9 8 -13 30 -13 67l5 204h118v102h-117l4 126h-125z" />
    <glyph glyph-name="u" unicode="u" horiz-adv-x="615" 
d="M73 547v-327c0 -153 68 -233 198 -233c57 0 104 18 142 55l-2 -42h121l10 547h-134l-5 -234c-4 -44 -15 -82 -37 -107c-21 -25 -52 -37 -92 -37c-62 0 -89 44 -94 128v250h-107z" />
    <glyph glyph-name="v" unicode="v" horiz-adv-x="696" 
d="M273 0h150l200 547h-128c-23 -56 -48 -113 -73 -172c-26 -59 -50 -117 -74 -173l-147 345h-128z" />
    <glyph glyph-name="w" unicode="w" horiz-adv-x="879" 
d="M216 0h139l84 201l80 -201h144l143 547h-121c-16 -52 -32 -107 -48 -162s-32 -110 -48 -164l-79 157h-140l-79 -157l-96 326h-122z" />
    <glyph glyph-name="x" unicode="x" horiz-adv-x="738" 
d="M641 547h-128c-23 -32 -47 -64 -72 -97c-25 -34 -49 -67 -72 -98l-131 195h-133l187 -283l-219 -264h184l116 164l108 -164h184c-16 19 -33 40 -51 62s-37 44 -56 67c-19 22 -37 45 -56 67s-36 43 -52 63z" />
    <glyph glyph-name="y" unicode="y" horiz-adv-x="698" 
d="M625 547h-127l-129 -277l-169 277h-127c18 -39 37 -78 56 -119c38 -82 77 -166 115 -248c19 -41 38 -80 56 -119c-6 -11 -11 -22 -16 -32c-6 -10 -12 -21 -17 -32c-13 -18 -26 -31 -38 -41c-9 -7 -23 -12 -41 -12h-77v-147h94c84 0 134 28 195 167z" />
    <glyph glyph-name="z" unicode="z" horiz-adv-x="597" 
d="M94 448h279l-300 -301v-147h446v149h-261l266 296v102h-430v-99z" />
    <glyph glyph-name="braceleft" unicode="{" horiz-adv-x="552" 
d="M464 -29h-48c-38 1 -61 7 -68 16c-10 10 -14 29 -16 55l1 112c-2 45 -10 79 -23 103c-8 15 -19 27 -34 36c16 9 28 20 37 34c16 25 25 63 26 113l2 114v-1c2 77 4 80 87 85h49l2 101l-48 1c-160 -4 -209 -38 -211 -183l-2 -109c-1 -40 -8 -67 -20 -79
c-13 -12 -40 -19 -79 -21h-45l-1 -101h10h13c4 -1 8 -1 13 -1h10c75 -2 89 -22 93 -106l-1 -108c2 -71 18 -121 43 -148c29 -25 84 -41 163 -42l46 -1z" />
    <glyph glyph-name="bar" unicode="|" horiz-adv-x="303" 
d="M211 276h-113l-25 -496h124zM210 289l20 461h-114l-20 -461h114z" />
    <glyph glyph-name="braceright" unicode="}" horiz-adv-x="543" 
d="M73 -152h47c81 0 136 12 164 38h-1c30 26 45 75 45 148v109c0 83 20 104 96 104h46v101h-46c-38 0 -63 7 -76 21v-1c-14 14 -20 42 -20 82v110c0 72 -15 121 -45 148h1c-29 25 -83 38 -164 38h-47v-102h51c73 0 84 -10 84 -86v-113c0 -51 7 -90 23 -114
c9 -14 20 -25 36 -34c-16 -9 -27 -21 -36 -34c-16 -25 -23 -61 -23 -109v-113c0 -77 -10 -86 -84 -86h-51v-107z" />
    <glyph glyph-name="asciitilde" unicode="~" horiz-adv-x="767" 
d="M694 310v119c-80 -65 -134 -93 -182 -93c-27 0 -61 9 -106 26c-1 1 -3 2 -5 3c-2 0 -4 1 -5 1l-7 3c-48 19 -89 29 -124 29c-31 0 -61 -6 -92 -18s-64 -31 -100 -59v-143c14 12 36 30 58 48c21 17 42 34 55 44c23 17 45 25 68 25c26 0 62 -12 107 -37l10 -3l6 -2
c47 -28 88 -43 125 -43c33 0 64 11 95 31v-1c13 9 29 20 47 32c17 12 34 25 50 38z" />
    <glyph glyph-name="uni00A0" unicode="&#xa0;" horiz-adv-x="856" 
 />
    <glyph glyph-name="exclamdown" unicode="&#xa1;" horiz-adv-x="304" 
d="M226 717h-148v-161h148v161zM226 317l-11 181h-126l-11 -181l-5 -317h157z" />
    <glyph glyph-name="cent" unicode="&#xa2;" horiz-adv-x="591" 
d="M308 456l-7 -324c-29 8 -54 21 -72 42h1c-21 24 -31 60 -31 97c2 49 12 91 31 123c20 31 45 52 78 62zM517 406l1 107c-43 21 -84 33 -125 38l2 133l-83 1c-1 -20 -1 -42 -1 -65c-1 -23 -1 -46 -2 -67c-72 -9 -126 -35 -167 -82c-44 -49 -67 -114 -69 -198
c-1 -83 20 -149 62 -200c40 -48 95 -76 164 -86l-2 -134h83c0 20 1 42 1 64c1 23 1 45 1 66c43 6 85 17 128 35l3 156c-51 -25 -92 -41 -128 -47l6 331c32 -4 71 -21 126 -52z" />
    <glyph glyph-name="sterling" unicode="&#xa3;" horiz-adv-x="646" 
d="M569 562l3 126c-57 22 -111 35 -151 36c-76 -2 -132 -22 -169 -61c-36 -38 -56 -99 -58 -183l-3 -90l-90 1l-2 -93l90 -1c-1 -31 -1 -57 -2 -82c-1 -26 -2 -51 -2 -80l-108 2l-4 -137l490 -8l3 136l-254 5c1 30 2 56 3 82s1 51 2 80l178 -4l2 93c-27 0 -57 1 -88 2
c-31 0 -62 1 -90 1l2 80c4 121 28 142 108 147c33 -1 80 -19 140 -52z" />
    <glyph glyph-name="currency" unicode="&#xa4;" horiz-adv-x="707" 
d="M557 591l-98 -97c-35 19 -70 29 -105 29c-37 0 -72 -10 -105 -30l-97 97l-78 -78c8 -7 15 -14 23 -23l25 -25l25 -25s16 -17 24 -24c-20 -33 -30 -67 -30 -104c0 -34 10 -69 29 -106l-97 -97l77 -78l98 97c35 -19 70 -29 106 -29c35 0 70 9 105 30l97 -96l77 76l-97 98
c21 34 30 65 30 105c0 36 -10 72 -29 106l97 97zM458 311c0 -29 -10 -54 -31 -75h1c-20 -20 -45 -29 -74 -29c-30 0 -55 10 -75 30v-1c-20 20 -30 45 -30 75c0 59 47 103 105 103c59 0 104 -44 104 -103z" />
    <glyph glyph-name="yen" unicode="&#xa5;" horiz-adv-x="734" 
d="M625 300h-190l31 57h159v93h-109l145 267h-138c-25 -49 -51 -98 -77 -149c-27 -50 -53 -100 -79 -150l-157 299h-137l141 -267h-109v-93h160c7 -10 13 -20 20 -28c6 -9 12 -19 19 -29h-190v-111h188l-13 -189h157c0 14 -1 29 -2 45c-1 17 -2 33 -2 49c-1 16 -2 32 -3 49
c-1 16 -2 31 -2 46h188v111z" />
    <glyph glyph-name="brokenbar" unicode="&#xa6;" horiz-adv-x="260" 
d="M73 222v-382h114v382h-114zM73 689v-382h114v382h-114z" />
    <glyph glyph-name="section" unicode="&#xa7;" horiz-adv-x="564" 
d="M213 440l11 -6l9 7zM354 351c18 -17 27 -34 27 -52c0 -20 -14 -41 -41 -62c-71 40 -111 66 -131 84c-17 17 -26 34 -26 52c0 20 14 40 41 61c68 -37 110 -64 130 -83zM445 581v116c-59 22 -112 32 -157 32c-54 0 -98 -14 -133 -41s-52 -63 -52 -109c0 -38 15 -72 41 -100
c-45 -31 -71 -79 -71 -131c0 -73 31 -113 165 -187l12 -7c61 -34 91 -60 91 -77c0 -33 -29 -41 -80 -41c-32 0 -83 15 -152 46v-140c64 -21 116 -31 162 -31c114 0 190 63 190 160c0 37 -13 69 -42 99c48 34 72 78 72 132c0 35 -12 66 -34 93c-21 25 -65 56 -131 94l-18 10
c-56 32 -84 58 -84 78c0 31 26 50 75 50c31 0 80 -15 146 -46z" />
    <glyph glyph-name="dieresis" unicode="&#xa8;" horiz-adv-x="473" 
d="M264 615h136v135h-136v-135zM73 615h136v135h-136v-135z" />
    <glyph glyph-name="copyright" unicode="&#xa9;" horiz-adv-x="858" 
d="M429 713c-196 0 -356 -160 -356 -357c0 -98 35 -181 105 -251s153 -105 251 -105c195 0 356 161 356 356c0 197 -161 357 -356 357zM429 630c75 0 140 -27 194 -80c53 -54 79 -118 79 -194c0 -74 -25 -136 -78 -177l1 1c-54 -37 -119 -60 -196 -60c-76 0 -140 23 -196 60
l3 -2c-53 49 -81 105 -81 178c0 74 28 140 81 194c54 53 118 80 193 80zM583 461v88c-48 20 -96 31 -143 31c-142 0 -231 -87 -231 -224s91 -224 231 -224c45 0 93 9 143 32v127c-56 -29 -97 -41 -132 -41c-84 0 -131 55 -131 106c0 43 12 79 34 106c21 26 53 40 92 40
c37 0 81 -13 137 -41z" />
    <glyph glyph-name="ordfeminine" unicode="&#xaa;" horiz-adv-x="507" 
d="M84 214h350v92h-350v-92zM433 327v222c0 122 -58 180 -183 180c-44 0 -94 -10 -149 -31v-100c57 27 104 42 139 42c51 0 80 -16 87 -48h-63c-127 0 -191 -48 -191 -143c0 -79 59 -131 146 -131c44 0 80 11 110 34v-25h104zM342 533l-18 18v-13v-5h18zM299 465
c-16 -18 -37 -27 -63 -27c-39 0 -64 19 -64 46c0 17 6 29 19 36c17 9 47 13 94 13h39c-1 -28 -9 -50 -25 -68z" />
    <glyph glyph-name="guillemotleft" unicode="&#xab;" horiz-adv-x="625" 
d="M297 313l-26 -70l239 -229l31 147c-20 19 -41 38 -62 59c-22 21 -43 41 -63 60l131 110l5 136zM99 320l-26 -70l240 -229l30 146c-39 39 -84 82 -125 121l132 109l4 136z" />
    <glyph glyph-name="logicalnot" unicode="&#xac;" horiz-adv-x="782" 
d="M73 429v-123c82 1 166 3 253 5c86 1 170 3 253 4l-23 -184h152l-15 298h-620z" />
    <glyph glyph-name="registered" unicode="&#xae;" horiz-adv-x="858" 
d="M429 630c73 0 142 -28 194 -74c49 -49 79 -110 79 -178c0 -138 -122 -251 -273 -251c-150 0 -274 115 -274 251c0 137 124 252 274 252zM429 713c-196 0 -356 -160 -356 -357c0 -98 35 -181 105 -251s153 -105 251 -105c195 0 356 161 356 356c0 197 -161 357 -356 357z
M402 511h37c54 0 72 -12 72 -45s-12 -45 -72 -45h-37v90zM272 571v-417h130v162h7c1 0 2 -1 3 -2s3 -1 4 -2c1 -2 3 -3 5 -4c10 -7 23 -23 39 -50l64 -104h121l-79 130c-15 23 -28 41 -40 54c46 19 72 55 72 106c0 86 -57 127 -178 127h-148z" />
    <glyph glyph-name="macron" unicode="&#xaf;" horiz-adv-x="455" 
d="M73 628h309v104h-309v-104z" />
    <glyph glyph-name="degree" unicode="&#xb0;" horiz-adv-x="472" 
d="M236 657c39 0 68 -30 68 -61c0 -34 -30 -60 -68 -60c-39 0 -69 26 -69 60c0 33 31 61 69 61zM236 729c-47 0 -85 -16 -116 -48c-31 -31 -47 -70 -47 -116c0 -92 70 -162 162 -162c46 0 84 16 116 47c31 31 47 70 47 115c0 46 -15 85 -47 116l1 -1c-30 31 -72 49 -116 49z
" />
    <glyph glyph-name="plusminus" unicode="&#xb1;" horiz-adv-x="767" 
d="M327 622v-177h-254v-113h254v-177h113v177h254v113h-254v177h-113zM73 0h621v123h-621v-123z" />
    <glyph glyph-name="twosuperior" unicode="&#xb2;" horiz-adv-x="456" 
d="M382 393h-162c2 2 3 2 3 3h1c104 90 156 158 156 206c0 78 -68 127 -164 127c-36 0 -83 -10 -140 -30v-99c58 29 102 43 131 43c41 0 67 -19 67 -49c0 -23 -50 -78 -150 -168l-51 -45v-77h309v89z" />
    <glyph glyph-name="threesuperior" unicode="&#xb3;" horiz-adv-x="465" 
d="M382 612c0 35 -17 66 -47 87c-28 19 -67 30 -114 30c-35 0 -80 -6 -135 -20v-90c32 9 57 15 76 19s33 5 44 5c46 0 71 -13 71 -36c0 -25 -24 -38 -69 -38h-61v-86h57c55 0 82 -16 82 -49c0 -32 -31 -50 -86 -50c-39 0 -81 12 -127 36v-99c53 -16 97 -24 133 -24
c121 0 186 49 186 137c0 43 -20 75 -56 96c30 19 46 47 46 82z" />
    <glyph glyph-name="acute" unicode="&#xb4;" horiz-adv-x="465" 
d="M73 556h122l197 227h-149z" />
    <glyph glyph-name="mu" unicode="&#xb5;" horiz-adv-x="697" 
d="M83 -194h120c0 34 -1 69 -2 107c0 37 -1 74 -2 110c28 -24 65 -36 112 -36c50 0 95 21 127 51c15 -34 42 -51 82 -51c15 0 32 6 51 19c4 3 9 6 14 9s10 6 15 8c4 3 9 6 13 9c5 2 8 4 11 6v106c-14 -7 -25 -11 -33 -15c-8 -3 -13 -5 -15 -5c-23 1 -34 5 -34 12l4 411h-120
l-5 -220c0 -90 -39 -135 -117 -135c-71 0 -106 38 -106 115l-5 245l-120 -6z" />
    <glyph glyph-name="paragraph" unicode="&#xb6;" horiz-adv-x="702" 
d="M523 717h-215c-140 0 -235 -84 -235 -211c0 -62 20 -110 59 -147c34 -31 64 -50 95 -60l-32 -389h185v715h50l-5 -715h204z" />
    <glyph glyph-name="periodcentered" unicode="&#xb7;" horiz-adv-x="279" 
d="M73 266h133v152h-133v-152z" />
    <glyph glyph-name="cedilla" unicode="&#xb8;" horiz-adv-x="372" 
d="M239 37h-99c20 -27 34 -48 44 -64c9 -16 14 -29 14 -36c0 -16 -12 -24 -36 -24c-25 0 -52 7 -89 26v-104c37 -10 69 -15 98 -15c84 0 127 34 127 100c0 35 -19 70 -59 117z" />
    <glyph glyph-name="onesuperior" unicode="&#xb9;" horiz-adv-x="443" 
d="M82 304h288v87h-93v330h-81l-123 -20v-90c7 1 15 3 23 4c17 4 35 7 53 10c9 1 18 3 26 5v-239h-93v-87z" />
    <glyph glyph-name="ordmasculine" unicode="&#xba;" horiz-adv-x="535" 
d="M93 214h350v92h-350v-92zM268 729c-119 0 -195 -82 -195 -206c0 -123 76 -205 195 -205s194 80 194 205s-76 206 -194 206zM268 657c26 0 47 -8 63 -25c15 -17 23 -40 23 -71c0 -58 -33 -95 -86 -95c-26 0 -47 9 -63 25s-24 40 -24 70c0 62 34 96 87 96z" />
    <glyph glyph-name="guillemotright" unicode="&#xbb;" horiz-adv-x="620" 
d="M87 418l122 -121l-136 -109l18 -148l259 208l-20 71l-236 234zM284 407l123 -120l-136 -109l17 -149l259 208l-20 72l-236 234z" />
    <glyph glyph-name="onequarter" unicode="&#xbc;" horiz-adv-x="987" 
d="M82 304h288v87h-93v330h-81l-123 -20v-90c7 1 15 3 23 4c17 4 35 7 53 10c9 1 18 3 26 5v-239h-93v-87zM352 -13h115l447 742h-116zM709 149h-86l86 118v-118zM521 143v-80h188v-84h103v84h61v86h-61v247h-104z" />
    <glyph glyph-name="onehalf" unicode="&#xbd;" horiz-adv-x="984" 
d="M82 304h288v87h-93v330h-81l-123 -20v-90c7 1 15 3 23 4c17 4 35 7 53 10c9 1 18 3 26 5v-239h-93v-87zM225 -13h115l447 742h-116zM911 67h-162c1 2 2 2 3 3v1c104 89 157 158 157 205c0 78 -68 127 -164 127c-37 0 -83 -10 -140 -30v-99c58 29 102 43 130 43
c41 0 68 -19 68 -48c0 -23 -50 -79 -151 -168l-50 -46v-76h309v88z" />
    <glyph glyph-name="threequarters" unicode="&#xbe;" horiz-adv-x="924" 
d="M382 612c0 35 -17 66 -47 87c-28 19 -67 30 -114 30c-35 0 -80 -6 -135 -20v-90c32 9 57 15 76 19s33 5 44 5c46 0 71 -13 71 -36c0 -25 -24 -38 -69 -38h-61v-86h57c55 0 82 -16 82 -49c0 -32 -31 -50 -86 -50c-39 0 -81 12 -127 36v-99c53 -16 97 -24 133 -24
c121 0 186 49 186 137c0 43 -20 75 -56 96c30 19 46 47 46 82zM203 -13h115l447 742h-116zM687 149h-86l86 118v-118zM499 143v-80h188v-84h103v84h61v86h-61v247h-103z" />
    <glyph glyph-name="questiondown" unicode="&#xbf;" horiz-adv-x="546" 
d="M236 534v-74c0 -16 -1 -27 -1 -36c-2 -16 -4 -27 -14 -39v1c-5 -8 -14 -18 -28 -32l-40 -39c-28 -27 -48 -52 -61 -75c-12 -24 -19 -48 -19 -74c0 -107 83 -179 204 -179c67 0 129 19 196 59v159c-75 -52 -136 -80 -180 -80c-28 0 -51 7 -67 21c-16 13 -24 30 -24 52
c0 25 13 47 44 76l42 40c45 50 57 64 57 131v89h-109zM362 717h-129v-153h129v153z" />
    <glyph glyph-name="Agrave" unicode="&#xc0;" horiz-adv-x="835" 
d="M520 260h-204c9 27 18 53 26 79c9 26 17 51 26 76c8 24 16 49 24 74s17 50 25 76zM73 0h167l35 113h284l26 -113h177l-288 729h-113zM209 914l136 -157h114l-116 157h-134z" />
    <glyph glyph-name="Aacute" unicode="&#xc1;" horiz-adv-x="835" 
d="M520 260h-204c9 27 18 53 26 79c9 26 17 51 26 76c8 24 16 49 24 74s17 50 25 76zM73 0h167l35 113h284l26 -113h177l-288 729h-113zM350 757h114l136 157h-134z" />
    <glyph glyph-name="Acircumflex" unicode="&#xc2;" horiz-adv-x="835" 
d="M520 260h-204c9 27 18 53 26 79c9 26 17 51 26 76c8 24 16 49 24 74s17 50 25 76zM73 0h167l35 113h284l26 -113h177l-288 729h-113zM237 757h109c10 12 22 24 33 36c12 13 23 25 35 37l68 -73h109l-126 158h-103z" />
    <glyph glyph-name="Atilde" unicode="&#xc3;" horiz-adv-x="835" 
d="M520 260h-204c9 27 18 53 26 79c9 26 17 51 26 76c8 24 16 49 24 74s17 50 25 76zM73 0h167l35 113h284l26 -113h177l-288 729h-113zM380 809l27 -16c17 -8 31 -14 41 -17s21 -4 34 -4c31 0 57 13 75 37s28 58 29 99h-93v-21c0 -14 -6 -24 -15 -24c-5 0 -14 3 -24 10
l-26 13c-16 10 -28 14 -40 18c-12 3 -22 4 -35 4c-31 0 -58 -13 -76 -36c-18 -24 -28 -59 -28 -100h93v21c0 16 6 25 17 25c3 0 10 -3 21 -9z" />
    <glyph glyph-name="Adieresis" unicode="&#xc4;" horiz-adv-x="835" 
d="M520 260h-204c9 27 18 53 26 79c9 26 17 51 26 76c8 24 16 49 24 74s17 50 25 76zM73 0h167l35 113h284l26 -113h177l-288 729h-113zM437 772h128v129h-128v-129zM258 772h130v129h-130v-129z" />
    <glyph glyph-name="Aring" unicode="&#xc5;" horiz-adv-x="834" 
d="M469 772c0 -29 -22 -51 -52 -51c-29 0 -51 22 -51 51c0 30 22 52 51 52c28 0 52 -25 52 -52zM517 292h-199c9 25 17 48 26 71c8 23 16 45 25 67c16 44 32 87 49 133zM73 0h139l63 178h286l63 -178h137l-251 659c35 29 53 68 53 113c0 41 -14 75 -42 103
c-28 29 -63 43 -104 43c-81 0 -145 -64 -145 -146c0 -46 18 -84 54 -112z" />
    <glyph glyph-name="AE" unicode="&#xc6;" horiz-adv-x="1053" 
d="M378 729l-305 -729h221l-5 122h208v-122h483v158h-353v92h330v117h-330v246h344v116h-593zM497 619v-382h-168l140 382h28z" />
    <glyph glyph-name="Ccedilla" unicode="&#xc7;" horiz-adv-x="741" 
d="M668 516v151c-73 50 -153 75 -238 75c-221 0 -357 -147 -357 -378c0 -232 136 -378 357 -378c86 0 164 26 238 76v215c-82 -75 -157 -111 -233 -111c-151 0 -224 49 -226 198c0 172 79 263 226 263c76 0 151 -36 233 -111zM439 37h-99c20 -27 35 -48 44 -64
c10 -16 14 -29 14 -36c0 -16 -12 -24 -36 -24c-25 0 -51 7 -89 26v-104c37 -10 69 -15 99 -15c84 0 127 34 127 100c0 35 -20 70 -60 117z" />
    <glyph glyph-name="Egrave" unicode="&#xc8;" horiz-adv-x="629" 
d="M73 0h483v181h-352v149h329v115h-329v168h344v116h-475v-729zM77 914l136 -157h114l-117 157h-133z" />
    <glyph glyph-name="Eacute" unicode="&#xc9;" horiz-adv-x="629" 
d="M73 0h483v181h-352v149h329v115h-329v168h344v116h-475v-729zM164 757h114l136 157h-134z" />
    <glyph glyph-name="Ecircumflex" unicode="&#xca;" horiz-adv-x="629" 
d="M73 0h483v181h-352v149h329v115h-329v168h344v116h-475v-729zM115 757h109c10 12 21 24 33 36c11 13 23 25 34 37l68 -73h109l-125 158h-103z" />
    <glyph glyph-name="Edieresis" unicode="&#xcb;" horiz-adv-x="629" 
d="M73 0h483v181h-352v149h329v115h-329v168h344v116h-475v-729zM329 772h129v129h-129v-129zM150 772h130v129h-130v-129z" />
    <glyph glyph-name="Igrave" unicode="&#xcc;" horiz-adv-x="428" 
d="M205 0h150l-9 729h-126zM73 914l136 -157h114l-116 157h-134z" />
    <glyph glyph-name="Iacute" unicode="&#xcd;" horiz-adv-x="400" 
d="M73 0h150l-9 729h-126zM77 757h115l135 157h-133z" />
    <glyph glyph-name="Icircumflex" unicode="&#xce;" horiz-adv-x="500" 
d="M177 0h150l-10 729h-125zM73 757h109c10 12 22 24 33 36c12 13 23 25 35 37l68 -73h109l-126 158h-103z" />
    <glyph glyph-name="Idieresis" unicode="&#xcf;" horiz-adv-x="454" 
d="M131 0h150l-9 729h-126zM251 772h129v129h-129v-129zM73 772h130v129h-130v-129z" />
    <glyph glyph-name="Eth" unicode="&#xd0;" horiz-adv-x="858" 
d="M167 428h-94v-104h94v-324h211c136 0 240 31 307 88c65 61 100 153 100 277c0 123 -35 216 -100 276c-66 57 -171 88 -307 88h-211v-301zM298 615h94c180 0 257 -76 257 -250c0 -176 -77 -200 -257 -200h-94v159h156v104h-156v187z" />
    <glyph glyph-name="Ntilde" unicode="&#xd1;" horiz-adv-x="717" 
d="M73 0h157c-4 83 -8 168 -12 256c-4 87 -8 173 -12 259l273 -515h165v729h-123l-13 -509l-270 495h-146zM298 809l27 -16c17 -8 30 -14 41 -17c10 -3 21 -4 34 -4c31 0 57 13 75 37s28 58 29 99h-93v-21c0 -14 -6 -24 -15 -24c-5 0 -14 3 -24 10l-26 13
c-16 10 -28 14 -40 18c-12 3 -22 4 -35 4c-31 0 -58 -13 -76 -36c-18 -24 -28 -59 -28 -100h93v21c0 16 6 25 17 25c3 0 10 -3 21 -9z" />
    <glyph glyph-name="Ograve" unicode="&#xd2;" horiz-adv-x="824" 
d="M413 628c123 0 202 -97 202 -264c0 -129 -73 -162 -202 -162c-65 0 -116 11 -153 33c-33 22 -51 64 -51 129c0 81 20 149 56 196c36 43 87 68 148 68zM413 742c-103 0 -186 -35 -248 -104c-61 -69 -92 -159 -92 -274c0 -114 31 -205 92 -274c62 -69 145 -104 248 -104
c102 0 184 35 246 104c61 69 92 160 92 274c0 115 -31 205 -92 274c-62 69 -144 104 -246 104zM224 914l136 -157h114l-116 157h-134z" />
    <glyph glyph-name="Oacute" unicode="&#xd3;" horiz-adv-x="824" 
d="M413 628c123 0 202 -97 202 -264c0 -129 -73 -162 -202 -162c-65 0 -116 11 -153 33c-33 22 -51 64 -51 129c0 81 20 149 56 196c36 43 87 68 148 68zM413 742c-103 0 -186 -35 -248 -104c-61 -69 -92 -159 -92 -274c0 -114 31 -205 92 -274c62 -69 145 -104 248 -104
c102 0 184 35 246 104c61 69 92 160 92 274c0 115 -31 205 -92 274c-62 69 -144 104 -246 104zM321 757h115l135 157h-133z" />
    <glyph glyph-name="Ocircumflex" unicode="&#xd4;" horiz-adv-x="824" 
d="M413 628c123 0 202 -97 202 -264c0 -129 -73 -162 -202 -162c-65 0 -116 11 -153 33c-33 22 -51 64 -51 129c0 81 20 149 56 196c36 43 87 68 148 68zM413 742c-103 0 -186 -35 -248 -104c-61 -69 -92 -159 -92 -274c0 -114 31 -205 92 -274c62 -69 145 -104 248 -104
c102 0 184 35 246 104c61 69 92 160 92 274c0 115 -31 205 -92 274c-62 69 -144 104 -246 104zM228 757h109c10 12 21 24 33 36c11 13 23 25 34 37l69 -73h109l-126 158h-103z" />
    <glyph glyph-name="Otilde" unicode="&#xd5;" horiz-adv-x="824" 
d="M413 628c123 0 202 -97 202 -264c0 -129 -73 -162 -202 -162c-65 0 -116 11 -153 33c-33 22 -51 64 -51 129c0 81 20 149 56 196c36 43 87 68 148 68zM413 742c-103 0 -186 -35 -248 -104c-61 -69 -92 -159 -92 -274c0 -114 31 -205 92 -274c62 -69 145 -104 248 -104
c102 0 184 35 246 104c61 69 92 160 92 274c0 115 -31 205 -92 274c-62 69 -144 104 -246 104zM371 809l26 -16c18 -8 31 -14 41 -17c11 -3 21 -4 35 -4c30 0 56 13 74 37s29 58 30 99h-94v-21c0 -14 -5 -24 -14 -24c-6 0 -14 3 -24 10l-27 13h1c-16 10 -28 14 -40 18
c-12 3 -22 4 -35 4c-31 0 -58 -13 -76 -36c-18 -24 -28 -59 -28 -100h93v21c0 16 5 25 17 25c3 0 10 -3 21 -9z" />
    <glyph glyph-name="Odieresis" unicode="&#xd6;" horiz-adv-x="824" 
d="M413 628c123 0 202 -97 202 -264c0 -129 -73 -162 -202 -162c-65 0 -116 11 -153 33c-33 22 -51 64 -51 129c0 81 20 149 56 196c36 43 87 68 148 68zM413 742c-103 0 -186 -35 -248 -104c-61 -69 -92 -159 -92 -274c0 -114 31 -205 92 -274c62 -69 145 -104 248 -104
c102 0 184 35 246 104c61 69 92 160 92 274c0 115 -31 205 -92 274c-62 69 -144 104 -246 104zM466 772h129v129h-129v-129zM288 772h129v129h-129v-129z" />
    <glyph glyph-name="multiply" unicode="&#xd7;" horiz-adv-x="701" 
d="M525 600l-177 -177l-164 164l-102 -104l163 -164l-172 -172l102 -103l173 173l173 -173l102 103l-172 172l177 178z" />
    <glyph glyph-name="Oslash" unicode="&#xd8;" horiz-adv-x="851" 
d="M330 178l277 323c6 -12 10 -23 13 -35c5 -17 8 -41 8 -72c-11 -80 -33 -141 -61 -170c-28 -28 -77 -47 -139 -56c-28 0 -51 0 -69 1c-9 1 -19 3 -29 9zM549 587l-290 -337c-13 15 -22 31 -32 50c-12 24 -19 51 -19 82c0 82 21 149 56 196c36 43 88 68 147 69
c36 -3 66 -9 89 -19c19 -7 34 -22 49 -41zM73 25l76 -65l76 89c57 -43 123 -63 201 -63c103 0 184 35 246 104c61 68 92 160 92 274c0 96 -23 178 -68 243l81 95l-75 65l-76 -89c-55 42 -122 64 -200 64c-206 0 -339 -150 -339 -378c0 -96 23 -178 67 -243z" />
    <glyph glyph-name="Ugrave" unicode="&#xd9;" horiz-adv-x="723" 
d="M73 729l5 -451c2 -192 97 -292 284 -292s281 99 283 292l5 451h-131l-5 -374c-1 -69 -12 -119 -36 -149v1c-23 -28 -62 -42 -116 -42s-93 14 -116 42v-1c-24 30 -36 80 -37 149l-4 374h-132zM170 914l137 -157h113l-116 157h-134z" />
    <glyph glyph-name="Uacute" unicode="&#xda;" horiz-adv-x="713" 
d="M73 729v-451c0 -192 97 -292 284 -292s283 99 283 292v451h-131v-374c0 -69 -12 -119 -36 -149v1c-23 -28 -62 -42 -116 -42s-93 14 -116 42v-1c-24 30 -36 80 -36 149v374h-132zM282 757h114l136 157h-134z" />
    <glyph glyph-name="Ucircumflex" unicode="&#xdb;" horiz-adv-x="713" 
d="M73 729v-451c0 -192 97 -292 284 -292s283 99 283 292v451h-131v-374c0 -69 -12 -119 -36 -149v1c-23 -28 -62 -42 -116 -42s-93 14 -116 42v-1c-24 30 -36 80 -36 149v374h-132zM179 757h109c10 12 22 24 33 36c12 13 23 25 34 37l69 -73h109l-126 158h-103z" />
    <glyph glyph-name="Udieresis" unicode="&#xdc;" horiz-adv-x="713" 
d="M73 729v-451c0 -192 97 -292 284 -292s283 99 283 292v451h-131v-374c0 -69 -12 -119 -36 -149v1c-23 -28 -62 -42 -116 -42s-93 14 -116 42v-1c-24 30 -36 80 -36 149v374h-132zM393 772h129v129h-129v-129zM215 772h129v129h-129v-129z" />
    <glyph glyph-name="Yacute" unicode="&#xdd;" horiz-adv-x="791" 
d="M311 250v-250h164v250l242 479h-142l-179 -334l-181 334h-142zM311 757h114l136 157h-134z" />
    <glyph glyph-name="Thorn" unicode="&#xde;" horiz-adv-x="630" 
d="M73 0h131v157h99c169 0 254 76 254 225s-85 224 -254 224h-99v123h-131v-729zM204 493h99c76 0 118 -40 118 -111s-42 -111 -118 -111h-99v222z" />
    <glyph glyph-name="germandbls" unicode="&#xdf;" horiz-adv-x="672" 
d="M73 0h165c-4 85 -8 176 -12 267c-4 90 -8 180 -12 266c12 95 44 125 112 125c63 0 83 -6 121 -84c-104 -20 -142 -79 -142 -164c0 -32 8 -59 23 -82c13 -20 26 -40 44 -61l40 -27c29 -18 47 -32 54 -43c7 -9 10 -19 10 -28c0 -12 -7 -22 -22 -29s-37 -10 -67 -10
c-39 0 -85 11 -148 35v-151c54 -17 101 -27 142 -27c141 0 218 63 218 180c0 68 -22 106 -129 174l-26 17h1c-34 21 -48 40 -48 62c0 47 53 77 146 82c-2 161 -76 244 -215 244c-70 0 -126 -19 -166 -56s-60 -88 -60 -153z" />
    <glyph glyph-name="agrave" unicode="&#xe0;" horiz-adv-x="614" 
d="M374 261v-1c0 -97 -25 -109 -99 -109c-28 0 -52 3 -71 8c-12 4 -20 15 -24 31c1 25 8 42 24 53c17 12 54 18 112 18h58zM541 0v310c0 167 -79 249 -238 249c-57 0 -121 -14 -192 -41v-111c66 35 126 54 182 54c78 -6 123 -44 127 -102h-99c-166 0 -248 -65 -248 -192
c0 -54 17 -98 52 -131s80 -49 138 -49c68 0 118 19 157 55v-42h121zM148 971l115 -207h171l-156 207h-130z" />
    <glyph glyph-name="aacute" unicode="&#xe1;" horiz-adv-x="622" 
d="M150 662h122l197 227h-149zM374 261v-1c0 -97 -25 -109 -99 -109c-28 0 -52 3 -71 8c-12 4 -20 15 -24 31c1 25 8 42 24 53c17 12 54 18 112 18h58zM541 0v310c0 167 -79 249 -238 249c-57 0 -121 -14 -192 -41v-111c66 35 126 54 182 54c78 -6 123 -44 127 -102h-99
c-166 0 -248 -65 -248 -192c0 -54 17 -98 52 -131s80 -49 138 -49c68 0 118 19 157 55v-42h121z" />
    <glyph glyph-name="acircumflex" unicode="&#xe2;" horiz-adv-x="614" 
d="M132 615h107c11 15 23 32 35 49c13 17 25 34 37 50l73 -99h107l-136 208h-88zM374 261v-1c0 -97 -25 -109 -99 -109c-28 0 -52 3 -71 8c-12 4 -20 15 -24 31c1 25 8 42 24 53c17 12 54 18 112 18h58zM541 0v310c0 167 -79 249 -238 249c-57 0 -121 -14 -192 -41v-111
c66 35 126 54 182 54c78 -6 123 -44 127 -102h-99c-166 0 -248 -65 -248 -192c0 -54 17 -98 52 -131s80 -49 138 -49c68 0 118 19 157 55v-42h121z" />
    <glyph glyph-name="atilde" unicode="&#xe3;" horiz-adv-x="614" 
d="M270 654l26 -25c25 -24 46 -32 76 -32c67 0 105 59 107 165h-93c-1 -25 -3 -43 -5 -54c-2 -12 -7 -17 -12 -17c-3 0 -9 4 -19 13h1l-27 25c-27 23 -47 33 -75 33c-67 0 -106 -60 -108 -165h94c0 25 2 42 4 53c3 12 7 17 13 17c3 0 9 -4 18 -13zM374 261v-1
c0 -97 -25 -109 -99 -109c-28 0 -52 3 -71 8c-12 4 -20 15 -24 31c1 25 8 42 24 53c17 12 54 18 112 18h58zM541 0v310c0 167 -79 249 -238 249c-57 0 -121 -14 -192 -41v-111c66 35 126 54 182 54c78 -6 123 -44 127 -102h-99c-166 0 -248 -65 -248 -192
c0 -54 17 -98 52 -131s80 -49 138 -49c68 0 118 19 157 55v-42h121z" />
    <glyph glyph-name="adieresis" unicode="&#xe4;" horiz-adv-x="614" 
d="M374 261v-1c0 -97 -25 -109 -99 -109c-28 0 -52 3 -71 8c-12 4 -20 15 -24 31c1 25 8 42 24 53c17 12 54 18 112 18h58zM541 0v310c0 167 -79 249 -238 249c-57 0 -121 -14 -192 -41v-111c66 35 126 54 182 54c78 -6 123 -44 127 -102h-99c-166 0 -248 -65 -248 -192
c0 -54 17 -98 52 -131s80 -49 138 -49c68 0 118 19 157 55v-42h121zM352 700h136v135h-136v-135zM161 700h136v135h-136v-135z" />
    <glyph glyph-name="aring" unicode="&#xe5;" horiz-adv-x="614" 
d="M356 713c0 -29 -21 -51 -51 -51c-14 0 -27 5 -37 14c-9 10 -14 22 -14 37c0 29 22 50 51 50c30 0 51 -21 51 -50zM448 713c0 79 -64 143 -143 143s-143 -64 -143 -143c0 -80 64 -144 143 -144s143 64 143 144zM374 261v-1c0 -97 -25 -109 -99 -109c-28 0 -52 3 -71 8
c-12 4 -20 15 -24 31c1 25 8 42 24 53c17 12 54 18 112 18h58zM541 0v310c0 167 -79 249 -238 249c-57 0 -121 -14 -192 -41v-111c66 35 126 54 182 54c78 -6 123 -44 127 -102h-99c-166 0 -248 -65 -248 -192c0 -54 17 -98 52 -131s80 -49 138 -49c68 0 118 19 157 55v-42
h121z" />
    <glyph glyph-name="ae" unicode="&#xe6;" horiz-adv-x="994" 
d="M799 365l-257 -1c6 24 20 49 40 70c24 28 57 42 99 42c70 0 110 -66 118 -111zM303 559c-57 0 -121 -14 -192 -41v-102c66 36 127 54 183 54c40 0 72 -12 93 -36c18 -18 29 -34 32 -48h-98c-160 0 -248 -55 -248 -219c0 -113 75 -180 200 -180c84 0 151 33 198 95
c51 -68 122 -95 224 -95c34 0 68 6 102 17c16 6 34 13 53 20c18 8 36 15 51 21v163c-75 -41 -141 -60 -202 -60c-102 0 -147 60 -160 115h382v59c0 125 -93 237 -241 237c-78 0 -141 -25 -190 -73c-39 47 -105 73 -187 73zM439 284l-18 18v-15v-3h18zM384 173
c-24 -23 -57 -34 -99 -34c-56 0 -91 22 -91 59s10 60 29 69c24 11 68 17 132 17h66c-1 -52 -13 -88 -37 -111z" />
    <glyph glyph-name="ccedilla" unicode="&#xe7;" horiz-adv-x="587" 
d="M514 405v116c-57 25 -112 38 -166 38c-170 0 -275 -110 -275 -286c0 -172 106 -286 270 -286c59 0 114 13 171 39l-3 175c-39 -23 -69 -33 -90 -34h-72c-45 4 -88 14 -110 28c-19 14 -32 43 -36 80c1 113 51 181 149 181c45 0 100 -17 162 -51zM389 37h-99
c20 -27 34 -48 44 -64c9 -16 14 -29 14 -36c0 -16 -12 -24 -36 -24c-25 0 -52 7 -89 26v-104c37 -10 69 -15 98 -15c84 0 127 34 127 100c0 35 -19 70 -59 117z" />
    <glyph glyph-name="egrave" unicode="&#xe8;" 
d="M578 276v52c-6 77 -29 134 -68 171h1c-39 37 -95 57 -169 60c-165 0 -263 -114 -269 -290c0 -86 26 -154 77 -204c52 -49 120 -75 205 -78c69 0 138 15 208 45l-2 158c-44 -23 -81 -37 -109 -39c-31 -3 -59 -4 -92 -4c-49 4 -94 15 -122 32c-21 15 -36 49 -40 97h380z
M464 386h-256c4 18 16 37 35 56v-1c24 25 57 38 99 38c36 0 65 -13 86 -38c15 -18 29 -38 36 -55zM143 783l114 -207h172l-156 207h-130z" />
    <glyph glyph-name="eacute" unicode="&#xe9;" 
d="M578 276v52c-6 77 -29 134 -68 171h1c-39 37 -95 57 -169 60c-165 0 -263 -114 -269 -290c0 -86 26 -154 77 -204c52 -49 120 -75 205 -78c69 0 138 15 208 45l-2 158c-44 -23 -81 -37 -109 -39c-31 -3 -59 -4 -92 -4c-49 4 -94 15 -122 32c-21 15 -36 49 -40 97h380z
M464 386h-256c4 18 16 37 35 56v-1c24 25 57 38 99 38c36 0 65 -13 86 -38c15 -18 29 -38 36 -55zM221 556h122l197 227h-150z" />
    <glyph glyph-name="ecircumflex" unicode="&#xea;" 
d="M578 276v52c-6 77 -29 134 -68 171h1c-39 37 -95 57 -169 60c-165 0 -263 -114 -269 -290c0 -86 26 -154 77 -204c52 -49 120 -75 205 -78c69 0 138 15 208 45l-2 158c-44 -23 -81 -37 -109 -39c-31 -3 -59 -4 -92 -4c-49 4 -94 15 -122 32c-21 15 -36 49 -40 97h380z
M464 386h-256c4 18 16 37 35 56v-1c24 25 57 38 99 38c36 0 65 -13 86 -38c15 -18 29 -38 36 -55zM144 575h106c12 15 24 32 36 49s25 34 37 50l73 -99h106l-135 208h-88z" />
    <glyph glyph-name="edieresis" unicode="&#xeb;" 
d="M578 276v52c-6 77 -29 134 -68 171h1c-39 37 -95 57 -169 60c-165 0 -263 -114 -269 -290c0 -86 26 -154 77 -204c52 -49 120 -75 205 -78c69 0 138 15 208 45l-2 158c-44 -23 -81 -37 -109 -39c-31 -3 -59 -4 -92 -4c-49 4 -94 15 -122 32c-21 15 -36 49 -40 97h380z
M464 386h-256c4 18 16 37 35 56v-1c24 25 57 38 99 38c36 0 65 -13 86 -38c15 -18 29 -38 36 -55zM381 615h136v135h-136v-135zM190 615h136v135h-136v-135z" />
    <glyph glyph-name="igrave" unicode="&#xec;" horiz-adv-x="433" 
d="M216 0h120v547h-120v-547zM73 783l115 -207h171l-156 207h-130z" />
    <glyph glyph-name="iacute" unicode="&#xed;" horiz-adv-x="465" 
d="M84 0h121v547h-121v-547zM73 556h122l197 227h-149z" />
    <glyph glyph-name="icircumflex" unicode="&#xee;" horiz-adv-x="505" 
d="M210 0h121v547h-121v-547zM73 575h107c11 15 23 32 35 49c13 17 25 34 37 50l73 -99h107l-136 208h-88z" />
    <glyph glyph-name="idieresis" unicode="&#xef;" horiz-adv-x="473" 
d="M184 0h120v547h-120v-547zM264 615h136v135h-136v-135zM73 615h136v135h-136v-135z" />
    <glyph glyph-name="eth" unicode="&#xf0;" 
d="M416 418l-8 6c0 -1 1 -2 2 -2c0 -1 1 -2 1 -3zM453 263c0 -106 -51 -169 -127 -169c-78 0 -128 62 -128 169c0 54 13 96 38 126h-1c25 29 60 43 105 43c22 0 44 -4 71 -13c28 -37 42 -89 42 -156zM408 614l126 42l-27 79l-157 -53l-56 64h-152c5 -7 12 -14 19 -22
s15 -17 24 -26c8 -10 16 -19 24 -28c9 -9 16 -18 23 -26l-119 -40l27 -80c22 7 48 16 75 25c26 10 53 18 76 26l34 -38h-3h-3h1h-2c-146 0 -245 -113 -245 -274c0 -166 102 -276 253 -276c150 0 252 111 252 276c0 54 -9 105 -27 151c-18 45 -48 91 -87 136z" />
    <glyph glyph-name="ntilde" unicode="&#xf1;" horiz-adv-x="644" 
d="M570 0l-14 327c-8 149 -74 232 -202 232c-39 0 -73 -9 -103 -25c-15 -9 -29 -17 -43 -26v43h-120l-15 -551h154l-15 312c0 90 41 143 133 143c62 0 86 -42 86 -126l-19 -329h158zM242 654l26 -25c25 -24 46 -32 76 -32c67 0 105 59 107 165h-93c-1 -25 -3 -43 -5 -54
c-2 -12 -7 -17 -12 -17c-3 0 -9 4 -19 13h1l-27 25c-26 23 -46 33 -75 33c-67 0 -106 -60 -108 -165h94c0 25 2 42 4 53c3 12 7 17 13 17c3 0 9 -4 18 -13z" />
    <glyph glyph-name="ograve" unicode="&#xf2;" horiz-adv-x="656" 
d="M331 461c76 0 127 -64 127 -173c0 -53 -11 -85 -31 -99c-23 -13 -56 -21 -96 -21c-84 0 -128 14 -128 120c0 109 50 173 128 173zM331 559c-80 0 -142 -26 -186 -77c-45 -51 -67 -121 -67 -209s22 -158 67 -209c44 -51 106 -77 186 -77c156 0 252 110 252 286
s-96 286 -252 286zM73 783l115 -207h171l-156 207h-130z" />
    <glyph glyph-name="oacute" unicode="&#xf3;" 
d="M326 461c76 0 127 -64 127 -173c0 -53 -11 -85 -31 -99c-23 -13 -56 -21 -96 -21c-84 0 -128 14 -128 120c0 109 50 173 128 173zM326 559c-80 0 -142 -26 -186 -77c-45 -51 -67 -121 -67 -209s22 -158 67 -209c44 -51 106 -77 186 -77c156 0 252 110 252 286
s-96 286 -252 286zM249 556h122l196 227h-149z" />
    <glyph glyph-name="ocircumflex" unicode="&#xf4;" 
d="M326 461c76 0 127 -64 127 -173c0 -53 -11 -85 -31 -99c-23 -13 -56 -21 -96 -21c-84 0 -128 14 -128 120c0 109 50 173 128 173zM326 559c-80 0 -142 -26 -186 -77c-45 -51 -67 -121 -67 -209s22 -158 67 -209c44 -51 106 -77 186 -77c156 0 252 110 252 286
s-96 286 -252 286zM123 575h106c12 15 24 32 36 49s25 34 37 50l73 -99h106l-135 208h-88z" />
    <glyph glyph-name="otilde" unicode="&#xf5;" 
d="M326 461c76 0 127 -64 127 -173c0 -53 -11 -85 -31 -99c-23 -13 -56 -21 -96 -21c-84 0 -128 14 -128 120c0 109 50 173 128 173zM326 559c-80 0 -142 -26 -186 -77c-45 -51 -67 -121 -67 -209s22 -158 67 -209c44 -51 106 -77 186 -77c156 0 252 110 252 286
s-96 286 -252 286zM278 654l26 -25c26 -24 47 -32 76 -32c67 0 105 59 107 165h-93c0 -25 -2 -43 -5 -54c-2 -12 -7 -17 -12 -17c-3 0 -9 4 -19 13h1l-26 25c-27 23 -47 33 -76 33c-67 0 -106 -60 -108 -165h94c0 25 2 42 5 53c2 12 6 17 12 17c3 0 9 -4 18 -13z" />
    <glyph glyph-name="odieresis" unicode="&#xf6;" 
d="M326 461c76 0 127 -64 127 -173c0 -53 -11 -85 -31 -99c-23 -13 -56 -21 -96 -21c-84 0 -128 14 -128 120c0 109 50 173 128 173zM326 559c-80 0 -142 -26 -186 -77c-45 -51 -67 -121 -67 -209s22 -158 67 -209c44 -51 106 -77 186 -77c156 0 252 110 252 286
s-96 286 -252 286zM389 615h136v135h-136v-135zM198 615h136v135h-136v-135z" />
    <glyph glyph-name="divide" unicode="&#xf7;" horiz-adv-x="790" 
d="M310 405h171v172h-171v-172zM310 23h171v171h-171v-171zM73 231h644v137h-644v-137z" />
    <glyph glyph-name="oslash" unicode="&#xf8;" horiz-adv-x="702" 
d="M281 116l191 230c6 -21 7 -42 7 -73c0 -114 -51 -179 -127 -179c-30 0 -51 7 -71 22zM421 430l-191 -230c-4 18 -6 42 -6 67c0 60 12 106 35 139c22 29 54 46 93 46c27 0 49 -7 69 -22zM73 8l72 -58c4 5 9 11 15 17c10 13 22 27 33 41c6 6 11 13 16 19
c39 -27 86 -40 143 -40c157 0 252 111 252 286c0 71 -15 130 -44 179l69 85l-71 60c-4 -6 -9 -12 -15 -18c-5 -6 -11 -13 -16 -20c-12 -14 -24 -28 -33 -40c-41 27 -88 40 -142 40c-158 0 -253 -110 -253 -286c0 -73 13 -130 45 -179z" />
    <glyph glyph-name="ugrave" unicode="&#xf9;" horiz-adv-x="615" 
d="M73 547v-327c0 -153 68 -233 198 -233c57 0 104 18 142 55l-2 -42h121l10 547h-134l-5 -234c-4 -44 -15 -82 -37 -107c-21 -25 -52 -37 -92 -37c-62 0 -89 44 -94 128v250h-107zM76 783l114 -207h172l-156 207h-130z" />
    <glyph glyph-name="uacute" unicode="&#xfa;" horiz-adv-x="615" 
d="M73 547v-327c0 -153 68 -233 198 -233c57 0 104 18 142 55l-2 -42h121l10 547h-134l-5 -234c-4 -44 -15 -82 -37 -107c-21 -25 -52 -37 -92 -37c-62 0 -89 44 -94 128v250h-107zM207 556h122l197 227h-150z" />
    <glyph glyph-name="ucircumflex" unicode="&#xfb;" horiz-adv-x="615" 
d="M73 547v-327c0 -153 68 -233 198 -233c57 0 104 18 142 55l-2 -42h121l10 547h-134l-5 -234c-4 -44 -15 -82 -37 -107c-21 -25 -52 -37 -92 -37c-62 0 -89 44 -94 128v250h-107zM130 575h107c11 15 23 32 35 49c13 17 25 34 38 50l72 -99h107l-135 208h-88z" />
    <glyph glyph-name="udieresis" unicode="&#xfc;" horiz-adv-x="615" 
d="M73 547v-327c0 -153 68 -233 198 -233c57 0 104 18 142 55l-2 -42h121l10 547h-134l-5 -234c-4 -44 -15 -82 -37 -107c-21 -25 -52 -37 -92 -37c-62 0 -89 44 -94 128v250h-107zM348 615h135v135h-135v-135zM157 615h135v135h-135v-135z" />
    <glyph glyph-name="yacute" unicode="&#xfd;" horiz-adv-x="698" 
d="M625 547h-127l-129 -277l-169 277h-127c18 -39 37 -78 56 -119c38 -82 77 -166 115 -248c19 -41 38 -80 56 -119c-6 -11 -11 -22 -16 -32c-6 -10 -12 -21 -17 -32c-13 -18 -26 -31 -38 -41c-9 -7 -23 -12 -41 -12h-77v-147h94c84 0 134 28 195 167zM274 556h122l197 227
h-150z" />
    <glyph glyph-name="thorn" unicode="&#xfe;" horiz-adv-x="640" 
d="M194 -194v235c37 -38 84 -54 145 -54c135 0 227 117 227 286s-92 286 -227 286c-61 0 -108 -17 -145 -54v241h-121v-940h121zM443 273c0 -58 -12 -103 -35 -135c-21 -30 -51 -45 -90 -45c-38 0 -68 15 -90 46l1 -1c-23 32 -35 77 -35 135s12 102 35 134h-1
c23 31 53 46 90 46c76 0 125 -65 125 -180z" />
    <glyph glyph-name="ydieresis" unicode="&#xff;" horiz-adv-x="698" 
d="M625 547h-127l-129 -277l-169 277h-127c18 -39 37 -78 56 -119c38 -82 77 -166 115 -248c19 -41 38 -80 56 -119c-6 -11 -11 -22 -16 -32c-6 -10 -12 -21 -17 -32c-13 -18 -26 -31 -38 -41c-9 -7 -23 -12 -41 -12h-77v-147h94c84 0 134 28 195 167zM361 615h136v135h-136
v-135zM170 615h136v135h-136v-135z" />
    <glyph glyph-name="Cacute" unicode="&#x106;" horiz-adv-x="741" 
d="M668 516v151c-73 50 -153 75 -238 75c-221 0 -357 -147 -357 -378c0 -232 136 -378 357 -378c86 0 164 26 238 76v215c-82 -75 -157 -111 -233 -111c-151 0 -224 49 -226 198c0 172 79 263 226 263c76 0 151 -36 233 -111zM358 757h115l135 157h-133z" />
    <glyph glyph-name="cacute" unicode="&#x107;" horiz-adv-x="617" 
d="M514 405v116c-57 25 -112 38 -166 38c-170 0 -275 -110 -275 -286c0 -172 106 -286 270 -286c59 0 114 13 171 39l-3 175c-39 -23 -69 -33 -90 -34h-72c-45 4 -88 14 -110 28c-19 14 -32 43 -36 80c1 113 51 181 149 181c45 0 100 -17 162 -51zM225 556h122l197 227h-149
z" />
    <glyph glyph-name="Ccaron" unicode="&#x10c;" horiz-adv-x="741" 
d="M668 516v151c-73 50 -153 75 -238 75c-221 0 -357 -147 -357 -378c0 -232 136 -378 357 -378c86 0 164 26 238 76v215c-82 -75 -157 -111 -233 -111c-151 0 -224 49 -226 198c0 172 79 263 226 263c76 0 151 -36 233 -111zM408 757l126 158h-109c-10 -11 -22 -23 -33 -36
c-12 -13 -23 -25 -35 -37l-68 73h-109l125 -158h103z" />
    <glyph glyph-name="ccaron" unicode="&#x10d;" horiz-adv-x="587" 
d="M514 405v116c-57 25 -112 38 -166 38c-170 0 -275 -110 -275 -286c0 -172 106 -286 270 -286c59 0 114 13 171 39l-3 175c-39 -23 -69 -33 -90 -34h-72c-45 4 -88 14 -110 28c-19 14 -32 43 -36 80c1 113 51 181 149 181c45 0 100 -17 162 -51zM321 575l136 208h-107
c-23 -31 -49 -66 -73 -99l-72 99h-107l135 -208h88z" />
    <glyph glyph-name="dcroat" unicode="&#x111;" horiz-adv-x="709" 
d="M446 585v-80c-37 37 -85 54 -146 54c-135 0 -227 -117 -227 -286s92 -286 227 -286c61 0 109 16 146 54v-41h120v585h70v94h-70v67h-120v-67h-149v-94h149zM196 292c0 51 12 91 34 120c22 26 53 41 91 41c76 0 125 -57 125 -161c0 -101 -49 -159 -125 -159
c-38 0 -69 14 -91 40c-22 29 -34 69 -34 119z" />
    <glyph glyph-name="Gbreve" unicode="&#x11e;" horiz-adv-x="788" 
d="M571 248v-48c-10 -8 -24 -13 -42 -17h1c-25 -6 -52 -8 -85 -8c-81 0 -140 13 -178 40h1c-36 27 -55 82 -59 159c0 175 79 263 236 263c82 0 166 -37 252 -110v140c-78 49 -166 75 -260 75c-227 0 -364 -142 -364 -378c0 -117 32 -210 96 -278c65 -66 155 -100 268 -100
c104 0 196 29 278 87v312h-292v-137h148zM297 915h-88c8 -98 63 -147 163 -147c99 0 154 50 162 147h-88c-9 -34 -34 -51 -74 -51c-41 0 -67 18 -75 51z" />
    <glyph glyph-name="gbreve" unicode="&#x11f;" horiz-adv-x="648" 
d="M409 284c0 -105 -47 -112 -131 -112c-41 0 -71 6 -88 16c-14 12 -25 45 -30 98c0 28 3 52 8 74c11 43 39 98 116 98c40 0 71 -16 92 -45c21 -30 33 -74 33 -129zM575 547h-119c0 -6 -1 -14 -2 -22s-2 -17 -3 -25c-37 41 -86 59 -151 59c-137 0 -227 -114 -227 -280
c0 -165 90 -279 227 -279c41 0 76 8 106 24c10 6 18 12 26 17c-9 -18 -19 -36 -35 -54c-22 -25 -59 -39 -107 -39c-47 0 -100 15 -165 51v-193c60 -21 117 -32 178 -32c85 0 149 23 191 70c41 44 63 128 67 237zM222 769h-90c8 -111 62 -167 162 -167s155 56 163 167h-89
c-8 -46 -31 -68 -74 -68c-41 0 -65 23 -72 68z" />
    <glyph glyph-name="Idotaccent" unicode="&#x130;" horiz-adv-x="306" 
d="M83 0h149l-9 729h-125zM73 772h130v130h-130v-130z" />
    <glyph glyph-name="dotlessi" unicode="&#x131;" horiz-adv-x="267" 
d="M73 0h121v547h-121v-547z" />
    <glyph glyph-name="Lslash" unicode="&#x141;" horiz-adv-x="726" 
d="M185 368l-112 -78l57 -82l55 39v-247h468v116h-337v222l189 132l-58 82l-131 -92v269h-131v-361z" />
    <glyph glyph-name="lslash" unicode="&#x142;" horiz-adv-x="462" 
d="M170 403l-97 -69l54 -78l43 31v-287h121v372l98 69l-56 79l-42 -31v257h-121v-343z" />
    <glyph glyph-name="OE" unicode="&#x152;" horiz-adv-x="1085" 
d="M1003 729h-503c-141 0 -247 -32 -318 -93c-72 -61 -109 -152 -109 -271c0 -240 147 -365 427 -365h512v167h-353v195h339v116h-339v154h344v97zM529 167h-42c-93 0 -163 21 -210 62c-43 41 -68 87 -68 136c0 192 91 267 278 267h42v-465z" />
    <glyph glyph-name="oe" unicode="&#x153;" horiz-adv-x="1037" 
d="M837 401l-247 -1c8 13 19 26 34 40c24 23 58 35 99 35c36 0 65 -12 87 -36c14 -15 22 -26 27 -38zM964 304v59c0 70 -93 196 -242 196c-86 0 -154 -26 -205 -87c-43 58 -108 87 -191 87c-158 0 -253 -110 -253 -286c0 -88 22 -158 67 -209c45 -52 107 -77 186 -77
c43 0 80 6 112 20c31 14 57 36 81 68c52 -58 125 -88 218 -88c67 0 137 15 207 45v149c-74 -39 -142 -59 -202 -59c-52 0 -92 9 -120 28h1c-13 8 -22 25 -30 51c-7 25 -11 59 -14 103h385zM326 465c78 0 127 -62 127 -163c0 -103 -49 -163 -127 -163c-79 0 -128 58 -128 163
c0 103 49 163 128 163z" />
    <glyph glyph-name="Scedilla" unicode="&#x15e;" horiz-adv-x="670" 
d="M556 567v134c-81 27 -155 41 -222 41c-159 0 -261 -82 -261 -217c0 -115 66 -179 213 -207l57 -11c41 -9 76 -23 94 -38c16 -16 25 -30 25 -43c0 -15 -11 -30 -35 -47c-27 -19 -64 -29 -114 -29c-67 0 -145 27 -237 79v-193c89 -33 170 -50 237 -50c187 0 284 77 284 223
c0 124 -70 195 -220 224h1l-57 11c-48 9 -80 20 -96 34c-14 11 -21 30 -21 55c0 61 51 95 141 95c56 0 123 -20 211 -61zM251 37h-98c19 -27 34 -48 44 -64c9 -16 14 -29 14 -36c0 -16 -12 -24 -36 -24c-26 0 -52 7 -89 26v-104c37 -10 68 -15 98 -15c84 0 127 34 127 100
c0 35 -19 70 -60 117z" />
    <glyph glyph-name="scedilla" unicode="&#x15f;" horiz-adv-x="618" 
d="M518 414v112c-57 23 -117 33 -182 33c-138 0 -214 -59 -214 -168c0 -91 52 -131 162 -153h-1l30 -7c47 -10 73 -18 79 -23c7 -8 13 -19 21 -32c0 -15 -9 -27 -24 -34c-15 -8 -39 -12 -72 -12c-55 0 -122 20 -199 60v-166c76 -25 142 -37 198 -37c139 0 229 65 229 172
c0 47 -16 84 -44 109c-27 23 -73 43 -136 56c-4 0 -9 1 -13 3l-15 3c-41 9 -71 20 -85 30h1c-12 10 -18 23 -18 39c0 39 39 62 111 62c51 0 109 -16 172 -47zM239 37h-99c20 -27 34 -48 44 -64c9 -16 14 -29 14 -36c0 -16 -12 -24 -36 -24c-25 0 -52 7 -89 26v-104
c37 -10 69 -15 98 -15c84 0 127 34 127 100c0 35 -19 70 -59 117z" />
    <glyph glyph-name="Scaron" unicode="&#x160;" horiz-adv-x="678" 
d="M563 567v134c-81 27 -155 41 -221 41c-160 0 -261 -82 -261 -217c0 -115 65 -179 212 -207l58 -11c40 -9 76 -23 93 -38c16 -16 26 -30 26 -43c0 -15 -12 -30 -36 -47c-26 -19 -64 -29 -113 -29c-68 0 -146 27 -238 79v-193c89 -33 170 -50 238 -50c186 0 283 77 283 223
c0 124 -69 195 -219 224l-57 11c-47 9 -79 20 -96 34c-14 11 -21 30 -21 55c0 61 51 95 142 95c56 0 123 -20 210 -61zM301 757l126 158h-109c-10 -11 -22 -23 -33 -36c-12 -13 -23 -25 -35 -37l-68 73h-109l125 -158h103z" />
    <glyph glyph-name="scaron" unicode="&#x161;" horiz-adv-x="643" 
d="M542 414v112c-57 23 -117 33 -181 33c-138 0 -215 -59 -215 -168c0 -91 53 -131 162 -153l29 -7c47 -10 74 -18 79 -23c7 -8 14 -19 22 -32c-1 -15 -9 -27 -24 -34c-16 -8 -39 -12 -72 -12c-56 0 -122 20 -199 60v-166c75 -25 141 -37 197 -37c139 0 229 65 229 172
c0 47 -16 84 -44 109c-27 23 -73 43 -135 56c-5 0 -10 1 -14 3c-5 1 -10 2 -14 3c-41 9 -71 20 -85 30c-12 10 -18 23 -18 39c0 39 40 62 112 62c51 0 108 -16 171 -47zM345 575l135 208h-106c-23 -31 -49 -66 -73 -99l-72 99h-107l135 -208h88z" />
    <glyph glyph-name="Ydieresis" unicode="&#x178;" horiz-adv-x="791" 
d="M311 250v-250h164v250l242 479h-142l-179 -334l-181 334h-142zM441 772h129v129h-129v-129zM263 772h130v129h-130v-129z" />
    <glyph glyph-name="Zcaron" unicode="&#x17d;" horiz-adv-x="749" 
d="M84 613h403l-414 -455v-158h602v176h-425l415 456v97h-581v-116zM421 757l136 208h-107c-23 -31 -49 -66 -73 -99l-72 99h-107l135 -208h88z" />
    <glyph glyph-name="zcaron" unicode="&#x17e;" horiz-adv-x="690" 
d="M187 448h279l-299 -301v-147h445v149h-260l265 296v102h-430v-99zM443 575l135 208h-106c-23 -31 -49 -66 -73 -99l-73 99h-106l135 -208h88z" />
    <glyph glyph-name="florin" unicode="&#x192;" horiz-adv-x="755" 
d="M682 608v115c-37 15 -74 23 -109 23c-102 0 -170 -66 -193 -187l-26 -137l-130 -9v-102l109 8c-5 -40 -10 -75 -16 -110c-5 -35 -10 -70 -16 -110h1c-10 -46 -22 -79 -37 -99c-13 -16 -31 -24 -55 -24s-58 14 -102 42l-35 -185c41 -19 76 -27 114 -27c62 0 114 23 157 70
c41 45 70 130 86 240l28 206l146 10v102c-9 -1 -19 -2 -29 -2c-10 -1 -21 -2 -32 -3s-22 -2 -33 -2c-11 -1 -22 -2 -32 -3l22 128c14 67 43 101 90 101c23 0 52 -13 92 -45z" />
    <glyph glyph-name="circumflex" unicode="&#x2c6;" horiz-adv-x="505" 
d="M73 575h107c11 15 23 32 35 49c13 17 25 34 37 50l73 -99h107l-136 208h-88z" />
    <glyph glyph-name="caron" unicode="&#x2c7;" horiz-adv-x="505" 
d="M296 575l136 208h-107c-23 -31 -49 -66 -73 -99l-72 99h-107l135 -208h88z" />
    <glyph glyph-name="breve" unicode="&#x2d8;" horiz-adv-x="471" 
d="M163 769h-90c8 -111 62 -167 162 -167s155 56 162 167h-88c-8 -46 -31 -68 -74 -68c-41 0 -66 23 -72 68z" />
    <glyph glyph-name="dotaccent" unicode="&#x2d9;" horiz-adv-x="276" 
d="M73 614h130v130h-130v-130z" />
    <glyph glyph-name="ring" unicode="&#x2da;" horiz-adv-x="433" 
d="M267 713c0 -29 -21 -51 -51 -51c-14 0 -27 5 -37 14c-9 10 -14 22 -14 37c0 29 22 50 51 50c30 0 51 -21 51 -50zM359 713c0 79 -64 143 -143 143s-143 -64 -143 -143c0 -80 64 -144 143 -144s143 64 143 144z" />
    <glyph glyph-name="ogonek" unicode="&#x2db;" horiz-adv-x="353" 
d="M231 37h-99c-40 -47 -59 -83 -59 -117c0 -69 39 -100 126 -100c20 0 46 5 81 13v104c-34 -16 -59 -24 -75 -24c-21 0 -32 7 -32 23c0 7 5 20 14 36s24 38 44 65z" />
    <glyph glyph-name="tilde" unicode="&#x2dc;" horiz-adv-x="484" 
d="M202 654l26 -25c25 -24 46 -32 76 -32c67 0 105 59 107 165h-93c-1 -25 -3 -43 -5 -54c-2 -12 -7 -17 -12 -17c-3 0 -9 4 -19 13h1l-27 25c-27 23 -47 33 -75 33c-67 0 -106 -60 -108 -165h94c0 25 2 42 4 53c3 12 7 17 13 17c3 0 9 -4 18 -13z" />
    <glyph glyph-name="hungarumlaut" unicode="&#x2dd;" horiz-adv-x="530" 
d="M218 575h101l138 208h-126zM73 575h102l124 208h-121z" />
    <glyph glyph-name="pi" unicode="&#x3c0;" horiz-adv-x="749" 
d="M676 524h-428c-55 0 -95 -11 -120 -33c-24 -22 -44 -68 -55 -136h111c2 22 6 38 12 48c5 10 12 16 21 17l-124 -420h172c11 67 24 139 37 210c12 71 25 143 37 210h110c-5 -14 -9 -27 -12 -40c-7 -24 -14 -47 -20 -71c-4 -13 -8 -26 -12 -41v1c-8 -25 -15 -47 -20 -65
c-10 -37 -15 -70 -15 -101c0 -71 68 -142 150 -142c19 0 40 3 67 11l19 132c-20 -2 -36 -4 -46 -6c-10 -1 -18 -2 -21 -2c-20 0 -28 9 -28 30c0 7 1 17 3 31c3 13 6 31 10 51c7 36 15 71 22 107c8 35 15 70 22 105h83z" />
    <glyph glyph-name="endash" unicode="&#x2013;" horiz-adv-x="649" 
d="M73 223h503v102h-503v-102z" />
    <glyph glyph-name="emdash" unicode="&#x2014;" horiz-adv-x="1116" 
d="M73 223h970v102h-970v-102z" />
    <glyph glyph-name="quoteleft" unicode="&#x2018;" horiz-adv-x="352" 
d="M229 529l50 200h-107l-99 -193v-119h156v112z" />
    <glyph glyph-name="quoteright" unicode="&#x2019;" horiz-adv-x="351" 
d="M124 625l-51 -197h107l97 190v107h-153v-100z" />
    <glyph glyph-name="quotesinglbase" unicode="&#x201a;" horiz-adv-x="322" 
d="M116 58l-43 -166h94l82 159v101h-133v-94z" />
    <glyph glyph-name="quotedblleft" unicode="&#x201c;" horiz-adv-x="586" 
d="M229 515l52 202h-108l-100 -195v-121h156v114zM461 515l52 202h-108l-99 -195v-121h155v114z" />
    <glyph glyph-name="quotedblright" unicode="&#x201d;" horiz-adv-x="560" 
d="M122 610l-49 -190h103l94 183v114h-148v-107zM339 610l-49 -190h103l94 183v114h-148v-107z" />
    <glyph glyph-name="quotedblbase" unicode="&#x201e;" horiz-adv-x="591" 
d="M360 96l-52 -204h109l101 196v121h-158v-113zM125 96l-52 -204h109l101 196v121h-158v-113z" />
    <glyph glyph-name="dagger" unicode="&#x2020;" horiz-adv-x="598" 
d="M241 525h-168v-106h168v-509h116v509h167v106h-167v192h-116v-192z" />
    <glyph glyph-name="daggerdbl" unicode="&#x2021;" horiz-adv-x="598" 
d="M524 208h-158c-2 38 -3 73 -4 107c-2 34 -3 69 -5 104h167v106h-167v192h-117v-192h-167v-106h167c0 -19 -1 -38 -2 -55s-2 -34 -2 -51c-2 -33 -3 -67 -4 -105h-159v-138h148l-9 -160h173c0 12 -1 25 -2 38c-1 27 -3 54 -4 82c-1 14 -2 27 -3 40h148v138z" />
    <glyph glyph-name="bullet" unicode="&#x2022;" horiz-adv-x="454" 
d="M73 366c0 -86 68 -154 154 -154c85 0 153 67 153 154c0 84 -68 152 -152 152c-86 0 -155 -68 -155 -152z" />
    <glyph glyph-name="ellipsis" unicode="&#x2026;" horiz-adv-x="951" 
d="M384 0h183v202h-183v-202zM694 0h184v202h-184v-202zM73 0h184v202h-184v-202z" />
    <glyph glyph-name="perthousand" unicode="&#x2030;" horiz-adv-x="1333" 
d="M1084 299c41 0 66 -28 66 -72c0 -46 -25 -73 -66 -73s-66 27 -66 73c0 45 25 72 66 72zM1084 394c-106 0 -175 -81 -175 -204c0 -124 67 -203 175 -203c54 0 96 18 128 56c33 37 47 86 47 147c0 123 -68 204 -175 204zM248 729c-107 0 -175 -82 -175 -203
c0 -124 68 -204 175 -204s176 80 176 204c0 122 -70 203 -176 203zM168 -13h149l448 742h-115zM248 635c41 0 67 -31 67 -81c0 -52 -25 -81 -67 -81c-41 0 -66 29 -66 81c0 50 25 81 66 81zM719 394c-53 0 -97 -19 -130 -57c-31 -37 -47 -86 -47 -147
c0 -123 69 -203 177 -203c107 0 175 80 175 203c0 61 -16 110 -47 147c-33 38 -76 57 -128 57zM719 299c40 0 65 -28 65 -72c0 -46 -25 -73 -65 -73c-42 0 -67 27 -67 73c0 45 25 72 67 72z" />
    <glyph glyph-name="guilsinglleft" unicode="&#x2039;" horiz-adv-x="397" 
d="M73 318v-53l251 -223v136l-128 114l128 114v136z" />
    <glyph glyph-name="guilsinglright" unicode="&#x203a;" horiz-adv-x="396" 
d="M73 406l128 -114l-128 -114v-136l250 223v53l-250 224v-136z" />
    <glyph glyph-name="fraction" unicode="&#x2044;" horiz-adv-x="528" 
d="M73 84l144 -5l238 796l-105 3z" />
    <glyph glyph-name="trademark" unicode="&#x2122;" horiz-adv-x="794" 
d="M367 717l-21 -300h118c-1 21 -3 42 -4 64c-1 23 -2 46 -4 69l46 -110h68c7 18 14 35 21 52s14 35 21 53l-8 -128h117l-10 300h-106c-10 -20 -22 -41 -33 -63s-23 -43 -34 -64l-64 127h-107zM73 717v-79h91l-14 -221h119l-15 221h92v79h-273z" />
    <glyph glyph-name="Omega" unicode="&#x2126;" horiz-adv-x="836" 
d="M763 147h-119c33 32 59 63 76 93c23 39 35 91 35 154c0 101 -31 183 -94 247s-144 96 -243 96c-199 0 -337 -141 -337 -348c0 -61 12 -111 36 -150c18 -30 42 -59 75 -92h-119v-147h315v142c-58 19 -102 51 -131 96v-1c-29 46 -43 97 -43 157c0 85 18 148 56 188
c37 41 86 62 148 62c123 0 204 -81 204 -250c0 -118 -55 -213 -174 -252v-142h315v147z" />
    <glyph glyph-name="partialdiff" unicode="&#x2202;" horiz-adv-x="574" 
d="M266 405c-109 0 -193 -98 -193 -225c0 -109 77 -191 180 -191c72 0 131 36 178 109c47 69 69 157 69 263c0 168 -76 279 -197 279c-18 0 -34 -2 -49 -6c-29 -8 -81 -34 -81 -85c0 -17 3 -27 10 -32c7 -6 20 -7 37 -7c19 0 33 10 41 29c3 4 28 8 76 11
c32 -1 47 -35 47 -101c0 -29 -2 -60 -6 -92c-25 32 -63 48 -112 48zM331 263c0 -48 -12 -88 -33 -119c-20 -28 -46 -43 -75 -43c-43 0 -66 26 -66 75s11 90 32 120c21 29 46 43 76 43c42 0 66 -27 66 -76z" />
    <glyph glyph-name="Delta" unicode="&#x2206;" horiz-adv-x="830" 
d="M579 172h-329c15 38 29 74 42 110c14 35 27 70 41 104c13 35 27 70 40 104c13 35 27 71 42 108zM73 0h684l-278 708h-127z" />
    <glyph glyph-name="product" unicode="&#x220f;" horiz-adv-x="747" 
d="M73 -179h146v757h309v-757h145v887h-600v-887z" />
    <glyph glyph-name="summation" unicode="&#x2211;" horiz-adv-x="782" 
d="M87 708v-89c65 -57 132 -115 199 -173s132 -116 198 -173l-411 -320v-132h635v160h-423l382 293c-60 52 -124 108 -188 163s-128 111 -189 165h407v106h-610z" />
    <glyph glyph-name="minus" unicode="&#x2212;" horiz-adv-x="767" 
d="M73 254h621v114h-621v-114z" />
    <glyph glyph-name="middot.001" unicode="&#x2219;" horiz-adv-x="307" 
d="M73 266h160v186h-160v-186z" />
    <glyph glyph-name="radical" unicode="&#x221a;" horiz-adv-x="754" 
d="M342 193l-106 293l-163 -56l23 -72l57 20l143 -397h57l270 732h58v80h-117z" />
    <glyph glyph-name="infinity" unicode="&#x221e;" horiz-adv-x="760" 
d="M424 306l4 9c0 1 -1 2 -2 4c-1 1 -2 2 -2 4v-17zM485 406h-1c18 17 37 25 56 25c43 0 76 -38 76 -89c0 -55 -37 -91 -86 -91c-42 0 -75 21 -102 64c20 43 39 72 57 91zM336 320l-4 -8c1 -4 3 -6 4 -8v16zM283 246c-19 -6 -40 -10 -62 -10c-44 0 -76 38 -76 89
c0 55 34 91 85 91c20 0 39 -12 55 -34c17 -23 33 -46 47 -70c-19 -39 -35 -61 -49 -66zM443 133c26 -20 56 -30 88 -30c48 0 85 18 114 56v-1c28 36 42 83 42 140c0 111 -74 197 -165 197c-60 0 -106 -31 -148 -103c-41 68 -88 101 -145 101c-94 0 -156 -83 -156 -197
c0 -110 71 -195 165 -195c57 0 104 32 147 101c20 -31 39 -54 58 -69z" />
    <glyph glyph-name="integral" unicode="&#x222b;" horiz-adv-x="625" 
d="M210 -46c-12 23 -32 35 -60 35c-48 0 -77 -26 -77 -72c0 -25 11 -47 30 -63c19 -15 43 -23 71 -23c67 0 117 35 148 105c30 65 48 171 53 320l3 107c0 10 0 20 1 30c1 76 5 136 10 179c4 43 10 70 18 81c2 -11 4 -19 6 -23c10 -29 32 -45 67 -45c45 0 72 27 72 72
c0 51 -42 86 -100 86c-70 0 -120 -37 -152 -112c-30 -69 -47 -184 -50 -343l-1 -75c-3 -83 -6 -149 -11 -198c-5 -51 -11 -81 -19 -93c-2 14 -5 25 -9 32z" />
    <glyph glyph-name="approxequal" unicode="&#x2248;" horiz-adv-x="767" 
d="M694 211v130c-41 -33 -74 -56 -103 -71c-29 -16 -55 -22 -78 -22c-27 0 -62 8 -107 25c-2 1 -7 3 -10 4c0 1 -2 2 -3 2c-2 1 -3 1 -4 2c-44 17 -89 29 -122 32c-32 0 -63 -5 -94 -18c-31 -12 -64 -31 -100 -58v-130c77 66 133 95 181 95c26 0 62 -11 107 -32
c1 0 3 -1 5 -1c2 -1 3 -2 5 -2c2 -1 5 -3 7 -3c45 -18 90 -29 124 -29c31 0 61 6 93 18c30 13 62 32 99 58zM694 389v129c-41 -33 -74 -56 -103 -71s-55 -22 -78 -22c-27 0 -62 9 -107 26l-10 4l-7 3c-47 19 -87 29 -122 33c-32 0 -63 -6 -94 -18c-31 -13 -64 -32 -100 -58
v-130c77 66 133 94 181 94c26 0 62 -10 107 -31c1 -1 3 -1 5 -2c2 0 3 -1 5 -2s5 -3 7 -3c45 -17 90 -28 124 -28c31 0 61 5 93 18c30 12 62 31 99 58z" />
    <glyph glyph-name="notequal" unicode="&#x2260;" horiz-adv-x="767" 
d="M73 347h269l-60 -73h-209v-113h115l-65 -81l85 -70c9 11 20 24 30 36l63 78c10 13 20 25 30 37h363v113h-270c7 9 13 16 18 22c4 5 9 11 13 16c8 10 17 20 29 35h210v113h-118l67 82l-85 70l-123 -152h-362v-113z" />
    <glyph glyph-name="lessequal" unicode="&#x2264;" horiz-adv-x="767" 
d="M694 585l-621 -177v-105l621 -178v119l-390 111l390 113v117zM73 0h621v114h-621v-114z" />
    <glyph glyph-name="greaterequal" unicode="&#x2265;" horiz-adv-x="767" 
d="M463 355l-390 -111v-119l621 178v105l-621 177v-117zM73 114v-114h621v114h-621z" />
    <glyph glyph-name="lozenge" unicode="&#x25ca;" horiz-adv-x="643" 
d="M476 290l-155 -227l-154 227l154 328zM73 288l248 -530l248 530l-248 526z" />
    <glyph glyph-name="c6459" horiz-adv-x="454" 
d="M251 590h129v129h-129v-129zM73 590h130v129h-130v-129z" />
    <glyph glyph-name="c6460" horiz-adv-x="396" 
d="M73 575h115l135 157h-133z" />
    <glyph glyph-name="c6461" horiz-adv-x="484" 
d="M205 626l26 -15c17 -8 31 -14 41 -17s21 -4 34 -4c31 0 57 13 75 37c18 23 28 58 30 99h-94v-21c0 -14 -5 -24 -15 -24c-5 0 -13 3 -24 9l-26 14c-16 9 -28 14 -40 18c-11 3 -22 4 -35 4c-31 0 -57 -13 -75 -37c-19 -23 -29 -58 -29 -99h94v21c0 15 5 25 16 25
c3 0 10 -3 22 -10z" />
    <glyph glyph-name="c6462" horiz-adv-x="396" 
d="M73 732l136 -157h114l-116 157h-134z" />
    <glyph glyph-name="c6463" horiz-adv-x="500" 
d="M73 575h109c10 11 22 24 33 36c12 13 23 25 35 37l68 -73h109l-126 158h-103z" />
    <glyph glyph-name="c6466" horiz-adv-x="500" 
d="M301 575l126 158h-109c-10 -11 -22 -24 -33 -36c-12 -13 -23 -25 -35 -37l-68 73h-109l125 -158h103z" />
    <glyph glyph-name="c6467" horiz-adv-x="499" 
d="M262 475h-86l86 117v-117zM73 468v-79h189v-85h102v85h62v86h-62v246h-103z" />
    <glyph glyph-name="c6468" horiz-adv-x="471" 
d="M161 733h-88c8 -98 63 -147 162 -147s155 50 163 147h-88c-10 -34 -35 -51 -75 -51c-41 0 -66 18 -74 51z" />
    <glyph glyph-name="c6469" horiz-adv-x="276" 
d="M73 590h130v130h-130v-130z" />
    <glyph glyph-name="Abreve" unicode="&#x102;" horiz-adv-x="835" 
d="M520 260h-204c9 27 18 53 26 79c9 26 17 51 26 76c8 24 16 49 24 74s17 50 25 76zM73 0h167l35 113h284l26 -113h177l-288 729h-113zM345 927h-90c8 -111 62 -167 162 -167s155 56 162 167h-88c-8 -46 -31 -68 -74 -68c-41 0 -66 23 -72 68z" />
    <glyph glyph-name="Abreveacute" unicode="&#x1eae;" horiz-adv-x="835" 
d="M520 260h-204c9 27 18 53 26 79c9 26 17 51 26 76c8 24 16 49 24 74s17 50 25 76zM73 0h167l35 113h284l26 -113h177l-288 729h-113zM345 927h-90c8 -111 62 -167 162 -167s155 56 162 167h-88c-8 -46 -31 -68 -74 -68c-41 0 -66 23 -72 68zM335 911h122l197 227h-149z
" />
    <glyph glyph-name="Abrevedotbelow" unicode="&#x1eb6;" horiz-adv-x="835" 
d="M520 260h-204c9 27 18 53 26 79c9 26 17 51 26 76c8 24 16 49 24 74s17 50 25 76zM73 0h167l35 113h284l26 -113h177l-288 729h-113zM347 -153h130v130h-130v-130zM345 927h-90c8 -111 62 -167 162 -167s155 56 162 167h-88c-8 -46 -31 -68 -74 -68c-41 0 -66 23 -72 68z
" />
    <glyph glyph-name="Abrevegrave" unicode="&#x1eb0;" horiz-adv-x="835" 
d="M520 260h-204c9 27 18 53 26 79c9 26 17 51 26 76c8 24 16 49 24 74s17 50 25 76zM73 0h167l35 113h284l26 -113h177l-288 729h-113zM345 927h-90c8 -111 62 -167 162 -167s155 56 162 167h-88c-8 -46 -31 -68 -74 -68c-41 0 -66 23 -72 68zM240 1153l115 -207h171
l-156 207h-130z" />
    <glyph glyph-name="Abrevehookabove" unicode="&#x1eb2;" horiz-adv-x="835" 
d="M520 260h-204c9 27 18 53 26 79c9 26 17 51 26 76c8 24 16 49 24 74s17 50 25 76zM73 0h167l35 113h284l26 -113h177l-288 729h-113zM345 927h-90c8 -111 62 -167 162 -167s155 56 162 167h-88c-8 -46 -31 -68 -74 -68c-41 0 -66 23 -72 68zM371 844v-20
c16 8 31 12 46 12c22 0 32 -7 32 -13c0 -7 -4 -13 -12 -18l-10 -8c-8 -6 -14 -11 -16 -15c-3 -5 -3 -10 -3 -16v-3h28c0 4 0 8 1 11c1 2 4 4 10 9l10 7c14 10 21 20 21 30c0 11 -5 19 -15 26s-23 10 -40 10c-16 0 -34 -4 -52 -12z" />
    <glyph glyph-name="Abrevetilde" unicode="&#x1eb4;" horiz-adv-x="835" 
d="M520 260h-204c9 27 18 53 26 79c9 26 17 51 26 76c8 24 16 49 24 74s17 50 25 76zM73 0h167l35 113h284l26 -113h177l-288 729h-113zM345 927h-90c8 -111 62 -167 162 -167s155 56 162 167h-88c-8 -46 -31 -68 -74 -68c-41 0 -66 23 -72 68zM377 1000l26 -25
c25 -24 46 -32 76 -32c67 0 105 59 107 165h-93c-1 -25 -3 -43 -5 -54c-2 -12 -7 -17 -12 -17c-3 0 -9 4 -19 13h1l-27 25c-27 23 -47 33 -75 33c-67 0 -106 -60 -108 -165h94c0 25 2 42 4 53c3 12 7 17 13 17c3 0 9 -4 18 -13z" />
    <glyph glyph-name="Acaron" unicode="&#x1cd;" horiz-adv-x="835" 
d="M520 260h-204c9 27 18 53 26 79c9 26 17 51 26 76c8 24 16 49 24 74s17 50 25 76zM73 0h167l35 113h284l26 -113h177l-288 729h-113zM461 757l136 208h-107c-23 -31 -49 -66 -73 -99l-72 99h-107l135 -208h88z" />
    <glyph glyph-name="Acircumflexacute" unicode="&#x1ea4;" horiz-adv-x="835" 
d="M520 260h-204c9 27 18 53 26 79c9 26 17 51 26 76c8 24 16 49 24 74s17 50 25 76zM73 0h167l35 113h284l26 -113h177l-288 729h-113zM238 757h107c11 15 23 32 35 49c13 17 25 34 37 50l73 -99h107l-136 208h-88zM335 911h122l197 227h-149z" />
    <glyph glyph-name="Acircumflexdotbelow" unicode="&#x1eac;" horiz-adv-x="835" 
d="M520 260h-204c9 27 18 53 26 79c9 26 17 51 26 76c8 24 16 49 24 74s17 50 25 76zM73 0h167l35 113h284l26 -113h177l-288 729h-113zM347 -153h130v130h-130v-130zM238 757h107c11 15 23 32 35 49c13 17 25 34 37 50l73 -99h107l-136 208h-88z" />
    <glyph glyph-name="Acircumflexgrave" unicode="&#x1ea6;" horiz-adv-x="835" 
d="M520 260h-204c9 27 18 53 26 79c9 26 17 51 26 76c8 24 16 49 24 74s17 50 25 76zM73 0h167l35 113h284l26 -113h177l-288 729h-113zM238 757h107c11 15 23 32 35 49c13 17 25 34 37 50l73 -99h107l-136 208h-88zM240 1153l115 -207h171l-156 207h-130z" />
    <glyph glyph-name="Acircumflexhookabove" unicode="&#x1ea8;" horiz-adv-x="835" 
d="M520 260h-204c9 27 18 53 26 79c9 26 17 51 26 76c8 24 16 49 24 74s17 50 25 76zM73 0h167l35 113h284l26 -113h177l-288 729h-113zM238 757h107c11 15 23 32 35 49c13 17 25 34 37 50l73 -99h107l-136 208h-88zM371 844v-20c16 8 31 12 46 12c22 0 32 -7 32 -13
c0 -7 -4 -13 -12 -18l-10 -8c-8 -6 -14 -11 -16 -15c-3 -5 -3 -10 -3 -16v-3h28c0 4 0 8 1 11c1 2 4 4 10 9l10 7c14 10 21 20 21 30c0 11 -5 19 -15 26s-23 10 -40 10c-16 0 -34 -4 -52 -12z" />
    <glyph glyph-name="Acircumflextilde" unicode="&#x1eaa;" horiz-adv-x="835" 
d="M520 260h-204c9 27 18 53 26 79c9 26 17 51 26 76c8 24 16 49 24 74s17 50 25 76zM73 0h167l35 113h284l26 -113h177l-288 729h-113zM238 757h107c11 15 23 32 35 49c13 17 25 34 37 50l73 -99h107l-136 208h-88zM377 1000l26 -25c25 -24 46 -32 76 -32
c67 0 105 59 107 165h-93c-1 -25 -3 -43 -5 -54c-2 -12 -7 -17 -12 -17c-3 0 -9 4 -19 13h1l-27 25c-27 23 -47 33 -75 33c-67 0 -106 -60 -108 -165h94c0 25 2 42 4 53c3 12 7 17 13 17c3 0 9 -4 18 -13z" />
    <glyph glyph-name="Adieresismacron" unicode="&#x1de;" horiz-adv-x="835" 
d="M520 260h-204c9 27 18 53 26 79c9 26 17 51 26 76c8 24 16 49 24 74s17 50 25 76zM73 0h167l35 113h284l26 -113h177l-288 729h-113zM444 882h136v135h-136v-135zM253 882h136v135h-136v-135zM262 761h309v104h-309v-104z" />
    <glyph glyph-name="Adotbelow" unicode="&#x1ea0;" horiz-adv-x="835" 
d="M520 260h-204c9 27 18 53 26 79c9 26 17 51 26 76c8 24 16 49 24 74s17 50 25 76zM73 0h167l35 113h284l26 -113h177l-288 729h-113zM347 -153h130v130h-130v-130z" />
    <glyph glyph-name="Ahookabove" unicode="&#x1ea2;" horiz-adv-x="835" 
d="M520 260h-204c9 27 18 53 26 79c9 26 17 51 26 76c8 24 16 49 24 74s17 50 25 76zM73 0h167l35 113h284l26 -113h177l-288 729h-113zM371 844v-20c16 8 31 12 46 12c22 0 32 -7 32 -13c0 -7 -4 -13 -12 -18l-10 -8c-8 -6 -14 -11 -16 -15c-3 -5 -3 -10 -3 -16v-3h28
c0 4 0 8 1 11c1 2 4 4 10 9l10 7c14 10 21 20 21 30c0 11 -5 19 -15 26s-23 10 -40 10c-16 0 -34 -4 -52 -12z" />
    <glyph glyph-name="Amacron" unicode="&#x100;" horiz-adv-x="835" 
d="M520 260h-204c9 27 18 53 26 79c9 26 17 51 26 76c8 24 16 49 24 74s17 50 25 76zM73 0h167l35 113h284l26 -113h177l-288 729h-113zM262 761h309v104h-309v-104z" />
    <glyph glyph-name="Aogonek" unicode="&#x104;" horiz-adv-x="835" 
d="M520 260h-204c9 27 18 53 26 79c9 26 17 51 26 76c8 24 16 49 24 74s17 50 25 76zM73 0h167l35 113h284l26 -113h177l-288 729h-113zM723 0h-99c-40 -47 -59 -83 -59 -117c0 -69 39 -100 126 -100c20 0 46 5 81 13v104c-34 -16 -59 -24 -75 -24c-21 0 -32 7 -32 23
c0 7 5 20 14 36s24 38 44 65z" />
    <glyph glyph-name="Bdotbelow" unicode="&#x1e04;" horiz-adv-x="684" 
d="M204 331h132c45 0 79 -9 100 -27c20 -17 29 -30 29 -40c0 -36 -9 -59 -27 -71c-21 -12 -55 -19 -102 -19h-132v157zM204 629h120c82 0 117 -41 117 -100c0 -57 -39 -86 -117 -86h-120v186zM73 0h267c164 0 270 76 270 212c0 86 -41 150 -131 183c47 26 70 74 70 145
c0 60 -21 107 -62 140c-41 32 -101 49 -179 49h-235v-729zM248 -9358h130v130h-130v-130z" />
    <glyph glyph-name="Cdotaccent" unicode="&#x10a;" horiz-adv-x="741" 
d="M668 540v151c-103 50 -168 55 -253 51c-221 -10 -342 -147 -342 -378c0 -232 136 -378 357 -378c86 0 164 26 238 76v215c-82 -75 -157 -111 -233 -111c-151 0 -224 49 -226 198c0 172 64 263 211 263c76 0 137 -11 248 -87zM329 796h130v130h-130v-130z" />
    <glyph glyph-name="Dcaron" unicode="&#x10e;" horiz-adv-x="765" 
d="M208 615h95c88 0 153 -19 195 -59c43 -40 63 -100 63 -180c-14 -61 -41 -107 -71 -130c-34 -23 -96 -35 -187 -35h-95v404zM73 0h211c138 0 240 29 307 88c67 60 101 153 101 277c0 123 -35 216 -100 276c-67 57 -172 88 -308 88h-211v-729zM389 757l136 208h-107
c-23 -31 -49 -66 -73 -99l-72 99h-107l135 -208h88z" />
    <glyph glyph-name="Dcircumflexbelow" unicode="&#x1e12;" horiz-adv-x="765" 
d="M208 615h95c88 0 153 -19 195 -59c43 -40 63 -100 63 -180c-14 -61 -41 -107 -71 -130c-34 -23 -96 -35 -187 -35h-95v404zM73 0h211c138 0 240 29 307 88c67 60 101 153 101 277c0 123 -35 216 -100 276c-67 57 -172 88 -308 88h-211v-729zM140 -279h107
c11 15 23 32 35 49c13 17 25 34 37 50l73 -99h107l-136 208h-88z" />
    <glyph glyph-name="Dcroat" unicode="&#x110;" horiz-adv-x="765" 
d="M208 615h95c88 0 153 -19 195 -59c43 -40 63 -100 63 -180c-14 -61 -41 -107 -71 -130c-34 -23 -96 -35 -187 -35h-95v404zM73 0h211c138 0 240 29 307 88c67 60 101 153 101 277c0 123 -35 216 -100 276c-67 57 -172 88 -308 88h-211v-729zM190 761h309v104h-309v-104z
" />
    <glyph glyph-name="Ddotbelow" unicode="&#x1e0c;" horiz-adv-x="765" 
d="M208 615h95c88 0 153 -19 195 -59c43 -40 63 -100 63 -180c-14 -61 -41 -107 -71 -130c-34 -23 -96 -35 -187 -35h-95v404zM73 0h211c138 0 240 29 307 88c67 60 101 153 101 277c0 123 -35 216 -100 276c-67 57 -172 88 -308 88h-211v-729zM247 -147h130v130h-130v-130z
" />
    <glyph glyph-name="Dlinebelow" unicode="&#x1e0e;" horiz-adv-x="765" 
d="M208 615h95c88 0 153 -19 195 -59c43 -40 63 -100 63 -180c-14 -61 -41 -107 -71 -130c-34 -23 -96 -35 -187 -35h-95v404zM73 0h211c138 0 240 29 307 88c67 60 101 153 101 277c0 123 -35 216 -100 276c-67 57 -172 88 -308 88h-211v-729zM165 -151h309v104h-309v-104z
" />
    <glyph glyph-name="Ecaron" unicode="&#x11a;" horiz-adv-x="629" 
d="M73 0h483v181h-352v149h329v115h-329v168h344v116h-475v-729zM350 757l136 208h-107c-23 -31 -49 -66 -73 -99l-72 99h-107l135 -208h88z" />
    <glyph glyph-name="uni0228" unicode="&#x228;" horiz-adv-x="629" 
d="M73 0h483v181h-352v149h329v115h-329v168h344v116h-475v-729zM359 37h-99c20 -27 34 -48 44 -64c9 -16 14 -29 14 -36c0 -16 -12 -24 -36 -24c-25 0 -52 7 -89 26v-104c37 -10 69 -15 98 -15c84 0 127 34 127 100c0 35 -19 70 -59 117z" />
    <glyph glyph-name="Ecircumflexacute" unicode="&#x1ebe;" horiz-adv-x="629" 
d="M73 0h483v181h-352v149h329v115h-329v168h344v116h-475v-729zM127 757h107c11 15 23 32 35 49c13 17 25 34 37 50l73 -99h107l-136 208h-88zM224 911h122l197 227h-149z" />
    <glyph glyph-name="Ecircumflexdotbelow" unicode="&#x1ec6;" horiz-adv-x="629" 
d="M73 0h483v181h-352v149h329v115h-329v168h344v116h-475v-729zM238 -148h130v130h-130v-130zM127 757h107c11 15 23 32 35 49c13 17 25 34 37 50l73 -99h107l-136 208h-88z" />
    <glyph glyph-name="Ecircumflexgrave" unicode="&#x1ec0;" horiz-adv-x="629" 
d="M73 0h483v181h-352v149h329v115h-329v168h344v116h-475v-729zM127 757h107c11 15 23 32 35 49c13 17 25 34 37 50l73 -99h107l-136 208h-88zM129 1153l115 -207h171l-156 207h-130z" />
    <glyph glyph-name="Ecircumflexhookabove" unicode="&#x1ec2;" horiz-adv-x="629" 
d="M73 0h483v181h-352v149h329v115h-329v168h344v116h-475v-729zM127 757h107c11 15 23 32 35 49c13 17 25 34 37 50l73 -99h107l-136 208h-88zM260 844v-20c16 8 31 12 46 12c22 0 32 -7 32 -13c0 -7 -4 -13 -12 -18l-10 -8c-8 -6 -14 -11 -16 -15c-3 -5 -3 -10 -3 -16v-3
h28c0 4 0 8 1 11c1 2 4 4 10 9l10 7c14 10 21 20 21 30c0 11 -5 19 -15 26s-23 10 -40 10c-16 0 -34 -4 -52 -12z" />
    <glyph glyph-name="Ecircumflextilde" unicode="&#x1ec4;" horiz-adv-x="629" 
d="M73 0h483v181h-352v149h329v115h-329v168h344v116h-475v-729zM127 757h107c11 15 23 32 35 49c13 17 25 34 37 50l73 -99h107l-136 208h-88zM266 1000l26 -25c25 -24 46 -32 76 -32c67 0 105 59 107 165h-93c-1 -25 -3 -43 -5 -54c-2 -12 -7 -17 -12 -17
c-3 0 -9 4 -19 13h1l-27 25c-27 23 -47 33 -75 33c-67 0 -106 -60 -108 -165h94c0 25 2 42 4 53c3 12 7 17 13 17c3 0 9 -4 18 -13z" />
    <glyph glyph-name="Edotaccent" unicode="&#x116;" horiz-adv-x="629" 
d="M73 0h483v181h-352v149h329v115h-329v168h344v116h-475v-729zM241 796h130v130h-130v-130z" />
    <glyph glyph-name="Edotbelow" unicode="&#x1eb8;" horiz-adv-x="629" 
d="M73 0h483v181h-352v149h329v115h-329v168h344v116h-475v-729zM238 -148h130v130h-130v-130z" />
    <glyph glyph-name="Ehookabove" unicode="&#x1eba;" horiz-adv-x="629" 
d="M73 0h483v181h-352v149h329v115h-329v168h344v116h-475v-729zM260 844v-20c16 8 31 12 46 12c22 0 32 -7 32 -13c0 -7 -4 -13 -12 -18l-10 -8c-8 -6 -14 -11 -16 -15c-3 -5 -3 -10 -3 -16v-3h28c0 4 0 8 1 11c1 2 4 4 10 9l10 7c14 10 21 20 21 30c0 11 -5 19 -15 26
s-23 10 -40 10c-16 0 -34 -4 -52 -12z" />
    <glyph glyph-name="Emacron" unicode="&#x112;" horiz-adv-x="629" 
d="M73 0h483v181h-352v149h329v115h-329v168h344v116h-475v-729zM151 761h309v104h-309v-104z" />
    <glyph glyph-name="Eogonek" unicode="&#x118;" horiz-adv-x="629" 
d="M73 0h483v181h-352v149h329v115h-329v168h344v116h-475v-729zM358 0h-99c-40 -47 -59 -83 -59 -117c0 -69 39 -100 126 -100c20 0 46 5 81 13v104c-34 -16 -59 -24 -75 -24c-21 0 -32 7 -32 23c0 7 5 20 14 36s24 38 44 65z" />
    <glyph glyph-name="Etilde" unicode="&#x1ebc;" horiz-adv-x="629" 
d="M73 0h483v181h-352v149h329v115h-329v168h344v116h-475v-729zM266 1000l26 -25c25 -24 46 -32 76 -32c67 0 105 59 107 165h-93c-1 -25 -3 -43 -5 -54c-2 -12 -7 -17 -12 -17c-3 0 -9 4 -19 13h1l-27 25c-27 23 -47 33 -75 33c-67 0 -106 -60 -108 -165h94
c0 25 2 42 4 53c3 12 7 17 13 17c3 0 9 -4 18 -13z" />
    <glyph glyph-name="Gcaron" unicode="&#x1e6;" horiz-adv-x="788" 
d="M571 257v-57c-10 -8 -24 -13 -42 -17h1c-25 -6 -52 -8 -85 -8c-81 0 -140 13 -178 40h1c-36 27 -55 82 -59 159c0 175 79 263 236 263c82 0 161 -32 247 -105v140c-78 49 -161 70 -255 70c-227 0 -364 -142 -364 -378c0 -117 32 -210 96 -278c65 -66 155 -100 268 -100
c104 0 196 29 278 87v312h-292v-128h148zM457 757l136 208h-107c-23 -31 -49 -66 -73 -99l-72 99h-107l135 -208h88z" />
    <glyph glyph-name="Gcommaaccent" unicode="&#x122;" horiz-adv-x="788" 
d="M571 257v-57c-10 -8 -24 -13 -42 -17h1c-25 -6 -52 -8 -85 -8c-81 0 -140 13 -178 40h1c-36 27 -55 82 -59 159c0 175 79 263 236 263c82 0 161 -32 247 -105v140c-78 49 -161 70 -255 70c-227 0 -364 -142 -364 -378c0 -117 32 -210 96 -278c65 -66 155 -100 268 -100
c104 0 196 29 278 87v312h-292v-128h148zM369 -141l-53 -167h94l110 158v120h-151v-111z" />
    <glyph glyph-name="Gdotaccent" unicode="&#x120;" horiz-adv-x="788" 
d="M571 257v-57c-10 -8 -24 -13 -42 -17h1c-25 -6 -52 -8 -85 -8c-81 0 -140 13 -178 40h1c-36 27 -55 82 -59 159c0 175 79 263 236 263c82 0 161 -32 247 -105v140c-78 49 -161 70 -255 70c-227 0 -364 -142 -364 -378c0 -117 32 -210 96 -278c65 -66 155 -100 268 -100
c104 0 196 29 278 87v312h-292v-128h148zM348 796h130v130h-130v-130z" />
    <glyph glyph-name="Hbar" unicode="&#x126;" horiz-adv-x="721" 
d="M31 513h677l-10 102h-657zM73 0h145v232h284v-232h145l-9 729h-136v-330h-284v330h-135z" />
    <glyph glyph-name="Hdotbelow" unicode="&#x1e24;" horiz-adv-x="721" 
d="M73 0h145v232h284v-232h145l-9 729h-136v-330h-284v330h-135zM290 -159h130v130h-130v-130z" />
    <glyph glyph-name="IJ" unicode="&#x132;" horiz-adv-x="769" 
d="M73 0h150l-9 729h-126zM561 731l-27 -677c0 -15 -8 -30 -23 -44s-43 -23 -76 -25l-66 15v-193l72 -7c80 1 137 21 173 59c35 37 54 100 56 188l26 676z" />
    <glyph glyph-name="Icaron" unicode="&#x1cf;" horiz-adv-x="296" 
d="M73 0h150l-9 729h-126zM199 757l136 208h-107c-23 -31 -49 -66 -73 -99l-72 99h-107l135 -208h88z" />
    <glyph glyph-name="Idieresisacute" unicode="&#x1e2e;" horiz-adv-x="296" 
d="M73 0h150l-9 729h-126zM182 882h136v135h-136v-135zM-9 882h136v135h-136v-135zM73 911h122l197 227h-149z" />
    <glyph glyph-name="Idotbelow" unicode="&#x1eca;" horiz-adv-x="296" 
d="M73 0h150l-9 729h-126zM90 29h130v130h-130v-130z" />
    <glyph glyph-name="Ihookabove" unicode="&#x1ec8;" horiz-adv-x="296" 
d="M73 0h150l-9 729h-126zM109 844v-20c16 8 31 12 46 12c22 0 32 -7 32 -13c0 -7 -4 -13 -12 -18l-10 -8c-8 -6 -14 -11 -16 -15c-3 -5 -3 -10 -3 -16v-3h28c0 4 0 8 1 11c1 2 4 4 10 9l10 7c14 10 21 20 21 30c0 11 -5 19 -15 26s-23 10 -40 10c-16 0 -34 -4 -52 -12z" />
    <glyph glyph-name="Imacron" unicode="&#x12a;" horiz-adv-x="296" 
d="M73 0h150l-9 729h-126zM0 761h309v104h-309v-104z" />
    <glyph glyph-name="Iogonek" unicode="&#x12e;" horiz-adv-x="296" 
d="M73 0h150l-9 729h-126zM204 0h-99c-40 -47 -59 -83 -59 -117c0 -69 39 -100 126 -100c20 0 46 5 81 13v104c-34 -16 -59 -24 -75 -24c-21 0 -32 7 -32 23c0 7 5 20 14 36s24 38 44 65z" />
    <glyph glyph-name="Itilde" unicode="&#x128;" horiz-adv-x="296" 
d="M73 0h150l-9 729h-126zM115 1000l26 -25c25 -24 46 -32 76 -32c67 0 105 59 107 165h-93c-1 -25 -3 -43 -5 -54c-2 -12 -7 -17 -12 -17c-3 0 -9 4 -19 13h1l-27 25c-27 23 -47 33 -75 33c-67 0 -106 -60 -108 -165h94c0 25 2 42 4 53c3 12 7 17 13 17c3 0 9 -4 18 -13z
" />
    <glyph glyph-name="Kcommaaccent" unicode="&#x136;" horiz-adv-x="769" 
d="M73 0h160c-1 22 -2 45 -4 69c-2 48 -5 98 -8 147c-1 25 -3 49 -4 72l203 -288h275l-386 387l364 342h-174l-284 -268l8 268h-130zM303 -141l-53 -167h94l110 158v120h-151v-111z" />
    <glyph glyph-name="Lacute" unicode="&#x139;" horiz-adv-x="620" 
d="M73 0h463l11 181h-338l4 548h-130zM158 911h122l197 227h-149z" />
    <glyph glyph-name="Lcaron" unicode="&#x13d;" horiz-adv-x="620" 
d="M73 0h463l11 181h-338l4 548h-130zM363 744l-51 -197h107l97 190v107h-153v-100z" />
    <glyph glyph-name="Lcircumflexbelow" unicode="&#x1e3c;" horiz-adv-x="620" 
d="M73 0h463l11 181h-338l4 548h-130zM125 -312h107c11 15 23 32 35 49c13 17 25 34 37 50l73 -99h107l-136 208h-88z" />
    <glyph glyph-name="Lcommaaccent" unicode="&#x13b;" horiz-adv-x="620" 
d="M73 0h463l11 181h-338l4 548h-130zM256 -173l-53 -167h94l110 158v120h-151v-111z" />
    <glyph glyph-name="Ldot" unicode="&#x13f;" horiz-adv-x="620" 
d="M73 0h463l11 181h-338l4 548h-130zM321 347h133v152h-133v-152z" />
    <glyph glyph-name="Ldotbelow" unicode="&#x1e36;" horiz-adv-x="620" 
d="M73 0h463l11 181h-338l4 548h-130zM232 -180h130v130h-130v-130z" />
    <glyph glyph-name="Macute" unicode="&#x1e3e;" horiz-adv-x="865" 
d="M73 0h172c-3 82 -6 165 -8 250c-3 84 -6 168 -8 252l134 -392h139l134 391l-16 -501h172l-29 729h-161l-169 -353l-161 353h-169zM377 845h122l197 227h-149z" />
    <glyph glyph-name="Nacute" unicode="&#x143;" horiz-adv-x="717" 
d="M73 0h157c-4 83 -8 168 -12 256c-4 87 -8 173 -12 259l273 -515h165v729h-123l-13 -509l-270 495h-146zM285 911h122l197 227h-149z" />
    <glyph glyph-name="Ncaron" unicode="&#x147;" horiz-adv-x="717" 
d="M73 0h157c-4 83 -8 168 -12 256c-4 87 -8 173 -12 259l273 -515h165v729h-123l-13 -509l-270 495h-146zM411 757l136 208h-107c-23 -31 -49 -66 -73 -99l-72 99h-107l135 -208h88z" />
    <glyph glyph-name="Ncircumflexbelow" unicode="&#x1e4a;" horiz-adv-x="717" 
d="M73 0h157c-4 83 -8 168 -12 256c-4 87 -8 173 -12 259l273 -515h165v729h-123l-13 -509l-270 495h-146zM192 -280h107c11 15 23 32 35 49c13 17 25 34 37 50l73 -99h107l-136 208h-88z" />
    <glyph glyph-name="Ncommaaccent" unicode="&#x145;" horiz-adv-x="717" 
d="M73 0h157c-4 83 -8 168 -12 256c-4 87 -8 173 -12 259l273 -515h165v729h-123l-13 -509l-270 495h-146zM323 -141l-53 -167h94l110 158v120h-151v-111z" />
    <glyph glyph-name="Ndotaccent" unicode="&#x1e44;" horiz-adv-x="717" 
d="M73 0h157c-4 83 -8 168 -12 256c-4 87 -8 173 -12 259l273 -515h165v729h-123l-13 -509l-270 495h-146zM302 796h130v130h-130v-130z" />
    <glyph glyph-name="Ndotbelow" unicode="&#x1e46;" horiz-adv-x="717" 
d="M73 0h157c-4 83 -8 168 -12 256c-4 87 -8 173 -12 259l273 -515h165v729h-123l-13 -509l-270 495h-146zM299 -148h130v130h-130v-130z" />
    <glyph glyph-name="Eng" unicode="&#x14a;" horiz-adv-x="717" 
d="M456 -42c-34 -31 -118 -62 -149 -92c25 -38 189 -76 224 -96l52 89l61 141l-152 81c-12 -41 -3 -81 -36 -123zM73 0h157c-4 83 -8 168 -12 256c-4 87 -8 173 -12 259l273 -515h165v729h-123l-13 -509l-270 495h-146z" />
    <glyph glyph-name="Ocaron" unicode="&#x1d1;" horiz-adv-x="824" 
d="M413 628c123 0 202 -97 202 -264c0 -129 -73 -162 -202 -162c-65 0 -116 11 -153 33c-33 22 -51 64 -51 129c0 81 20 149 56 196c36 43 87 68 148 68zM413 742c-103 0 -186 -35 -248 -104c-61 -69 -92 -159 -92 -274c0 -114 31 -205 92 -274c62 -69 145 -104 248 -104
c102 0 184 35 246 104c61 69 92 160 92 274c0 115 -31 205 -92 274c-62 69 -144 104 -246 104zM456 757l136 208h-107c-23 -31 -49 -66 -73 -99l-72 99h-107l135 -208h88z" />
    <glyph glyph-name="Ocircumflexacute" unicode="&#x1ed0;" horiz-adv-x="824" 
d="M413 628c123 0 202 -97 202 -264c0 -129 -73 -162 -202 -162c-65 0 -116 11 -153 33c-33 22 -51 64 -51 129c0 81 20 149 56 196c36 43 87 68 148 68zM413 742c-103 0 -186 -35 -248 -104c-61 -69 -92 -159 -92 -274c0 -114 31 -205 92 -274c62 -69 145 -104 248 -104
c102 0 184 35 246 104c61 69 92 160 92 274c0 115 -31 205 -92 274c-62 69 -144 104 -246 104zM233 757h107c11 15 23 32 35 49c13 17 25 34 37 50l73 -99h107l-136 208h-88zM330 911h122l197 227h-149z" />
    <glyph glyph-name="Ocircumflexdotbelow" unicode="&#x1ed8;" horiz-adv-x="824" 
d="M413 628c123 0 202 -97 202 -264c0 -129 -73 -162 -202 -162c-65 0 -116 11 -153 33c-33 22 -51 64 -51 129c0 81 20 149 56 196c36 43 87 68 148 68zM413 742c-103 0 -186 -35 -248 -104c-61 -69 -92 -159 -92 -274c0 -114 31 -205 92 -274c62 -69 145 -104 248 -104
c102 0 184 35 246 104c61 69 92 160 92 274c0 115 -31 205 -92 274c-62 69 -144 104 -246 104zM347 29h130v130h-130v-130zM233 757h107c11 15 23 32 35 49c13 17 25 34 37 50l73 -99h107l-136 208h-88z" />
    <glyph glyph-name="Ocircumflexgrave" unicode="&#x1ed2;" horiz-adv-x="824" 
d="M413 628c123 0 202 -97 202 -264c0 -129 -73 -162 -202 -162c-65 0 -116 11 -153 33c-33 22 -51 64 -51 129c0 81 20 149 56 196c36 43 87 68 148 68zM413 742c-103 0 -186 -35 -248 -104c-61 -69 -92 -159 -92 -274c0 -114 31 -205 92 -274c62 -69 145 -104 248 -104
c102 0 184 35 246 104c61 69 92 160 92 274c0 115 -31 205 -92 274c-62 69 -144 104 -246 104zM233 757h107c11 15 23 32 35 49c13 17 25 34 37 50l73 -99h107l-136 208h-88zM235 1153l115 -207h171l-156 207h-130z" />
    <glyph glyph-name="Ocircumflexhookabove" unicode="&#x1ed4;" horiz-adv-x="824" 
d="M413 628c123 0 202 -97 202 -264c0 -129 -73 -162 -202 -162c-65 0 -116 11 -153 33c-33 22 -51 64 -51 129c0 81 20 149 56 196c36 43 87 68 148 68zM413 742c-103 0 -186 -35 -248 -104c-61 -69 -92 -159 -92 -274c0 -114 31 -205 92 -274c62 -69 145 -104 248 -104
c102 0 184 35 246 104c61 69 92 160 92 274c0 115 -31 205 -92 274c-62 69 -144 104 -246 104zM233 757h107c11 15 23 32 35 49c13 17 25 34 37 50l73 -99h107l-136 208h-88zM366 844v-20c16 8 31 12 46 12c22 0 32 -7 32 -13c0 -7 -4 -13 -12 -18l-10 -8
c-8 -6 -14 -11 -16 -15c-3 -5 -3 -10 -3 -16v-3h28c0 4 0 8 1 11c1 2 4 4 10 9l10 7c14 10 21 20 21 30c0 11 -5 19 -15 26s-23 10 -40 10c-16 0 -34 -4 -52 -12z" />
    <glyph glyph-name="Ocircumflextilde" unicode="&#x1ed6;" horiz-adv-x="824" 
d="M413 628c123 0 202 -97 202 -264c0 -129 -73 -162 -202 -162c-65 0 -116 11 -153 33c-33 22 -51 64 -51 129c0 81 20 149 56 196c36 43 87 68 148 68zM413 742c-103 0 -186 -35 -248 -104c-61 -69 -92 -159 -92 -274c0 -114 31 -205 92 -274c62 -69 145 -104 248 -104
c102 0 184 35 246 104c61 69 92 160 92 274c0 115 -31 205 -92 274c-62 69 -144 104 -246 104zM233 757h107c11 15 23 32 35 49c13 17 25 34 37 50l73 -99h107l-136 208h-88zM372 1000l26 -25c25 -24 46 -32 76 -32c67 0 105 59 107 165h-93c-1 -25 -3 -43 -5 -54
c-2 -12 -7 -17 -12 -17c-3 0 -9 4 -19 13h1l-27 25c-27 23 -47 33 -75 33c-67 0 -106 -60 -108 -165h94c0 25 2 42 4 53c3 12 7 17 13 17c3 0 9 -4 18 -13z" />
    <glyph glyph-name="uni022A" unicode="&#x22a;" horiz-adv-x="824" 
d="M413 628c123 0 202 -97 202 -264c0 -129 -73 -162 -202 -162c-65 0 -116 11 -153 33c-33 22 -51 64 -51 129c0 81 20 149 56 196c36 43 87 68 148 68zM413 742c-103 0 -186 -35 -248 -104c-61 -69 -92 -159 -92 -274c0 -114 31 -205 92 -274c62 -69 145 -104 248 -104
c102 0 184 35 246 104c61 69 92 160 92 274c0 115 -31 205 -92 274c-62 69 -144 104 -246 104zM439 882h136v135h-136v-135zM248 882h136v135h-136v-135zM257 761h309v104h-309v-104z" />
    <glyph glyph-name="Odotbelow" unicode="&#x1ecc;" horiz-adv-x="824" 
d="M413 628c123 0 202 -97 202 -264c0 -129 -73 -162 -202 -162c-65 0 -116 11 -153 33c-33 22 -51 64 -51 129c0 81 20 149 56 196c36 43 87 68 148 68zM413 742c-103 0 -186 -35 -248 -104c-61 -69 -92 -159 -92 -274c0 -114 31 -205 92 -274c62 -69 145 -104 248 -104
c102 0 184 35 246 104c61 69 92 160 92 274c0 115 -31 205 -92 274c-62 69 -144 104 -246 104zM347 29h130v130h-130v-130z" />
    <glyph glyph-name="Ohookabove" unicode="&#x1ece;" horiz-adv-x="824" 
d="M413 628c123 0 202 -97 202 -264c0 -129 -73 -162 -202 -162c-65 0 -116 11 -153 33c-33 22 -51 64 -51 129c0 81 20 149 56 196c36 43 87 68 148 68zM413 742c-103 0 -186 -35 -248 -104c-61 -69 -92 -159 -92 -274c0 -114 31 -205 92 -274c62 -69 145 -104 248 -104
c102 0 184 35 246 104c61 69 92 160 92 274c0 115 -31 205 -92 274c-62 69 -144 104 -246 104zM366 844v-20c16 8 31 12 46 12c22 0 32 -7 32 -13c0 -7 -4 -13 -12 -18l-10 -8c-8 -6 -14 -11 -16 -15c-3 -5 -3 -10 -3 -16v-3h28c0 4 0 8 1 11c1 2 4 4 10 9l10 7
c14 10 21 20 21 30c0 11 -5 19 -15 26s-23 10 -40 10c-16 0 -34 -4 -52 -12z" />
    <glyph glyph-name="Ohorn" unicode="&#x1a0;" horiz-adv-x="824" 
d="M413 628c123 0 202 -97 202 -264c0 -129 -73 -162 -202 -162c-65 0 -116 11 -153 33c-33 22 -51 64 -51 129c0 81 20 149 56 196c36 43 87 68 148 68zM413 742c-103 0 -186 -35 -248 -104c-61 -69 -92 -159 -92 -274c0 -114 31 -205 92 -274c62 -69 145 -104 248 -104
c102 0 184 35 246 104c61 69 92 160 92 274c0 115 -31 205 -92 274c-62 69 -144 104 -246 104zM691 589l22 -46c25 12 27 16 49 34c30 27 41 75 41 114c0 9 -2 20 -5 32l-48 6c4 -10 7 -19 7 -30c0 -17 2 -63 -20 -83c-12 -10 -22 -12 -46 -27z" />
    <glyph glyph-name="Ohornacute" unicode="&#x1eda;" horiz-adv-x="824" 
d="M413 628c123 0 202 -97 202 -264c0 -129 -73 -162 -202 -162c-65 0 -116 11 -153 33c-33 22 -51 64 -51 129c0 81 20 149 56 196c36 43 87 68 148 68zM413 742c-103 0 -186 -35 -248 -104c-61 -69 -92 -159 -92 -274c0 -114 31 -205 92 -274c62 -69 145 -104 248 -104
c102 0 184 35 246 104c61 69 92 160 92 274c0 115 -31 205 -92 274c-62 69 -144 104 -246 104zM691 589l22 -46c25 12 27 16 49 34c30 27 41 75 41 114c0 9 -2 20 -5 32l-48 6c4 -10 7 -19 7 -30c0 -17 2 -63 -20 -83c-12 -10 -22 -12 -46 -27zM330 911h122l197 227h-149z
" />
    <glyph glyph-name="Ohorndotbelow" unicode="&#x1ee2;" horiz-adv-x="824" 
d="M413 628c123 0 202 -97 202 -264c0 -129 -73 -162 -202 -162c-65 0 -116 11 -153 33c-33 22 -51 64 -51 129c0 81 20 149 56 196c36 43 87 68 148 68zM413 742c-103 0 -186 -35 -248 -104c-61 -69 -92 -159 -92 -274c0 -114 31 -205 92 -274c62 -69 145 -104 248 -104
c102 0 184 35 246 104c61 69 92 160 92 274c0 115 -31 205 -92 274c-62 69 -144 104 -246 104zM691 589l22 -46c25 12 27 16 49 34c30 27 41 75 41 114c0 9 -2 20 -5 32l-48 6c4 -10 7 -19 7 -30c0 -17 2 -63 -20 -83c-12 -10 -22 -12 -46 -27zM347 29h130v130h-130v-130z
" />
    <glyph glyph-name="Ohorngrave" unicode="&#x1edc;" horiz-adv-x="824" 
d="M413 628c123 0 202 -97 202 -264c0 -129 -73 -162 -202 -162c-65 0 -116 11 -153 33c-33 22 -51 64 -51 129c0 81 20 149 56 196c36 43 87 68 148 68zM413 742c-103 0 -186 -35 -248 -104c-61 -69 -92 -159 -92 -274c0 -114 31 -205 92 -274c62 -69 145 -104 248 -104
c102 0 184 35 246 104c61 69 92 160 92 274c0 115 -31 205 -92 274c-62 69 -144 104 -246 104zM691 589l22 -46c25 12 27 16 49 34c30 27 41 75 41 114c0 9 -2 20 -5 32l-48 6c4 -10 7 -19 7 -30c0 -17 2 -63 -20 -83c-12 -10 -22 -12 -46 -27zM235 1153l115 -207h171
l-156 207h-130z" />
    <glyph glyph-name="Ohornhookabove" unicode="&#x1ede;" horiz-adv-x="824" 
d="M413 628c123 0 202 -97 202 -264c0 -129 -73 -162 -202 -162c-65 0 -116 11 -153 33c-33 22 -51 64 -51 129c0 81 20 149 56 196c36 43 87 68 148 68zM413 742c-103 0 -186 -35 -248 -104c-61 -69 -92 -159 -92 -274c0 -114 31 -205 92 -274c62 -69 145 -104 248 -104
c102 0 184 35 246 104c61 69 92 160 92 274c0 115 -31 205 -92 274c-62 69 -144 104 -246 104zM691 589l22 -46c25 12 27 16 49 34c30 27 41 75 41 114c0 9 -2 20 -5 32l-48 6c4 -10 7 -19 7 -30c0 -17 2 -63 -20 -83c-12 -10 -22 -12 -46 -27zM366 844v-20
c16 8 31 12 46 12c22 0 32 -7 32 -13c0 -7 -4 -13 -12 -18l-10 -8c-8 -6 -14 -11 -16 -15c-3 -5 -3 -10 -3 -16v-3h28c0 4 0 8 1 11c1 2 4 4 10 9l10 7c14 10 21 20 21 30c0 11 -5 19 -15 26s-23 10 -40 10c-16 0 -34 -4 -52 -12z" />
    <glyph glyph-name="Ohorntilde" unicode="&#x1ee0;" horiz-adv-x="824" 
d="M413 628c123 0 202 -97 202 -264c0 -129 -73 -162 -202 -162c-65 0 -116 11 -153 33c-33 22 -51 64 -51 129c0 81 20 149 56 196c36 43 87 68 148 68zM413 742c-103 0 -186 -35 -248 -104c-61 -69 -92 -159 -92 -274c0 -114 31 -205 92 -274c62 -69 145 -104 248 -104
c102 0 184 35 246 104c61 69 92 160 92 274c0 115 -31 205 -92 274c-62 69 -144 104 -246 104zM691 589l22 -46c25 12 27 16 49 34c30 27 41 75 41 114c0 9 -2 20 -5 32l-48 6c4 -10 7 -19 7 -30c0 -17 2 -63 -20 -83c-12 -10 -22 -12 -46 -27zM372 1000l26 -25
c25 -24 46 -32 76 -32c67 0 105 59 107 165h-93c-1 -25 -3 -43 -5 -54c-2 -12 -7 -17 -12 -17c-3 0 -9 4 -19 13h1l-27 25c-27 23 -47 33 -75 33c-67 0 -106 -60 -108 -165h94c0 25 2 42 4 53c3 12 7 17 13 17c3 0 9 -4 18 -13z" />
    <glyph glyph-name="Ohungarumlaut" unicode="&#x150;" horiz-adv-x="824" 
d="M413 628c123 0 202 -97 202 -264c0 -129 -73 -162 -202 -162c-65 0 -116 11 -153 33c-33 22 -51 64 -51 129c0 81 20 149 56 196c36 43 87 68 148 68zM413 742c-103 0 -186 -35 -248 -104c-61 -69 -92 -159 -92 -274c0 -114 31 -205 92 -274c62 -69 145 -104 248 -104
c102 0 184 35 246 104c61 69 92 160 92 274c0 115 -31 205 -92 274c-62 69 -144 104 -246 104zM365 757h101l138 208h-126zM220 757h102l124 208h-121z" />
    <glyph glyph-name="Omacron" unicode="&#x14c;" horiz-adv-x="824" 
d="M413 628c123 0 202 -97 202 -264c0 -129 -73 -162 -202 -162c-65 0 -116 11 -153 33c-33 22 -51 64 -51 129c0 81 20 149 56 196c36 43 87 68 148 68zM413 742c-103 0 -186 -35 -248 -104c-61 -69 -92 -159 -92 -274c0 -114 31 -205 92 -274c62 -69 145 -104 248 -104
c102 0 184 35 246 104c61 69 92 160 92 274c0 115 -31 205 -92 274c-62 69 -144 104 -246 104zM257 761h309v104h-309v-104z" />
    <glyph glyph-name="Omacronacute" unicode="&#x1e52;" horiz-adv-x="824" 
d="M413 628c123 0 202 -97 202 -264c0 -129 -73 -162 -202 -162c-65 0 -116 11 -153 33c-33 22 -51 64 -51 129c0 81 20 149 56 196c36 43 87 68 148 68zM413 742c-103 0 -186 -35 -248 -104c-61 -69 -92 -159 -92 -274c0 -114 31 -205 92 -274c62 -69 145 -104 248 -104
c102 0 184 35 246 104c61 69 92 160 92 274c0 115 -31 205 -92 274c-62 69 -144 104 -246 104zM257 761h309v104h-309v-104zM330 911h122l197 227h-149z" />
    <glyph glyph-name="Omacrongrave" unicode="&#x1e50;" horiz-adv-x="824" 
d="M413 628c123 0 202 -97 202 -264c0 -129 -73 -162 -202 -162c-65 0 -116 11 -153 33c-33 22 -51 64 -51 129c0 81 20 149 56 196c36 43 87 68 148 68zM413 742c-103 0 -186 -35 -248 -104c-61 -69 -92 -159 -92 -274c0 -114 31 -205 92 -274c62 -69 145 -104 248 -104
c102 0 184 35 246 104c61 69 92 160 92 274c0 115 -31 205 -92 274c-62 69 -144 104 -246 104zM257 761h309v104h-309v-104zM235 1153l115 -207h171l-156 207h-130z" />
    <glyph glyph-name="Oslashacute" unicode="&#x1fe;" horiz-adv-x="851" 
d="M330 178l277 323c6 -12 10 -23 13 -35c5 -17 8 -41 8 -72c-11 -80 -33 -141 -61 -170c-28 -28 -77 -47 -139 -56c-28 0 -51 0 -69 1c-9 1 -19 3 -29 9zM549 587l-290 -337c-13 15 -22 31 -32 50c-12 24 -19 51 -19 82c0 82 21 149 56 196c36 43 88 68 147 69
c36 -3 66 -9 89 -19c19 -7 34 -22 49 -41zM73 25l76 -65l76 89c57 -43 123 -63 201 -63c103 0 184 35 246 104c61 68 92 160 92 274c0 96 -23 178 -68 243l81 95l-75 65l-76 -89c-55 42 -122 64 -200 64c-206 0 -339 -150 -339 -378c0 -96 23 -178 67 -243zM343 911h122
l197 227h-149z" />
    <glyph glyph-name="Otildeacute" unicode="&#x1e4c;" horiz-adv-x="824" 
d="M413 628c123 0 202 -97 202 -264c0 -129 -73 -162 -202 -162c-65 0 -116 11 -153 33c-33 22 -51 64 -51 129c0 81 20 149 56 196c36 43 87 68 148 68zM413 742c-103 0 -186 -35 -248 -104c-61 -69 -92 -159 -92 -274c0 -114 31 -205 92 -274c62 -69 145 -104 248 -104
c102 0 184 35 246 104c61 69 92 160 92 274c0 115 -31 205 -92 274c-62 69 -144 104 -246 104zM372 787l26 -25c25 -24 46 -32 76 -32c67 0 105 59 107 165h-93c-1 -25 -3 -43 -5 -54c-2 -12 -7 -17 -12 -17c-3 0 -9 4 -19 13h1l-27 25c-27 23 -47 33 -75 33
c-67 0 -106 -60 -108 -165h94c0 25 2 42 4 53c3 12 7 17 13 17c3 0 9 -4 18 -13zM330 911h122l197 227h-149z" />
    <glyph glyph-name="Racute" unicode="&#x154;" horiz-adv-x="734" 
d="M543 511c0 73 -22 128 -64 164c-41 36 -100 54 -176 54h-230v-729h149v292h51c66 0 96 -17 138 -104v1l74 -189h176c-15 31 -35 69 -54 107c-20 39 -39 78 -55 109c-30 58 -59 101 -92 126c53 32 83 90 83 169zM213 643h100c62 0 127 -28 127 -132
c0 -43 -64 -86 -127 -86h-100v218zM225 911h122l197 227h-149z" />
    <glyph glyph-name="Rcaron" unicode="&#x158;" horiz-adv-x="734" 
d="M543 511c0 73 -22 128 -64 164c-41 36 -100 54 -176 54h-230v-729h149v292h51c66 0 96 -17 138 -104v1l74 -189h176c-15 31 -35 69 -54 107c-20 39 -39 78 -55 109c-30 58 -59 101 -92 126c53 32 83 90 83 169zM213 643h100c62 0 127 -28 127 -132
c0 -43 -64 -86 -127 -86h-100v218zM351 757l136 208h-107c-23 -31 -49 -66 -73 -99l-72 99h-107l135 -208h88z" />
    <glyph glyph-name="Rcommaaccent" unicode="&#x156;" horiz-adv-x="734" 
d="M543 511c0 73 -22 128 -64 164c-41 36 -100 54 -176 54h-230v-729h149v292h51c66 0 96 -17 138 -104v1l74 -189h176c-15 31 -35 69 -54 107c-20 39 -39 78 -55 109c-30 58 -59 101 -92 126c53 32 83 90 83 169zM213 643h100c62 0 127 -28 127 -132
c0 -43 -64 -86 -127 -86h-100v218zM263 -141l-53 -167h94l110 158v120h-151v-111z" />
    <glyph glyph-name="Sacute" unicode="&#x15a;" horiz-adv-x="670" 
d="M556 567v134c-81 27 -155 41 -222 41c-159 0 -261 -82 -261 -217c0 -115 66 -179 213 -207l57 -11c41 -9 76 -23 94 -38c16 -16 25 -30 25 -43c0 -15 -11 -30 -35 -47c-27 -19 -64 -29 -114 -29c-67 0 -145 27 -237 79v-193c89 -33 170 -50 237 -50c187 0 284 77 284 223
c0 124 -70 195 -220 224h1l-57 11c-48 9 -80 20 -96 34c-14 11 -21 30 -21 55c0 61 51 95 141 95c56 0 123 -20 211 -61zM241 911h122l197 227h-149z" />
    <glyph glyph-name="Scommaaccent" unicode="&#x218;" horiz-adv-x="670" 
d="M556 567v134c-81 27 -155 41 -222 41c-159 0 -261 -82 -261 -217c0 -115 66 -179 213 -207l57 -11c41 -9 76 -23 94 -38c16 -16 25 -30 25 -43c0 -15 -11 -30 -35 -47c-27 -19 -64 -29 -114 -29c-67 0 -145 27 -237 79v-193c89 -33 170 -50 237 -50c187 0 284 77 284 223
c0 124 -70 195 -220 224h1l-57 11c-48 9 -80 20 -96 34c-14 11 -21 30 -21 55c0 61 51 95 141 95c56 0 123 -20 211 -61zM279 -141l-53 -167h94l110 158v120h-151v-111z" />
    <glyph glyph-name="Sdotbelow" unicode="&#x1e62;" horiz-adv-x="670" 
d="M556 567v134c-81 27 -155 41 -222 41c-159 0 -261 -82 -261 -217c0 -115 66 -179 213 -207l57 -11c41 -9 76 -23 94 -38c16 -16 25 -30 25 -43c0 -15 -11 -30 -35 -47c-27 -19 -64 -29 -114 -29c-67 0 -145 27 -237 79v-193c89 -33 170 -50 237 -50c187 0 284 77 284 223
c0 124 -70 195 -220 224h1l-57 11c-48 9 -80 20 -96 34c-14 11 -21 30 -21 55c0 61 51 95 141 95c56 0 123 -20 211 -61zM255 -148h130v130h-130v-130z" />
    <glyph glyph-name="Tbar" unicode="&#x166;" horiz-adv-x="769" 
d="M73 613l245 9l-18 -622h169l-18 622l245 -10v117h-623v-116zM229 761h309v104h-309v-104z" />
    <glyph glyph-name="Tcaron" unicode="&#x164;" horiz-adv-x="769" 
d="M73 613l245 9l-18 -622h169l-18 622l245 -10v117h-623v-116zM428 757l136 208h-107c-23 -31 -49 -66 -73 -99l-72 99h-107l135 -208h88z" />
    <glyph glyph-name="Tcedilla" unicode="&#x162;" horiz-adv-x="769" 
d="M73 613l245 9l-18 -622h169l-18 622l245 -10v117h-623v-116zM437 37h-99c20 -27 34 -48 44 -64c9 -16 14 -29 14 -36c0 -16 -12 -24 -36 -24c-25 0 -52 7 -89 26v-104c37 -10 69 -15 98 -15c84 0 127 34 127 100c0 35 -19 70 -59 117z" />
    <glyph glyph-name="Tcircumflexbelow" unicode="&#x1e70;" horiz-adv-x="769" 
d="M73 613l245 9l-18 -622h169l-18 622l245 -10v117h-623v-116zM209 -280h107c11 15 23 32 35 49c13 17 25 34 37 50l73 -99h107l-136 208h-88z" />
    <glyph glyph-name="uni021A" unicode="&#x21a;" horiz-adv-x="769" 
d="M73 613l245 9l-18 -622h169l-18 622l245 -10v117h-623v-116zM340 -141l-53 -167h94l110 158v120h-151v-111z" />
    <glyph glyph-name="Tdotbelow" unicode="&#x1e6c;" horiz-adv-x="769" 
d="M73 613l245 9l-18 -622h169l-18 622l245 -10v117h-623v-116zM316 -148h130v130h-130v-130z" />
    <glyph glyph-name="Tlinebelow" unicode="&#x1e6e;" horiz-adv-x="769" 
d="M73 613l245 9l-18 -622h169l-18 622l245 -10v117h-623v-116zM234 -152h309v104h-309v-104z" />
    <glyph glyph-name="Ucaron" unicode="&#x1d3;" horiz-adv-x="713" 
d="M73 729v-451c0 -192 97 -292 284 -292s283 99 283 292v451h-131v-374c0 -69 -12 -119 -36 -149v1c-23 -28 -62 -42 -116 -42s-93 14 -116 42v-1c-24 30 -36 80 -36 149v374h-132zM400 757l136 208h-107c-23 -31 -49 -66 -73 -99l-72 99h-107l135 -208h88z" />
    <glyph glyph-name="Udieresisacute" unicode="&#x1d7;" horiz-adv-x="713" 
d="M73 729v-451c0 -192 97 -292 284 -292s283 99 283 292v451h-131v-374c0 -69 -12 -119 -36 -149v1c-23 -28 -62 -42 -116 -42s-93 14 -116 42v-1c-24 30 -36 80 -36 149v374h-132zM383 882h136v135h-136v-135zM192 882h136v135h-136v-135zM274 911h122l197 227h-149z" />
    <glyph glyph-name="Udieresiscaron" unicode="&#x1d9;" horiz-adv-x="713" 
d="M73 729v-451c0 -192 97 -292 284 -292s283 99 283 292v451h-131v-374c0 -69 -12 -119 -36 -149v1c-23 -28 -62 -42 -116 -42s-93 14 -116 42v-1c-24 30 -36 80 -36 149v374h-132zM383 882h136v135h-136v-135zM192 882h136v135h-136v-135zM400 757l136 208h-107
c-23 -31 -49 -66 -73 -99l-72 99h-107l135 -208h88z" />
    <glyph glyph-name="Udieresisgrave" unicode="&#x1db;" horiz-adv-x="713" 
d="M73 729v-451c0 -192 97 -292 284 -292s283 99 283 292v451h-131v-374c0 -69 -12 -119 -36 -149v1c-23 -28 -62 -42 -116 -42s-93 14 -116 42v-1c-24 30 -36 80 -36 149v374h-132zM383 882h136v135h-136v-135zM192 882h136v135h-136v-135zM179 1153l115 -207h171l-156 207
h-130z" />
    <glyph glyph-name="Udieresismacron" unicode="&#x1d5;" horiz-adv-x="713" 
d="M73 729v-451c0 -192 97 -292 284 -292s283 99 283 292v451h-131v-374c0 -69 -12 -119 -36 -149v1c-23 -28 -62 -42 -116 -42s-93 14 -116 42v-1c-24 30 -36 80 -36 149v374h-132zM383 882h136v135h-136v-135zM192 882h136v135h-136v-135zM201 761h309v104h-309v-104z" />
    <glyph glyph-name="Udotbelow" unicode="&#x1ee4;" horiz-adv-x="713" 
d="M73 729v-451c0 -192 97 -292 284 -292s283 99 283 292v451h-131v-374c0 -69 -12 -119 -36 -149v1c-23 -28 -62 -42 -116 -42s-93 14 -116 42v-1c-24 30 -36 80 -36 149v374h-132zM291 29h130v130h-130v-130z" />
    <glyph glyph-name="Uhookabove" unicode="&#x1ee6;" horiz-adv-x="713" 
d="M73 729v-451c0 -192 97 -292 284 -292s283 99 283 292v451h-131v-374c0 -69 -12 -119 -36 -149v1c-23 -28 -62 -42 -116 -42s-93 14 -116 42v-1c-24 30 -36 80 -36 149v374h-132zM310 844v-20c16 8 31 12 46 12c22 0 32 -7 32 -13c0 -7 -4 -13 -12 -18l-10 -8
c-8 -6 -14 -11 -16 -15c-3 -5 -3 -10 -3 -16v-3h28c0 4 0 8 1 11c1 2 4 4 10 9l10 7c14 10 21 20 21 30c0 11 -5 19 -15 26s-23 10 -40 10c-16 0 -34 -4 -52 -12z" />
    <glyph glyph-name="Uhorn" unicode="&#x1af;" horiz-adv-x="713" 
d="M73 729v-451c0 -192 97 -292 284 -292s283 99 283 292v451h-131v-374c0 -69 -12 -119 -36 -149v1c-23 -28 -62 -42 -116 -42s-93 14 -116 42v-1c-24 30 -36 80 -36 149v374h-132zM607 629l22 -46c25 12 27 16 49 34c30 27 41 75 41 114c0 9 -2 20 -5 32l-48 6
c4 -10 7 -19 7 -30c0 -17 2 -63 -20 -83c-12 -10 -22 -12 -46 -27z" />
    <glyph glyph-name="Uhornacute" unicode="&#x1ee8;" horiz-adv-x="713" 
d="M73 729v-451c0 -192 97 -292 284 -292s283 99 283 292v451h-131v-374c0 -69 -12 -119 -36 -149v1c-23 -28 -62 -42 -116 -42s-93 14 -116 42v-1c-24 30 -36 80 -36 149v374h-132zM607 629l22 -46c25 12 27 16 49 34c30 27 41 75 41 114c0 9 -2 20 -5 32l-48 6
c4 -10 7 -19 7 -30c0 -17 2 -63 -20 -83c-12 -10 -22 -12 -46 -27zM274 911h122l197 227h-149z" />
    <glyph glyph-name="Uhorndotbelow" unicode="&#x1ef0;" horiz-adv-x="713" 
d="M73 729v-451c0 -192 97 -292 284 -292s283 99 283 292v451h-131v-374c0 -69 -12 -119 -36 -149v1c-23 -28 -62 -42 -116 -42s-93 14 -116 42v-1c-24 30 -36 80 -36 149v374h-132zM607 629l22 -46c25 12 27 16 49 34c30 27 41 75 41 114c0 9 -2 20 -5 32l-48 6
c4 -10 7 -19 7 -30c0 -17 2 -63 -20 -83c-12 -10 -22 -12 -46 -27zM291 29h130v130h-130v-130z" />
    <glyph glyph-name="Uhorngrave" unicode="&#x1eea;" horiz-adv-x="713" 
d="M73 729v-451c0 -192 97 -292 284 -292s283 99 283 292v451h-131v-374c0 -69 -12 -119 -36 -149v1c-23 -28 -62 -42 -116 -42s-93 14 -116 42v-1c-24 30 -36 80 -36 149v374h-132zM607 629l22 -46c25 12 27 16 49 34c30 27 41 75 41 114c0 9 -2 20 -5 32l-48 6
c4 -10 7 -19 7 -30c0 -17 2 -63 -20 -83c-12 -10 -22 -12 -46 -27zM179 1153l115 -207h171l-156 207h-130z" />
    <glyph glyph-name="Uhornhookabove" unicode="&#x1eec;" horiz-adv-x="713" 
d="M73 729v-451c0 -192 97 -292 284 -292s283 99 283 292v451h-131v-374c0 -69 -12 -119 -36 -149v1c-23 -28 -62 -42 -116 -42s-93 14 -116 42v-1c-24 30 -36 80 -36 149v374h-132zM607 629l22 -46c25 12 27 16 49 34c30 27 41 75 41 114c0 9 -2 20 -5 32l-48 6
c4 -10 7 -19 7 -30c0 -17 2 -63 -20 -83c-12 -10 -22 -12 -46 -27zM310 844v-20c16 8 31 12 46 12c22 0 32 -7 32 -13c0 -7 -4 -13 -12 -18l-10 -8c-8 -6 -14 -11 -16 -15c-3 -5 -3 -10 -3 -16v-3h28c0 4 0 8 1 11c1 2 4 4 10 9l10 7c14 10 21 20 21 30c0 11 -5 19 -15 26
s-23 10 -40 10c-16 0 -34 -4 -52 -12z" />
    <glyph glyph-name="Uhorntilde" unicode="&#x1eee;" horiz-adv-x="713" 
d="M73 729v-451c0 -192 97 -292 284 -292s283 99 283 292v451h-131v-374c0 -69 -12 -119 -36 -149v1c-23 -28 -62 -42 -116 -42s-93 14 -116 42v-1c-24 30 -36 80 -36 149v374h-132zM607 629l22 -46c25 12 27 16 49 34c30 27 41 75 41 114c0 9 -2 20 -5 32l-48 6
c4 -10 7 -19 7 -30c0 -17 2 -63 -20 -83c-12 -10 -22 -12 -46 -27zM316 1000l26 -25c25 -24 46 -32 76 -32c67 0 105 59 107 165h-93c-1 -25 -3 -43 -5 -54c-2 -12 -7 -17 -12 -17c-3 0 -9 4 -19 13h1l-27 25c-27 23 -47 33 -75 33c-67 0 -106 -60 -108 -165h94
c0 25 2 42 4 53c3 12 7 17 13 17c3 0 9 -4 18 -13z" />
    <glyph glyph-name="Uhungarumlaut" unicode="&#x170;" horiz-adv-x="713" 
d="M73 729v-451c0 -192 97 -292 284 -292s283 99 283 292v451h-131v-374c0 -69 -12 -119 -36 -149v1c-23 -28 -62 -42 -116 -42s-93 14 -116 42v-1c-24 30 -36 80 -36 149v374h-132zM309 757h101l138 208h-126zM164 757h102l124 208h-121z" />
    <glyph glyph-name="Umacron" unicode="&#x16a;" horiz-adv-x="713" 
d="M73 729v-451c0 -192 97 -292 284 -292s283 99 283 292v451h-131v-374c0 -69 -12 -119 -36 -149v1c-23 -28 -62 -42 -116 -42s-93 14 -116 42v-1c-24 30 -36 80 -36 149v374h-132zM201 761h309v104h-309v-104z" />
    <glyph glyph-name="Uogonek" unicode="&#x172;" horiz-adv-x="713" 
d="M73 729v-451c0 -192 97 -292 284 -292s283 99 283 292v451h-131v-374c0 -69 -12 -119 -36 -149v1c-23 -28 -62 -42 -116 -42s-93 14 -116 42v-1c-24 30 -36 80 -36 149v374h-132zM401 0h-99c-40 -47 -59 -83 -59 -117c0 -69 39 -100 126 -100c20 0 46 5 81 13v104
c-34 -16 -59 -24 -75 -24c-21 0 -32 7 -32 23c0 7 5 20 14 36s24 38 44 65z" />
    <glyph glyph-name="Uring" unicode="&#x16e;" horiz-adv-x="713" 
d="M73 729v-451c0 -192 97 -292 284 -292s283 99 283 292v451h-131v-374c0 -69 -12 -119 -36 -149v1c-23 -28 -62 -42 -116 -42s-93 14 -116 42v-1c-24 30 -36 80 -36 149v374h-132zM407 895c0 -29 -21 -51 -51 -51c-14 0 -27 5 -37 14c-9 10 -14 22 -14 37
c0 29 22 50 51 50c30 0 51 -21 51 -50zM499 895c0 79 -64 143 -143 143s-143 -64 -143 -143c0 -80 64 -144 143 -144s143 64 143 144z" />
    <glyph glyph-name="Utilde" unicode="&#x168;" horiz-adv-x="713" 
d="M73 729v-451c0 -192 97 -292 284 -292s283 99 283 292v451h-131v-374c0 -69 -12 -119 -36 -149v1c-23 -28 -62 -42 -116 -42s-93 14 -116 42v-1c-24 30 -36 80 -36 149v374h-132zM316 1000l26 -25c25 -24 46 -32 76 -32c67 0 105 59 107 165h-93c-1 -25 -3 -43 -5 -54
c-2 -12 -7 -17 -12 -17c-3 0 -9 4 -19 13h1l-27 25c-27 23 -47 33 -75 33c-67 0 -106 -60 -108 -165h94c0 25 2 42 4 53c3 12 7 17 13 17c3 0 9 -4 18 -13z" />
    <glyph glyph-name="Wacute" unicode="&#x1e82;" horiz-adv-x="1070" 
d="M236 0h174c20 49 40 104 62 162c21 58 42 114 62 169l115 -331h164l184 729h-128c-24 -77 -49 -155 -75 -235c-25 -80 -50 -164 -74 -243l-135 297h-106c-23 -47 -48 -94 -73 -143s-50 -97 -74 -145l-132 469h-127zM449 911h122l197 227h-149z" />
    <glyph glyph-name="Wcircumflex" unicode="&#x174;" horiz-adv-x="1070" 
d="M236 0h174c20 49 40 104 62 162c21 58 42 114 62 169l115 -331h164l184 729h-128c-24 -77 -49 -155 -75 -235c-25 -80 -50 -164 -74 -243l-135 297h-106c-23 -47 -48 -94 -73 -143s-50 -97 -74 -145l-132 469h-127zM352 757h107c11 15 23 32 35 49c13 17 25 34 37 50
l73 -99h107l-136 208h-88z" />
    <glyph glyph-name="Wdieresis" unicode="&#x1e84;" horiz-adv-x="1070" 
d="M236 0h174c20 49 40 104 62 162c21 58 42 114 62 169l115 -331h164l184 729h-128c-24 -77 -49 -155 -75 -235c-25 -80 -50 -164 -74 -243l-135 297h-106c-23 -47 -48 -94 -73 -143s-50 -97 -74 -145l-132 469h-127zM558 882h136v135h-136v-135zM367 882h136v135h-136
v-135z" />
    <glyph glyph-name="Wgrave" unicode="&#x1e80;" horiz-adv-x="1070" 
d="M236 0h174c20 49 40 104 62 162c21 58 42 114 62 169l115 -331h164l184 729h-128c-24 -77 -49 -155 -75 -235c-25 -80 -50 -164 -74 -243l-135 297h-106c-23 -47 -48 -94 -73 -143s-50 -97 -74 -145l-132 469h-127zM354 1153l115 -207h171l-156 207h-130z" />
    <glyph glyph-name="Ycircumflex" unicode="&#x176;" horiz-adv-x="791" 
d="M311 250v-250h164v250l242 479h-142l-179 -334l-181 334h-142zM216 757h107c11 15 23 32 35 49c13 17 25 34 37 50l73 -99h107l-136 208h-88z" />
    <glyph glyph-name="Ydotbelow" unicode="&#x1ef4;" horiz-adv-x="791" 
d="M311 250v-250h164v250l242 479h-142l-179 -334l-181 334h-142zM330 29h130v130h-130v-130z" />
    <glyph glyph-name="Ygrave" unicode="&#x1ef2;" horiz-adv-x="791" 
d="M311 250v-250h164v250l242 479h-142l-179 -334l-181 334h-142zM218 1153l115 -207h171l-156 207h-130z" />
    <glyph glyph-name="Yhookabove" unicode="&#x1ef6;" horiz-adv-x="791" 
d="M311 250v-250h164v250l242 479h-142l-179 -334l-181 334h-142zM349 844v-20c16 8 31 12 46 12c22 0 32 -7 32 -13c0 -7 -4 -13 -12 -18l-10 -8c-8 -6 -14 -11 -16 -15c-3 -5 -3 -10 -3 -16v-3h28c0 4 0 8 1 11c1 2 4 4 10 9l10 7c14 10 21 20 21 30c0 11 -5 19 -15 26
s-23 10 -40 10c-16 0 -34 -4 -52 -12z" />
    <glyph glyph-name="Ytilde" unicode="&#x1ef8;" horiz-adv-x="791" 
d="M311 250v-250h164v250l242 479h-142l-179 -334l-181 334h-142zM355 1000l26 -25c25 -24 46 -32 76 -32c67 0 105 59 107 165h-93c-1 -25 -3 -43 -5 -54c-2 -12 -7 -17 -12 -17c-3 0 -9 4 -19 13h1l-27 25c-27 23 -47 33 -75 33c-67 0 -106 -60 -108 -165h94
c0 25 2 42 4 53c3 12 7 17 13 17c3 0 9 -4 18 -13z" />
    <glyph glyph-name="Zacute" unicode="&#x179;" horiz-adv-x="749" 
d="M84 613h403l-414 -455v-158h602v176h-425l415 456v97h-581v-116zM295 911h122l197 227h-149z" />
    <glyph glyph-name="Zdotaccent" unicode="&#x17b;" horiz-adv-x="749" 
d="M84 613h403l-414 -455v-158h602v176h-425l415 456v97h-581v-116zM312 796h130v130h-130v-130z" />
    <glyph glyph-name="Zdotbelow" unicode="&#x1e92;" horiz-adv-x="749" 
d="M84 613h403l-414 -455v-158h602v176h-425l415 456v97h-581v-116zM312 29h130v130h-130v-130z" />
    <glyph glyph-name="abreve" unicode="&#x103;" horiz-adv-x="614" 
d="M374 261v-1c0 -97 -25 -109 -99 -109c-28 0 -52 3 -71 8c-12 4 -20 15 -24 31c1 25 8 42 24 53c17 12 54 18 112 18h58zM541 0v310c0 167 -79 249 -238 249c-57 0 -121 -14 -192 -41v-111c66 35 126 54 182 54c78 -6 123 -44 127 -102h-99c-166 0 -248 -65 -248 -192
c0 -54 17 -98 52 -131s80 -49 138 -49c68 0 118 19 157 55v-42h121zM253 745h-90c8 -111 62 -167 162 -167s155 56 162 167h-88c-8 -46 -31 -68 -74 -68c-41 0 -66 23 -72 68z" />
    <glyph glyph-name="abreveacute" unicode="&#x1eaf;" horiz-adv-x="614" 
d="M374 261v-1c0 -97 -25 -109 -99 -109c-28 0 -52 3 -71 8c-12 4 -20 15 -24 31c1 25 8 42 24 53c17 12 54 18 112 18h58zM541 0v310c0 167 -79 249 -238 249c-57 0 -121 -14 -192 -41v-111c66 35 126 54 182 54c78 -6 123 -44 127 -102h-99c-166 0 -248 -65 -248 -192
c0 -54 17 -98 52 -131s80 -49 138 -49c68 0 118 19 157 55v-42h121zM253 745h-90c8 -111 62 -167 162 -167s155 56 162 167h-88c-8 -46 -31 -68 -74 -68c-41 0 -66 23 -72 68zM243 729h122l197 227h-149z" />
    <glyph glyph-name="abrevedotbelow" unicode="&#x1eb7;" horiz-adv-x="614" 
d="M374 261v-1c0 -97 -25 -109 -99 -109c-28 0 -52 3 -71 8c-12 4 -20 15 -24 31c1 25 8 42 24 53c17 12 54 18 112 18h58zM541 0v310c0 167 -79 249 -238 249c-57 0 -121 -14 -192 -41v-111c66 35 126 54 182 54c78 -6 123 -44 127 -102h-99c-166 0 -248 -65 -248 -192
c0 -54 17 -98 52 -131s80 -49 138 -49c68 0 118 19 157 55v-42h121zM260 -153h130v130h-130v-130zM253 745h-90c8 -111 62 -167 162 -167s155 56 162 167h-88c-8 -46 -31 -68 -74 -68c-41 0 -66 23 -72 68z" />
    <glyph glyph-name="abrevegrave" unicode="&#x1eb1;" horiz-adv-x="614" 
d="M374 261v-1c0 -97 -25 -109 -99 -109c-28 0 -52 3 -71 8c-12 4 -20 15 -24 31c1 25 8 42 24 53c17 12 54 18 112 18h58zM541 0v310c0 167 -79 249 -238 249c-57 0 -121 -14 -192 -41v-111c66 35 126 54 182 54c78 -6 123 -44 127 -102h-99c-166 0 -248 -65 -248 -192
c0 -54 17 -98 52 -131s80 -49 138 -49c68 0 118 19 157 55v-42h121zM253 745h-90c8 -111 62 -167 162 -167s155 56 162 167h-88c-8 -46 -31 -68 -74 -68c-41 0 -66 23 -72 68zM148 971l115 -207h171l-156 207h-130z" />
    <glyph glyph-name="abrevehookabove" unicode="&#x1eb3;" horiz-adv-x="614" 
d="M374 261v-1c0 -97 -25 -109 -99 -109c-28 0 -52 3 -71 8c-12 4 -20 15 -24 31c1 25 8 42 24 53c17 12 54 18 112 18h58zM541 0v310c0 167 -79 249 -238 249c-57 0 -121 -14 -192 -41v-111c66 35 126 54 182 54c78 -6 123 -44 127 -102h-99c-166 0 -248 -65 -248 -192
c0 -54 17 -98 52 -131s80 -49 138 -49c68 0 118 19 157 55v-42h121zM253 745h-90c8 -111 62 -167 162 -167s155 56 162 167h-88c-8 -46 -31 -68 -74 -68c-41 0 -66 23 -72 68zM279 662v-20c16 8 31 12 46 12c22 0 32 -7 32 -13c0 -7 -4 -13 -12 -18l-10 -8
c-8 -6 -14 -11 -16 -15c-3 -5 -3 -10 -3 -16v-3h28c0 4 0 8 1 11c1 2 4 4 10 9l10 7c14 10 21 20 21 30c0 11 -5 19 -15 26s-23 10 -40 10c-16 0 -34 -4 -52 -12z" />
    <glyph glyph-name="abrevetilde" unicode="&#x1eb5;" horiz-adv-x="614" 
d="M374 261v-1c0 -97 -25 -109 -99 -109c-28 0 -52 3 -71 8c-12 4 -20 15 -24 31c1 25 8 42 24 53c17 12 54 18 112 18h58zM541 0v310c0 167 -79 249 -238 249c-57 0 -121 -14 -192 -41v-111c66 35 126 54 182 54c78 -6 123 -44 127 -102h-99c-166 0 -248 -65 -248 -192
c0 -54 17 -98 52 -131s80 -49 138 -49c68 0 118 19 157 55v-42h121zM253 745h-90c8 -111 62 -167 162 -167s155 56 162 167h-88c-8 -46 -31 -68 -74 -68c-41 0 -66 23 -72 68zM285 818l26 -25c25 -24 46 -32 76 -32c67 0 105 59 107 165h-93c-1 -25 -3 -43 -5 -54
c-2 -12 -7 -17 -12 -17c-3 0 -9 4 -19 13h1l-27 25c-27 23 -47 33 -75 33c-67 0 -106 -60 -108 -165h94c0 25 2 42 4 53c3 12 7 17 13 17c3 0 9 -4 18 -13z" />
    <glyph glyph-name="acaron" unicode="&#x1ce;" horiz-adv-x="614" 
d="M374 261v-1c0 -97 -25 -109 -99 -109c-28 0 -52 3 -71 8c-12 4 -20 15 -24 31c1 25 8 42 24 53c17 12 54 18 112 18h58zM541 0v310c0 167 -79 249 -238 249c-57 0 -121 -14 -192 -41v-111c66 35 126 54 182 54c78 -6 123 -44 127 -102h-99c-166 0 -248 -65 -248 -192
c0 -54 17 -98 52 -131s80 -49 138 -49c68 0 118 19 157 55v-42h121zM369 575l136 208h-107c-23 -31 -49 -66 -73 -99l-72 99h-107l135 -208h88z" />
    <glyph glyph-name="acircumflexacute" unicode="&#x1ea5;" horiz-adv-x="614" 
d="M374 261v-1c0 -97 -25 -109 -99 -109c-28 0 -52 3 -71 8c-12 4 -20 15 -24 31c1 25 8 42 24 53c17 12 54 18 112 18h58zM541 0v310c0 167 -79 249 -238 249c-57 0 -121 -14 -192 -41v-111c66 35 126 54 182 54c78 -6 123 -44 127 -102h-99c-166 0 -248 -65 -248 -192
c0 -54 17 -98 52 -131s80 -49 138 -49c68 0 118 19 157 55v-42h121zM146 575h107c11 15 23 32 35 49c13 17 25 34 37 50l73 -99h107l-136 208h-88zM243 729h122l197 227h-149z" />
    <glyph glyph-name="acircumflexdotbelow" unicode="&#x1ead;" horiz-adv-x="614" 
d="M374 261v-1c0 -97 -25 -109 -99 -109c-28 0 -52 3 -71 8c-12 4 -20 15 -24 31c1 25 8 42 24 53c17 12 54 18 112 18h58zM541 0v310c0 167 -79 249 -238 249c-57 0 -121 -14 -192 -41v-111c66 35 126 54 182 54c78 -6 123 -44 127 -102h-99c-166 0 -248 -65 -248 -192
c0 -54 17 -98 52 -131s80 -49 138 -49c68 0 118 19 157 55v-42h121zM260 -153h130v130h-130v-130zM146 575h107c11 15 23 32 35 49c13 17 25 34 37 50l73 -99h107l-136 208h-88z" />
    <glyph glyph-name="acircumflexgrave" unicode="&#x1ea7;" horiz-adv-x="614" 
d="M374 261v-1c0 -97 -25 -109 -99 -109c-28 0 -52 3 -71 8c-12 4 -20 15 -24 31c1 25 8 42 24 53c17 12 54 18 112 18h58zM541 0v310c0 167 -79 249 -238 249c-57 0 -121 -14 -192 -41v-111c66 35 126 54 182 54c78 -6 123 -44 127 -102h-99c-166 0 -248 -65 -248 -192
c0 -54 17 -98 52 -131s80 -49 138 -49c68 0 118 19 157 55v-42h121zM146 575h107c11 15 23 32 35 49c13 17 25 34 37 50l73 -99h107l-136 208h-88zM148 971l115 -207h171l-156 207h-130z" />
    <glyph glyph-name="acircumflexhookabove" unicode="&#x1ea9;" horiz-adv-x="614" 
d="M374 261v-1c0 -97 -25 -109 -99 -109c-28 0 -52 3 -71 8c-12 4 -20 15 -24 31c1 25 8 42 24 53c17 12 54 18 112 18h58zM541 0v310c0 167 -79 249 -238 249c-57 0 -121 -14 -192 -41v-111c66 35 126 54 182 54c78 -6 123 -44 127 -102h-99c-166 0 -248 -65 -248 -192
c0 -54 17 -98 52 -131s80 -49 138 -49c68 0 118 19 157 55v-42h121zM146 575h107c11 15 23 32 35 49c13 17 25 34 37 50l73 -99h107l-136 208h-88zM279 662v-20c16 8 31 12 46 12c22 0 32 -7 32 -13c0 -7 -4 -13 -12 -18l-10 -8c-8 -6 -14 -11 -16 -15c-3 -5 -3 -10 -3 -16
v-3h28c0 4 0 8 1 11c1 2 4 4 10 9l10 7c14 10 21 20 21 30c0 11 -5 19 -15 26s-23 10 -40 10c-16 0 -34 -4 -52 -12z" />
    <glyph glyph-name="acircumflextilde" unicode="&#x1eab;" horiz-adv-x="614" 
d="M374 261v-1c0 -97 -25 -109 -99 -109c-28 0 -52 3 -71 8c-12 4 -20 15 -24 31c1 25 8 42 24 53c17 12 54 18 112 18h58zM541 0v310c0 167 -79 249 -238 249c-57 0 -121 -14 -192 -41v-111c66 35 126 54 182 54c78 -6 123 -44 127 -102h-99c-166 0 -248 -65 -248 -192
c0 -54 17 -98 52 -131s80 -49 138 -49c68 0 118 19 157 55v-42h121zM146 575h107c11 15 23 32 35 49c13 17 25 34 37 50l73 -99h107l-136 208h-88zM285 818l26 -25c25 -24 46 -32 76 -32c67 0 105 59 107 165h-93c-1 -25 -3 -43 -5 -54c-2 -12 -7 -17 -12 -17
c-3 0 -9 4 -19 13h1l-27 25c-27 23 -47 33 -75 33c-67 0 -106 -60 -108 -165h94c0 25 2 42 4 53c3 12 7 17 13 17c3 0 9 -4 18 -13z" />
    <glyph glyph-name="adieresismacron" unicode="&#x1df;" horiz-adv-x="614" 
d="M374 261v-1c0 -97 -25 -109 -99 -109c-28 0 -52 3 -71 8c-12 4 -20 15 -24 31c1 25 8 42 24 53c17 12 54 18 112 18h58zM541 0v310c0 167 -79 249 -238 249c-57 0 -121 -14 -192 -41v-111c66 35 126 54 182 54c78 -6 123 -44 127 -102h-99c-166 0 -248 -65 -248 -192
c0 -54 17 -98 52 -131s80 -49 138 -49c68 0 118 19 157 55v-42h121zM352 700h136v135h-136v-135zM161 700h136v135h-136v-135zM170 579h309v104h-309v-104z" />
    <glyph glyph-name="adotbelow" unicode="&#x1ea1;" horiz-adv-x="614" 
d="M374 261v-1c0 -97 -25 -109 -99 -109c-28 0 -52 3 -71 8c-12 4 -20 15 -24 31c1 25 8 42 24 53c17 12 54 18 112 18h58zM541 0v310c0 167 -79 249 -238 249c-57 0 -121 -14 -192 -41v-111c66 35 126 54 182 54c78 -6 123 -44 127 -102h-99c-166 0 -248 -65 -248 -192
c0 -54 17 -98 52 -131s80 -49 138 -49c68 0 118 19 157 55v-42h121zM260 -153h130v130h-130v-130z" />
    <glyph glyph-name="ahookabove" unicode="&#x1ea3;" horiz-adv-x="614" 
d="M374 261v-1c0 -97 -25 -109 -99 -109c-28 0 -52 3 -71 8c-12 4 -20 15 -24 31c1 25 8 42 24 53c17 12 54 18 112 18h58zM541 0v310c0 167 -79 249 -238 249c-57 0 -121 -14 -192 -41v-111c66 35 126 54 182 54c78 -6 123 -44 127 -102h-99c-166 0 -248 -65 -248 -192
c0 -54 17 -98 52 -131s80 -49 138 -49c68 0 118 19 157 55v-42h121zM279 662v-20c16 8 31 12 46 12c22 0 32 -7 32 -13c0 -7 -4 -13 -12 -18l-10 -8c-8 -6 -14 -11 -16 -15c-3 -5 -3 -10 -3 -16v-3h28c0 4 0 8 1 11c1 2 4 4 10 9l10 7c14 10 21 20 21 30c0 11 -5 19 -15 26
s-23 10 -40 10c-16 0 -34 -4 -52 -12z" />
    <glyph glyph-name="amacron" unicode="&#x101;" horiz-adv-x="614" 
d="M374 261v-1c0 -97 -25 -109 -99 -109c-28 0 -52 3 -71 8c-12 4 -20 15 -24 31c1 25 8 42 24 53c17 12 54 18 112 18h58zM541 0v310c0 167 -79 249 -238 249c-57 0 -121 -14 -192 -41v-111c66 35 126 54 182 54c78 -6 123 -44 127 -102h-99c-166 0 -248 -65 -248 -192
c0 -54 17 -98 52 -131s80 -49 138 -49c68 0 118 19 157 55v-42h121zM170 579h309v104h-309v-104z" />
    <glyph glyph-name="aogonek" unicode="&#x105;" horiz-adv-x="614" 
d="M374 261v-1c0 -97 -25 -109 -99 -109c-28 0 -52 3 -71 8c-12 4 -20 15 -24 31c1 25 8 42 24 53c17 12 54 18 112 18h58zM541 0v310c0 167 -79 249 -238 249c-57 0 -121 -14 -192 -41v-111c66 35 126 54 182 54c78 -6 123 -44 127 -102h-99c-166 0 -248 -65 -248 -192
c0 -54 17 -98 52 -131s80 -49 138 -49c68 0 118 19 157 55v-42h121zM532 0h-99c-40 -47 -59 -83 -59 -117c0 -69 39 -100 126 -100c20 0 46 5 81 13v104c-34 -16 -59 -24 -75 -24c-21 0 -32 7 -32 23c0 7 5 20 14 36s24 38 44 65z" />
    <glyph glyph-name="bdotbelow" unicode="&#x1e05;" horiz-adv-x="640" 
d="M438 200c-21 -15 -47 -25 -81 -27c-74 0 -111 39 -123 118c1 55 13 99 35 129c22 27 52 43 90 43c37 0 66 -14 84 -43c20 -29 32 -71 34 -127c-8 -46 -21 -78 -39 -93zM94 103l100 -62c37 -38 84 -54 145 -54c136 0 227 117 227 286s-91 286 -227 286
c-61 0 -106 -15 -143 -52l8 239h-121zM257 -6290h130v130h-130v-130z" />
    <glyph glyph-name="cdotaccent" unicode="&#x10b;" horiz-adv-x="587" 
d="M514 405v116c-57 25 -112 38 -166 38c-170 0 -275 -110 -275 -286c0 -172 106 -286 270 -286c59 0 114 13 171 39l-3 175c-39 -23 -69 -33 -90 -34h-72c-45 4 -88 14 -110 28c-19 14 -32 43 -36 80c1 113 51 181 149 181c45 0 100 -17 162 -51zM258 614h130v130h-130
v-130z" />
    <glyph glyph-name="dcaron" unicode="&#x10f;" horiz-adv-x="648" 
d="M455 746l-8 -242c-37 37 -86 55 -147 55c-136 0 -227 -117 -227 -286s91 -286 227 -286c61 0 109 16 145 54v-41h121l9 746h-120zM203 417v-1c22 30 52 45 90 45c37 0 65 -17 83 -46c19 -30 29 -74 31 -127c-3 -98 -36 -112 -116 -112c-40 0 -68 8 -86 24s-31 44 -37 85
c1 56 13 100 35 132zM713 770l-51 -197h107l97 190v107h-153v-100z" />
    <glyph glyph-name="dcircumflexbelow" unicode="&#x1e13;" horiz-adv-x="648" 
d="M455 746l-8 -242c-37 37 -86 55 -147 55c-136 0 -227 -117 -227 -286s91 -286 227 -286c61 0 109 16 145 54v-41h121l9 746h-120zM203 417v-1c22 30 52 45 90 45c37 0 65 -17 83 -46c19 -30 29 -74 31 -127c-3 -98 -36 -112 -116 -112c-40 0 -68 8 -86 24s-31 44 -37 85
c1 56 13 100 35 132zM127 -342h107c11 15 23 32 35 49c13 17 25 34 37 50l73 -99h107l-136 208h-88z" />
    <glyph glyph-name="ddotbelow" unicode="&#x1e0d;" horiz-adv-x="648" 
d="M455 746l-8 -242c-37 37 -86 55 -147 55c-136 0 -227 -117 -227 -286s91 -286 227 -286c61 0 109 16 145 54v-41h121l9 746h-120zM203 417v-1c22 30 52 45 90 45c37 0 65 -17 83 -46c19 -30 29 -74 31 -127c-3 -98 -36 -112 -116 -112c-40 0 -68 8 -86 24s-31 44 -37 85
c1 56 13 100 35 132zM234 -210h130v130h-130v-130z" />
    <glyph glyph-name="dlinebelow" unicode="&#x1e0f;" horiz-adv-x="648" 
d="M455 746l-8 -242c-37 37 -86 55 -147 55c-136 0 -227 -117 -227 -286s91 -286 227 -286c61 0 109 16 145 54v-41h121l9 746h-120zM203 417v-1c22 30 52 45 90 45c37 0 65 -17 83 -46c19 -30 29 -74 31 -127c-3 -98 -36 -112 -116 -112c-40 0 -68 8 -86 24s-31 44 -37 85
c1 56 13 100 35 132zM152 -214h309v104h-309v-104z" />
    <glyph glyph-name="ecaron" unicode="&#x11b;" 
d="M578 276v52c-6 77 -29 134 -68 171h1c-39 37 -95 57 -169 60c-165 0 -263 -114 -269 -290c0 -86 26 -154 77 -204c52 -49 120 -75 205 -78c69 0 138 15 208 45l-2 158c-44 -23 -81 -37 -109 -39c-31 -3 -59 -4 -92 -4c-49 4 -94 15 -122 32c-21 15 -36 49 -40 97h380z
M464 386h-256c4 18 16 37 35 56v-1c24 25 57 38 99 38c36 0 65 -13 86 -38c15 -18 29 -38 36 -55zM380 575l136 208h-107c-23 -31 -49 -66 -73 -99l-72 99h-107l135 -208h88z" />
    <glyph glyph-name="uni0229" unicode="&#x229;" 
d="M578 276v52c-6 77 -29 134 -68 171h1c-39 37 -95 57 -169 60c-165 0 -263 -114 -269 -290c0 -86 26 -154 77 -204c52 -49 120 -75 205 -78c69 0 138 15 208 45l-2 158c-44 -23 -81 -37 -109 -39c-31 -3 -59 -4 -92 -4c-49 4 -94 15 -122 32c-21 15 -36 49 -40 97h380z
M464 386h-256c4 18 16 37 35 56v-1c24 25 57 38 99 38c36 0 65 -13 86 -38c15 -18 29 -38 36 -55zM417 24h-99c20 -27 34 -48 44 -64c9 -16 14 -29 14 -36c0 -16 -12 -24 -36 -24c-25 0 -52 7 -89 26v-104c37 -10 69 -15 98 -15c84 0 127 34 127 100c0 35 -19 70 -59 117z
" />
    <glyph glyph-name="ecircumflexacute" unicode="&#x1ebf;" 
d="M578 276v52c-6 77 -29 134 -68 171h1c-39 37 -95 57 -169 60c-165 0 -263 -114 -269 -290c0 -86 26 -154 77 -204c52 -49 120 -75 205 -78c69 0 138 15 208 45l-2 158c-44 -23 -81 -37 -109 -39c-31 -3 -59 -4 -92 -4c-49 4 -94 15 -122 32c-21 15 -36 49 -40 97h380z
M464 386h-256c4 18 16 37 35 56v-1c24 25 57 38 99 38c36 0 65 -13 86 -38c15 -18 29 -38 36 -55zM157 575h107c11 15 23 32 35 49c13 17 25 34 37 50l73 -99h107l-136 208h-88zM254 729h122l197 227h-149z" />
    <glyph glyph-name="ecircumflexdotbelow" unicode="&#x1ec7;" 
d="M578 276v52c-6 77 -29 134 -68 171h1c-39 37 -95 57 -169 60c-165 0 -263 -114 -269 -290c0 -86 26 -154 77 -204c52 -49 120 -75 205 -78c69 0 138 15 208 45l-2 158c-44 -23 -81 -37 -109 -39c-31 -3 -59 -4 -92 -4c-49 4 -94 15 -122 32c-21 15 -36 49 -40 97h380z
M464 386h-256c4 18 16 37 35 56v-1c24 25 57 38 99 38c36 0 65 -13 86 -38c15 -18 29 -38 36 -55zM296 -161h130v130h-130v-130zM157 575h107c11 15 23 32 35 49c13 17 25 34 37 50l73 -99h107l-136 208h-88z" />
    <glyph glyph-name="ecircumflexgrave" unicode="&#x1ec1;" 
d="M578 276v52c-6 77 -29 134 -68 171h1c-39 37 -95 57 -169 60c-165 0 -263 -114 -269 -290c0 -86 26 -154 77 -204c52 -49 120 -75 205 -78c69 0 138 15 208 45l-2 158c-44 -23 -81 -37 -109 -39c-31 -3 -59 -4 -92 -4c-49 4 -94 15 -122 32c-21 15 -36 49 -40 97h380z
M464 386h-256c4 18 16 37 35 56v-1c24 25 57 38 99 38c36 0 65 -13 86 -38c15 -18 29 -38 36 -55zM157 575h107c11 15 23 32 35 49c13 17 25 34 37 50l73 -99h107l-136 208h-88zM159 971l115 -207h171l-156 207h-130z" />
    <glyph glyph-name="ecircumflexhookabove" unicode="&#x1ec3;" 
d="M578 276v52c-6 77 -29 134 -68 171h1c-39 37 -95 57 -169 60c-165 0 -263 -114 -269 -290c0 -86 26 -154 77 -204c52 -49 120 -75 205 -78c69 0 138 15 208 45l-2 158c-44 -23 -81 -37 -109 -39c-31 -3 -59 -4 -92 -4c-49 4 -94 15 -122 32c-21 15 -36 49 -40 97h380z
M464 386h-256c4 18 16 37 35 56v-1c24 25 57 38 99 38c36 0 65 -13 86 -38c15 -18 29 -38 36 -55zM157 575h107c11 15 23 32 35 49c13 17 25 34 37 50l73 -99h107l-136 208h-88zM290 662v-20c16 8 31 12 46 12c22 0 32 -7 32 -13c0 -7 -4 -13 -12 -18l-10 -8
c-8 -6 -14 -11 -16 -15c-3 -5 -3 -10 -3 -16v-3h28c0 4 0 8 1 11c1 2 4 4 10 9l10 7c14 10 21 20 21 30c0 11 -5 19 -15 26s-23 10 -40 10c-16 0 -34 -4 -52 -12z" />
    <glyph glyph-name="ecircumflextilde" unicode="&#x1ec5;" 
d="M578 276v52c-6 77 -29 134 -68 171h1c-39 37 -95 57 -169 60c-165 0 -263 -114 -269 -290c0 -86 26 -154 77 -204c52 -49 120 -75 205 -78c69 0 138 15 208 45l-2 158c-44 -23 -81 -37 -109 -39c-31 -3 -59 -4 -92 -4c-49 4 -94 15 -122 32c-21 15 -36 49 -40 97h380z
M464 386h-256c4 18 16 37 35 56v-1c24 25 57 38 99 38c36 0 65 -13 86 -38c15 -18 29 -38 36 -55zM157 575h107c11 15 23 32 35 49c13 17 25 34 37 50l73 -99h107l-136 208h-88zM296 818l26 -25c25 -24 46 -32 76 -32c67 0 105 59 107 165h-93c-1 -25 -3 -43 -5 -54
c-2 -12 -7 -17 -12 -17c-3 0 -9 4 -19 13h1l-27 25c-27 23 -47 33 -75 33c-67 0 -106 -60 -108 -165h94c0 25 2 42 4 53c3 12 7 17 13 17c3 0 9 -4 18 -13z" />
    <glyph glyph-name="edotaccent" unicode="&#x117;" 
d="M578 276v52c-6 77 -29 134 -68 171h1c-39 37 -95 57 -169 60c-165 0 -263 -114 -269 -290c0 -86 26 -154 77 -204c52 -49 120 -75 205 -78c69 0 138 15 208 45l-2 158c-44 -23 -81 -37 -109 -39c-31 -3 -59 -4 -92 -4c-49 4 -94 15 -122 32c-21 15 -36 49 -40 97h380z
M464 386h-256c4 18 16 37 35 56v-1c24 25 57 38 99 38c36 0 65 -13 86 -38c15 -18 29 -38 36 -55zM271 614h130v130h-130v-130z" />
    <glyph glyph-name="edotbelow" unicode="&#x1eb9;" 
d="M578 276v52c-6 77 -29 134 -68 171h1c-39 37 -95 57 -169 60c-165 0 -263 -114 -269 -290c0 -86 26 -154 77 -204c52 -49 120 -75 205 -78c69 0 138 15 208 45l-2 158c-44 -23 -81 -37 -109 -39c-31 -3 -59 -4 -92 -4c-49 4 -94 15 -122 32c-21 15 -36 49 -40 97h380z
M464 386h-256c4 18 16 37 35 56v-1c24 25 57 38 99 38c36 0 65 -13 86 -38c15 -18 29 -38 36 -55zM296 -161h130v130h-130v-130z" />
    <glyph glyph-name="ehookabove" unicode="&#x1ebb;" 
d="M578 276v52c-6 77 -29 134 -68 171h1c-39 37 -95 57 -169 60c-165 0 -263 -114 -269 -290c0 -86 26 -154 77 -204c52 -49 120 -75 205 -78c69 0 138 15 208 45l-2 158c-44 -23 -81 -37 -109 -39c-31 -3 -59 -4 -92 -4c-49 4 -94 15 -122 32c-21 15 -36 49 -40 97h380z
M464 386h-256c4 18 16 37 35 56v-1c24 25 57 38 99 38c36 0 65 -13 86 -38c15 -18 29 -38 36 -55zM290 662v-20c16 8 31 12 46 12c22 0 32 -7 32 -13c0 -7 -4 -13 -12 -18l-10 -8c-8 -6 -14 -11 -16 -15c-3 -5 -3 -10 -3 -16v-3h28c0 4 0 8 1 11c1 2 4 4 10 9l10 7
c14 10 21 20 21 30c0 11 -5 19 -15 26s-23 10 -40 10c-16 0 -34 -4 -52 -12z" />
    <glyph glyph-name="emacron" unicode="&#x113;" 
d="M578 276v52c-6 77 -29 134 -68 171h1c-39 37 -95 57 -169 60c-165 0 -263 -114 -269 -290c0 -86 26 -154 77 -204c52 -49 120 -75 205 -78c69 0 138 15 208 45l-2 158c-44 -23 -81 -37 -109 -39c-31 -3 -59 -4 -92 -4c-49 4 -94 15 -122 32c-21 15 -36 49 -40 97h380z
M464 386h-256c4 18 16 37 35 56v-1c24 25 57 38 99 38c36 0 65 -13 86 -38c15 -18 29 -38 36 -55zM181 579h309v104h-309v-104z" />
    <glyph glyph-name="eogonek" unicode="&#x119;" 
d="M578 276v52c-6 77 -29 134 -68 171h1c-39 37 -95 57 -169 60c-165 0 -263 -114 -269 -290c0 -86 26 -154 77 -204c52 -49 120 -75 205 -78c69 0 138 15 208 45l-2 158c-44 -23 -81 -37 -109 -39c-31 -3 -59 -4 -92 -4c-49 4 -94 15 -122 32c-21 15 -36 49 -40 97h380z
M464 386h-256c4 18 16 37 35 56v-1c24 25 57 38 99 38c36 0 65 -13 86 -38c15 -18 29 -38 36 -55zM406 0h-99c-40 -47 -59 -83 -59 -117c0 -69 39 -100 126 -100c20 0 46 5 81 13v104c-34 -16 -59 -24 -75 -24c-21 0 -32 7 -32 23c0 7 5 20 14 36s24 38 44 65z" />
    <glyph glyph-name="etilde" unicode="&#x1ebd;" 
d="M578 276v52c-6 77 -29 134 -68 171h1c-39 37 -95 57 -169 60c-165 0 -263 -114 -269 -290c0 -86 26 -154 77 -204c52 -49 120 -75 205 -78c69 0 138 15 208 45l-2 158c-44 -23 -81 -37 -109 -39c-31 -3 -59 -4 -92 -4c-49 4 -94 15 -122 32c-21 15 -36 49 -40 97h380z
M464 386h-256c4 18 16 37 35 56v-1c24 25 57 38 99 38c36 0 65 -13 86 -38c15 -18 29 -38 36 -55zM296 818l26 -25c25 -24 46 -32 76 -32c67 0 105 59 107 165h-93c-1 -25 -3 -43 -5 -54c-2 -12 -7 -17 -12 -17c-3 0 -9 4 -19 13h1l-27 25c-27 23 -47 33 -75 33
c-67 0 -106 -60 -108 -165h94c0 25 2 42 4 53c3 12 7 17 13 17c3 0 9 -4 18 -13z" />
    <glyph glyph-name="gcaron" unicode="&#x1e7;" horiz-adv-x="648" 
d="M409 284c0 -105 -47 -112 -131 -112c-41 0 -71 6 -88 16c-14 12 -25 45 -30 98c0 28 3 52 8 74c11 43 39 98 116 98c40 0 71 -16 92 -45c21 -30 33 -74 33 -129zM575 547h-119c0 -6 -1 -14 -2 -22s-2 -17 -3 -25c-37 41 -86 59 -151 59c-137 0 -227 -114 -227 -280
c0 -165 90 -279 227 -279c41 0 76 8 106 24c10 6 18 12 26 17c-9 -18 -19 -36 -35 -54c-22 -25 -59 -39 -107 -39c-47 0 -100 15 -165 51v-193c60 -21 117 -32 178 -32c85 0 149 23 191 70c41 44 63 128 67 237zM381 575l136 208h-107c-23 -31 -49 -66 -73 -99l-72 99h-107
l135 -208h88z" />
    <glyph glyph-name="gcommaaccent" unicode="&#x123;" horiz-adv-x="648" 
d="M409 284c0 -105 -47 -112 -131 -112c-41 0 -71 6 -88 16c-14 12 -25 45 -30 98c0 28 3 52 8 74c11 43 39 98 116 98c40 0 71 -16 92 -45c21 -30 33 -74 33 -129zM575 547h-119c0 -6 -1 -14 -2 -22s-2 -17 -3 -25c-37 41 -86 59 -151 59c-137 0 -227 -114 -227 -280
c0 -165 90 -279 227 -279c41 0 76 8 106 24c10 6 18 12 26 17c-9 -18 -19 -36 -35 -54c-22 -25 -59 -39 -107 -39c-47 0 -100 15 -165 51v-193c60 -21 117 -32 178 -32c85 0 149 23 191 70c41 44 63 128 67 237zM72 -156l-53 -167h94l110 158v120h-151v-111z" />
    <glyph glyph-name="gdotaccent" unicode="&#x121;" horiz-adv-x="648" 
d="M409 284c0 -105 -47 -112 -131 -112c-41 0 -71 6 -88 16c-14 12 -25 45 -30 98c0 28 3 52 8 74c11 43 39 98 116 98c40 0 71 -16 92 -45c21 -30 33 -74 33 -129zM575 547h-119c0 -6 -1 -14 -2 -22s-2 -17 -3 -25c-37 41 -86 59 -151 59c-137 0 -227 -114 -227 -280
c0 -165 90 -279 227 -279c41 0 76 8 106 24c10 6 18 12 26 17c-9 -18 -19 -36 -35 -54c-22 -25 -59 -39 -107 -39c-47 0 -100 15 -165 51v-193c60 -21 117 -32 178 -32c85 0 149 23 191 70c41 44 63 128 67 237zM272 614h130v130h-130v-130z" />
    <glyph glyph-name="hbar" unicode="&#x127;" horiz-adv-x="630" 
d="M31 586l337 5l4 78l-336 -5zM547 327v-1c0 154 -67 233 -196 233c-60 0 -107 -17 -146 -57l8 244h-121l-19 -746h140c-1 48 -3 101 -5 153c-1 53 -3 106 -4 154c0 90 49 152 128 152c63 0 95 -50 95 -135l-10 -324h140z" />
    <glyph glyph-name="hdotbelow" unicode="&#x1e25;" horiz-adv-x="630" 
d="M547 327v-1c0 154 -67 233 -196 233c-60 0 -107 -17 -146 -57l8 244h-121l-19 -746h140c-1 48 -3 101 -5 153c-1 53 -3 106 -4 154c0 90 49 152 128 152c63 0 95 -50 95 -135l-10 -324h140zM195 -153h130v130h-130v-130z" />
    <glyph glyph-name="icaron" unicode="&#x1d0;" horiz-adv-x="267" 
d="M73 0h121v547h-121v-547zM176 575l136 208h-107c-23 -31 -49 -66 -73 -99l-72 99h-107l135 -208h88z" />
    <glyph glyph-name="idieresisacute" unicode="&#x1e2f;" horiz-adv-x="267" 
d="M73 0h121v547h-121v-547zM159 700h136v135h-136v-135zM-32 700h136v135h-136v-135zM50 729h122l197 227h-149z" />
    <glyph glyph-name="idotbelow" unicode="&#x1ecb;" horiz-adv-x="269" 
d="M74 0h120l-4 547h-111zM73 603h122l-6 143h-110zM73 -6290h130v130h-130v-130z" />
    <glyph glyph-name="ihookabove" unicode="&#x1ec9;" horiz-adv-x="267" 
d="M73 0h121v547h-121v-547zM86 662v-20c16 8 31 12 46 12c22 0 32 -7 32 -13c0 -7 -4 -13 -12 -18l-10 -8c-8 -6 -14 -11 -16 -15c-3 -5 -3 -10 -3 -16v-3h28c0 4 0 8 1 11c1 2 4 4 10 9l10 7c14 10 21 20 21 30c0 11 -5 19 -15 26s-23 10 -40 10c-16 0 -34 -4 -52 -12z
" />
    <glyph glyph-name="ij" unicode="&#x133;" horiz-adv-x="696" 
d="M74 0h120l-4 547h-111zM73 603h122l-6 143h-110zM488 545l-23 -483c-1 -21 -2 -38 -4 -51c-3 -13 -6 -22 -10 -27c-9 -9 -27 -15 -54 -16h-52l-3 -162l65 -1c60 2 104 19 133 50c27 30 42 81 44 150l19 538zM501 603h122l-6 143h-110z" />
    <glyph glyph-name="imacron" unicode="&#x12b;" horiz-adv-x="267" 
d="M73 0h121v547h-121v-547zM-23 579h309v104h-309v-104z" />
    <glyph glyph-name="iogonek" unicode="&#x12f;" horiz-adv-x="267" 
d="M73 0h121v547h-121v-547zM67 614h130v130h-130v-130zM184 0h-99c-40 -47 -59 -83 -59 -117c0 -69 39 -100 126 -100c20 0 46 5 81 13v104c-34 -16 -59 -24 -75 -24c-21 0 -32 7 -32 23c0 7 5 20 14 36s24 38 44 65z" />
    <glyph glyph-name="itilde" unicode="&#x129;" horiz-adv-x="267" 
d="M73 0h121v547h-121v-547zM92 818l26 -25c25 -24 46 -32 76 -32c67 0 105 59 107 165h-93c-1 -25 -3 -43 -5 -54c-2 -12 -7 -17 -12 -17c-3 0 -9 4 -19 13h1l-27 25c-27 23 -47 33 -75 33c-67 0 -106 -60 -108 -165h94c0 25 2 42 4 53c3 12 7 17 13 17c3 0 9 -4 18 -13z
" />
    <glyph glyph-name="kcommaaccent" unicode="&#x137;" horiz-adv-x="677" 
d="M73 0h150l-12 204l166 -204h227c-22 22 -46 45 -72 70l-78 75c-27 25 -53 51 -79 76c-25 25 -50 48 -73 71l206 255h-154l-146 -171l5 370h-121zM228 -141l-53 -167h94l110 158v120h-151v-111z" />
    <glyph glyph-name="lacute" unicode="&#x13a;" horiz-adv-x="329" 
d="M73 0h182v140h-56v606h-116zM96 942h122l197 227h-149z" />
    <glyph glyph-name="lcaron" unicode="&#x13e;" horiz-adv-x="329" 
d="M73 0h182v140h-56v606h-116zM322 722l-53 -167h94l110 158v120h-151v-111z" />
    <glyph glyph-name="lcircumflexbelow" unicode="&#x1e3d;" horiz-adv-x="329" 
d="M73 0h182v140h-56v606h-116zM-55 -280h107c11 15 23 32 35 49c13 17 25 34 37 50l73 -99h107l-136 208h-88z" />
    <glyph glyph-name="lcommaaccent" unicode="&#x13c;" horiz-adv-x="329" 
d="M73 0h182v140h-56v606h-116zM76 -141l-53 -167h94l110 158v120h-151v-111z" />
    <glyph glyph-name="ldot" unicode="&#x140;" horiz-adv-x="329" 
d="M73 0h182v140h-56v606h-116zM73 266h133v152h-133v-152z" />
    <glyph glyph-name="ldotbelow" unicode="&#x1e37;" horiz-adv-x="329" 
d="M73 0h182v140h-56v606h-116zM52 -148h130v130h-130v-130z" />
    <glyph glyph-name="macute" unicode="&#x1e3f;" horiz-adv-x="947" 
d="M458 528c-31 20 -68 31 -109 31c-57 0 -101 -16 -138 -49l3 37h-122l-19 -547h149c-1 48 -3 101 -5 153c-2 53 -3 106 -5 154c0 45 13 84 37 115c23 31 53 46 90 46c60 0 87 -40 88 -124l-34 -344h154l5 306c0 93 44 157 118 157c57 0 74 -35 74 -125l-25 -338h155
c-1 51 -3 107 -5 164c-2 56 -3 111 -5 163v-1c0 74 -16 133 -48 173c-31 39 -77 60 -136 60c-88 0 -131 -37 -167 -90c-13 24 -32 44 -55 59zM73 556h122l197 227h-149z" />
    <glyph glyph-name="nacute" unicode="&#x144;" horiz-adv-x="644" 
d="M570 0l-14 327c-8 149 -74 232 -202 232c-39 0 -73 -9 -103 -25c-15 -9 -29 -17 -43 -26v43h-120l-15 -551h154l-15 312c0 90 41 143 133 143c62 0 86 -42 86 -126l-19 -329h158zM226 729h122l197 227h-149z" />
    <glyph glyph-name="ncaron" unicode="&#x148;" horiz-adv-x="644" 
d="M570 0l-14 327c-8 149 -74 232 -202 232c-39 0 -73 -9 -103 -25c-15 -9 -29 -17 -43 -26v43h-120l-15 -551h154l-15 312c0 90 41 143 133 143c62 0 86 -42 86 -126l-19 -329h158zM352 575l136 208h-107c-23 -31 -49 -66 -73 -99l-72 99h-107l135 -208h88z" />
    <glyph glyph-name="ncircumflexbelow" unicode="&#x1e4b;" horiz-adv-x="644" 
d="M570 0l-14 327c-8 149 -74 232 -202 232c-39 0 -73 -9 -103 -25c-15 -9 -29 -17 -43 -26v43h-120l-15 -551h154l-15 312c0 90 41 143 133 143c62 0 86 -42 86 -126l-19 -329h158zM133 -280h107c11 15 23 32 35 49c13 17 25 34 37 50l73 -99h107l-136 208h-88z" />
    <glyph glyph-name="ncommaaccent" unicode="&#x146;" horiz-adv-x="644" 
d="M570 0l-14 327c-8 149 -74 232 -202 232c-39 0 -73 -9 -103 -25c-15 -9 -29 -17 -43 -26v43h-120l-15 -551h154l-15 312c0 90 41 143 133 143c62 0 86 -42 86 -126l-19 -329h158zM264 -141l-53 -167h94l110 158v120h-151v-111z" />
    <glyph glyph-name="ndotaccent" unicode="&#x1e45;" horiz-adv-x="644" 
d="M570 0l-14 327c-8 149 -74 232 -202 232c-39 0 -73 -9 -103 -25c-15 -9 -29 -17 -43 -26v43h-120l-15 -551h154l-15 312c0 90 41 143 133 143c62 0 86 -42 86 -126l-19 -329h158zM243 614h130v130h-130v-130z" />
    <glyph glyph-name="ndotbelow" unicode="&#x1e47;" horiz-adv-x="644" 
d="M570 0l-14 327c-8 149 -74 232 -202 232c-39 0 -73 -9 -103 -25c-15 -9 -29 -17 -43 -26v43h-120l-15 -551h154l-15 312c0 90 41 143 133 143c62 0 86 -42 86 -126l-19 -329h158zM240 -148h130v130h-130v-130z" />
    <glyph glyph-name="eng" unicode="&#x14b;" horiz-adv-x="644" 
d="M565 0l-9 327c-5 149 -74 232 -202 232c-39 0 -73 -9 -103 -25c-15 -9 -29 -17 -43 -26v43h-120l-15 -551h154l-15 312c0 90 41 143 133 143c62 0 86 -42 86 -126l-19 -329c-27 -49 -101 -62 -123 -70c-29 -11 22 -99 82 -114c24 -6 204 89 194 184z" />
    <glyph glyph-name="ocaron" unicode="&#x1d2;" 
d="M326 461c76 0 127 -64 127 -173c0 -53 -11 -85 -31 -99c-23 -13 -56 -21 -96 -21c-84 0 -128 14 -128 120c0 109 50 173 128 173zM326 559c-80 0 -142 -26 -186 -77c-45 -51 -67 -121 -67 -209s22 -158 67 -209c44 -51 106 -77 186 -77c156 0 252 110 252 286
s-96 286 -252 286zM369 575l136 208h-107c-23 -31 -49 -66 -73 -99l-72 99h-107l135 -208h88z" />
    <glyph glyph-name="ocircumflexacute" unicode="&#x1ed1;" 
d="M326 461c76 0 127 -64 127 -173c0 -53 -11 -85 -31 -99c-23 -13 -56 -21 -96 -21c-84 0 -128 14 -128 120c0 109 50 173 128 173zM326 559c-80 0 -142 -26 -186 -77c-45 -51 -67 -121 -67 -209s22 -158 67 -209c44 -51 106 -77 186 -77c156 0 252 110 252 286
s-96 286 -252 286zM146 575h107c11 15 23 32 35 49c13 17 25 34 37 50l73 -99h107l-136 208h-88zM243 729h122l197 227h-149z" />
    <glyph glyph-name="ocircumflexdotbelow" unicode="&#x1ed9;" 
d="M326 461c76 0 127 -64 127 -173c0 -53 -11 -85 -31 -99c-23 -13 -56 -21 -96 -21c-84 0 -128 14 -128 120c0 109 50 173 128 173zM326 559c-80 0 -142 -26 -186 -77c-45 -51 -67 -121 -67 -209s22 -158 67 -209c44 -51 106 -77 186 -77c156 0 252 110 252 286
s-96 286 -252 286zM260 -153h130v130h-130v-130zM146 575h107c11 15 23 32 35 49c13 17 25 34 37 50l73 -99h107l-136 208h-88z" />
    <glyph glyph-name="ocircumflexgrave" unicode="&#x1ed3;" 
d="M326 461c76 0 127 -64 127 -173c0 -53 -11 -85 -31 -99c-23 -13 -56 -21 -96 -21c-84 0 -128 14 -128 120c0 109 50 173 128 173zM326 559c-80 0 -142 -26 -186 -77c-45 -51 -67 -121 -67 -209s22 -158 67 -209c44 -51 106 -77 186 -77c156 0 252 110 252 286
s-96 286 -252 286zM146 575h107c11 15 23 32 35 49c13 17 25 34 37 50l73 -99h107l-136 208h-88zM148 971l115 -207h171l-156 207h-130z" />
    <glyph glyph-name="ocircumflexhookabove" unicode="&#x1ed5;" 
d="M326 461c76 0 127 -64 127 -173c0 -53 -11 -85 -31 -99c-23 -13 -56 -21 -96 -21c-84 0 -128 14 -128 120c0 109 50 173 128 173zM326 559c-80 0 -142 -26 -186 -77c-45 -51 -67 -121 -67 -209s22 -158 67 -209c44 -51 106 -77 186 -77c156 0 252 110 252 286
s-96 286 -252 286zM146 575h107c11 15 23 32 35 49c13 17 25 34 37 50l73 -99h107l-136 208h-88zM279 662v-20c16 8 31 12 46 12c22 0 32 -7 32 -13c0 -7 -4 -13 -12 -18l-10 -8c-8 -6 -14 -11 -16 -15c-3 -5 -3 -10 -3 -16v-3h28c0 4 0 8 1 11c1 2 4 4 10 9l10 7
c14 10 21 20 21 30c0 11 -5 19 -15 26s-23 10 -40 10c-16 0 -34 -4 -52 -12z" />
    <glyph glyph-name="ocircumflextilde" unicode="&#x1ed7;" 
d="M326 461c76 0 127 -64 127 -173c0 -53 -11 -85 -31 -99c-23 -13 -56 -21 -96 -21c-84 0 -128 14 -128 120c0 109 50 173 128 173zM326 559c-80 0 -142 -26 -186 -77c-45 -51 -67 -121 -67 -209s22 -158 67 -209c44 -51 106 -77 186 -77c156 0 252 110 252 286
s-96 286 -252 286zM146 575h107c11 15 23 32 35 49c13 17 25 34 37 50l73 -99h107l-136 208h-88zM285 818l26 -25c25 -24 46 -32 76 -32c67 0 105 59 107 165h-93c-1 -25 -3 -43 -5 -54c-2 -12 -7 -17 -12 -17c-3 0 -9 4 -19 13h1l-27 25c-27 23 -47 33 -75 33
c-67 0 -106 -60 -108 -165h94c0 25 2 42 4 53c3 12 7 17 13 17c3 0 9 -4 18 -13z" />
    <glyph glyph-name="uni022B" unicode="&#x22b;" 
d="M326 461c76 0 127 -64 127 -173c0 -53 -11 -85 -31 -99c-23 -13 -56 -21 -96 -21c-84 0 -128 14 -128 120c0 109 50 173 128 173zM326 559c-80 0 -142 -26 -186 -77c-45 -51 -67 -121 -67 -209s22 -158 67 -209c44 -51 106 -77 186 -77c156 0 252 110 252 286
s-96 286 -252 286zM352 700h136v135h-136v-135zM161 700h136v135h-136v-135zM170 579h309v104h-309v-104z" />
    <glyph glyph-name="odotbelow" unicode="&#x1ecd;" 
d="M326 461c76 0 127 -64 127 -173c0 -53 -11 -85 -31 -99c-23 -13 -56 -21 -96 -21c-84 0 -128 14 -128 120c0 109 50 173 128 173zM326 559c-80 0 -142 -26 -186 -77c-45 -51 -67 -121 -67 -209s22 -158 67 -209c44 -51 106 -77 186 -77c156 0 252 110 252 286
s-96 286 -252 286zM260 -153h130v130h-130v-130z" />
    <glyph glyph-name="ohookabove" unicode="&#x1ecf;" 
d="M326 461c76 0 127 -64 127 -173c0 -53 -11 -85 -31 -99c-23 -13 -56 -21 -96 -21c-84 0 -128 14 -128 120c0 109 50 173 128 173zM326 559c-80 0 -142 -26 -186 -77c-45 -51 -67 -121 -67 -209s22 -158 67 -209c44 -51 106 -77 186 -77c156 0 252 110 252 286
s-96 286 -252 286zM279 662v-20c16 8 31 12 46 12c22 0 32 -7 32 -13c0 -7 -4 -13 -12 -18l-10 -8c-8 -6 -14 -11 -16 -15c-3 -5 -3 -10 -3 -16v-3h28c0 4 0 8 1 11c1 2 4 4 10 9l10 7c14 10 21 20 21 30c0 11 -5 19 -15 26s-23 10 -40 10c-16 0 -34 -4 -52 -12z" />
    <glyph glyph-name="ohorn" unicode="&#x1a1;" 
d="M326 461c76 0 127 -64 127 -173c0 -53 -11 -85 -31 -99c-23 -13 -56 -21 -96 -21c-84 0 -128 14 -128 120c0 109 50 173 128 173zM326 559c-80 0 -142 -26 -186 -77c-45 -51 -67 -121 -67 -209s22 -158 67 -209c44 -51 106 -77 186 -77c156 0 252 110 252 286
s-96 286 -252 286zM500 427l22 -46c25 12 27 16 49 34c30 27 41 75 41 114c0 9 -2 20 -5 32l-48 6c4 -10 7 -19 7 -30c0 -17 2 -63 -20 -83c-12 -10 -22 -12 -46 -27z" />
    <glyph glyph-name="ohornacute" unicode="&#x1edb;" 
d="M326 461c76 0 127 -64 127 -173c0 -53 -11 -85 -31 -99c-23 -13 -56 -21 -96 -21c-84 0 -128 14 -128 120c0 109 50 173 128 173zM326 559c-80 0 -142 -26 -186 -77c-45 -51 -67 -121 -67 -209s22 -158 67 -209c44 -51 106 -77 186 -77c156 0 252 110 252 286
s-96 286 -252 286zM500 427l22 -46c25 12 27 16 49 34c30 27 41 75 41 114c0 9 -2 20 -5 32l-48 6c4 -10 7 -19 7 -30c0 -17 2 -63 -20 -83c-12 -10 -22 -12 -46 -27zM243 729h122l197 227h-149z" />
    <glyph glyph-name="ohorndotbelow" unicode="&#x1ee3;" 
d="M326 461c76 0 127 -64 127 -173c0 -53 -11 -85 -31 -99c-23 -13 -56 -21 -96 -21c-84 0 -128 14 -128 120c0 109 50 173 128 173zM326 559c-80 0 -142 -26 -186 -77c-45 -51 -67 -121 -67 -209s22 -158 67 -209c44 -51 106 -77 186 -77c156 0 252 110 252 286
s-96 286 -252 286zM500 427l22 -46c25 12 27 16 49 34c30 27 41 75 41 114c0 9 -2 20 -5 32l-48 6c4 -10 7 -19 7 -30c0 -17 2 -63 -20 -83c-12 -10 -22 -12 -46 -27zM260 -153h130v130h-130v-130z" />
    <glyph glyph-name="ohorngrave" unicode="&#x1edd;" 
d="M326 461c76 0 127 -64 127 -173c0 -53 -11 -85 -31 -99c-23 -13 -56 -21 -96 -21c-84 0 -128 14 -128 120c0 109 50 173 128 173zM326 559c-80 0 -142 -26 -186 -77c-45 -51 -67 -121 -67 -209s22 -158 67 -209c44 -51 106 -77 186 -77c156 0 252 110 252 286
s-96 286 -252 286zM500 427l22 -46c25 12 27 16 49 34c30 27 41 75 41 114c0 9 -2 20 -5 32l-48 6c4 -10 7 -19 7 -30c0 -17 2 -63 -20 -83c-12 -10 -22 -12 -46 -27zM148 971l115 -207h171l-156 207h-130z" />
    <glyph glyph-name="ohornhookabove" unicode="&#x1edf;" 
d="M326 461c76 0 127 -64 127 -173c0 -53 -11 -85 -31 -99c-23 -13 -56 -21 -96 -21c-84 0 -128 14 -128 120c0 109 50 173 128 173zM326 559c-80 0 -142 -26 -186 -77c-45 -51 -67 -121 -67 -209s22 -158 67 -209c44 -51 106 -77 186 -77c156 0 252 110 252 286
s-96 286 -252 286zM500 427l22 -46c25 12 27 16 49 34c30 27 41 75 41 114c0 9 -2 20 -5 32l-48 6c4 -10 7 -19 7 -30c0 -17 2 -63 -20 -83c-12 -10 -22 -12 -46 -27zM279 662v-20c16 8 31 12 46 12c22 0 32 -7 32 -13c0 -7 -4 -13 -12 -18l-10 -8c-8 -6 -14 -11 -16 -15
c-3 -5 -3 -10 -3 -16v-3h28c0 4 0 8 1 11c1 2 4 4 10 9l10 7c14 10 21 20 21 30c0 11 -5 19 -15 26s-23 10 -40 10c-16 0 -34 -4 -52 -12z" />
    <glyph glyph-name="ohorntilde" unicode="&#x1ee1;" 
d="M326 461c76 0 127 -64 127 -173c0 -53 -11 -85 -31 -99c-23 -13 -56 -21 -96 -21c-84 0 -128 14 -128 120c0 109 50 173 128 173zM326 559c-80 0 -142 -26 -186 -77c-45 -51 -67 -121 -67 -209s22 -158 67 -209c44 -51 106 -77 186 -77c156 0 252 110 252 286
s-96 286 -252 286zM500 427l22 -46c25 12 27 16 49 34c30 27 41 75 41 114c0 9 -2 20 -5 32l-48 6c4 -10 7 -19 7 -30c0 -17 2 -63 -20 -83c-12 -10 -22 -12 -46 -27zM285 818l26 -25c25 -24 46 -32 76 -32c67 0 105 59 107 165h-93c-1 -25 -3 -43 -5 -54
c-2 -12 -7 -17 -12 -17c-3 0 -9 4 -19 13h1l-27 25c-27 23 -47 33 -75 33c-67 0 -106 -60 -108 -165h94c0 25 2 42 4 53c3 12 7 17 13 17c3 0 9 -4 18 -13z" />
    <glyph glyph-name="ohungarumlaut" unicode="&#x151;" 
d="M326 461c76 0 127 -64 127 -173c0 -53 -11 -85 -31 -99c-23 -13 -56 -21 -96 -21c-84 0 -128 14 -128 120c0 109 50 173 128 173zM326 559c-80 0 -142 -26 -186 -77c-45 -51 -67 -121 -67 -209s22 -158 67 -209c44 -51 106 -77 186 -77c156 0 252 110 252 286
s-96 286 -252 286zM278 575h101l138 208h-126zM133 575h102l124 208h-121z" />
    <glyph glyph-name="omacron" unicode="&#x14d;" 
d="M326 461c76 0 127 -64 127 -173c0 -53 -11 -85 -31 -99c-23 -13 -56 -21 -96 -21c-84 0 -128 14 -128 120c0 109 50 173 128 173zM326 559c-80 0 -142 -26 -186 -77c-45 -51 -67 -121 -67 -209s22 -158 67 -209c44 -51 106 -77 186 -77c156 0 252 110 252 286
s-96 286 -252 286zM170 579h309v104h-309v-104z" />
    <glyph glyph-name="omacronacute" unicode="&#x1e53;" 
d="M326 461c76 0 127 -64 127 -173c0 -53 -11 -85 -31 -99c-23 -13 -56 -21 -96 -21c-84 0 -128 14 -128 120c0 109 50 173 128 173zM326 559c-80 0 -142 -26 -186 -77c-45 -51 -67 -121 -67 -209s22 -158 67 -209c44 -51 106 -77 186 -77c156 0 252 110 252 286
s-96 286 -252 286zM170 579h309v104h-309v-104zM243 729h122l197 227h-149z" />
    <glyph glyph-name="omacrongrave" unicode="&#x1e51;" 
d="M326 461c76 0 127 -64 127 -173c0 -53 -11 -85 -31 -99c-23 -13 -56 -21 -96 -21c-84 0 -128 14 -128 120c0 109 50 173 128 173zM326 559c-80 0 -142 -26 -186 -77c-45 -51 -67 -121 -67 -209s22 -158 67 -209c44 -51 106 -77 186 -77c156 0 252 110 252 286
s-96 286 -252 286zM170 579h309v104h-309v-104zM148 971l115 -207h171l-156 207h-130z" />
    <glyph glyph-name="oslashacute" unicode="&#x1ff;" horiz-adv-x="702" 
d="M281 116l191 230c6 -21 7 -42 7 -73c0 -114 -51 -179 -127 -179c-30 0 -51 7 -71 22zM421 430l-191 -230c-4 18 -6 42 -6 67c0 60 12 106 35 139c22 29 54 46 93 46c27 0 49 -7 69 -22zM73 8l72 -58c4 5 9 11 15 17c10 13 22 27 33 41c6 6 11 13 16 19
c39 -27 86 -40 143 -40c157 0 252 111 252 286c0 71 -15 130 -44 179l69 85l-71 60c-4 -6 -9 -12 -15 -18c-5 -6 -11 -13 -16 -20c-12 -14 -24 -28 -33 -40c-41 27 -88 40 -142 40c-158 0 -253 -110 -253 -286c0 -73 13 -130 45 -179zM269 729h122l197 227h-149z" />
    <glyph glyph-name="otildeacute" unicode="&#x1e4d;" 
d="M326 461c76 0 127 -64 127 -173c0 -53 -11 -85 -31 -99c-23 -13 -56 -21 -96 -21c-84 0 -128 14 -128 120c0 109 50 173 128 173zM326 559c-80 0 -142 -26 -186 -77c-45 -51 -67 -121 -67 -209s22 -158 67 -209c44 -51 106 -77 186 -77c156 0 252 110 252 286
s-96 286 -252 286zM285 818l26 -25c25 -24 46 -32 76 -32c67 0 105 59 107 165h-93c-1 -25 -3 -43 -5 -54c-2 -12 -7 -17 -12 -17c-3 0 -9 4 -19 13h1l-27 25c-27 23 -47 33 -75 33c-67 0 -106 -60 -108 -165h94c0 25 2 42 4 53c3 12 7 17 13 17c3 0 9 -4 18 -13zM243 729
h122l197 227h-149z" />
    <glyph glyph-name="racute" unicode="&#x155;" horiz-adv-x="478" 
d="M405 409l-1 133c-29 6 -43 8 -55 8c-44 0 -81 -9 -113 -28v1c-5 -3 -9 -6 -14 -9c-5 -2 -10 -5 -14 -8v36h-110l-25 -542h145l-10 274c0 50 10 90 29 120c17 26 46 40 87 40c11 0 22 0 34 -3c12 -4 26 -10 47 -22zM101 729h122l197 227h-149z" />
    <glyph glyph-name="rcaron" unicode="&#x159;" horiz-adv-x="478" 
d="M405 409l-1 133c-29 6 -43 8 -55 8c-44 0 -81 -9 -113 -28v1c-5 -3 -9 -6 -14 -9c-5 -2 -10 -5 -14 -8v36h-110l-25 -542h145l-10 274c0 50 10 90 29 120c17 26 46 40 87 40c11 0 22 0 34 -3c12 -4 26 -10 47 -22zM227 575l136 208h-107c-23 -31 -49 -66 -73 -99l-72 99
h-107l135 -208h88z" />
    <glyph glyph-name="rcommaaccent" unicode="&#x157;" horiz-adv-x="478" 
d="M405 409l-1 133c-29 6 -43 8 -55 8c-44 0 -81 -9 -113 -28v1c-5 -3 -9 -6 -14 -9c-5 -2 -10 -5 -14 -8v36h-110l-25 -542h145l-10 274c0 50 10 90 29 120c17 26 46 40 87 40c11 0 22 0 34 -3c12 -4 26 -10 47 -22zM139 -141l-53 -167h94l110 158v120h-151v-111z" />
    <glyph glyph-name="sacute" unicode="&#x15b;" horiz-adv-x="573" 
d="M473 414v112c-57 23 -117 33 -181 33c-139 0 -215 -59 -215 -168c0 -91 52 -131 162 -153h-1l30 -7c47 -10 73 -18 79 -23c7 -8 13 -19 21 -32c0 -15 -9 -27 -24 -34c-15 -8 -39 -12 -72 -12c-55 0 -122 20 -199 60v-166c76 -25 142 -37 198 -37c139 0 229 65 229 172
c0 47 -16 84 -44 109c-27 23 -73 43 -136 56c-4 0 -9 1 -13 3l-15 3c-41 9 -71 20 -84 30c-12 10 -18 23 -18 39c0 39 39 62 111 62c52 0 109 -16 172 -47zM193 729h122l197 227h-149z" />
    <glyph glyph-name="scommaaccent" unicode="&#x219;" horiz-adv-x="573" 
d="M473 414v112c-57 23 -117 33 -181 33c-139 0 -215 -59 -215 -168c0 -91 52 -131 162 -153h-1l30 -7c47 -10 73 -18 79 -23c7 -8 13 -19 21 -32c0 -15 -9 -27 -24 -34c-15 -8 -39 -12 -72 -12c-55 0 -122 20 -199 60v-166c76 -25 142 -37 198 -37c139 0 229 65 229 172
c0 47 -16 84 -44 109c-27 23 -73 43 -136 56c-4 0 -9 1 -13 3l-15 3c-41 9 -71 20 -84 30c-12 10 -18 23 -18 39c0 39 39 62 111 62c52 0 109 -16 172 -47zM231 -141l-53 -167h94l110 158v120h-151v-111z" />
    <glyph glyph-name="sdotbelow" unicode="&#x1e63;" horiz-adv-x="573" 
d="M473 414v112c-57 23 -117 33 -181 33c-139 0 -215 -59 -215 -168c0 -91 52 -131 162 -153h-1l30 -7c47 -10 73 -18 79 -23c7 -8 13 -19 21 -32c0 -15 -9 -27 -24 -34c-15 -8 -39 -12 -72 -12c-55 0 -122 20 -199 60v-166c76 -25 142 -37 198 -37c139 0 229 65 229 172
c0 47 -16 84 -44 109c-27 23 -73 43 -136 56c-4 0 -9 1 -13 3l-15 3c-41 9 -71 20 -84 30c-12 10 -18 23 -18 39c0 39 39 62 111 62c52 0 109 -16 172 -47zM207 -148h130v130h-130v-130z" />
    <glyph glyph-name="tbar" unicode="&#x167;" horiz-adv-x="501" 
d="M140 673l-5 -126h-62v-102h62l-5 -258c0 -139 55 -187 194 -187h104v161h-104c-30 0 -49 5 -56 13c-9 8 -13 30 -13 67l5 204h118v102h-117l4 126h-125zM73 628h309v104h-309v-104z" />
    <glyph glyph-name="tcaron" unicode="&#x165;" horiz-adv-x="501" 
d="M140 673l-5 -126h-62v-102h62l-5 -258c0 -139 55 -187 194 -187h104v161h-104c-30 0 -49 5 -56 13c-9 8 -13 30 -13 67l5 204h118v102h-117l4 126h-125zM492 681l-51 -197h107l97 190v107h-153v-100z" />
    <glyph glyph-name="tcedilla" unicode="&#x163;" horiz-adv-x="501" 
d="M140 673l-5 -126h-62v-102h62l-5 -258c0 -139 55 -187 194 -187h104v161h-104c-30 0 -49 5 -56 13c-9 8 -13 30 -13 67l5 204h118v102h-117l4 126h-125zM298 37h-99c20 -27 34 -48 44 -64c9 -16 14 -29 14 -36c0 -16 -12 -24 -36 -24c-25 0 -52 7 -89 26v-104
c37 -10 69 -15 98 -15c84 0 127 34 127 100c0 35 -19 70 -59 117z" />
    <glyph glyph-name="tcircumflexbelow" unicode="&#x1e71;" horiz-adv-x="501" 
d="M140 673l-5 -126h-62v-102h62l-5 -258c0 -139 55 -187 194 -187h104v161h-104c-30 0 -49 5 -56 13c-9 8 -13 30 -13 67l5 204h118v102h-117l4 126h-125zM70 -280h107c11 15 23 32 35 49c13 17 25 34 37 50l73 -99h107l-136 208h-88z" />
    <glyph glyph-name="uni021B" unicode="&#x21b;" horiz-adv-x="501" 
d="M140 673l-5 -126h-62v-102h62l-5 -258c0 -139 55 -187 194 -187h104v161h-104c-30 0 -49 5 -56 13c-9 8 -13 30 -13 67l5 204h118v102h-117l4 126h-125zM201 -141l-53 -167h94l110 158v120h-151v-111z" />
    <glyph glyph-name="tdotbelow" unicode="&#x1e6d;" horiz-adv-x="501" 
d="M140 673l-5 -126h-62v-102h62l-5 -258c0 -139 55 -187 194 -187h104v161h-104c-30 0 -49 5 -56 13c-9 8 -13 30 -13 67l5 204h118v102h-117l4 126h-125zM177 -148h130v130h-130v-130z" />
    <glyph glyph-name="tlinebelow" unicode="&#x1e6f;" horiz-adv-x="501" 
d="M140 673l-5 -126h-62v-102h62l-5 -258c0 -139 55 -187 194 -187h104v161h-104c-30 0 -49 5 -56 13c-9 8 -13 30 -13 67l5 204h118v102h-117l4 126h-125zM95 -152h309v104h-309v-104z" />
    <glyph glyph-name="ucaron" unicode="&#x1d4;" horiz-adv-x="615" 
d="M73 547v-327c0 -153 68 -233 198 -233c57 0 104 18 142 55l-2 -42h121l10 547h-134l-5 -234c-4 -44 -15 -82 -37 -107c-21 -25 -52 -37 -92 -37c-62 0 -89 44 -94 128v250h-107zM357 575l136 208h-107c-23 -31 -49 -66 -73 -99l-72 99h-107l135 -208h88z" />
    <glyph glyph-name="udieresisacute" unicode="&#x1d8;" horiz-adv-x="615" 
d="M73 547v-327c0 -153 68 -233 198 -233c57 0 104 18 142 55l-2 -42h121l10 547h-134l-5 -234c-4 -44 -15 -82 -37 -107c-21 -25 -52 -37 -92 -37c-62 0 -89 44 -94 128v250h-107zM340 700h136v135h-136v-135zM149 700h136v135h-136v-135zM231 729h122l197 227h-149z" />
    <glyph glyph-name="udieresiscaron" unicode="&#x1da;" horiz-adv-x="615" 
d="M73 547v-327c0 -153 68 -233 198 -233c57 0 104 18 142 55l-2 -42h121l10 547h-134l-5 -234c-4 -44 -15 -82 -37 -107c-21 -25 -52 -37 -92 -37c-62 0 -89 44 -94 128v250h-107zM340 700h136v135h-136v-135zM149 700h136v135h-136v-135zM357 575l136 208h-107
c-23 -31 -49 -66 -73 -99l-72 99h-107l135 -208h88z" />
    <glyph glyph-name="udieresisgrave" unicode="&#x1dc;" horiz-adv-x="615" 
d="M73 547v-327c0 -153 68 -233 198 -233c57 0 104 18 142 55l-2 -42h121l10 547h-134l-5 -234c-4 -44 -15 -82 -37 -107c-21 -25 -52 -37 -92 -37c-62 0 -89 44 -94 128v250h-107zM340 700h136v135h-136v-135zM149 700h136v135h-136v-135zM136 971l115 -207h171l-156 207
h-130z" />
    <glyph glyph-name="udieresismacron" unicode="&#x1d6;" horiz-adv-x="615" 
d="M73 547v-327c0 -153 68 -233 198 -233c57 0 104 18 142 55l-2 -42h121l10 547h-134l-5 -234c-4 -44 -15 -82 -37 -107c-21 -25 -52 -37 -92 -37c-62 0 -89 44 -94 128v250h-107zM340 700h136v135h-136v-135zM149 700h136v135h-136v-135zM158 579h309v104h-309v-104z" />
    <glyph glyph-name="udotbelow" unicode="&#x1ee5;" horiz-adv-x="615" 
d="M73 547v-327c0 -153 68 -233 198 -233c57 0 104 18 142 55l-2 -42h121l10 547h-134l-5 -234c-4 -44 -15 -82 -37 -107c-21 -25 -52 -37 -92 -37c-62 0 -89 44 -94 128v250h-107zM248 -153h130v130h-130v-130z" />
    <glyph glyph-name="uhookabove" unicode="&#x1ee7;" horiz-adv-x="615" 
d="M73 547v-327c0 -153 68 -233 198 -233c57 0 104 18 142 55l-2 -42h121l10 547h-134l-5 -234c-4 -44 -15 -82 -37 -107c-21 -25 -52 -37 -92 -37c-62 0 -89 44 -94 128v250h-107zM267 662v-20c16 8 31 12 46 12c22 0 32 -7 32 -13c0 -7 -4 -13 -12 -18l-10 -8
c-8 -6 -14 -11 -16 -15c-3 -5 -3 -10 -3 -16v-3h28c0 4 0 8 1 11c1 2 4 4 10 9l10 7c14 10 21 20 21 30c0 11 -5 19 -15 26s-23 10 -40 10c-16 0 -34 -4 -52 -12z" />
    <glyph glyph-name="uhorn" unicode="&#x1b0;" horiz-adv-x="615" 
d="M73 547v-327c0 -153 68 -233 198 -233c57 0 104 18 142 55l-2 -42h121l10 547h-134l-5 -234c-4 -44 -15 -82 -37 -107c-21 -25 -52 -37 -92 -37c-62 0 -89 44 -94 128v250h-107zM516 469l22 -46c25 12 27 16 49 34c30 27 41 75 41 114c0 9 -2 20 -5 32l-48 6
c4 -10 7 -19 7 -30c0 -17 2 -63 -20 -83c-12 -10 -22 -12 -46 -27z" />
    <glyph glyph-name="uhornacute" unicode="&#x1ee9;" horiz-adv-x="615" 
d="M73 547v-327c0 -153 68 -233 198 -233c57 0 104 18 142 55l-2 -42h121l10 547h-134l-5 -234c-4 -44 -15 -82 -37 -107c-21 -25 -52 -37 -92 -37c-62 0 -89 44 -94 128v250h-107zM516 469l22 -46c25 12 27 16 49 34c30 27 41 75 41 114c0 9 -2 20 -5 32l-48 6
c4 -10 7 -19 7 -30c0 -17 2 -63 -20 -83c-12 -10 -22 -12 -46 -27zM231 729h122l197 227h-149z" />
    <glyph glyph-name="uhorndotbelow" unicode="&#x1ef1;" horiz-adv-x="615" 
d="M73 547v-327c0 -153 68 -233 198 -233c57 0 104 18 142 55l-2 -42h121l10 547h-134l-5 -234c-4 -44 -15 -82 -37 -107c-21 -25 -52 -37 -92 -37c-62 0 -89 44 -94 128v250h-107zM516 469l22 -46c25 12 27 16 49 34c30 27 41 75 41 114c0 9 -2 20 -5 32l-48 6
c4 -10 7 -19 7 -30c0 -17 2 -63 -20 -83c-12 -10 -22 -12 -46 -27zM248 -153h130v130h-130v-130z" />
    <glyph glyph-name="uhorngrave" unicode="&#x1eeb;" horiz-adv-x="615" 
d="M73 547v-327c0 -153 68 -233 198 -233c57 0 104 18 142 55l-2 -42h121l10 547h-134l-5 -234c-4 -44 -15 -82 -37 -107c-21 -25 -52 -37 -92 -37c-62 0 -89 44 -94 128v250h-107zM516 469l22 -46c25 12 27 16 49 34c30 27 41 75 41 114c0 9 -2 20 -5 32l-48 6
c4 -10 7 -19 7 -30c0 -17 2 -63 -20 -83c-12 -10 -22 -12 -46 -27zM136 971l115 -207h171l-156 207h-130z" />
    <glyph glyph-name="uhornhookabove" unicode="&#x1eed;" horiz-adv-x="615" 
d="M73 547v-327c0 -153 68 -233 198 -233c57 0 104 18 142 55l-2 -42h121l10 547h-134l-5 -234c-4 -44 -15 -82 -37 -107c-21 -25 -52 -37 -92 -37c-62 0 -89 44 -94 128v250h-107zM516 469l22 -46c25 12 27 16 49 34c30 27 41 75 41 114c0 9 -2 20 -5 32l-48 6
c4 -10 7 -19 7 -30c0 -17 2 -63 -20 -83c-12 -10 -22 -12 -46 -27zM267 662v-20c16 8 31 12 46 12c22 0 32 -7 32 -13c0 -7 -4 -13 -12 -18l-10 -8c-8 -6 -14 -11 -16 -15c-3 -5 -3 -10 -3 -16v-3h28c0 4 0 8 1 11c1 2 4 4 10 9l10 7c14 10 21 20 21 30c0 11 -5 19 -15 26
s-23 10 -40 10c-16 0 -34 -4 -52 -12z" />
    <glyph glyph-name="uhorntilde" unicode="&#x1eef;" horiz-adv-x="615" 
d="M73 547v-327c0 -153 68 -233 198 -233c57 0 104 18 142 55l-2 -42h121l10 547h-134l-5 -234c-4 -44 -15 -82 -37 -107c-21 -25 -52 -37 -92 -37c-62 0 -89 44 -94 128v250h-107zM516 469l22 -46c25 12 27 16 49 34c30 27 41 75 41 114c0 9 -2 20 -5 32l-48 6
c4 -10 7 -19 7 -30c0 -17 2 -63 -20 -83c-12 -10 -22 -12 -46 -27zM273 818l26 -25c25 -24 46 -32 76 -32c67 0 105 59 107 165h-93c-1 -25 -3 -43 -5 -54c-2 -12 -7 -17 -12 -17c-3 0 -9 4 -19 13h1l-27 25c-27 23 -47 33 -75 33c-67 0 -106 -60 -108 -165h94
c0 25 2 42 4 53c3 12 7 17 13 17c3 0 9 -4 18 -13z" />
    <glyph glyph-name="uhungarumlaut" unicode="&#x171;" horiz-adv-x="615" 
d="M73 547v-327c0 -153 68 -233 198 -233c57 0 104 18 142 55l-2 -42h121l10 547h-134l-5 -234c-4 -44 -15 -82 -37 -107c-21 -25 -52 -37 -92 -37c-62 0 -89 44 -94 128v250h-107zM266 575h101l138 208h-126zM121 575h102l124 208h-121z" />
    <glyph glyph-name="umacron" unicode="&#x16b;" horiz-adv-x="615" 
d="M73 547v-327c0 -153 68 -233 198 -233c57 0 104 18 142 55l-2 -42h121l10 547h-134l-5 -234c-4 -44 -15 -82 -37 -107c-21 -25 -52 -37 -92 -37c-62 0 -89 44 -94 128v250h-107zM158 579h309v104h-309v-104z" />
    <glyph glyph-name="uogonek" unicode="&#x173;" horiz-adv-x="615" 
d="M73 547v-327c0 -153 68 -233 198 -233c57 0 104 18 142 55l-2 -42h121l10 547h-134l-5 -234c-4 -44 -15 -82 -37 -107c-21 -25 -52 -37 -92 -37c-62 0 -89 44 -94 128v250h-107zM522 4h-99c-40 -47 -59 -83 -59 -117c0 -69 39 -100 126 -100c20 0 46 5 81 13v104
c-34 -16 -59 -24 -75 -24c-21 0 -32 7 -32 23c0 7 5 20 14 36s24 38 44 65z" />
    <glyph glyph-name="uring" unicode="&#x16f;" horiz-adv-x="615" 
d="M73 547v-327c0 -153 68 -233 198 -233c57 0 104 18 142 55l-2 -42h121l10 547h-134l-5 -234c-4 -44 -15 -82 -37 -107c-21 -25 -52 -37 -92 -37c-62 0 -89 44 -94 128v250h-107zM364 713c0 -29 -21 -51 -51 -51c-14 0 -27 5 -37 14c-9 10 -14 22 -14 37c0 29 22 50 51 50
c30 0 51 -21 51 -50zM456 713c0 79 -64 143 -143 143s-143 -64 -143 -143c0 -80 64 -144 143 -144s143 64 143 144z" />
    <glyph glyph-name="utilde" unicode="&#x169;" horiz-adv-x="615" 
d="M73 547v-327c0 -153 68 -233 198 -233c57 0 104 18 142 55l-2 -42h121l10 547h-134l-5 -234c-4 -44 -15 -82 -37 -107c-21 -25 -52 -37 -92 -37c-62 0 -89 44 -94 128v250h-107zM273 818l26 -25c25 -24 46 -32 76 -32c67 0 105 59 107 165h-93c-1 -25 -3 -43 -5 -54
c-2 -12 -7 -17 -12 -17c-3 0 -9 4 -19 13h1l-27 25c-27 23 -47 33 -75 33c-67 0 -106 -60 -108 -165h94c0 25 2 42 4 53c3 12 7 17 13 17c3 0 9 -4 18 -13z" />
    <glyph glyph-name="wacute" unicode="&#x1e83;" horiz-adv-x="879" 
d="M216 0h139l84 201l80 -201h144l143 547h-121c-16 -52 -32 -107 -48 -162s-32 -110 -48 -164l-79 157h-140l-79 -157l-96 326h-122zM358 729h122l197 227h-149z" />
    <glyph glyph-name="wcircumflex" unicode="&#x175;" horiz-adv-x="879" 
d="M216 0h139l84 201l80 -201h144l143 547h-121c-16 -52 -32 -107 -48 -162s-32 -110 -48 -164l-79 157h-140l-79 -157l-96 326h-122zM261 575h107c11 15 23 32 35 49c13 17 25 34 37 50l73 -99h107l-136 208h-88z" />
    <glyph glyph-name="wdieresis" unicode="&#x1e85;" horiz-adv-x="879" 
d="M216 0h139l84 201l80 -201h144l143 547h-121c-16 -52 -32 -107 -48 -162s-32 -110 -48 -164l-79 157h-140l-79 -157l-96 326h-122zM467 700h136v135h-136v-135zM276 700h136v135h-136v-135z" />
    <glyph glyph-name="wgrave" unicode="&#x1e81;" horiz-adv-x="879" 
d="M216 0h139l84 201l80 -201h144l143 547h-121c-16 -52 -32 -107 -48 -162s-32 -110 -48 -164l-79 157h-140l-79 -157l-96 326h-122zM263 971l115 -207h171l-156 207h-130z" />
    <glyph glyph-name="ycircumflex" unicode="&#x177;" horiz-adv-x="698" 
d="M625 547h-127l-129 -277l-169 277h-127c18 -39 37 -78 56 -119c38 -82 77 -166 115 -248c19 -41 38 -80 56 -119c-6 -11 -11 -22 -16 -32c-6 -10 -12 -21 -17 -32c-13 -18 -26 -31 -38 -41c-9 -7 -23 -12 -41 -12h-77v-147h94c84 0 134 28 195 167zM122 575h107
c11 15 23 32 35 49c13 17 25 34 37 50l73 -99h107l-136 208h-88z" />
    <glyph glyph-name="ydotbelow" unicode="&#x1ef5;" horiz-adv-x="698" 
d="M625 547h-127l-129 -277l-169 277h-127c18 -39 37 -78 56 -119c38 -82 77 -166 115 -248c19 -41 38 -80 56 -119c-6 -11 -11 -22 -16 -32c-6 -10 -12 -21 -17 -32c-13 -18 -26 -31 -38 -41c-9 -7 -23 -12 -41 -12h-77v-147h94c84 0 134 28 195 167zM236 -153h130v130
h-130v-130z" />
    <glyph glyph-name="ygrave" unicode="&#x1ef3;" horiz-adv-x="698" 
d="M625 547h-127l-129 -277l-169 277h-127c18 -39 37 -78 56 -119c38 -82 77 -166 115 -248c19 -41 38 -80 56 -119c-6 -11 -11 -22 -16 -32c-6 -10 -12 -21 -17 -32c-13 -18 -26 -31 -38 -41c-9 -7 -23 -12 -41 -12h-77v-147h94c84 0 134 28 195 167zM124 971l115 -207h171
l-156 207h-130z" />
    <glyph glyph-name="yhookabove" unicode="&#x1ef7;" horiz-adv-x="698" 
d="M625 547h-127l-129 -277l-169 277h-127c18 -39 37 -78 56 -119c38 -82 77 -166 115 -248c19 -41 38 -80 56 -119c-6 -11 -11 -22 -16 -32c-6 -10 -12 -21 -17 -32c-13 -18 -26 -31 -38 -41c-9 -7 -23 -12 -41 -12h-77v-147h94c84 0 134 28 195 167zM255 662v-20
c16 8 31 12 46 12c22 0 32 -7 32 -13c0 -7 -4 -13 -12 -18l-10 -8c-8 -6 -14 -11 -16 -15c-3 -5 -3 -10 -3 -16v-3h28c0 4 0 8 1 11c1 2 4 4 10 9l10 7c14 10 21 20 21 30c0 11 -5 19 -15 26s-23 10 -40 10c-16 0 -34 -4 -52 -12z" />
    <glyph glyph-name="ytilde" unicode="&#x1ef9;" horiz-adv-x="698" 
d="M625 547h-127l-129 -277l-169 277h-127c18 -39 37 -78 56 -119c38 -82 77 -166 115 -248c19 -41 38 -80 56 -119c-6 -11 -11 -22 -16 -32c-6 -10 -12 -21 -17 -32c-13 -18 -26 -31 -38 -41c-9 -7 -23 -12 -41 -12h-77v-147h94c84 0 134 28 195 167zM261 818l26 -25
c25 -24 46 -32 76 -32c67 0 105 59 107 165h-93c-1 -25 -3 -43 -5 -54c-2 -12 -7 -17 -12 -17c-3 0 -9 4 -19 13h1l-27 25c-27 23 -47 33 -75 33c-67 0 -106 -60 -108 -165h94c0 25 2 42 4 53c3 12 7 17 13 17c3 0 9 -4 18 -13z" />
    <glyph glyph-name="zacute" unicode="&#x17a;" horiz-adv-x="597" 
d="M94 448h279l-300 -301v-147h446v149h-261l266 296v102h-430v-99zM224 729h122l197 227h-149z" />
    <glyph glyph-name="zdotaccent" unicode="&#x17c;" horiz-adv-x="597" 
d="M94 448h279l-300 -301v-147h446v149h-261l266 296v102h-430v-99zM241 614h130v130h-130v-130z" />
    <glyph glyph-name="zdotbelow" unicode="&#x1e93;" horiz-adv-x="597" 
d="M94 448h279l-300 -301v-147h446v149h-261l266 296v102h-430v-99zM240 -153h130v130h-130v-130z" />
    <glyph glyph-name="softhyphen" unicode="&#xad;" horiz-adv-x="434" 
d="M73 218l283 5l4 111l-282 -5z" />
    <glyph glyph-name="Euro" unicode="&#x20ac;" horiz-adv-x="725" 
d="M652 523v132c-61 49 -123 74 -187 74c-77 0 -140 -23 -191 -71c-46 -45 -78 -103 -92 -178h-67l-42 -93h99v-13c-1 -5 -1 -10 -1 -16c0 -5 0 -10 1 -15v-12v-1h-59l-37 -111h111c5 -30 17 -59 32 -87s34 -54 55 -74c51 -47 115 -71 191 -71c62 0 125 25 187 75v191
c-51 -52 -88 -85 -112 -98c-23 -12 -48 -18 -76 -18c-43 0 -78 14 -105 41c-16 16 -28 30 -35 41h150l38 111h-212c-1 3 -1 6 -1 7v5c0 2 0 3 1 6v10v16c-1 5 -1 9 0 13h240l42 93h-270c20 88 73 163 156 163c29 0 54 -6 76 -18c25 -14 60 -47 108 -102z" />
    <glyph glyph-name="uni2215" unicode="&#x2215;" horiz-adv-x="709" 
d="M73 -13h116l447 742h-116z" />
    <glyph glyph-name="uni032D" unicode="&#x32d;" horiz-adv-x="0" 
d="M-31 -258h107c11 15 23 32 35 49c13 17 25 34 37 50l73 -99h107l-136 208h-88z" />
    <glyph glyph-name="uni0326" unicode="&#x326;" horiz-adv-x="0" 
d="M72 -156l-53 -167h94l110 158v120h-151v-111z" />
    <glyph glyph-name="dotbelowcomb" unicode="&#x323;" horiz-adv-x="0" 
d="M73 -153h130v130h-130v-130z" />
    <glyph glyph-name="hookabovecomb" unicode="&#x309;" horiz-adv-x="0" 
d="M88 682v-20c16 8 31 12 46 12c22 0 32 -7 32 -13c0 -7 -4 -13 -12 -18l-10 -8c-8 -6 -14 -11 -16 -15c-3 -5 -3 -10 -3 -16v-3h28c0 4 0 8 1 11c1 2 4 4 10 9l10 7c14 10 21 20 21 30c0 11 -5 19 -15 26s-23 10 -40 10c-16 0 -34 -4 -52 -12z" />
    <glyph glyph-name="uni031B" unicode="&#x31b;" horiz-adv-x="0" 
d="M66 481l22 -46c25 12 27 16 49 34c30 27 41 75 41 114c0 9 -2 20 -5 32l-48 6c4 -10 7 -19 7 -30c0 -17 2 -63 -20 -83c-12 -10 -22 -12 -46 -27z" />
    <glyph glyph-name="uni0331" unicode="&#x331;" horiz-adv-x="0" 
d="M2 -170h309v104h-309v-104z" />
  </font>
</defs>
</svg>
