<?xml version="1.0" standalone="no"?>
<!DOCTYPE svg PUBLIC "-//W3C//DTD SVG 1.1//EN" "http://www.w3.org/Graphics/SVG/1.1/DTD/svg11.dtd" >
<svg xmlns="http://www.w3.org/2000/svg" xmlns:xlink="http://www.w3.org/1999/xlink" version="1.1">
<metadata>
Created by FontForge 20170924 at Wed Nov  5 06:31:24 2014
 By www-data
Original Fonts are (c) Bitstream. OpenDyslexic changes and additional glyphs by Abelardo Gonzalez are licensed under a Creative Commons Attribution 3.0 Unported License.
Based on a work at http://dyslexicfonts.com. 2012 by Abelardo Gonzalez. Copying is an act of love. Please copy.
Bitstream license available here: http://opendyslexic.org/legal/
</metadata>
<defs>
<font id="OpenDyslexic-BoldItalic" horiz-adv-x="784" >
  <font-face 
    font-family="OpenDyslexic"
    font-weight="700"
    font-style="italic"
    font-stretch="normal"
    units-per-em="1000"
    panose-1="0 0 8 0 0 0 0 0 0 0"
    ascent="800"
    descent="-200"
    x-height="542"
    cap-height="726"
    bbox="-85 -528 1257 1173"
    underline-thickness="50"
    underline-position="-213"
    slope="-12"
    stemh="127"
    stemv="46"
    unicode-range="U+0020-FB02"
  />
<missing-glyph horiz-adv-x="754" 
d="M407 683c80 0 165 6 257 20c-47 -291 -74 -580 -77 -872c-85 12 -167 18 -247 18c-78 0 -158 -5 -238 -16l-11 11c45 281 69 568 74 859c85 -14 164 -20 242 -20zM528 -13c11 217 30 428 61 642c-63 -5 -123 -8 -186 -8c-59 0 -118 3 -176 8c-9 -215 -26 -427 -53 -642
c59 4 120 6 179 6c31 0 60 0 88 -1s56 -3 87 -5z" />
    <glyph glyph-name="fi" unicode="fi" horiz-adv-x="725" 
d="M612 530l-9 11c-77 -4 -150 -6 -225 -6h-73c1 4 1 7 1 7v7c2 30 5 62 23 87c6 8 17 14 28 17c11 4 23 5 34 5l26 7c18 3 42 9 60 14c1 5 2 11 2 18l6 44c0 7 1 12 2 18l-39 -5c-31 -3 -66 -6 -99 -15s-64 -22 -90 -45c-23 -21 -35 -48 -43 -75c-7 -28 -8 -57 -9 -82
c-26 2 -51 3 -76 5l-3 -36c0 -2 0 -5 -1 -8v-10c-1 -7 -2 -13 -2 -18c24 -1 51 -3 77 -3c-15 -153 -33 -304 -59 -456c8 1 18 2 29 2l34 3c23 1 46 2 64 3c12 147 22 299 29 447h37h37h70c23 0 46 0 70 1c-18 -152 -31 -300 -38 -452c8 -1 18 -2 28 -2l32 -3
c22 -2 44 -5 60 -7c-1 20 -2 42 -2 64v33c-1 10 -1 21 -1 30c0 133 9 266 20 400zM538 680l-8 -60l50 3c12 0 31 1 45 2c1 9 2 19 4 30c1 11 3 20 4 29c1 4 1 9 2 14l6 33c1 6 2 11 2 15c-6 0 -14 -1 -21 -2s-15 -2 -23 -2c-16 -2 -32 -4 -45 -4l-9 -9z" />
    <glyph glyph-name="fl" unicode="fl" horiz-adv-x="759" 
d="M393 733c-24 0 -50 -1 -75 -8c-25 -8 -49 -20 -73 -43c-6 -8 -11 -16 -15 -24c-8 -17 -12 -35 -15 -54l-7 -48c0 -7 -1 -13 -2 -19c-10 1 -18 1 -24 2c-7 0 -15 1 -25 1l-26 1c-1 -6 -1 -14 -1 -23c-1 -10 -1 -18 -1 -24l-1 -29l71 -3c-15 -146 -35 -294 -66 -453l76 6
c13 0 26 1 40 2c13 0 24 1 35 1c8 145 13 297 17 442h65h65l3 36l4 39h-66h-66v20v15c0 5 0 10 -1 14c2 22 5 45 20 62c17 15 41 16 62 16h26c41 0 79 1 121 3c-28 -215 -48 -429 -54 -649c22 -2 48 -3 75 -5c26 -3 52 -5 74 -8v8v9c-1 3 -1 6 -1 9v8c0 15 -1 30 -1 46l1 30
c-2 0 -4 0 -8 1h-11c-7 1 -14 1 -19 1h-5c-2 0 -4 0 -7 1c6 207 26 415 64 628c-93 -9 -173 -11 -249 -11z" />
    <glyph glyph-name=".notdef" horiz-adv-x="754" 
d="M407 683c80 0 165 6 257 20c-47 -291 -74 -580 -77 -872c-85 12 -167 18 -247 18c-78 0 -158 -5 -238 -16l-11 11c45 281 69 568 74 859c85 -14 164 -20 242 -20zM528 -13c11 217 30 428 61 642c-63 -5 -123 -8 -186 -8c-59 0 -118 3 -176 8c-9 -215 -26 -427 -53 -642
c59 4 120 6 179 6c31 0 60 0 88 -1s56 -3 87 -5z" />
    <glyph glyph-name="NULL" horiz-adv-x="293" 
 />
    <glyph glyph-name="NULL" horiz-adv-x="293" 
 />
    <glyph glyph-name="space" unicode=" " horiz-adv-x="391" 
 />
    <glyph glyph-name="exclam" unicode="!" horiz-adv-x="353" 
d="M178 715l-12 -7c-16 -156 -34 -321 -57 -476c29 4 51 6 69 6s38 -2 65 -6v35v15c0 7 0 13 1 20v19v15v36v35c1 8 2 15 2 24c1 8 2 16 2 23c6 85 14 182 22 267c-23 -7 -41 -11 -56 -11c-12 0 -24 2 -36 5zM120 139l-8 -7c-2 -9 -4 -19 -5 -29c-2 -10 -3 -20 -5 -29v1
l-14 -75c29 12 52 18 70 18s39 -5 64 -17v11v13v14v10c-1 22 -1 43 -1 65v23c-21 5 -39 8 -54 8c-17 0 -32 -2 -47 -6z" />
    <glyph glyph-name="quotedbl" unicode="&#x22;" horiz-adv-x="477" 
d="M264 710l-9 10c-6 0 -13 0 -20 1c-7 0 -15 1 -23 1l-42 3v-28c0 -86 -10 -173 -31 -262c14 1 34 3 53 3c10 1 20 1 29 2c9 0 18 0 25 1c11 93 16 182 18 269zM445 724l-22 -1c-18 -2 -43 -3 -61 -3c-15 -93 -26 -185 -29 -279c6 -1 15 -1 24 -1c9 -1 18 -1 28 -2
c20 0 39 -2 53 -3c-3 31 -3 55 -3 77c0 67 7 134 21 201z" />
    <glyph glyph-name="numbersign" unicode="#" horiz-adv-x="763" 
d="M596 511c44 1 97 3 140 5c-3 -15 -6 -39 -8 -54l-4 -29c-26 -1 -52 -1 -78 -2c-27 0 -54 0 -80 -1c-4 -13 -8 -25 -12 -36c-8 -24 -15 -47 -22 -70l-12 -37c10 0 20 0 29 -1c20 0 39 -1 70 -1h41c0 -6 -1 -12 -1 -20c-1 -9 -1 -15 -2 -21l-2 -40c-18 0 -37 1 -57 1
c-21 1 -40 1 -57 1c-9 0 -17 0 -23 1h-24c-7 -24 -15 -49 -23 -72c-3 -9 -6 -18 -9 -29l-19 -61c-3 -10 -6 -20 -8 -28l-40 1h-46l34 107c3 7 5 15 8 21l6 20c2 6 4 13 6 20c3 6 5 14 8 22h-60c-19 0 -40 -1 -62 -1c-20 -60 -42 -118 -65 -176v1l-6 -17l-88 -4
c27 64 53 129 76 195c-23 0 -46 -1 -71 -2s-48 -2 -70 -2c1 3 1 6 2 10c0 4 1 9 2 13c0 4 1 8 1 13c1 4 1 7 1 10c1 2 1 5 1 8l3 20c1 3 1 6 1 8l86 1c27 0 45 0 72 1c17 50 31 92 48 144c-46 0 -99 1 -142 2l2 35c1 13 2 33 2 47c54 -3 109 -4 163 -4c19 62 41 128 61 189
h88c-12 -32 -22 -63 -34 -95c-11 -31 -22 -63 -32 -95h31h30c9 0 19 0 29 1h31c23 63 49 131 74 192c10 0 22 1 34 2c12 0 24 1 34 2h19c-27 -65 -53 -129 -76 -195zM484 429h-59h-61c0 -3 -1 -5 -2 -7s-2 -4 -2 -6c-4 -12 -7 -23 -11 -34l-21 -62c-3 -11 -7 -22 -11 -34h43
c9 0 19 0 28 1h28h21c5 15 10 31 16 47c5 16 10 32 16 47z" />
    <glyph glyph-name="dollar" unicode="$" horiz-adv-x="623" 
d="M372 566c-7 -65 -14 -129 -20 -194l-1 -10c24 -4 49 -10 73 -18c24 -9 46 -20 65 -37c30 -27 41 -70 41 -111c0 -23 -6 -48 -17 -71s-27 -44 -46 -60c-42 -29 -91 -41 -138 -44l-1 -47c0 -15 -1 -28 -1 -42s0 -27 -1 -41l-10 -10c-12 1 -28 1 -43 1h-23h-21l6 30
c2 10 4 19 5 28l9 53c1 8 3 18 5 28c-61 3 -121 13 -182 38l6 41l3 20c0 7 1 14 2 22l3 23c0 7 1 13 2 19c57 -39 117 -59 178 -61l18 170c-47 10 -94 25 -129 61c-29 31 -38 74 -38 117c2 25 11 52 26 75c15 24 35 44 60 57c42 19 83 26 120 29l3 27l3 20c0 7 1 13 2 21
l3 41h15h14c3 -1 8 -1 14 -1h15l-12 -107c49 -3 102 -8 158 -24l-6 -39l-6 -45c-52 28 -104 38 -154 41zM305 526c1 11 2 23 4 36c-31 -4 -59 -11 -83 -31c-24 -19 -36 -45 -36 -74c0 -26 13 -46 32 -61c18 -16 43 -25 67 -27l6 61c2 20 4 41 6 62c2 12 3 24 4 34zM340 284
l-1 -1zM402 252c-17 14 -41 23 -63 27c-2 -32 -4 -64 -5 -95l-3 -64c23 4 47 9 70 18c12 4 20 13 25 24s6 24 6 35c0 23 -12 41 -30 55z" />
    <glyph glyph-name="percent" unicode="%" horiz-adv-x="988" 
d="M770 727l-37 -1c-88 -114 -170 -234 -252 -353c-42 -61 -86 -125 -132 -188c-45 -64 -92 -127 -137 -185h24c11 0 22 0 33 1c11 0 23 0 33 1c84 109 163 226 241 339c43 63 90 131 137 197c48 66 96 132 144 192c-6 0 -16 -1 -27 -1c-5 -1 -11 -1 -16 -1
c-5 -1 -9 -1 -11 -1zM294 728h-2h-3c-41 0 -82 -15 -110 -48c-17 -21 -28 -46 -34 -72s-8 -53 -8 -78c0 -48 7 -96 33 -135c13 -20 31 -34 51 -42s43 -12 66 -12c43 0 85 17 116 51c20 22 34 48 42 76c9 27 13 56 13 83c0 44 -10 87 -38 120c-29 36 -72 55 -120 57h-6z
M294 659h5c25 -2 44 -17 57 -36c13 -20 19 -46 19 -70s-4 -58 -18 -87c-13 -28 -34 -51 -68 -51c-29 0 -46 15 -58 37c-11 21 -15 48 -15 74v6c0 2 0 4 1 6v6c0 24 6 52 18 75s32 40 59 40zM745 387c-44 0 -89 -17 -120 -53v1c-21 -22 -34 -48 -42 -76
c-9 -28 -13 -57 -13 -84c0 -43 10 -87 38 -119h-1c32 -40 82 -56 131 -56c20 0 41 2 60 10c20 8 37 20 51 38l-1 -1c18 22 29 48 35 74c7 25 9 53 9 78c0 48 -8 96 -36 135l1 -1c-25 38 -67 54 -112 54zM741 318c26 0 43 -14 54 -33c11 -20 16 -45 16 -69
c0 -23 -3 -55 -15 -82c-11 -27 -30 -47 -62 -47c-27 0 -47 12 -61 31c-14 18 -20 43 -20 69s5 59 18 85c14 27 36 46 70 46z" />
    <glyph glyph-name="ampersand" unicode="&#x26;" horiz-adv-x="842" 
d="M712 2l-30 3l-36 3c-13 1 -25 2 -37 2c-11 1 -22 2 -30 2l-64 70c-68 -53 -148 -78 -231 -78c-32 0 -63 4 -93 13c-29 9 -57 23 -78 46c-35 35 -50 84 -50 133c0 51 15 98 40 139c24 42 59 78 100 107c-20 34 -36 69 -36 110c0 22 4 47 14 70c10 22 24 43 44 58l-1 -1
c21 18 45 29 69 35c25 7 51 9 76 9c54 0 109 -15 162 -35c-6 -10 -14 -24 -23 -38c-4 -6 -8 -13 -12 -20l-11 -17c-47 25 -96 46 -149 46c-27 0 -53 -8 -72 -23c-19 -16 -32 -38 -32 -67c0 -20 9 -40 20 -57c12 -18 26 -34 40 -50c42 -45 84 -90 125 -137l95 -105
c33 51 46 111 55 175h22h25h26h21l-6 -31c-4 -22 -9 -45 -13 -66c-3 -11 -5 -22 -8 -31c-11 -42 -30 -81 -55 -116l55 -62zM289 104c53 0 108 20 153 54c-25 28 -48 55 -72 83s-48 55 -73 83l-67 77c-25 -23 -48 -47 -63 -76c-17 -29 -26 -60 -26 -94c0 -43 17 -75 45 -96
c27 -21 64 -31 103 -31z" />
    <glyph glyph-name="quotesingle" unicode="'" horiz-adv-x="273" 
d="M260 714l-11 10c-12 -3 -23 -5 -35 -5c-11 0 -25 2 -44 10c-2 -43 -5 -92 -9 -141c-5 -48 -10 -97 -15 -140c19 5 36 8 49 8c11 0 24 -3 42 -9c5 86 13 181 23 267z" />
    <glyph glyph-name="parenleft" unicode="(" horiz-adv-x="398" 
d="M375 735l-10 15c-21 -3 -43 -7 -68 -7c-50 -60 -97 -125 -133 -194c-38 -68 -65 -140 -77 -216c-3 -37 -4 -74 -4 -110c0 -110 14 -219 50 -325c35 0 70 -3 111 -11c-28 76 -49 155 -55 226c-2 37 -4 73 -4 111c0 33 1 66 2 99v-1c8 75 33 147 67 216s76 134 121 197z
" />
    <glyph glyph-name="parenright" unicode=")" horiz-adv-x="386" 
d="M228 445c0 -41 -1 -82 -5 -123c-12 -74 -39 -148 -76 -220c-36 -73 -82 -144 -130 -212c50 11 90 14 125 14c44 66 84 135 118 202c48 98 63 203 63 310c0 59 -5 115 -15 170c-10 54 -27 107 -50 159c-26 2 -52 5 -78 9l2 -7l-7 1c37 -97 53 -193 53 -303z" />
    <glyph glyph-name="asterisk" unicode="*" horiz-adv-x="588" 
d="M555 596l4 11c-3 7 -7 15 -10 25c-4 9 -7 17 -10 23l-79 -48c-27 -17 -54 -32 -80 -47c5 58 11 110 17 169h-64l-8 -97l-6 -72c-6 3 -8 5 -11 7c-2 2 -5 4 -11 7c-38 25 -82 54 -119 80c-6 -7 -9 -11 -11 -15c-2 -3 -4 -5 -4 -7l-2 -3c0 -1 0 -2 -1 -4l-4 -4
c-1 -3 -3 -5 -4 -7l-5 -8c-1 -2 -2 -3 -3 -5c46 -31 100 -63 150 -91c-26 -14 -54 -30 -83 -45s-56 -30 -82 -46c1 -3 4 -8 6 -14c3 -7 5 -11 6 -15l10 -25l79 47l41 24c13 8 26 16 40 24c-2 -17 -3 -31 -4 -44c-1 -7 -2 -14 -2 -21l-3 -23c-2 -24 -6 -57 -7 -80h64
c2 42 6 92 10 134l3 34l71 -47c22 -15 46 -31 70 -47c2 3 4 7 8 11c5 10 12 20 18 30l7 12c-23 15 -48 30 -74 46l-76 44l8 5c51 27 100 54 151 82z" />
    <glyph glyph-name="plus" unicode="+" horiz-adv-x="739" 
d="M352 500l-12 -142c-83 0 -164 0 -248 2l-8 -90h32h35h36h32c19 0 38 0 57 1h57c-2 -28 -5 -61 -9 -93c-1 -16 -3 -32 -4 -48c-2 -16 -3 -30 -5 -43l-6 -71h89c6 83 12 172 19 255h125c41 0 82 -1 124 -1l7 89c-80 -1 -167 -2 -247 -2c7 86 15 170 25 255h-90z" />
    <glyph glyph-name="comma" unicode="," horiz-adv-x="302" 
d="M60 117l-6 -92l-12 -29c-7 -20 -17 -43 -26 -66c-10 -23 -20 -46 -29 -65c5 1 10 2 16 2c14 2 28 3 40 4c7 1 12 1 16 1c16 19 33 40 49 61s32 41 47 61l21 29c2 16 5 35 8 54c3 20 5 39 8 55c-35 -5 -66 -7 -93 -7h-15c-4 0 -9 0 -14 1z" />
    <glyph glyph-name="hyphen" unicode="-" horiz-adv-x="420" 
d="M93 320l-9 -11c1 -5 2 -11 2 -18c0 -15 -7 -35 -21 -59c41 2 89 3 138 4c48 1 96 1 137 1c-4 13 -6 23 -6 30c0 15 8 36 21 58l-49 -1l-90 -3c-29 -1 -59 -2 -90 -2h-16c-3 0 -6 0 -8 1h-9z" />
    <glyph glyph-name="period" unicode="." horiz-adv-x="319" 
d="M49 159v-18c0 -42 -5 -88 -15 -137c30 2 56 4 79 4c22 0 47 -2 76 -4v6v9v8c-1 3 -1 5 -1 7c0 40 5 85 17 135c-6 0 -13 -1 -20 -1c-7 -1 -15 -1 -22 -1c-16 -1 -31 -1 -42 -1c-20 0 -40 1 -61 2z" />
    <glyph glyph-name="slash" unicode="/" horiz-adv-x="408" 
d="M352 705l-8 -6c-14 -31 -29 -62 -44 -95c-29 -66 -59 -133 -87 -200c-14 -33 -28 -65 -42 -96c-27 -64 -56 -131 -86 -199c-29 -67 -59 -134 -88 -197c52 7 87 10 121 11c49 120 97 244 143 366c53 138 111 290 169 426c-6 0 -12 -1 -18 -2l-21 -3c-8 -1 -15 -2 -21 -3
c-7 -1 -13 -1 -18 -2z" />
    <glyph glyph-name="zero" unicode="0" horiz-adv-x="625" 
d="M375 723h-13c-33 0 -69 -9 -101 -25c-33 -17 -63 -41 -85 -73c-25 -39 -42 -83 -53 -127c-12 -45 -20 -91 -26 -133c-2 -30 -3 -61 -3 -93c0 -62 7 -123 35 -181c16 -29 39 -50 67 -65c29 -14 60 -21 93 -21h15c34 0 69 8 101 24c33 16 61 40 84 73c26 40 42 83 54 127
c11 45 18 90 24 134c2 28 3 58 3 87c0 63 -7 127 -35 186c-14 30 -38 51 -66 65c-29 14 -62 22 -94 22zM370 676h2h2c25 0 49 -9 67 -27c17 -17 30 -41 34 -68c5 -25 6 -49 6 -74c0 -10 0 -35 -3 -68c-4 -32 -10 -71 -21 -109c-12 -38 -27 -75 -50 -101
c-22 -28 -52 -45 -90 -45h-4h-1h-1h-5c-38 0 -73 20 -86 55s-16 72 -16 111c0 37 1 77 6 117s14 81 30 121c9 25 26 47 47 63s46 25 71 25h12zM326 324c-42 0 -47 49 -43 86c6 57 17 113 63 113c42 0 47 -43 40 -113c-4 -37 -19 -86 -60 -86z" />
    <glyph glyph-name="one" unicode="1" horiz-adv-x="665" 
d="M134 141l-9 -68c-4 -24 -7 -48 -11 -68c74 9 143 14 209 14c68 0 138 -6 212 -16v28c0 35 1 80 3 116c-47 4 -102 7 -150 9c13 186 30 370 51 556c-3 -1 -8 -1 -13 -1c-9 0 -20 -1 -30 -1h-13h-23c-7 0 -15 0 -23 1l-13 -2c-52 -8 -103 -15 -161 -19v-22
c-1 -9 -1 -18 -1 -26c0 -18 -1 -36 -1 -49c56 5 115 12 165 21c-6 -78 -13 -154 -19 -229c-3 -37 -6 -75 -10 -113c-3 -38 -6 -77 -10 -116c-51 -1 -94 -3 -144 -7z" />
    <glyph glyph-name="two" unicode="2" horiz-adv-x="686" 
d="M417 274v-1c11 11 22 21 32 32l31 30l16 16c25 31 49 63 65 97s26 70 26 110c0 43 -15 86 -48 115c-23 19 -51 31 -81 39c-29 8 -61 11 -91 11c-66 0 -135 -18 -205 -35v-25c0 -18 -1 -39 -2 -58c0 -9 -1 -17 -1 -24c69 31 139 53 204 53c31 0 62 -8 84 -24
c22 -17 36 -43 36 -77c0 -28 -9 -56 -24 -81c-17 -30 -42 -56 -67 -83c-33 -34 -71 -61 -110 -88c-55 -41 -113 -86 -165 -131c-3 -22 -7 -47 -11 -73l-6 -38c-2 -13 -4 -25 -6 -36c83 10 161 15 236 15c72 0 147 -5 226 -15v36v39c1 13 1 26 1 39c0 12 1 24 1 35
c-79 7 -152 9 -223 9c16 43 48 80 82 113z" />
    <glyph glyph-name="three" unicode="3" horiz-adv-x="651" 
d="M581 571c0 41 -14 72 -35 95c-22 22 -51 36 -84 45c-32 9 -67 12 -100 12c-63 0 -129 -9 -197 -20c0 -12 0 -27 -1 -43v-23c-1 -7 -1 -14 -1 -19c64 15 127 26 186 26c24 0 57 -4 83 -16s47 -34 47 -70c0 -38 -16 -68 -41 -88c-24 -20 -57 -31 -92 -31h-22h-23h-12
c-5 0 -10 0 -15 1h-14h-12c-1 -7 -2 -17 -2 -27l-3 -27l-2 -32h65c22 0 46 -1 68 -5c22 -5 42 -14 59 -28c19 -17 33 -41 33 -70c0 -14 -7 -26 -16 -37c-10 -11 -22 -21 -33 -29c-20 -16 -42 -25 -67 -31c-24 -6 -50 -7 -74 -7c-55 0 -111 10 -168 41c-1 -12 -3 -24 -4 -38
l-6 -42c-4 -28 -9 -57 -13 -81c60 -15 118 -23 175 -23c37 0 76 1 116 9c39 8 79 21 114 47c29 22 48 51 59 84c12 33 15 67 15 99c0 37 -9 71 -28 101c-18 27 -46 42 -77 49c37 13 68 38 89 70s33 70 33 108z" />
    <glyph glyph-name="four" unicode="4" horiz-adv-x="653" 
d="M563 295h8c-1 -12 -3 -33 -3 -45c-1 -6 -1 -14 -1 -22c-1 -10 -1 -17 -1 -22c-15 0 -30 1 -45 2c-16 0 -31 0 -46 1v-28v-28c0 -44 1 -97 2 -141c-19 1 -44 3 -69 4c-12 0 -25 1 -37 1c-12 1 -23 1 -33 1l10 86c4 39 6 68 12 107h-39c-81 0 -173 -2 -256 -5
c2 9 3 21 5 33c1 12 2 24 4 33c103 147 208 292 317 435l8 4c19 0 40 1 62 2s43 2 63 2c-20 -140 -33 -278 -43 -418c16 0 34 -1 50 -1h10h11c4 -1 8 -1 11 -1zM373 298c11 113 22 225 36 340c-43 -58 -83 -113 -123 -169s-81 -113 -122 -173c35 1 70 1 104 1
c34 1 68 1 105 1z" />
    <glyph glyph-name="five" unicode="5" horiz-adv-x="636" 
d="M178 720l-11 -10c0 -56 -3 -117 -6 -177c-4 -61 -8 -122 -13 -179c55 24 107 37 155 37c36 0 75 -6 109 -30c25 -21 37 -56 37 -90c0 -19 -6 -36 -14 -50s-20 -27 -34 -39c-18 -15 -40 -26 -62 -32c-23 -6 -47 -8 -69 -8c-55 0 -112 11 -167 40l-11 -79
c-4 -28 -9 -57 -13 -80c63 -15 122 -19 180 -19c36 0 74 2 111 11c37 8 72 23 103 47c31 23 51 57 63 92s17 74 17 107c0 57 -15 113 -53 154c-23 23 -50 39 -81 49c-30 10 -63 14 -95 14c-28 0 -55 -6 -83 -12c2 14 3 29 4 43c0 13 1 27 2 41c2 27 3 54 4 83
c41 -2 73 -3 114 -3c59 0 117 2 178 8l13 81c-70 -6 -132 -10 -189 -10c-64 0 -127 4 -189 11z" />
    <glyph glyph-name="six" unicode="6" horiz-adv-x="642" 
d="M555 696l5 8c-43 11 -88 19 -134 19c-41 0 -85 -7 -126 -22s-80 -39 -110 -73c-41 -50 -65 -113 -79 -177s-18 -129 -18 -182c0 -62 8 -122 36 -175c17 -31 43 -54 74 -68c30 -14 65 -21 100 -21c31 0 64 3 96 12c32 8 61 23 87 46c28 27 46 61 57 96s15 72 15 106
c0 27 -2 54 -10 80c-7 26 -19 50 -37 71l1 -1c-18 23 -42 39 -68 49c-27 10 -56 15 -85 15c-59 0 -115 -27 -157 -70c6 29 12 58 23 86c10 28 24 55 45 81c18 23 42 37 67 46c26 9 54 13 80 13c42 0 87 -10 134 -29c3 27 9 64 13 91zM343 396c35 0 69 -13 88 -41
c20 -26 26 -59 26 -92v-6c-1 -2 -1 -4 -1 -6v-10c-3 -31 -21 -54 -46 -70c-26 -16 -57 -24 -86 -24s-59 5 -83 17s-41 33 -41 64c0 21 5 44 12 66c8 22 19 43 35 60c25 28 61 42 96 42z" />
    <glyph glyph-name="seven" unicode="7" horiz-adv-x="610" 
d="M168 715v-35c0 -13 0 -26 -1 -36c73 -9 145 -13 215 -13c46 0 92 1 137 4c-25 -47 -47 -91 -69 -135c-22 -45 -44 -89 -68 -137c-27 -56 -56 -116 -86 -175c-30 -60 -61 -120 -90 -174l65 3c23 1 45 1 64 1h28h28c17 49 37 108 53 159c55 168 111 337 180 501l3 23
c1 2 2 7 2 12c1 3 1 6 1 8c1 3 1 4 1 5c-84 -11 -163 -16 -239 -16c-71 0 -142 5 -213 15z" />
    <glyph glyph-name="eight" unicode="8" horiz-adv-x="651" 
d="M126 328c-21 -21 -34 -46 -43 -73c-10 -27 -13 -55 -13 -81c0 -47 12 -92 48 -121c25 -20 54 -32 86 -39c31 -8 63 -10 96 -10c32 0 65 2 97 10c32 7 63 19 91 39s46 48 57 78c12 30 16 63 16 93c0 41 -13 76 -35 104s-53 48 -90 60c40 10 70 36 92 70
c21 33 32 73 32 110c0 38 -14 75 -41 101c-22 18 -48 29 -75 36s-56 9 -84 9c-27 0 -56 -3 -85 -9c-29 -7 -56 -19 -80 -37c-43 -35 -63 -90 -63 -142c0 -30 9 -60 24 -85c15 -24 37 -45 65 -55c-35 -11 -69 -31 -95 -58zM227 559v1c1 33 18 57 43 73c24 16 55 25 84 25
c28 0 57 -6 79 -19c21 -14 36 -35 36 -67c0 -33 -14 -64 -36 -86s-53 -35 -85 -35h-5h-6h-5h-5c-27 0 -52 10 -71 27c-19 16 -31 39 -31 66c0 4 1 9 2 15zM330 351c36 1 70 -9 93 -34c21 -22 30 -51 30 -82c-1 -31 -17 -57 -41 -76c-29 -23 -68 -30 -103 -30
c-36 0 -73 6 -98 29c-15 15 -27 34 -27 55c0 18 4 38 11 56c8 18 19 34 33 47c29 23 66 35 102 35z" />
    <glyph glyph-name="nine" unicode="9" horiz-adv-x="641" 
d="M257 4c42 0 85 6 125 21c41 16 78 39 108 74c39 49 64 111 78 174c15 62 19 127 19 180c0 63 -7 126 -38 185c-17 29 -44 51 -73 65c-30 13 -65 20 -98 20c-32 0 -65 -3 -96 -12c-32 -9 -61 -24 -87 -48c-29 -26 -46 -58 -57 -93s-14 -71 -14 -105c0 -55 10 -111 45 -153
v1c18 -23 42 -40 68 -49c27 -11 55 -15 85 -15c59 0 115 26 156 69c-5 -25 -10 -52 -19 -76c-8 -24 -21 -46 -42 -63v1c-44 -28 -97 -33 -146 -33c-42 0 -87 11 -133 31c-2 -11 -3 -24 -5 -36c-1 -13 -3 -25 -5 -38c-3 -26 -7 -51 -11 -74l12 -1l-7 -5
c44 -13 89 -20 135 -20zM336 396c-40 0 -79 3 -114 17c-14 6 -22 18 -27 31c-5 14 -7 30 -7 45c0 22 4 46 12 68c8 21 20 42 38 57c33 28 75 40 116 40c45 0 90 -9 120 -40c22 -21 29 -52 29 -85c0 -17 -1 -42 -8 -64c-8 -22 -20 -43 -42 -51c-37 -15 -78 -18 -117 -18z" />
    <glyph glyph-name="colon" unicode=":" horiz-adv-x="347" 
d="M128 529l-3 -42c0 -14 -1 -29 -2 -45c-1 -17 -2 -32 -4 -47c24 -5 45 -8 64 -8c20 0 41 2 65 7l8 75c3 27 6 53 8 74c-29 -10 -53 -16 -71 -16s-35 4 -51 10zM106 160l-8 -8c-1 -11 -2 -24 -4 -36c-2 -26 -5 -53 -9 -78c-1 -14 -2 -26 -4 -37c27 8 52 13 71 13
c18 0 39 -4 64 -14c2 23 3 52 5 80l3 41c1 14 2 26 3 38c-23 4 -44 6 -63 6c-20 0 -39 -2 -58 -5z" />
    <glyph glyph-name="semicolon" unicode=";" horiz-adv-x="328" 
d="M136 524l-11 -8c0 -8 0 -16 -1 -24c0 -9 -1 -17 -2 -24l-3 -44c-1 -16 -3 -31 -4 -45c20 -2 30 -2 41 -2c24 0 50 3 81 11c4 41 9 89 14 130l1 22c-33 -13 -61 -18 -85 -18c-10 0 -21 0 -31 2zM122 120h-27c-1 -7 -2 -16 -2 -25c-1 -10 -2 -18 -2 -25
c-2 -13 -3 -27 -4 -41l-17 -48l-24 -69c-4 -13 -8 -25 -12 -37s-8 -22 -11 -33c31 12 58 17 80 19c9 14 18 30 28 46s19 31 29 46l42 69l3 38c0 8 1 18 2 29s1 20 2 29c-28 2 -49 3 -69 3h-9c-3 -1 -6 -1 -9 -1z" />
    <glyph glyph-name="less" unicode="&#x3c;" horiz-adv-x="771" 
d="M704 472l6 7c1 6 4 14 6 22c6 17 11 34 17 50c2 9 5 15 7 22c-85 -28 -178 -54 -273 -79c-94 -26 -189 -50 -275 -71l-91 -22c0 -8 -1 -18 -3 -27c-2 -20 -5 -40 -9 -59c-1 -10 -3 -19 -4 -27c94 -49 197 -99 293 -146l133 -64c45 -22 90 -45 131 -66c0 47 2 87 5 125
c-84 43 -177 89 -263 130l-159 77c84 21 162 41 240 61c77 21 155 42 239 67z" />
    <glyph glyph-name="equal" unicode="=" horiz-adv-x="803" 
d="M121 457l-11 -12c6 -24 8 -50 10 -78c91 -2 191 -3 283 -3c99 0 203 1 303 3c6 29 16 59 29 90c-104 -3 -221 -6 -325 -6c-97 0 -193 2 -289 6zM121 277l-10 -8c-5 -29 -13 -61 -28 -97c50 1 105 3 160 4c54 1 109 1 159 1c99 0 209 -2 307 -5c-9 35 -13 70 -13 105
c-86 1 -179 2 -265 2c-104 0 -206 -1 -310 -2z" />
    <glyph glyph-name="greater" unicode="&#x3e;" horiz-adv-x="769" 
d="M144 537l5 -9c43 -22 86 -44 129 -65c86 -42 158 -76 211 -102c27 -13 53 -26 80 -40l-116 -29c-121 -31 -244 -63 -365 -99c-4 -18 -9 -35 -15 -56c-6 -20 -12 -43 -22 -71c86 27 176 53 267 78c91 24 182 47 268 68l102 26c4 39 10 76 18 114l-252 125
c-49 23 -101 49 -153 75c-51 25 -103 51 -152 76v-14c-1 -5 -1 -11 -1 -16c-1 -12 -2 -24 -2 -32c0 -4 -1 -9 -1 -14s0 -10 -1 -15z" />
    <glyph glyph-name="question" unicode="?" horiz-adv-x="533" 
d="M330 202l10 8c0 5 1 10 1 15c0 4 0 9 1 14c1 28 3 56 12 82c3 8 7 14 12 20l5 7l8 11c2 3 5 7 7 11l5 7l39 40c23 24 47 49 65 77c17 28 29 59 29 95s-11 71 -38 94c-18 16 -40 26 -63 32c-24 6 -48 7 -72 7c-63 0 -127 -14 -190 -41c0 -3 0 -8 -1 -13v-14
c0 -3 0 -8 -1 -13v-16c-1 -12 -2 -24 -2 -30c29 15 58 29 88 39c29 10 57 16 84 16c25 0 49 -7 67 -23c18 -15 28 -37 28 -64c0 -16 -10 -32 -24 -47c-14 -16 -32 -29 -47 -41l-7 -6l-24 -20c-5 -4 -9 -7 -12 -10c-4 -3 -8 -6 -12 -10c-23 -21 -46 -43 -61 -73
c-17 -39 -20 -77 -23 -116l-4 -41c37 2 83 3 120 3zM210 151l-9 -8c-2 -21 -4 -44 -7 -67s-6 -47 -9 -67c33 2 76 4 109 4h28l3 35c0 13 1 24 2 34l6 72h-29c-32 0 -63 -1 -94 -3z" />
    <glyph glyph-name="at" unicode="@" horiz-adv-x="944" 
d="M585 102l-3 -50c37 0 76 6 113 18c36 11 71 29 98 53c31 31 53 71 68 113c14 42 21 86 21 125c0 72 -19 132 -49 179c-32 47 -76 84 -127 107c-51 24 -110 36 -171 36c-57 0 -116 -10 -170 -29c-55 -20 -109 -49 -154 -88c-48 -46 -83 -103 -105 -163
c-22 -61 -32 -125 -32 -186c0 -46 6 -92 20 -135c13 -43 34 -83 66 -117v1c34 -41 79 -69 129 -88s104 -27 158 -27c95 0 194 30 281 91l-11 21c-4 9 -8 17 -11 26c-8 17 -15 34 -20 47c-73 -51 -154 -72 -229 -73c-43 1 -85 5 -124 16c-39 12 -74 32 -101 63
c-27 33 -53 67 -71 106c-11 23 -14 50 -14 77c0 62 13 126 41 183c27 57 69 107 126 142c64 39 137 56 209 56c49 0 97 -9 140 -29c43 -19 81 -49 108 -87c25 -41 37 -88 37 -137c0 -27 -3 -57 -11 -85c-8 -29 -21 -57 -39 -81c-25 -31 -59 -50 -97 -58c7 114 19 225 32 338
h-17h-21c-7 -1 -14 -1 -20 -1h-17c-1 -7 -2 -15 -2 -25l-3 -24v-4c-31 37 -77 61 -129 61s-102 -17 -139 -58c-24 -24 -39 -54 -49 -85s-14 -64 -14 -95c0 -44 11 -89 37 -123c30 -40 79 -58 130 -58s100 23 137 59zM355 301c3 32 13 65 38 88c23 22 53 32 84 32
c30 0 56 -9 75 -26c19 -18 30 -43 30 -75c0 -39 -10 -78 -39 -107c-22 -23 -54 -31 -84 -31c-31 0 -57 8 -75 26c-19 18 -30 43 -30 76c0 6 0 11 1 17z" />
    <glyph glyph-name="A" unicode="A" horiz-adv-x="815" 
d="M461 710h-96c-33 -68 -70 -147 -102 -218c-73 -158 -150 -324 -246 -489l33 3c13 1 25 2 38 3l38 3c12 0 23 1 33 2c8 18 18 36 28 56c9 20 18 39 25 58c53 1 98 1 151 1c50 0 99 0 149 -1c8 -39 16 -76 25 -114c22 -1 48 -3 75 -5l74 -6c-38 89 -68 176 -96 263
c-27 86 -51 171 -75 256c-17 61 -36 128 -54 188zM422 526l18 -78c9 -34 17 -67 24 -100l24 -100h-52h-32h-33h-57h-58c31 72 59 140 89 212l58 145c7 -26 13 -53 19 -79z" />
    <glyph glyph-name="B" unicode="B" horiz-adv-x="723" 
d="M594 334c25 -27 40 -64 40 -104c0 -30 -4 -63 -15 -92c-12 -29 -31 -55 -60 -75c-29 -19 -61 -30 -93 -37c-32 -6 -67 -8 -98 -8c-84 0 -170 -4 -264 -15c43 242 64 480 64 712l11 10c71 -10 142 -13 214 -15c45 0 87 -4 127 -19c28 -11 50 -29 64 -51s21 -48 21 -74
c0 -35 -9 -72 -26 -104c-18 -32 -45 -59 -81 -70c38 -10 72 -30 96 -58zM270 642c-2 -73 -6 -139 -12 -213c21 -1 43 -1 64 -1h64c31 0 67 5 94 23c15 11 26 28 33 45c8 17 11 34 11 48c0 36 -15 60 -37 74c-23 15 -53 20 -82 20c-45 0 -90 1 -135 4zM513 219
c6 15 8 31 8 46c0 20 -15 37 -28 50c-14 12 -30 19 -47 23c-18 4 -37 6 -55 6h-141l-1 -21c-6 -55 -10 -106 -18 -162c47 1 96 3 143 3c36 0 75 2 109 19h-1c14 7 24 21 31 36z" />
    <glyph glyph-name="C" unicode="C" horiz-adv-x="747" 
d="M670 663l9 5c-58 41 -131 55 -203 55c-47 0 -97 -5 -144 -19c-48 -15 -93 -39 -130 -75c-41 -42 -67 -98 -84 -154c-16 -58 -23 -117 -23 -167c0 -38 4 -77 13 -112c10 -36 25 -70 48 -99c32 -35 72 -58 116 -73c44 -14 92 -20 139 -20c73 0 149 15 218 58v21
c0 22 1 51 2 80c1 28 1 57 3 80c-33 -29 -69 -51 -104 -66c-36 -15 -73 -23 -107 -23c-30 0 -63 2 -94 9c-31 6 -60 17 -84 37v-1c-17 16 -28 36 -35 58s-9 46 -9 71c0 39 4 83 16 126s32 83 65 118h-1c26 26 57 42 90 52c33 9 67 13 100 13c69 0 139 -29 194 -84
c2 15 4 35 8 55c1 10 3 19 5 29c1 9 3 18 4 25z" />
    <glyph glyph-name="D" unicode="D" 
d="M714 539c10 -34 14 -70 14 -106c0 -50 -4 -113 -20 -174s-44 -120 -93 -161c-45 -35 -95 -54 -147 -65c-53 -12 -107 -14 -158 -16c-33 -2 -67 -3 -102 -5c-36 -3 -71 -5 -104 -9c43 222 64 438 64 651v31v30l10 10c65 -8 127 -12 191 -13c50 -3 105 -5 156 -17
c51 -11 99 -30 138 -65c25 -26 42 -57 51 -91zM625 375c2 15 2 31 2 46c0 49 -11 101 -41 139c-25 25 -59 41 -94 50c-36 10 -74 14 -109 15c-36 0 -72 1 -108 3c-5 -146 -15 -286 -33 -431c35 2 70 2 105 3h7h8c31 1 62 3 92 7s60 13 87 29c23 15 40 38 53 62
c13 25 23 52 31 77z" />
    <glyph glyph-name="E" unicode="E" horiz-adv-x="704" 
d="M179 725l-11 -10c-2 -234 -22 -469 -63 -712c84 10 164 15 238 15c73 0 150 -5 231 -15v38v42c1 27 1 55 3 78c-79 6 -152 9 -223 9c-41 0 -81 -1 -123 -2c2 15 4 30 5 44c2 15 4 29 5 43c3 29 6 57 8 88h150h84h84v12c1 6 1 10 1 13c1 19 4 46 8 65
c-67 -1 -144 -3 -211 -3c-37 0 -71 1 -108 1c2 34 4 67 7 98l6 96c45 -2 82 -3 128 -3c69 0 140 3 216 11c2 15 5 36 8 52l6 40c-82 -10 -159 -15 -233 -15c-73 0 -145 5 -216 15z" />
    <glyph glyph-name="F" unicode="F" horiz-adv-x="556" 
d="M179 722l-12 -9c-11 -233 -36 -469 -82 -710c47 7 90 10 131 13c10 101 18 208 24 309h76c15 0 29 0 43 1h42h47s32 0 47 -1l4 39c0 5 1 10 1 16s1 13 2 19c1 13 2 25 4 35c-59 -2 -127 -3 -185 -3h-44c-4 0 -9 0 -16 1h-16l6 48c4 31 7 61 11 91c1 15 3 32 5 48
c28 -2 49 -2 78 -2c68 0 136 4 209 12l3 23c2 8 3 17 4 26c2 9 2 18 4 26l3 23c-78 -12 -150 -17 -216 -17c-59 0 -116 4 -173 12z" />
    <glyph glyph-name="G" unicode="G" horiz-adv-x="791" 
d="M596 711c41 -8 79 -23 115 -46l-4 -26l-3 -17c-1 -8 -2 -15 -3 -22c-3 -14 -5 -29 -6 -39c-63 58 -142 85 -218 85c-33 0 -68 -4 -102 -14c-34 -9 -66 -25 -92 -49c-31 -33 -51 -74 -63 -116s-16 -85 -16 -124c0 -25 1 -52 7 -76c7 -24 18 -46 37 -62v1
c23 -18 53 -28 84 -34c30 -6 62 -8 93 -8c12 0 24 0 37 1c26 0 52 3 74 11c10 3 20 9 27 16l1 1c1 12 2 23 2 35c1 11 2 22 2 33c-23 1 -47 1 -71 1h-72l10 109h127c20 0 41 0 64 1h64c-9 -102 -14 -201 -14 -299c-81 -51 -171 -68 -258 -68c-46 0 -96 5 -142 18
c-45 14 -87 37 -119 73c-23 28 -37 61 -47 96c-10 36 -14 73 -14 109c0 52 5 113 21 172c16 58 42 115 87 158c35 33 81 57 128 71c47 15 97 21 142 21c41 0 82 -3 122 -12zM564 191l-1 -1c1 0 1 1 1 1z" />
    <glyph glyph-name="H" unicode="H" horiz-adv-x="787" 
d="M179 724l-12 -10c-2 -234 -23 -468 -73 -711l29 3c10 1 21 2 32 3c22 2 44 3 61 5c11 74 21 157 30 232c26 1 51 1 75 1h76h75s49 0 74 -1c-5 -78 -7 -154 -8 -232c8 -1 18 -2 28 -2l32 -3c22 -2 43 -4 59 -6c-1 35 -2 79 -2 114c0 197 19 399 56 608c-4 0 -10 -1 -16 -1
c-6 -1 -11 -2 -18 -2c-12 -2 -24 -3 -33 -3l-45 -4c-17 -107 -31 -222 -40 -329c-76 -1 -142 -1 -218 -1h-47h-18h-18c10 112 15 219 19 330c-36 1 -69 4 -98 9z" />
    <glyph glyph-name="I" unicode="I" horiz-adv-x="346" 
d="M179 716l-12 -8c-22 -232 -49 -478 -78 -710c27 13 49 20 66 20s37 -7 60 -20c6 116 14 240 24 364c9 124 19 248 30 364c-23 -10 -42 -16 -56 -16c-11 0 -23 3 -34 6z" />
    <glyph glyph-name="J" unicode="J" horiz-adv-x="412" 
d="M274 709l-9 -8c-32 -217 -57 -430 -84 -646c-4 -29 -22 -49 -45 -62c-24 -14 -52 -21 -77 -25l-20 1l-29 3c-1 -6 -2 -14 -2 -23c-1 -10 -2 -17 -3 -23c-4 -37 -8 -85 -14 -122c5 0 9 1 15 1c6 1 12 2 17 2c12 2 24 3 33 3l24 4c24 4 50 9 74 17c24 7 47 19 68 36
c24 24 39 53 48 83s12 62 16 92c25 223 54 457 91 680c-43 -10 -73 -11 -103 -13z" />
    <glyph glyph-name="K" unicode="K" horiz-adv-x="810" 
d="M178 722l-11 -9c-4 -233 -31 -467 -82 -710c19 2 44 5 68 7c13 0 24 1 36 2s22 2 32 2c9 104 17 215 21 320c34 -57 65 -108 96 -159s63 -102 100 -157c74 -2 153 -7 241 -16c-48 52 -104 113 -159 175c-55 61 -111 123 -159 177c-5 5 -9 11 -14 17c-5 5 -10 11 -14 16
c39 35 79 70 118 104l118 104l148 128l-52 -3c-30 -3 -60 -4 -89 -6c-15 -12 -30 -26 -46 -39c-16 -14 -31 -28 -46 -40c-79 -67 -157 -135 -234 -204c6 50 10 95 14 142c3 46 7 92 9 142c-29 1 -66 4 -95 7z" />
    <glyph glyph-name="L" unicode="L" horiz-adv-x="673" 
d="M179 723l-12 -9c-5 -232 -28 -470 -73 -711c82 10 160 15 233 15c71 0 142 -4 216 -13l6 78c2 28 5 55 8 78c-77 6 -146 9 -214 9c-39 0 -78 -1 -117 -2c23 183 37 363 46 546c-35 1 -64 5 -93 9z" />
    <glyph glyph-name="M" unicode="M" horiz-adv-x="900" 
d="M178 723l-11 -9c0 -232 -23 -469 -78 -710c19 2 43 3 67 5s48 3 67 4c26 195 40 387 40 578c33 -111 62 -229 88 -341l30 -124h33c4 0 9 0 14 1h13h13c4 -1 8 -1 13 -1h33c4 12 9 24 15 38c6 13 11 26 15 37c53 131 106 259 166 387c-32 -188 -53 -378 -57 -575
c9 0 20 -1 31 -2c12 0 23 -1 35 -2c23 -2 46 -3 65 -5c-3 53 -5 116 -5 169c0 180 19 362 54 551c-10 -1 -22 -2 -34 -2l-38 -3c-25 -2 -51 -4 -72 -5c-68 -110 -131 -232 -191 -347l-28 -53c-22 70 -43 136 -66 201c-22 66 -46 130 -73 198c-45 2 -94 6 -139 10z" />
    <glyph glyph-name="N" unicode="N" horiz-adv-x="771" 
d="M175 708l-11 -9c-6 -228 -32 -458 -82 -696c19 2 43 5 66 7c12 0 24 1 35 2s22 2 31 2c18 195 28 381 30 568c18 -40 35 -79 51 -118s33 -78 50 -119c47 -110 96 -222 150 -329c21 -2 47 -3 73 -5s52 -5 73 -7l-1 66c0 214 23 433 64 656c-6 0 -14 -1 -22 -2l-27 -3
c-9 -1 -19 -2 -27 -2c-9 -1 -17 -2 -23 -2c-35 -184 -58 -366 -71 -548c-10 20 -18 39 -26 56c-16 33 -30 65 -45 99c-7 17 -16 35 -25 55c-46 106 -95 217 -148 320c-3 0 -7 0 -12 1h-12c-31 2 -60 4 -91 8z" />
    <glyph glyph-name="O" unicode="O" 
d="M444 723c-44 0 -89 -6 -131 -21c-42 -14 -82 -38 -114 -73h1c-43 -45 -68 -100 -83 -158c-15 -57 -20 -117 -20 -169c0 -37 4 -73 13 -108s22 -68 44 -95c25 -34 59 -57 98 -72s81 -22 123 -22c45 0 91 6 134 20s83 38 116 73c40 46 65 100 81 157s22 116 22 170
c0 36 -3 73 -12 108c-9 34 -23 67 -45 95c-25 35 -61 58 -101 73c-39 15 -83 22 -126 22zM438 637c59 0 115 -23 147 -70c28 -45 37 -99 37 -155c0 -28 -2 -65 -11 -99c-10 -36 -27 -69 -57 -88c-47 -26 -105 -35 -158 -35c-26 0 -53 2 -79 7c-25 5 -51 13 -72 27
c-17 10 -28 27 -34 46c-6 18 -8 39 -8 60c0 38 5 81 16 122s29 81 56 113c20 26 46 43 74 55s59 17 89 17z" />
    <glyph glyph-name="P" unicode="P" horiz-adv-x="625" 
d="M589 619c10 -23 14 -48 14 -74c0 -34 -6 -72 -18 -108s-32 -71 -60 -97c-25 -23 -53 -36 -84 -45s-63 -12 -93 -12h-53h-53c-12 -88 -25 -182 -40 -268c-18 -2 -40 -3 -63 -5s-46 -5 -64 -7c53 241 80 477 92 709l11 9c68 -8 136 -11 205 -11c28 0 55 -1 82 -5
c27 -5 52 -13 76 -27c23 -15 39 -36 48 -59zM516 542c1 8 1 15 1 21c0 41 -18 66 -44 81c-25 13 -57 17 -83 17c-39 0 -77 0 -116 2c-7 -86 -14 -163 -24 -248c43 -1 85 -1 128 -1c34 0 69 14 94 37c26 24 43 56 44 91z" />
    <glyph glyph-name="Q" unicode="Q" horiz-adv-x="902" 
d="M675 169c21 39 35 84 44 128c8 45 11 90 11 129c0 35 -3 72 -13 106c-9 34 -23 66 -44 93c-27 34 -66 58 -107 73c-42 15 -87 22 -131 22c-41 0 -85 -7 -125 -22c-41 -15 -80 -38 -111 -71c-40 -42 -65 -94 -80 -148c-15 -55 -20 -111 -20 -162c0 -39 3 -79 13 -116
c9 -37 23 -73 46 -104c26 -35 61 -58 100 -73s82 -21 126 -21c11 0 21 0 31 1c12 -15 23 -29 35 -43c11 -13 23 -27 35 -42h-1l22 -26c76 -2 155 -7 239 -16c-2 3 -6 7 -10 12s-8 10 -13 15c-4 6 -9 11 -13 15c-4 5 -7 9 -10 12c-35 42 -70 84 -104 127c31 33 56 70 80 111z
M438 634c29 0 59 -6 85 -17c25 -12 48 -30 63 -54c29 -44 38 -96 38 -151c0 -39 -5 -79 -19 -114c-14 -36 -38 -66 -77 -86c-35 6 -69 17 -106 34c-3 -5 -7 -12 -12 -19c-6 -7 -10 -14 -14 -19l-18 -26c-50 8 -91 17 -131 42c-18 11 -29 28 -35 47c-6 20 -8 42 -8 63
c0 38 4 79 16 119c11 40 28 79 55 110c41 50 101 71 163 71z" />
    <glyph glyph-name="R" unicode="R" horiz-adv-x="805" 
d="M627 105c17 -35 33 -71 48 -102c-21 2 -47 5 -73 7s-53 4 -74 5c-22 59 -43 122 -62 182v-1c-14 33 -29 67 -55 90v-1c-23 16 -51 21 -80 21h-31h-31c-10 -96 -22 -197 -36 -292c-18 -1 -40 -3 -63 -5s-46 -4 -64 -6c43 233 64 458 64 682v41c79 -10 150 -14 221 -15
c49 -2 99 -8 142 -33c25 -17 41 -38 51 -62c11 -24 15 -50 15 -75c0 -37 -8 -79 -25 -115c-18 -37 -46 -69 -86 -84c22 -12 39 -31 53 -52c13 -21 23 -44 34 -66l6 -15c13 -32 29 -68 46 -104zM324 410h54c28 0 63 10 91 28s50 43 53 72c0 2 0 3 1 5v4c0 7 1 14 1 21
c0 33 -7 64 -32 82c-28 20 -60 29 -95 30c-19 0 -38 0 -57 1c-19 0 -38 1 -58 2c-1 -42 -3 -82 -5 -122s-5 -80 -8 -122c18 -1 37 -1 55 -1z" />
    <glyph glyph-name="S" unicode="S" horiz-adv-x="678" 
d="M590 691l3 6c-66 17 -134 26 -203 26c-32 0 -65 -2 -96 -10c-32 -7 -63 -18 -91 -38c-27 -19 -45 -44 -56 -71c-11 -28 -16 -59 -16 -87c0 -43 10 -87 38 -119c19 -19 42 -33 67 -44c24 -10 51 -17 77 -22l16 -4c27 -5 66 -13 98 -28c32 -16 57 -38 57 -71
c0 -12 -6 -23 -15 -33c-8 -10 -20 -20 -30 -26c-36 -23 -80 -30 -121 -30c-72 0 -144 20 -212 59c-2 -23 -7 -52 -11 -80c-4 -29 -9 -57 -12 -81c74 -23 149 -33 224 -33c35 0 70 2 106 9c35 7 70 18 104 40c27 20 46 48 57 78c10 30 14 63 14 93c0 28 -5 57 -17 83
c-11 25 -29 48 -54 66c-43 29 -91 40 -140 49l-28 6c-16 4 -34 8 -51 14c-17 5 -33 13 -46 23c-13 14 -20 36 -20 57c0 34 14 67 49 90h-1c37 19 76 24 114 24c63 0 127 -17 190 -44c1 10 3 22 5 34l3 19c0 6 1 11 2 16l4 28z" />
    <glyph glyph-name="T" unicode="T" horiz-adv-x="759" 
d="M168 715l1 -81c45 -3 100 -4 144 -4h24c17 0 35 0 53 1h24c-22 -206 -47 -408 -74 -613h11h13h12h11h36c18 0 45 0 63 -1c4 203 18 411 33 614c31 -1 55 -1 88 -1c49 0 107 2 156 4c2 9 4 18 6 30c2 11 4 21 6 29l5 33c-109 -11 -212 -16 -315 -16c-96 0 -192 5 -286 15z
" />
    <glyph glyph-name="U" unicode="U" horiz-adv-x="744" 
d="M167 715v-34c0 -135 -8 -267 -21 -404c-2 -20 -4 -40 -4 -62c0 -27 3 -53 10 -78c7 -26 18 -51 37 -72c24 -25 56 -41 89 -49c34 -9 70 -12 105 -12s73 3 109 13s71 27 101 56c26 28 44 61 54 96c11 35 16 72 19 106c11 147 26 294 57 450l-37 -3c-21 -3 -49 -5 -70 -7
c-5 -28 -10 -57 -13 -88c-9 -60 -17 -122 -22 -183c-4 -30 -7 -60 -10 -89c-2 -26 -6 -55 -14 -82s-19 -53 -36 -75c-15 -17 -36 -28 -58 -35c-23 -7 -47 -9 -69 -9s-46 2 -67 8c-22 6 -40 18 -53 35h1c-20 30 -25 67 -25 105c0 16 1 34 2 51c10 119 18 244 20 361
c-29 2 -64 6 -94 10z" />
    <glyph glyph-name="V" unicode="V" horiz-adv-x="815" 
d="M411 18h22h22h35h35l43 105c39 99 80 199 124 299s92 202 147 304l-47 -4c-21 -2 -45 -4 -66 -5c-38 -63 -74 -131 -110 -199s-71 -137 -104 -202l-27 -53c-8 -18 -17 -36 -27 -55l-31 96c-45 138 -92 279 -147 412c-15 1 -35 3 -55 5l-55 6c17 -46 32 -91 45 -136
c28 -89 51 -176 72 -263c21 -86 38 -159 51 -216l21 -87l10 -7h42z" />
    <glyph glyph-name="W" unicode="W" horiz-adv-x="1062" 
d="M271 718l-101 8c33 -116 56 -235 72 -354c15 -120 23 -240 27 -360c12 1 25 1 38 2c13 0 27 1 41 1c27 1 55 2 79 2c29 56 58 117 87 178c28 61 56 123 82 181c2 -5 3 -10 4 -12c0 -3 1 -6 2 -8l4 -20c26 -106 52 -211 89 -319c21 0 47 -1 73 -2c25 0 51 -1 73 -2
c28 119 60 239 100 358c39 119 86 237 144 354c-5 0 -14 0 -23 -1h-15c-4 -1 -8 -1 -11 -1c-17 -2 -38 -3 -55 -3c-87 -163 -154 -330 -216 -500c-8 19 -15 37 -21 54l-36 100c-5 17 -12 35 -19 54c-11 34 -26 74 -38 108h-87l-37 -63c-13 -22 -25 -44 -37 -64
c-35 -61 -71 -120 -108 -180c-13 82 -28 164 -45 246c-18 81 -39 163 -66 243z" />
    <glyph glyph-name="X" unicode="X" horiz-adv-x="821" 
d="M175 721l-9 -13c59 -112 115 -229 168 -344l4 -10c2 -3 4 -7 5 -11c-45 -55 -92 -113 -140 -171c-48 -59 -97 -116 -143 -170c12 2 25 3 41 4l90 7c16 0 29 1 40 2c58 78 114 161 168 243c20 -43 41 -83 61 -122c20 -40 41 -79 64 -120l84 -6c30 -2 60 -5 83 -7
c-35 52 -72 109 -109 167s-72 116 -105 171c82 126 171 262 261 383l-50 -3c-21 -2 -45 -4 -66 -5c-70 -94 -137 -194 -202 -291l-36 74l-36 72c-24 47 -49 94 -76 143c-4 0 -10 1 -18 1c-7 1 -13 1 -18 1z" />
    <glyph glyph-name="Y" unicode="Y" horiz-adv-x="754" 
d="M176 725l-9 -14c71 -150 130 -302 191 -455c-4 -39 -7 -79 -12 -119l-12 -119h11h12h12h10h35c17 0 43 0 60 -1c5 77 9 161 17 239c7 12 13 24 21 36c7 13 14 25 21 37c37 65 78 133 119 201s83 134 125 196l-38 -3c-25 -3 -53 -5 -78 -6c-78 -113 -152 -233 -224 -350
c-27 60 -53 118 -80 175c-26 58 -54 115 -84 173c-31 3 -65 6 -97 10z" />
    <glyph glyph-name="Z" unicode="Z" horiz-adv-x="815" 
d="M167 714v-81c94 -8 181 -11 267 -11c50 0 101 1 152 3c-82 -82 -159 -159 -235 -237c-77 -79 -153 -158 -232 -241c-4 -21 -8 -46 -13 -72c-4 -25 -9 -50 -13 -72c106 10 205 15 299 15c95 0 192 -5 293 -14c-1 29 -2 67 -2 96l1 57c-88 6 -184 9 -273 9
c-53 0 -107 -1 -160 -3c21 21 41 40 59 59c37 37 72 74 109 111l58 60c41 41 82 83 123 125c41 41 82 83 122 125l7 36c0 6 2 15 4 23l3 13c0 4 1 7 2 10c-104 -10 -203 -15 -295 -15c-89 0 -177 4 -265 13z" />
    <glyph glyph-name="bracketleft" unicode="[" horiz-adv-x="468" 
d="M188 753l-14 -8c-17 -287 -43 -585 -76 -873c40 14 76 21 110 21c31 0 65 -7 102 -21l3 46c1 21 2 50 4 72c-37 11 -71 14 -103 14h-6c20 221 39 436 56 657c3 -1 4 -1 4 0h3c34 0 70 4 107 17l5 45l4 35c-41 -14 -78 -22 -112 -22c-30 0 -60 5 -87 17z" />
    <glyph glyph-name="backslash" unicode="\" horiz-adv-x="565" 
d="M261 701l-8 7c-23 4 -48 8 -83 21c7 -34 13 -69 19 -104c12 -71 23 -143 35 -214c5 -36 11 -71 17 -105c20 -127 40 -259 63 -386c33 -2 59 -8 86 -15l23 -5c-14 65 -28 139 -42 212c-14 74 -27 148 -39 214c-23 125 -45 250 -71 375z" />
    <glyph glyph-name="bracketright" unicode="]" horiz-adv-x="469" 
d="M388 744l-13 9c-31 -11 -64 -17 -98 -17c-30 0 -64 7 -100 23l-2 -44c-1 -5 -1 -10 -2 -18c0 -7 0 -13 -1 -18c34 -15 68 -18 101 -18h9l-15 -167c-10 -109 -19 -218 -29 -327c-5 -55 -9 -111 -14 -167h-6c-33 0 -68 -5 -106 -15l-5 -52l-7 -61c41 14 77 21 109 21
s66 -7 103 -20c16 287 42 583 76 871z" />
    <glyph glyph-name="asciicircum" unicode="^" horiz-adv-x="792" 
d="M496 719h-78c-14 -12 -29 -26 -44 -40c-15 -15 -30 -29 -43 -41c-31 -30 -62 -59 -97 -91c-36 -31 -76 -63 -123 -98c12 0 24 1 39 1c15 1 30 1 45 2c31 1 62 1 84 1c49 49 88 99 127 148c15 20 30 39 46 58c4 -5 6 -10 9 -14c2 -4 5 -8 8 -12l7 -12c3 -4 5 -9 8 -14
c32 -53 63 -105 106 -153c11 -1 24 -1 39 -1l90 -3c14 -1 27 -1 38 -2c-45 36 -80 70 -111 102c-32 33 -59 64 -85 96c-11 12 -21 24 -33 37c-11 13 -22 25 -32 36z" />
    <glyph glyph-name="underscore" unicode="_" horiz-adv-x="703" 
d="M513 -146l-7 16c-88 -1 -174 -2 -262 -2c-19 0 -40 0 -62 1h-66c-44 0 -89 1 -128 2c16 -18 25 -33 25 -44c0 -14 -12 -32 -34 -53c41 1 88 1 136 2h71h65h66h71c48 -1 95 -1 136 -2c-19 18 -28 33 -28 43c0 13 6 27 17 37z" />
    <glyph glyph-name="grave" unicode="`" horiz-adv-x="421" 
d="M292 786l-7 4c-14 0 -33 1 -51 2c-18 0 -36 1 -49 2c15 -25 26 -47 36 -67c9 -19 17 -38 25 -56l14 -31c5 -11 10 -22 14 -31h22c8 0 18 0 29 -1c10 0 21 0 32 -1c11 0 22 -1 33 -1c10 -1 20 -1 28 -2c-18 22 -33 42 -45 61c-25 36 -43 64 -58 87c-7 12 -15 23 -23 34z
" />
    <glyph glyph-name="a" unicode="a" horiz-adv-x="623" 
d="M506 309c2 17 3 35 3 53c0 47 -9 94 -42 133c-21 20 -47 32 -74 40c-27 7 -58 9 -85 9c-59 0 -121 -12 -183 -31c-2 -14 -2 -28 -2 -41v-8c-1 -4 -1 -8 -1 -12v-11c-1 -4 -1 -7 -1 -9c60 28 118 40 172 40c36 -3 74 -13 104 -36c16 -17 23 -42 23 -65v-7
c-1 -5 -1 -8 -1 -11c-1 -1 -1 -3 -1 -4v-4h-54h-55c-51 0 -101 -6 -153 -32c-34 -17 -57 -45 -73 -77c-15 -32 -21 -69 -21 -101c0 -35 9 -69 32 -94c31 -31 74 -40 117 -40c34 0 69 4 102 16c32 12 61 30 86 58c-1 -5 -1 -9 -1 -10v-4v-4v-9l-1 -37l48 -3
c18 -2 36 -3 48 -5l-1 54c0 84 5 167 14 252zM366 274v-7c-1 -1 -1 -3 -1 -6l-2 -12c-3 -33 -8 -66 -30 -90c-14 -9 -30 -14 -46 -17s-34 -4 -49 -4c-23 0 -45 3 -67 7c-18 4 -26 22 -26 41c2 25 13 52 35 67c8 4 16 8 25 11c17 5 36 8 54 8c10 1 18 1 28 1c2 0 4 0 6 1h6
h67z" />
    <glyph glyph-name="b" unicode="b" horiz-adv-x="670" 
d="M270 737c-3 0 -43 1 -95 12c-6 -248 -6 -348 -51 -599l59 -69c24 -27 62 -43 88 -56c25 -13 53 -21 83 -21h4s1 0 2 1h2h8c57 -1 114 23 153 70c29 33 46 74 57 116c10 42 13 85 13 124c0 57 -13 116 -42 159c-30 44 -74 73 -137 73h-15c-29 0 -57 -7 -84 -19
c-26 -12 -50 -31 -67 -55c9 87 16 178 22 264zM531 293l1 2c-4 -19 -9 -38 -17 -56s-18 -36 -34 -48l1 1c-27 -19 -59 -27 -90 -29c-16 0 -34 3 -51 8c-17 6 -33 15 -46 27c-17 25 -24 60 -25 91c5 47 18 100 49 141c27 32 67 48 107 48c43 0 69 -21 85 -52s21 -72 21 -110
v-5c-1 -2 -1 -4 -1 -6v-12z" />
    <glyph glyph-name="c" unicode="c" horiz-adv-x="593" 
d="M498 512l8 9c-42 16 -86 24 -132 24c-37 0 -76 -4 -113 -16c-38 -11 -74 -29 -104 -56c-32 -32 -53 -74 -65 -117s-16 -89 -16 -127c0 -29 2 -57 9 -83c8 -27 19 -52 37 -74v1c23 -30 55 -48 90 -58c35 -11 73 -15 109 -15c47 0 96 7 147 26c-1 17 -1 39 -1 56
c0 12 0 29 1 46c0 17 1 32 2 45c-28 -13 -53 -20 -73 -20h-5l-72 2h1c-41 3 -81 8 -113 29h1c-12 9 -20 23 -25 38s-7 32 -7 49c2 24 7 50 15 76c8 25 19 49 37 68c16 20 37 33 61 41c23 8 47 12 71 12c43 0 91 -12 136 -35l4 29v-1c1 10 3 18 5 27c1 8 3 17 5 26z" />
    <glyph glyph-name="d" unicode="d" horiz-adv-x="651" 
d="M316 547h-14c-27 0 -56 -7 -82 -19s-50 -30 -68 -54v1c-30 -37 -50 -80 -62 -125c-11 -46 -16 -92 -16 -132c0 -51 9 -100 37 -143c31 -47 84 -71 141 -71h5c1 0 2 0 3 1h2h7c30 0 60 7 87 20s52 32 72 55c-1 -5 -1 -9 -1 -12v-5v-6v-12v-16c-1 -7 -1 -12 -1 -15l31 -3
c19 -1 46 -4 64 -7c4 248 31 496 78 747c-5 -1 -9 -2 -13 -2c-3 -1 -5 -2 -6 -2c-25 -3 -55 -6 -80 -8c-16 -87 -31 -179 -42 -268c-29 50 -83 76 -142 76zM145 282c3 28 10 59 21 88s26 55 47 75c20 19 46 32 79 32h11c23 0 44 -8 60 -22c16 -15 28 -35 33 -60
c6 -25 8 -50 8 -76c0 -17 0 -43 -6 -68c-6 -24 -16 -48 -36 -63l1 1c-30 -19 -65 -21 -98 -22c-16 0 -34 0 -49 4c-16 3 -30 10 -42 21h1c-11 12 -19 26 -23 41c-4 16 -6 33 -7 49z" />
    <glyph glyph-name="e" unicode="e" horiz-adv-x="640" 
d="M545 349v-5c-1 -2 -1 -4 -1 -6v-11h1c-1 -4 -1 -7 -1 -9c0 -3 0 -6 -1 -8l-2 -19c-79 -2 -164 -2 -243 -2c-11 0 -22 0 -33 1h-35h-58v-3c-1 -9 -1 -16 -1 -25c0 -19 2 -37 7 -54s13 -32 27 -42v1c40 -25 92 -32 139 -32h9c25 0 51 0 78 4c27 3 55 10 85 25v-16
c-1 -12 -1 -25 -1 -37v-16c0 -18 0 -43 1 -61c-68 -23 -135 -33 -200 -33c-33 3 -69 9 -103 20c-33 12 -66 29 -89 52c-19 21 -31 47 -39 74c-7 27 -11 56 -11 83c0 38 6 83 19 125c13 43 33 85 63 117c25 26 56 44 90 55c33 12 69 16 102 17c27 -2 56 -5 83 -13
s52 -20 72 -40c18 -19 28 -42 35 -66c5 -25 7 -51 7 -76zM234 371h47c62 0 125 1 187 2c-4 32 -16 62 -38 83c-21 21 -50 34 -85 34c-41 0 -83 -11 -114 -40c-23 -21 -40 -49 -44 -78c16 -1 32 -1 47 -1z" />
    <glyph glyph-name="f" unicode="f" horiz-adv-x="464" 
d="M306 573v-19c-1 -5 -1 -12 0 -19c41 0 86 3 132 7c0 -6 -1 -14 -2 -22c-2 -17 -4 -35 -5 -52l-3 -22c-43 -2 -86 -4 -129 -4c-9 -139 -17 -285 -22 -424l-39 1c-26 0 -59 -2 -98 -6c23 144 40 286 57 430c-11 0 -23 1 -36 2c-14 0 -26 1 -36 2l2 34c0 5 1 10 1 15
c1 5 1 11 1 16c1 11 2 23 2 31c30 -4 55 -6 75 -7c2 9 2 19 4 30c3 20 8 44 17 65c8 22 20 42 38 57c32 23 71 36 109 39c4 -1 9 -1 15 -1h15c13 0 28 1 42 2l10 -11l-10 -71c-9 0 -26 -1 -35 -1c-15 0 -29 1 -44 1c-16 -1 -32 -4 -44 -14c-11 -16 -15 -39 -17 -59z" />
    <glyph glyph-name="g" unicode="g" horiz-adv-x="633" 
d="M509 57l3 18c15 150 37 306 70 469l-66 -8l-32 -2l-13 -53c0 -2 -1 -6 -2 -9c-2 -4 -3 -7 -3 -11c-16 24 -39 43 -64 57c-26 14 -56 22 -86 22h-14c-28 0 -57 -6 -84 -17s-51 -28 -71 -50c-27 -32 -44 -71 -54 -111c-10 -41 -14 -83 -14 -118c0 -56 10 -116 41 -162
c14 -22 36 -40 60 -53c25 -12 52 -19 79 -19c63 0 118 22 161 67c-1 -6 -1 -12 -1 -16c-9 -32 -27 -60 -52 -85c-15 -18 -35 -28 -56 -35c-21 -6 -44 -9 -65 -9c-47 0 -96 9 -144 37c-2 -12 -4 -25 -5 -39l-6 -43c-4 -29 -8 -58 -11 -82c54 -15 105 -19 154 -19
c34 0 71 1 106 9s68 23 96 51c27 29 43 65 54 101c10 36 15 74 19 110zM407 281v1c-2 -19 -5 -40 -12 -60c-8 -19 -19 -37 -36 -48c-32 -13 -69 -19 -104 -19c-16 0 -32 1 -48 3s-31 7 -43 15c-10 12 -16 27 -19 43c-4 15 -5 33 -6 50v7c-1 3 -1 5 -1 8c2 23 6 49 13 73
c7 23 16 47 32 66c24 30 64 45 101 45s69 -12 91 -36c21 -24 34 -61 34 -112c0 -12 0 -24 -2 -36z" />
    <glyph glyph-name="h" unicode="h" horiz-adv-x="693" 
d="M566 328c1 12 2 25 2 38c0 37 -5 76 -25 115c-11 23 -30 40 -53 51c-24 10 -50 15 -75 15h-13c-61 0 -115 -31 -156 -78c6 49 10 92 14 134c4 43 7 85 11 133c-13 1 -31 3 -48 5l-26 3c-9 0 -16 1 -23 2c-9 -248 -36 -494 -84 -743c16 2 37 4 59 6l31 3c10 1 19 2 27 3
c8 68 13 142 19 210l3 41c0 14 1 27 2 42c4 43 19 87 48 120c26 30 66 46 103 46c32 0 63 -15 81 -44c10 -21 13 -47 13 -73c0 -10 0 -21 -1 -30c-11 -101 -21 -211 -27 -312c8 0 17 -1 27 -2l30 -3c21 -2 42 -5 58 -7c0 18 -1 40 -1 61c-1 11 -1 22 -1 32v30
c0 66 2 134 5 202z" />
    <glyph glyph-name="i" unicode="i" horiz-adv-x="331" 
d="M166 686l-6 -54c15 -11 29 -16 45 -16c15 0 32 6 48 14c0 10 1 21 2 33c0 11 1 22 2 32v13c1 5 1 11 1 17c1 11 2 22 2 28c-20 -13 -35 -20 -47 -20c-10 0 -18 3 -25 8l-16 -6zM168 539l-12 -8c-8 -86 -17 -177 -26 -269c-9 -91 -19 -183 -28 -269c22 17 40 26 52 26
s27 -9 45 -25c6 86 12 181 19 275s14 188 22 274c-18 -5 -33 -9 -45 -9c-8 0 -17 2 -27 5z" />
    <glyph glyph-name="j" unicode="j" horiz-adv-x="354" 
d="M234 724l-6 -44c-2 -14 -4 -29 -7 -44l-3 -23c33 4 65 8 96 16c1 6 1 13 2 20c0 8 1 15 1 20l3 41c1 7 2 14 2 21c1 7 1 14 2 19c-32 -10 -58 -15 -81 -19zM204 528l-9 -8c-7 -45 -13 -91 -19 -135c-6 -45 -11 -91 -18 -136l-12 -93c-4 -31 -8 -61 -13 -92v-2
c-1 -2 -1 -3 -1 -4c-2 -14 -4 -29 -7 -43c-4 -14 -10 -28 -18 -38c-19 -18 -48 -24 -75 -28l-29 -6c-3 -27 -8 -61 -12 -88l-8 -56l23 8c13 4 23 5 33 7l13 3c20 4 41 8 61 15c19 7 38 17 55 32c20 19 31 42 39 66c7 24 10 49 13 72c19 175 42 358 65 533
c-29 -4 -58 -7 -81 -7z" />
    <glyph glyph-name="k" unicode="k" horiz-adv-x="721" 
d="M183 745l-11 -9c-7 -240 -35 -485 -84 -733c18 2 41 5 64 7l34 3c11 1 21 2 29 2l3 32c0 12 1 22 2 31l6 85c2 28 3 56 4 84c15 -21 29 -41 43 -60c27 -38 54 -74 81 -111c15 -18 29 -38 44 -58c59 -2 123 -7 193 -17c-39 43 -81 90 -125 138c-44 47 -89 93 -128 136
l-18 18l64 72l36 42c13 14 26 29 39 44l77 86h-28c-10 -1 -21 -1 -32 -1c-22 -1 -44 -1 -59 -1c-30 -32 -60 -63 -89 -95l-89 -96c8 69 13 132 18 197c5 63 9 127 12 196c-26 1 -60 4 -86 8z" />
    <glyph glyph-name="l" unicode="l" horiz-adv-x="389" 
d="M185 742l-13 -7c-19 -242 -44 -494 -74 -735c33 12 61 19 84 19s48 -7 76 -19c1 8 1 18 2 28c0 10 1 21 2 32c1 21 3 43 4 59c-19 6 -38 10 -56 12c18 202 35 402 54 603c-8 0 -14 -1 -17 -1h-9c-19 0 -37 2 -53 9z" />
    <glyph glyph-name="m" unicode="m" horiz-adv-x="996" 
d="M851 184c0 -57 4 -116 15 -180c-9 1 -19 1 -30 2c-11 0 -23 1 -35 2c-11 0 -23 1 -34 1c-11 1 -21 1 -31 1v24c0 101 14 204 32 305l1 15c1 9 2 17 2 25s1 16 1 23c0 53 -19 76 -60 76c-42 0 -85 -16 -112 -51c-30 -35 -42 -78 -46 -122c-11 -95 -20 -195 -26 -290h-132
c22 106 45 222 64 328v-1c1 10 1 19 1 30c0 25 -3 50 -15 71l1 -1c-10 16 -23 26 -38 32c-14 5 -31 7 -46 7c-44 0 -77 -24 -101 -57c-23 -34 -36 -78 -38 -117c-6 -98 -15 -196 -36 -298c-9 0 -19 0 -29 -1c-22 0 -46 -1 -68 -3c-11 0 -21 -1 -29 -1c48 154 71 307 71 456
c0 24 -1 58 -2 82l48 -3l48 -2c-1 -19 -3 -43 -5 -66c34 48 90 75 146 75c38 0 75 -7 106 -25c31 -17 55 -42 66 -79c20 29 45 56 76 76c35 23 80 30 119 30c26 0 51 -6 72 -19s38 -33 45 -58c8 -27 10 -54 10 -80c0 -22 -2 -43 -4 -64c-4 -48 -7 -96 -7 -143z" />
    <glyph glyph-name="n" unicode="n" horiz-adv-x="687" 
d="M556 327c0 12 1 24 1 36c0 38 -5 77 -22 116c-13 24 -32 41 -55 51s-49 15 -75 15c-67 0 -124 -24 -180 -63v5c0 1 0 2 1 2v2v5l1 43c-6 1 -14 1 -22 2c-8 0 -17 1 -25 1c-18 2 -36 3 -48 5c-3 -182 -22 -362 -63 -544l31 3c23 2 46 3 69 5c11 0 21 1 31 2
c10 97 17 200 21 298v-1c3 41 14 84 43 116c15 16 35 26 55 32c21 6 43 8 63 8c14 0 27 -2 39 -7c13 -6 23 -14 31 -28v1c8 -19 10 -39 10 -60c0 -11 0 -22 -2 -33v-5v-4c-16 -103 -30 -214 -37 -317c19 -1 43 -2 67 -4s48 -3 67 -5c-5 55 -8 105 -8 153c0 57 3 113 7 170z
" />
    <glyph glyph-name="o" unicode="o" horiz-adv-x="619" 
d="M334 544c-31 0 -65 -5 -97 -17c-31 -11 -62 -28 -86 -52c-30 -35 -49 -79 -60 -123c-11 -45 -15 -91 -15 -130c0 -54 9 -108 41 -151c18 -27 45 -44 74 -54c30 -11 63 -16 94 -16c32 0 66 5 98 16c33 11 62 28 86 54c30 35 49 79 60 124c12 45 15 91 15 130
c0 53 -9 106 -40 149c-20 27 -46 45 -75 55c-30 11 -63 15 -95 15zM329 472c39 0 77 -16 96 -48c18 -30 24 -68 24 -105c0 -18 -1 -46 -7 -73s-18 -53 -40 -68h1c-31 -18 -69 -23 -104 -23s-70 3 -100 22h1c-22 17 -26 45 -26 73s2 60 10 90c7 30 19 59 38 84
c26 33 67 48 107 48z" />
    <glyph glyph-name="p" unicode="p" horiz-adv-x="642" 
d="M326 -2h13c28 0 57 7 83 20c26 12 49 30 68 53c31 36 50 79 62 124c11 45 16 92 16 133c0 49 -10 101 -37 142c-16 21 -38 39 -63 51s-52 20 -79 20h-14c-29 0 -59 -6 -86 -18c-28 -12 -53 -29 -72 -53l2 14l8 48c-14 1 -31 2 -48 4c-18 2 -35 3 -48 5
c-10 -247 -37 -490 -85 -738c6 0 14 1 23 2l26 3c9 1 18 2 26 3c8 0 16 1 23 1c14 86 29 175 41 261c13 -25 34 -44 59 -56c25 -13 53 -19 82 -19zM504 286v-3c-1 -2 -1 -3 -1 -4c-2 -19 -5 -40 -12 -59c-6 -20 -16 -37 -32 -51l1 1c-29 -20 -64 -25 -99 -25s-69 6 -98 25
l1 -1c-24 19 -29 51 -29 82c0 28 2 60 9 90s19 59 39 83c27 36 69 52 112 52c39 0 67 -18 85 -44c19 -27 27 -63 27 -101c0 -15 -1 -29 -3 -44v-1z" />
    <glyph glyph-name="q" unicode="q" horiz-adv-x="669" 
d="M401 -186c25 -2 57 -4 81 -7h3h5c1 -1 3 -1 5 -1h2c6 245 35 489 84 738c-7 -1 -15 -2 -23 -2l-26 -3c-18 -2 -35 -4 -49 -5l-7 -29l-12 -44c-15 23 -38 43 -64 58c-25 13 -54 22 -84 22h-16c-56 0 -114 -25 -153 -70c-27 -33 -44 -73 -55 -114c-10 -41 -14 -84 -14 -121
c0 -58 8 -116 40 -165c29 -47 83 -73 139 -73h14c28 0 57 7 83 20c26 12 50 30 68 54c-9 -85 -15 -175 -21 -258zM143 282c2 25 5 51 12 74c7 24 17 48 33 69c12 15 27 27 44 35c18 8 36 12 54 12c43 1 83 -14 104 -49c18 -29 24 -64 24 -101c0 -20 -1 -50 -7 -78
c-7 -30 -19 -58 -43 -75h1c-31 -17 -68 -23 -103 -23c-33 0 -69 4 -95 23l1 -1c-22 20 -26 50 -26 81c0 7 0 15 1 23v5v5z" />
    <glyph glyph-name="r" unicode="r" horiz-adv-x="441" 
d="M394 445l13 8c1 13 4 28 6 45c3 16 5 31 7 44h-25c-21 0 -43 -2 -66 -8c-24 -5 -46 -13 -66 -25l-22 -13c-10 -5 -19 -10 -29 -16l3 49h-11c-5 1 -9 1 -11 1c-18 1 -45 3 -64 5c-13 -175 -35 -351 -72 -532c45 6 85 10 123 11c7 84 11 174 16 258c4 43 13 90 40 127
c15 21 36 34 60 41c23 8 48 10 71 10c9 0 19 -1 27 -5z" />
    <glyph glyph-name="s" unicode="s" horiz-adv-x="569" 
d="M483 521l-6 2c-53 18 -109 21 -165 21c-43 0 -83 -4 -131 -23c-29 -12 -48 -32 -61 -56c-13 -25 -18 -53 -18 -80c0 -31 6 -65 28 -86c14 -14 33 -23 51 -30c19 -8 38 -13 57 -18l18 -4c15 -3 32 -7 48 -12s33 -11 45 -20c7 -8 15 -20 19 -36c5 -25 -17 -39 -36 -49
c-20 -9 -44 -13 -64 -13h-6c-2 0 -4 0 -6 1h-11c-56 0 -112 15 -167 45c-2 -20 -6 -44 -9 -69c-4 -24 -7 -49 -11 -69c60 -15 121 -24 178 -24c28 0 57 1 87 7c29 5 57 14 83 31c23 14 39 34 49 56s14 48 14 72c0 31 -8 66 -32 89c-16 15 -36 26 -56 35c-21 7 -43 13 -65 19
l-9 2c-21 4 -52 10 -77 22s-44 29 -44 57c0 32 18 53 42 65c23 12 54 17 81 17c52 0 105 -8 160 -33c1 3 1 7 2 12c1 4 2 9 2 13c2 10 3 19 5 26z" />
    <glyph glyph-name="t" unicode="t" horiz-adv-x="548" 
d="M333 150c27 -2 62 -4 89 -7c0 -11 -1 -21 -1 -34c-1 -12 -1 -24 -1 -36c-1 -25 -2 -50 -2 -70l-40 6c-7 0 -14 1 -22 2c-7 1 -13 2 -19 2l-13 2l-16 1c-21 2 -44 4 -65 9s-42 14 -58 27c-25 25 -30 58 -30 92c0 15 1 30 2 44c3 23 6 46 8 69l15 135l6 69
c-19 1 -43 3 -59 5c0 6 0 13 1 22c0 9 1 16 1 22v-1l2 34l22 -3c8 -1 14 -2 19 -2c5 -1 11 -2 19 -2c2 20 4 42 7 65l6 63c35 -3 64 -4 90 -4l10 -11c-2 -10 -3 -21 -4 -32c-1 -12 -3 -23 -4 -34v1l-6 -51h8c16 0 35 1 55 2c9 0 19 0 28 1c9 0 18 1 26 1l-3 -34
c-1 -11 -4 -30 -6 -42c-31 -1 -71 -3 -104 -3h-11c-2 -21 -5 -44 -7 -66c-3 -25 -5 -50 -8 -75c-2 -25 -5 -50 -8 -75v-5v-5c-1 -8 -1 -14 -1 -22c0 -16 1 -32 10 -44c15 -14 40 -15 64 -16z" />
    <glyph glyph-name="u" unicode="u" horiz-adv-x="661" 
d="M117 219c-2 -16 -3 -33 -3 -50c0 -35 5 -69 20 -104c12 -23 33 -40 56 -50c24 -10 50 -15 77 -15h13c61 0 119 31 160 78c-2 -21 -3 -47 -5 -67c6 0 14 0 22 -1c17 -1 35 -2 52 -4c8 0 15 -1 22 -1c0 179 20 358 59 539c-15 -2 -35 -3 -56 -5c-20 -2 -41 -3 -56 -4
c-13 -72 -25 -150 -33 -222c-7 -42 -21 -84 -50 -116c-29 -31 -68 -41 -107 -41c-28 0 -56 10 -72 39v-1c-12 26 -15 56 -15 85v4v5v6c6 79 10 164 11 242l-35 3l-10 1c-5 1 -9 1 -13 2c-5 0 -8 0 -12 1c-4 0 -8 0 -11 1v-32c0 -4 0 -7 1 -11v-10c0 -92 -6 -181 -15 -272z
" />
    <glyph glyph-name="v" unicode="v" horiz-adv-x="678" 
d="M166 540l-35 3c14 -34 25 -68 36 -102c22 -67 41 -132 57 -197l42 -163c5 -23 11 -46 17 -67c6 0 13 0 21 1h22h34h29c10 0 20 0 28 -1l38 90c30 72 61 144 94 216c34 73 71 147 114 223c-14 -1 -33 -2 -53 -4c-9 0 -19 -1 -28 -2s-18 -1 -24 -2
c-60 -99 -115 -206 -167 -310l-28 -56l-9 24c0 4 -1 7 -2 10c-2 4 -3 7 -4 12c-35 106 -73 217 -116 320c-20 1 -45 3 -66 5z" />
    <glyph glyph-name="w" unicode="w" horiz-adv-x="866" 
d="M138 542l-10 -12c27 -82 46 -166 60 -253c15 -87 23 -176 31 -266h12c10 0 21 1 31 1h13c21 1 47 2 68 2c39 70 79 148 115 221c12 -40 23 -76 36 -111c11 -36 24 -71 39 -110h22c8 -1 16 -1 22 -1c13 0 27 0 42 -1c15 0 28 -1 42 -1c20 88 44 178 75 267
c31 90 68 178 115 265c-5 0 -10 0 -16 -1c-6 0 -12 0 -18 -1c-13 0 -26 -1 -34 -2l-32 -2c-63 -118 -106 -235 -147 -353c-15 33 -26 61 -38 90s-23 58 -36 91c-14 -1 -33 -1 -47 -1h-73l-20 -33c-7 -13 -14 -24 -19 -34c-12 -19 -22 -38 -33 -56s-23 -37 -34 -56
c-19 117 -44 233 -84 352c-26 1 -57 3 -82 5z" />
    <glyph glyph-name="x" unicode="x" horiz-adv-x="742" 
d="M624 525l-8 16c-25 -3 -54 -4 -80 -6c-59 -66 -119 -137 -176 -207c-41 72 -79 136 -124 206c-14 1 -33 2 -52 4c-10 0 -19 1 -29 2c-9 0 -17 1 -24 2c28 -43 57 -91 85 -138c29 -48 56 -96 81 -141c-37 -42 -78 -87 -119 -131c-41 -45 -84 -89 -123 -129l37 3
c13 0 28 1 42 2c28 2 56 4 77 4c49 56 98 115 143 174c17 -31 33 -59 51 -87c17 -29 34 -57 53 -87c21 0 49 -2 77 -3c28 -2 56 -4 77 -6c-31 39 -65 81 -98 125c-34 44 -67 88 -97 129c2 3 3 4 4 5l3 4v-1c66 89 129 175 200 260z" />
    <glyph glyph-name="y" unicode="y" horiz-adv-x="679" 
d="M384 -34l59 129c68 147 143 306 221 449c-7 -1 -15 -2 -24 -2l-29 -3c-20 -3 -39 -5 -53 -6c-57 -94 -116 -199 -168 -295c-26 52 -52 100 -77 148c-26 49 -52 96 -80 147c-14 0 -32 3 -51 5c-18 2 -37 4 -51 6c30 -69 60 -146 90 -224l85 -227l13 -35l-9 -16
c-11 -18 -22 -37 -32 -55c-15 -16 -29 -31 -46 -45c-23 -17 -50 -18 -80 -19c-4 -1 -10 -1 -17 -1c-8 -1 -14 -1 -18 -2c-1 -7 -3 -15 -4 -24c-2 -10 -3 -18 -4 -25c-2 -10 -4 -24 -5 -38c-3 -13 -5 -27 -7 -37c3 0 7 1 11 1l29 3c4 0 9 0 12 1c24 1 48 3 71 8
c23 4 46 12 67 27c23 18 41 39 56 61s29 46 41 69z" />
    <glyph glyph-name="z" unicode="z" horiz-adv-x="625" 
d="M128 530v-64c63 -5 123 -7 185 -7c37 0 74 0 111 2c-29 -28 -59 -55 -87 -82l-84 -78c-56 -53 -111 -106 -170 -163l-11 -67c-4 -24 -9 -48 -13 -68c82 8 156 12 225 12c68 0 138 -4 212 -11c-1 22 -1 55 -1 77c0 14 0 36 1 50c-61 4 -132 6 -194 6h-39h-39
c17 17 34 33 49 49c31 31 60 62 90 94c15 15 31 32 48 50c20 20 40 41 60 63l61 62c1 6 3 13 4 21c2 7 3 15 5 24c2 15 5 31 8 43c-82 -8 -156 -12 -226 -12c-62 0 -123 3 -184 9z" />
    <glyph glyph-name="braceleft" unicode="{" horiz-adv-x="576" 
d="M416 -62l-10 11c-3 0 -7 0 -11 2c-2 0 -4 0 -7 1c-3 0 -5 0 -8 1l-10 2c-24 3 -52 9 -67 24c-13 17 -14 40 -14 63l3 28c0 9 1 19 2 28l6 57v17c0 28 -1 55 -12 80c-10 22 -30 36 -51 44c23 7 46 20 61 40c22 33 28 71 32 106l6 57c2 19 5 37 7 56l2 8c4 26 8 55 25 74
l-1 -2c23 18 54 23 84 28c11 2 22 3 41 8l3 18c2 8 3 15 4 22c2 15 5 30 7 40c-8 -2 -20 -4 -32 -6c-7 -2 -13 -3 -18 -4l-16 -3c-46 -7 -95 -16 -138 -42c-21 -18 -33 -40 -41 -63c-8 -24 -11 -50 -14 -73l-6 -55c-2 -17 -4 -36 -5 -54c-2 -15 -5 -32 -9 -47
c-5 -16 -13 -30 -23 -42c-24 -18 -60 -25 -90 -25h-4c-1 0 -3 0 -4 1c-2 0 -4 0 -6 1h-14l-4 -38c-1 -6 -1 -12 -2 -20c0 -4 0 -7 -1 -10v-9h22h3c1 -1 2 -1 4 -1h3c14 0 30 -2 44 -6c13 -4 26 -10 34 -20h-1c14 -22 16 -49 16 -77c0 -25 -3 -52 -7 -78
c-3 -28 -6 -53 -6 -80c0 -38 5 -75 30 -104c19 -16 43 -26 68 -34c25 -7 52 -11 76 -15l44 -7c0 4 0 9 1 14c0 5 0 10 1 16c0 11 1 22 1 30c1 6 1 13 2 19v19z" />
    <glyph glyph-name="bar" unicode="|" horiz-adv-x="321" 
d="M117 303h10c8 0 17 -1 24 -1h11c12 0 24 0 41 2l15 113c6 40 11 80 17 120c5 40 11 79 16 119c6 39 11 77 17 113c-28 -19 -54 -30 -73 -30h-7c-2 1 -7 2 -15 3c-9 -70 -19 -150 -27 -220zM136 -209l11 8c18 153 36 313 54 465h-20c-8 -1 -16 -1 -24 -1h-23h-20
c-10 -78 -22 -163 -34 -249c-13 -86 -25 -171 -37 -249c29 19 54 28 73 28c6 0 13 -1 20 -2z" />
    <glyph glyph-name="braceright" unicode="}" horiz-adv-x="583" 
d="M108 -72l-3 -19c-1 -8 -2 -15 -3 -23l-3 -24c-1 -7 -2 -13 -3 -19l20 4l19 3c6 2 13 3 20 4l20 3c21 4 42 7 63 14c21 5 41 14 61 28c20 18 31 40 38 64c8 24 10 49 13 72l2 35l3 37c1 12 2 24 3 37c2 15 5 33 9 49c5 16 12 32 23 44c12 12 28 18 44 21c16 4 34 4 49 4
h25l6 76c-8 0 -13 0 -18 1h-6h-5c-1 -1 -3 -1 -5 -1c-14 0 -29 1 -43 4c-14 4 -27 9 -37 19c-12 17 -16 39 -16 62c0 10 1 19 2 28l9 110c1 14 2 28 2 43c0 35 -6 70 -29 95c-18 14 -39 24 -62 31s-47 11 -69 15c-4 0 -9 1 -14 2l-17 3c-11 2 -22 4 -30 6l-2 -41l-1 -38
l32 -6c14 -2 30 -5 46 -9c15 -5 29 -11 39 -19c9 -15 13 -35 13 -52c0 -28 -3 -59 -7 -90c-3 -30 -5 -61 -5 -92c0 -23 1 -48 13 -69v1c11 -23 35 -36 59 -44c-27 -7 -51 -20 -67 -40c-10 -15 -17 -32 -21 -49c-8 -35 -10 -69 -13 -104c-2 -17 -3 -35 -5 -52l-1 -10v-2v-2
c-4 -27 -8 -57 -27 -78c-11 -9 -27 -16 -44 -20s-35 -6 -50 -8z" />
    <glyph glyph-name="asciitilde" unicode="~" horiz-adv-x="745" 
d="M687 390l3 13c-5 -4 -11 -7 -18 -10c-6 -3 -12 -7 -18 -11c-23 -13 -46 -28 -70 -38s-49 -17 -74 -17c-37 0 -75 14 -108 27l-11 5l-4 2c-41 17 -85 29 -128 29c-30 0 -60 -8 -88 -20c-28 -13 -55 -32 -79 -52c-2 -31 -11 -62 -28 -90l12 -11c33 19 69 44 102 66v-1
c24 17 50 29 78 31c39 -2 75 -20 108 -39l29 -14c33 -16 64 -31 104 -33c27 0 53 9 77 23c24 13 47 30 69 47l30 23c4 28 12 52 25 73z" />
    <glyph glyph-name="uni00A0" unicode="&#xa0;" horiz-adv-x="929" 
 />
    <glyph glyph-name="exclamdown" unicode="&#xa1;" horiz-adv-x="366" 
d="M282 591l14 138c-27 -13 -49 -19 -67 -19c-17 0 -37 6 -59 17l-3 -38c0 -6 0 -13 -1 -20c0 -6 -1 -12 -1 -17l-5 -67c21 -7 41 -11 58 -11c19 0 38 3 57 9zM224 6l14 7c5 104 12 205 19 308c1 23 2 48 2 72c1 15 2 32 2 51c1 18 2 35 2 51c-21 -4 -41 -5 -54 -5
c-12 0 -28 1 -47 4c-2 -18 -5 -38 -8 -59s-6 -41 -8 -59l-8 -55c-5 -50 -12 -106 -18 -161c-6 -56 -13 -111 -19 -162c27 14 51 20 70 20c20 0 37 -4 53 -12z" />
    <glyph glyph-name="cent" unicode="&#xa2;" horiz-adv-x="588" 
d="M512 512l-4 -30l-6 -43c-41 22 -83 36 -120 38l-21 -181c-6 -60 -12 -120 -18 -182c40 3 83 15 128 35c-1 -4 -1 -9 -1 -15l-3 -35c0 -6 -1 -11 -1 -16c-2 -19 -4 -44 -5 -63c-47 -16 -88 -22 -129 -25l-5 -57l-3 -37c0 -6 -1 -13 -1 -20c-1 -6 -1 -12 -2 -17h-7
c-2 1 -5 1 -9 1c-3 0 -6 0 -9 1h-7c-6 0 -17 1 -26 2l7 75c1 11 2 20 2 29l3 28c-29 4 -60 12 -88 25s-54 30 -71 55c-32 42 -41 95 -41 148c0 37 4 81 16 124s33 84 64 115c23 25 52 42 83 54s64 18 95 21c1 20 4 40 6 59l9 74h28c7 0 24 1 31 2l-9 -67
c-2 -22 -5 -44 -8 -67c41 -1 82 -8 119 -25l-8 -8zM287 118c12 121 23 234 37 356c-53 -6 -90 -39 -115 -82s-36 -96 -36 -142c0 -38 12 -68 32 -90c20 -23 48 -37 82 -42z" />
    <glyph glyph-name="sterling" unicode="&#xa3;" horiz-adv-x="637" 
d="M561 691l7 9c-41 12 -83 20 -126 20c-14 0 -29 -1 -46 -3c-31 -5 -63 -13 -92 -29c-30 -15 -53 -37 -69 -65c-16 -29 -26 -60 -31 -91c-7 -31 -9 -54 -11 -74l-3 -28l-4 -49c-15 1 -30 1 -44 1c-16 1 -30 1 -45 2l-8 -68c27 -1 61 -1 89 -1l-6 -49c-2 -16 -4 -32 -5 -47
c-3 -15 -5 -31 -7 -46c-2 -16 -4 -32 -7 -48c-36 -2 -71 -3 -108 -6l-3 -15c-2 -15 -6 -32 -9 -50l-6 -27c-1 -8 -3 -16 -5 -24c78 8 149 11 214 11c87 0 176 -5 270 -17v15v15c1 25 2 58 4 84c-87 9 -171 13 -255 14l23 189l78 -2l96 -1l3 32l4 34c-19 0 -40 0 -63 1
c-23 0 -44 0 -63 1h-24c-8 1 -16 1 -24 1l2 14c1 13 3 26 4 39c1 12 3 25 5 38c2 22 6 45 12 67c5 22 14 43 27 61c13 12 31 22 49 28s37 9 54 9c39 0 79 -14 118 -34l3 18c2 12 5 26 7 38c2 7 3 12 4 17l3 18z" />
    <glyph glyph-name="currency" unicode="&#xa4;" horiz-adv-x="730" 
d="M391 513c-37 0 -76 -11 -109 -32l-50 54l-44 47l-28 -28l-16 -14c-6 -7 -12 -12 -17 -16l93 -102c-25 -35 -41 -78 -41 -122c0 -33 8 -63 21 -93l-31 -30c-24 -23 -54 -51 -79 -73l20 -23c2 -3 4 -5 7 -8c5 -7 10 -13 16 -19c2 -4 5 -6 7 -9l74 67l38 34
c31 -18 67 -31 106 -31c38 0 76 13 109 32c15 -17 32 -33 48 -50c16 -16 32 -33 48 -50l29 29c7 7 16 16 30 28c-29 31 -65 69 -94 102c27 37 42 81 42 126c0 14 -3 30 -7 46c-3 16 -9 32 -13 45l32 31c10 9 21 19 32 29l46 42l-50 59l-88 -80l-25 -23
c-31 20 -67 32 -106 32zM489 316v-1c-2 -32 -16 -62 -39 -83c-23 -22 -54 -35 -85 -35c-30 0 -56 11 -75 29c-20 18 -32 44 -32 75c0 35 14 68 37 91c23 24 54 39 89 39c30 0 56 -11 75 -28c19 -18 31 -44 31 -74v-7c0 -2 0 -4 -1 -6z" />
    <glyph glyph-name="yen" unicode="&#xa5;" horiz-adv-x="736" 
d="M651 212l1 34c1 6 1 13 2 22c0 9 1 16 1 22c-58 1 -125 2 -185 2c0 4 0 8 1 9c0 2 0 5 1 9c3 5 6 10 9 14c2 4 5 8 9 13l24 39l149 2c1 3 1 8 1 14c1 5 1 10 2 14c0 4 1 12 1 20c1 3 1 7 1 11c1 3 1 6 1 8l-71 -1c-15 0 -28 -1 -43 -1c60 95 120 190 185 283l-42 -4
c-23 -2 -49 -5 -72 -6c-69 -104 -137 -213 -201 -320c-24 56 -47 108 -70 161c-23 52 -48 104 -74 158c-15 1 -35 3 -55 6c-20 2 -41 4 -56 6c22 -44 45 -93 67 -141c22 -49 44 -98 63 -143c-41 0 -73 1 -114 2c-1 -4 -1 -9 -2 -16c-1 -14 -1 -19 -3 -34c0 -7 -1 -13 -1 -18
c24 0 49 -1 75 -1h75c3 -6 7 -12 10 -17s7 -10 10 -17l18 -31l-1 -19c-44 0 -88 0 -131 -1l-56 -1c0 -6 -1 -13 -1 -20l-6 -47c-1 -8 -2 -15 -3 -20c59 3 127 5 188 5c-5 -32 -10 -63 -16 -95c-5 -32 -11 -64 -16 -95h44h17h16c16 0 42 0 58 -1c0 63 1 128 4 191
c61 0 114 -2 176 -4z" />
    <glyph glyph-name="brokenbar" unicode="&#xa6;" horiz-adv-x="349" 
d="M256 685l-17 7c-8 -9 -19 -14 -31 -14c-5 0 -11 3 -18 9s-14 15 -23 27c-4 -58 -9 -125 -15 -193c-3 -33 -6 -67 -8 -100c-2 -32 -5 -64 -8 -93c17 -5 30 -7 41 -7c14 0 30 2 45 5c10 117 22 241 34 359zM210 198l-7 10c-10 1 -20 2 -31 2c-6 0 -13 0 -23 -1
c-9 0 -17 -1 -24 -1l-17 -193c-6 -67 -12 -134 -18 -192c21 21 37 31 49 31c11 0 25 -10 42 -32c2 30 5 60 7 92s5 64 7 96c3 32 6 65 8 96c3 32 5 62 7 92z" />
    <glyph glyph-name="section" unicode="&#xa7;" horiz-adv-x="549" 
d="M452 235c-16 -24 -39 -45 -65 -60c25 -26 44 -59 44 -98c0 -22 -4 -44 -13 -63c-8 -20 -22 -38 -42 -52v1c-20 -15 -43 -24 -66 -29c-24 -5 -49 -7 -73 -7c-48 0 -97 9 -148 18l4 39c2 10 4 22 5 36c2 14 3 25 5 36c46 -16 92 -30 135 -30c21 0 42 1 62 7
c25 8 37 26 37 45c-4 22 -20 42 -39 59c-20 16 -43 30 -61 40l-17 10c-30 18 -60 36 -84 60c-23 24 -39 53 -39 92c0 31 9 59 25 84c15 25 37 46 64 60c-26 26 -43 60 -43 100c0 20 4 41 13 59c9 19 22 34 41 46c20 14 42 22 66 27c23 5 47 6 70 6c46 0 92 -6 137 -18l-6 -7
l11 1c-1 -5 -2 -10 -2 -14c-2 -10 -2 -17 -3 -27c-1 -4 -2 -9 -2 -14l-3 -15c0 -4 -1 -8 -2 -12c-47 17 -92 30 -138 30c-19 0 -41 -5 -58 -15s-30 -26 -31 -47c4 -23 20 -44 40 -62c20 -17 43 -31 60 -41l18 -10c29 -18 60 -36 83 -60s40 -53 40 -92c0 -31 -9 -59 -25 -83z
M376 261c11 14 19 29 19 46c0 29 -19 54 -45 77c-27 22 -61 41 -91 59l-20 11c-14 -11 -29 -23 -40 -37s-18 -30 -18 -47c0 -27 18 -50 42 -71c24 -22 55 -40 83 -56c6 -3 10 -6 15 -9c5 -2 10 -5 15 -8c14 9 28 22 40 35z" />
    <glyph glyph-name="dieresis" unicode="&#xa8;" horiz-adv-x="476" 
d="M184 760l-9 -12c3 -11 4 -22 4 -34c0 -18 -5 -41 -20 -68c8 0 17 0 28 1h32c21 1 43 1 59 1c6 29 9 56 9 82l-1 28c-16 0 -33 0 -51 1c-18 0 -35 0 -51 1zM382 758l-8 -8c-6 -23 -9 -47 -9 -70c0 -8 0 -17 2 -31c15 -1 40 -2 55 -2l61 -1c-7 20 -11 35 -11 46
c0 18 8 42 21 68l-63 -1c-16 0 -32 -1 -48 -1z" />
    <glyph glyph-name="copyright" unicode="&#xa9;" horiz-adv-x="824" 
d="M462 707c-45 0 -92 -8 -135 -24c-44 -16 -85 -41 -119 -75v1c-40 -37 -69 -84 -87 -133c-18 -50 -26 -102 -26 -153c0 -76 24 -151 71 -207c27 -32 64 -56 105 -73c40 -16 83 -25 127 -25c46 0 93 7 137 23s85 40 120 75c39 37 69 83 87 133s27 103 27 153
c0 77 -23 151 -71 206c-29 34 -66 59 -106 75c-41 15 -85 24 -130 24zM458 649c76 0 147 -24 196 -81c40 -45 59 -107 59 -171c0 -40 -6 -83 -21 -123s-39 -77 -74 -103v1c-64 -41 -137 -60 -209 -60c-33 0 -69 6 -103 16c-35 10 -67 25 -94 43c-43 41 -63 100 -63 162
c0 41 9 85 25 126s40 78 73 108c59 57 135 82 211 82zM577 540l7 8c-37 15 -77 24 -120 24c-58 0 -118 -13 -166 -56c-26 -23 -43 -53 -54 -84c-12 -32 -16 -66 -16 -98c0 -47 13 -92 44 -127c39 -41 94 -56 150 -56c43 0 89 7 134 25c0 12 1 31 3 44l4 54
c-43 -19 -84 -32 -119 -32c-33 0 -67 9 -91 28c-25 19 -41 45 -41 82c0 43 16 89 46 125c26 29 64 44 103 44s81 -11 122 -30l3 25c1 10 2 19 3 26z" />
    <glyph glyph-name="ordfeminine" unicode="&#xaa;" horiz-adv-x="522" 
d="M457 558c1 11 2 23 2 36c0 35 -7 70 -35 97c-33 25 -77 30 -119 30c-45 0 -92 -6 -140 -21v-11c-1 -5 -1 -9 -1 -12v-10v-13c-1 -5 -1 -9 -1 -13v-11c46 16 90 28 129 29c17 -1 40 -3 59 -11s34 -23 34 -53v-4c0 -2 0 -4 -1 -5c-27 -2 -51 -2 -77 -2
c-40 0 -88 -7 -130 -30c-18 -12 -31 -32 -40 -52s-13 -42 -13 -61c0 -37 13 -62 34 -79c21 -16 50 -24 81 -24c47 0 93 17 128 51l-4 -42l35 -2c5 0 13 0 21 -1c8 0 16 -1 21 -2c3 69 10 147 17 216zM321 552h5c12 0 29 0 41 1h9v-1v-4c-1 -1 -1 -2 -1 -2
c-2 -28 -16 -61 -35 -83c-22 -21 -51 -32 -81 -32c-15 0 -31 6 -43 14c-11 9 -19 22 -19 37c0 32 17 50 40 59c24 8 54 9 79 10c2 0 4 0 5 1zM123 294l-9 -8c0 -4 -1 -9 -2 -14l-3 -16c-2 -11 -4 -23 -5 -30c63 6 116 9 167 9c52 0 107 -4 168 -11v46v7c0 3 1 8 1 15
c-57 5 -110 8 -163 8c-51 0 -103 -2 -154 -6z" />
    <glyph glyph-name="guillemotleft" unicode="&#xab;" horiz-adv-x="595" 
d="M341 507l-123 -94c-43 -34 -86 -67 -123 -97c-2 -7 -4 -12 -6 -16l-3 -8c-1 -1 -1 -3 -2 -3c0 -1 -1 -3 -2 -5c-1 -3 -3 -8 -6 -14c-2 -6 -4 -11 -6 -14c29 -33 62 -69 96 -105c33 -36 67 -71 98 -102l18 63l16 53c-39 41 -80 84 -118 125c50 40 96 75 147 114zM528 495
l-104 -81c-22 -18 -45 -36 -67 -53c-23 -18 -45 -36 -68 -53l-12 -28c-2 -4 -5 -9 -7 -15l-7 -16c31 -34 68 -71 104 -108l53 -56l51 -51c8 46 14 85 23 120l-120 129c12 10 23 19 35 28c11 8 22 18 34 27l82 65c5 27 10 55 17 81z" />
    <glyph glyph-name="logicalnot" unicode="&#xac;" horiz-adv-x="817" 
d="M113 425l-9 -12c5 -27 8 -57 9 -89c164 0 335 3 499 9c-15 -57 -25 -109 -25 -166v-7v-8v-8h41c16 -1 29 -1 41 -2l48 -1c-13 43 -19 84 -19 121c0 51 10 105 29 163c-101 -4 -213 -6 -314 -6s-199 2 -300 6z" />
    <glyph glyph-name="registered" unicode="&#xae;" horiz-adv-x="824" 
d="M698 608c48 -55 71 -129 71 -206c0 -50 -9 -103 -27 -153s-48 -96 -87 -133c-35 -35 -76 -59 -120 -75s-91 -23 -137 -23c-44 0 -87 9 -127 25c-41 17 -78 41 -105 73c-47 56 -71 131 -71 207c0 51 8 103 26 153c18 49 47 96 87 133v-1c34 34 75 59 119 75
c43 16 90 24 135 24s89 -9 130 -24c40 -16 77 -41 106 -75zM619 196l-1 -1c61 59 97 139 97 221c0 60 -19 117 -60 158c-51 53 -122 75 -197 75c-76 0 -151 -23 -210 -76c-33 -27 -57 -61 -72 -98c-16 -37 -24 -78 -24 -117c0 -74 30 -134 77 -175c48 -41 113 -64 183 -64
c60 0 122 18 174 52h-5c-5 0 -9 0 -14 1h-11c-11 0 -30 0 -39 1c-5 8 -10 17 -15 27l-14 27l-22 43c-1 1 -2 3 -3 5c-2 2 -3 3 -3 5c-6 11 -14 24 -22 34c-9 11 -19 19 -29 21h-5h-4h-4h-6l-7 -73l-8 -90h-21h-18h-18h-46c6 62 13 129 19 197c6 67 11 133 15 196
c41 -2 92 -2 134 -2c38 0 76 -2 111 -21c31 -20 42 -49 42 -79c0 -28 -10 -53 -26 -73c-17 -20 -40 -35 -66 -41c18 -14 29 -35 40 -54l6 -14l54 -100zM397 414h49c23 0 47 1 67 14c17 11 23 35 23 54c0 22 -11 34 -26 40c-14 6 -33 7 -48 8h-4h-15c-5 -1 -10 -1 -15 -1h-21
c-1 -13 -2 -26 -4 -39l-3 -39z" />
    <glyph glyph-name="macron" unicode="&#xaf;" horiz-adv-x="458" 
d="M181 740l-9 -14c4 -7 5 -14 5 -21c0 -11 -7 -26 -21 -45c11 0 24 0 38 1h82h37h37h81c13 -1 26 -1 37 -1c-11 16 -15 27 -15 34c0 11 8 27 22 46c-24 0 -51 -1 -79 -1h-41c-13 -1 -26 -1 -37 -1c-47 0 -92 1 -137 2z" />
    <glyph glyph-name="degree" unicode="&#xb0;" horiz-adv-x="443" 
d="M300 732c-40 0 -81 -13 -111 -43c-18 -16 -30 -37 -38 -59c-7 -22 -11 -45 -11 -67c0 -33 10 -66 30 -91c26 -29 66 -41 105 -41s79 12 110 41c35 32 50 80 50 124c0 41 -15 75 -38 99c-24 23 -58 37 -97 37zM298 685c19 0 37 -6 51 -17c13 -11 21 -27 21 -47
c0 -25 -10 -45 -26 -60s-38 -23 -61 -23c-20 0 -38 6 -52 18c-13 11 -22 27 -22 48c0 24 11 44 28 59c16 14 38 22 61 22z" />
    <glyph glyph-name="plusminus" unicode="&#xb1;" horiz-adv-x="806" 
d="M374 612l-6 -69c-2 -35 -5 -73 -9 -108c-83 1 -166 2 -250 6c0 -6 0 -13 -1 -21c0 -8 -1 -16 -1 -24c-1 -8 -1 -17 -2 -24c0 -9 -1 -16 -1 -21c82 -2 166 -3 248 -3c-2 -30 -5 -59 -8 -88s-6 -58 -8 -88h86l15 171v3v2c84 0 165 1 249 2c0 6 1 15 2 25c0 9 1 17 2 23
c1 3 1 6 2 10c1 7 2 15 2 23c1 4 1 7 1 9c-81 -3 -169 -4 -250 -5c5 59 11 118 18 177h-89zM82 105l-10 -8c-2 -14 -5 -30 -8 -46c-2 -9 -4 -17 -5 -25c-2 -8 -4 -15 -5 -22c102 7 214 12 315 12c100 0 208 -5 307 -12c0 7 -1 15 -1 23c-1 9 -1 18 -1 27c-1 18 -2 37 -2 50
c-96 6 -200 10 -296 10c-98 0 -195 -4 -294 -9z" />
    <glyph glyph-name="twosuperior" unicode="&#xb2;" horiz-adv-x="485" 
d="M269 417l25 22c29 25 59 50 85 79c25 29 47 61 58 99c1 4 1 9 1 16c0 39 -20 63 -47 77c-28 14 -63 19 -94 19c-41 0 -85 -8 -130 -20c-1 -8 -2 -23 -2 -31v-9v-10c-1 -4 -1 -8 -1 -11v-8c46 17 87 29 126 29c16 0 33 -4 46 -14c14 -9 22 -22 22 -39v-3v-4
c-12 -27 -31 -52 -53 -76c-23 -24 -48 -46 -71 -66c-7 -6 -15 -13 -24 -20c-8 -7 -15 -14 -22 -21c-11 -8 -22 -18 -32 -27l-20 -17v-4c-1 -2 -1 -3 -1 -5c0 -3 -1 -7 -2 -12c0 -4 -1 -9 -2 -14l-3 -14c-1 -5 -2 -9 -2 -12c55 6 107 9 152 9c44 0 92 -3 145 -9v14
c-1 12 -1 24 -1 36v15c-50 4 -95 6 -138 6h-24h-23z" />
    <glyph glyph-name="threesuperior" unicode="&#xb3;" horiz-adv-x="465" 
d="M435 641c0 37 -20 60 -48 72c-28 13 -63 16 -93 16c-41 0 -83 -5 -126 -11v-14v-10v-9v-6v-9c-1 -3 -1 -6 -1 -9v-7c43 9 81 15 114 15c15 0 34 -2 49 -8s25 -17 25 -33c0 -22 -10 -36 -25 -45c-16 -10 -36 -15 -54 -15h-8c-1 0 -3 0 -4 1h-4h-39c0 -6 -1 -12 -1 -20
c-1 -8 -1 -14 -2 -20l-1 -20h46c1 1 3 1 5 1h4c19 0 38 -5 52 -13c15 -9 25 -24 25 -42c0 -27 -14 -45 -34 -57c-19 -11 -44 -15 -67 -15c-37 0 -74 1 -117 20l-3 -29c-2 -10 -4 -29 -6 -39c43 -8 84 -13 123 -13c22 1 45 2 68 7c23 4 46 12 69 26c17 12 29 27 35 44
c7 18 10 36 10 54c0 20 -7 39 -18 54c-12 16 -28 28 -46 35c20 7 38 21 51 38s21 38 21 61z" />
    <glyph glyph-name="acute" unicode="&#xb4;" horiz-adv-x="402" 
d="M321 789l-7 -3c-23 -26 -44 -52 -66 -79c-16 -18 -34 -40 -53 -62c-20 -22 -39 -44 -55 -62c6 1 13 1 22 2c8 0 17 1 26 1c18 1 37 2 48 2c30 28 61 61 89 91c8 9 16 18 26 28l30 31c21 21 42 41 59 57c-16 -2 -38 -3 -60 -3c-11 -1 -22 -1 -32 -2c-10 0 -19 -1 -27 -1z
" />
    <glyph glyph-name="mu" unicode="&#xb5;" horiz-adv-x="736" 
d="M77 -184l10 -11c26 3 59 6 85 7c11 79 19 162 26 242c11 -19 29 -33 48 -42c20 -10 42 -14 65 -14h11c24 0 49 6 71 17s42 27 58 46c4 -17 12 -34 24 -46c11 -12 26 -20 46 -20c23 0 45 14 68 28c7 4 17 11 25 15c0 5 1 11 1 18c1 7 1 14 2 22c0 7 1 14 1 21
c1 6 1 12 1 17l-18 -6c-7 -3 -13 -5 -18 -5c-9 0 -20 1 -28 5s-14 10 -14 19v2c12 132 29 272 52 404l-38 -2c-17 -2 -42 -3 -59 -3c-10 -67 -21 -141 -29 -207c-5 -37 -14 -78 -43 -113c-26 -24 -61 -35 -94 -35c-17 0 -34 1 -49 7c-16 5 -31 14 -42 28
c-15 21 -20 48 -20 76c0 6 0 11 1 18c4 74 5 159 6 234c-7 0 -14 0 -22 1c-9 0 -17 1 -25 1l-48 3v-54c0 -225 -17 -448 -54 -673z" />
    <glyph glyph-name="paragraph" unicode="&#xb6;" horiz-adv-x="764" 
d="M363 708c-29 0 -58 -1 -87 -9c-28 -7 -56 -19 -80 -38c-26 -19 -43 -45 -53 -72s-14 -57 -14 -86c0 -46 15 -94 45 -129c25 -27 54 -51 92 -60c-22 -131 -46 -263 -76 -393c24 1 54 3 83 4c30 1 60 1 83 1c19 239 41 477 62 716c30 0 51 0 79 1
c-30 -240 -52 -479 -64 -719c59 -1 119 -6 181 -14c-30 225 -38 447 -38 668c0 43 1 94 1 137c-54 -4 -117 -7 -170 -7h-22h-22z" />
    <glyph glyph-name="periodcentered" unicode="&#xb7;" horiz-adv-x="272" 
d="M112 413l-10 -10c0 -37 -4 -75 -13 -122c27 2 45 3 58 3c14 0 32 -1 55 -3c0 42 3 85 13 133c-26 -3 -43 -4 -59 -4c-14 0 -29 1 -44 3z" />
    <glyph glyph-name="cedilla" unicode="&#xb8;" horiz-adv-x="342" 
d="M145 12h-14c-10 -1 -23 -1 -33 -1h-14c8 -14 17 -29 24 -43s11 -29 11 -42c0 -12 -6 -22 -15 -29c-8 -7 -21 -11 -32 -11h-5h-7c-19 0 -40 3 -65 16l-3 -23c-2 -14 -6 -36 -9 -50c29 -6 57 -9 81 -9s56 2 85 15c14 7 24 19 31 34c7 14 10 29 10 43c0 37 -18 68 -37 96z
" />
    <glyph glyph-name="onesuperior" unicode="&#xb9;" horiz-adv-x="478" 
d="M149 376l-3 -18c-1 -6 -2 -12 -3 -19l-1 -17c47 5 91 8 132 8s89 -3 142 -9c-1 6 -2 23 -2 29l1 34c-35 4 -65 5 -94 6c8 111 18 221 31 333h-9c-8 -1 -15 -1 -23 -1h-9h-31c-37 -6 -72 -10 -113 -11v-15v-17v-7c-1 -3 -1 -6 -1 -9v-10v-7c12 0 28 2 43 4c16 2 31 4 43 6
l16 2c-3 -47 -7 -90 -11 -134l-6 -66c-1 -22 -3 -45 -6 -68c-32 -1 -56 -2 -87 -5z" />
    <glyph glyph-name="ordmasculine" unicode="&#xba;" horiz-adv-x="533" 
d="M325 721c-24 0 -50 -3 -73 -10c-24 -8 -47 -20 -65 -39c-22 -21 -36 -48 -44 -77s-11 -58 -11 -85c0 -43 9 -88 35 -122c14 -17 33 -30 55 -37c21 -9 45 -12 68 -12c24 0 49 2 72 10c24 7 45 20 64 39c24 24 39 55 48 87s12 65 12 94c0 38 -7 75 -32 103h1
c-16 20 -36 32 -59 39c-22 8 -47 10 -71 10zM322 675h4c25 0 46 -8 61 -23s24 -36 24 -63c0 -31 -10 -64 -28 -89c-19 -24 -46 -41 -81 -41c-28 0 -51 10 -66 27s-23 41 -23 69c0 31 8 68 33 91c20 21 49 29 76 29zM120 262l-5 -35c60 5 116 8 169 8c51 0 107 -3 167 -8v9
c-1 5 -1 8 -1 10v24c0 2 0 6 1 12v12c-51 4 -110 6 -160 6c-53 0 -105 -2 -158 -6l-8 -7z" />
    <glyph glyph-name="guillemotright" unicode="&#xbb;" horiz-adv-x="612" 
d="M125 513v-13v-14c0 -16 -1 -33 -3 -54l13 -15c18 -21 35 -40 53 -59l53 -59c-53 -39 -100 -76 -151 -117c-1 -16 -2 -39 -4 -62s-3 -46 -4 -62l32 25c23 17 47 36 71 53c11 9 22 17 32 25l123 93c-2 9 -4 22 -5 32l-5 30c-62 68 -125 136 -188 203zM330 496l-4 -25
c-1 -9 -2 -18 -4 -26l-4 -29l36 -39c23 -25 42 -46 56 -63l22 -25c-51 -39 -96 -74 -148 -113c1 -8 1 -17 1 -28l3 -63c1 -10 1 -20 1 -27c38 27 80 59 123 91c42 32 84 64 121 94l-8 38c0 3 -1 8 -2 12c0 4 -1 8 -2 12c-57 66 -115 133 -174 196z" />
    <glyph glyph-name="onequarter" unicode="&#xbc;" horiz-adv-x="869" 
d="M609 547c-46 -67 -91 -133 -133 -196c-80 -119 -161 -238 -245 -353l-21 -2c-4 -1 -9 -1 -15 -2c-7 0 -13 -1 -20 -2c-7 0 -13 -1 -19 -2c-7 -1 -11 -1 -15 -2c42 58 86 121 130 185l65 95l39 57c-37 3 -71 5 -101 5c-41 0 -85 -3 -132 -8l1 17l3 19l3 18l9 9
c31 3 55 4 87 5c3 23 5 46 6 68l6 66c4 44 8 87 11 134l-16 -2c-12 -2 -27 -4 -43 -6c-15 -2 -31 -4 -43 -4v7v10c0 3 0 6 1 9v7v17v15c41 1 76 5 113 11h31h9c8 0 15 0 23 1h9c-13 -112 -23 -222 -31 -333c29 -1 59 -2 94 -6c76 114 158 232 238 343l7 4c5 0 12 1 20 2
c8 0 15 1 24 2l24 3c7 1 14 2 19 2c-45 -60 -91 -127 -138 -193zM735 143h14c4 -1 8 -1 11 -1c0 -4 -1 -9 -1 -17c-1 -7 -1 -13 -2 -17c0 -5 0 -16 -2 -25h-13h-13c-3 0 -6 0 -10 1c-7 0 -14 1 -23 1c-2 -27 -2 -62 -2 -86c-5 0 -11 0 -18 1h-21c-14 0 -29 1 -39 1
c1 9 2 20 2 33c1 13 2 24 2 33l2 19h-29c-49 0 -110 -2 -159 -4c1 4 1 9 2 15c2 11 3 23 4 34c1 6 2 11 2 15c63 82 129 163 196 241l8 3l82 3c-15 -90 -22 -169 -28 -249h5h4c7 0 17 -1 26 -1zM594 145h31c5 56 10 113 16 169c-17 -20 -33 -40 -49 -60s-33 -41 -50 -61
l-39 -49c6 0 13 0 21 1h24h25h21z" />
    <glyph glyph-name="onehalf" unicode="&#xbd;" horiz-adv-x="1025" 
d="M747 740c-45 -60 -91 -127 -138 -193c-46 -67 -91 -133 -133 -196c-80 -119 -161 -238 -245 -353l-21 -2c-4 -1 -9 -1 -15 -2c-7 0 -13 -1 -20 -2c-7 0 -13 -1 -19 -2c-7 -1 -11 -1 -15 -2c42 58 86 121 130 185l65 95l39 57c-37 3 -71 5 -101 5c-41 0 -85 -3 -132 -8
l1 17l3 19l3 18l9 9c31 3 55 4 87 5c3 23 5 46 6 68l6 66c4 44 8 87 11 134l-16 -2c-12 -2 -27 -4 -43 -6c-15 -2 -31 -4 -43 -4v7v10c0 3 0 6 1 9v7v17v15c41 1 76 5 113 11h31h9c8 0 15 0 23 1h9c-13 -112 -23 -222 -31 -333c29 -1 59 -2 94 -6c76 114 158 232 238 343
l7 4c5 0 12 1 20 2c8 0 15 1 24 2l24 3c7 1 14 2 19 2zM740 92l-32 -26c7 1 15 1 23 1h23c43 0 88 -2 139 -6v-15c0 -12 0 -25 1 -36v-14c-53 6 -101 9 -145 9c-45 0 -97 -4 -152 -9c0 3 1 7 2 12l3 14c1 5 2 10 2 14c0 5 1 8 2 12v5c1 2 1 4 1 4l19 17c10 9 22 19 32 27
l23 21c8 7 16 14 24 20c23 20 48 42 70 66c23 23 42 49 54 76v4v3c0 17 -9 30 -22 39s-30 14 -46 14c-39 0 -80 -12 -127 -30c0 2 0 5 1 9v10c0 4 0 8 1 11v9c0 7 1 22 1 31c46 12 90 20 131 20c30 0 65 -5 93 -19s48 -38 48 -77c0 -7 -1 -12 -1 -16
c-12 -39 -33 -70 -58 -99c-26 -29 -56 -54 -85 -79z" />
    <glyph glyph-name="threequarters" unicode="&#xbe;" horiz-adv-x="853" 
d="M594 547c-47 -67 -92 -133 -134 -196c-80 -119 -161 -238 -245 -353l-21 -2c-4 -1 -8 -1 -15 -2c-6 0 -13 -1 -19 -2c-7 0 -14 -1 -20 -2s-11 -1 -15 -2c42 58 86 121 130 185c22 32 44 63 65 95l57 84c-21 -12 -43 -19 -64 -23c-23 -5 -46 -6 -68 -7
c-39 0 -80 5 -123 13c2 10 4 29 6 39l3 29c43 -19 80 -20 117 -20c23 0 48 4 67 15c20 12 34 30 34 57c0 18 -10 33 -25 42c-14 8 -33 13 -52 13h-4c-2 0 -4 0 -5 -1h-46l1 20c1 6 1 12 2 20c0 8 1 14 1 20h39h4c1 -1 3 -1 4 -1h8c18 0 38 5 54 15c15 9 25 23 25 45
c0 16 -10 27 -25 33s-34 8 -49 8c-33 0 -71 -6 -114 -15v7c0 3 0 6 1 9v9v6v9v10v14c43 6 85 11 126 11c30 0 65 -3 93 -16c28 -12 48 -35 48 -72c0 -23 -8 -44 -21 -61s-31 -31 -51 -38c18 -7 34 -19 46 -35c11 -15 18 -34 18 -54c0 -11 -1 -22 -4 -33
c70 102 143 208 215 307l6 4c5 0 12 1 20 2c8 0 16 1 24 2l24 3c7 1 14 2 19 2c-44 -60 -91 -127 -137 -193zM719 143h14c4 -1 8 -1 12 -1c-1 -4 -1 -9 -2 -17c0 -7 -1 -13 -1 -17c0 -5 -1 -16 -2 -25h-14h-12c-4 0 -7 0 -10 1c-7 0 -15 1 -24 1c-1 -27 -2 -62 -2 -86
c-5 0 -11 0 -17 1h-21c-15 0 -30 1 -39 1c0 9 1 20 2 33c0 13 1 24 1 33l2 19h-28c-50 0 -110 -2 -160 -4c1 4 1 9 2 15c2 11 3 23 5 34c0 6 1 11 2 15c63 82 129 163 196 241l7 3l82 3c-15 -90 -22 -169 -28 -249h5h5c6 0 16 -1 25 -1zM578 145h32c4 56 9 113 15 169
c-17 -20 -33 -40 -49 -60l-49 -61l-40 -49c6 0 13 0 21 1h25h25h20z" />
    <glyph glyph-name="questiondown" unicode="&#xbf;" horiz-adv-x="539" 
d="M351 593l6 60c3 22 5 42 7 60c-14 -2 -33 -2 -52 -2c-10 -1 -20 -1 -29 -1h-25c-1 -9 -2 -19 -3 -30l-3 -34c-2 -22 -3 -45 -4 -63c27 0 65 0 94 1zM239 465l-1 -12c-2 -16 -3 -32 -9 -47c-8 -20 -24 -35 -40 -51l-6 -5v1l-20 -19c-29 -28 -58 -54 -79 -84
s-34 -65 -34 -108c0 -54 24 -87 58 -108c34 -20 79 -28 121 -28c63 0 127 13 189 42c0 9 0 19 1 31c0 11 1 22 1 34l3 65c-28 -16 -57 -31 -86 -42c-29 -10 -58 -17 -85 -17c-23 0 -46 5 -65 17s-31 30 -31 56c0 20 7 38 17 55c11 16 25 30 40 43c33 29 67 59 90 95
c12 21 15 44 18 66l6 77h-18h-22h-23h-19z" />
    <glyph glyph-name="Agrave" unicode="&#xc0;" horiz-adv-x="815" 
d="M292 810c-11 13 -23 28 -34 42c-6 6 -10 12 -15 17c12 -2 31 -3 49 -3c9 -1 18 -1 27 -1c8 -1 15 -1 22 -1l7 -4c11 -15 21 -30 31 -46c7 -12 14 -22 23 -36c9 -13 20 -27 36 -46c-10 0 -26 1 -43 2c-8 0 -17 0 -24 1h-19c-7 9 -15 18 -23 28l-22 28c-5 5 -10 11 -15 19z
M590 266c28 -87 58 -174 96 -263l-74 6c-27 2 -53 4 -75 5c-9 38 -17 75 -25 114c-50 1 -99 1 -149 1c-53 0 -98 0 -151 -1c-7 -19 -16 -38 -25 -58c-10 -20 -20 -38 -28 -56c-10 -1 -21 -2 -33 -2l-38 -3c-13 -1 -25 -2 -38 -3l-33 -3c96 165 173 331 246 489
c32 71 69 150 102 218h96c18 -60 37 -127 54 -188c24 -85 48 -170 75 -256zM488 248l-24 100c-7 33 -15 66 -24 100l-18 78c-6 26 -12 53 -19 79l-58 -145c-30 -72 -58 -140 -89 -212h58h57h33h32h52z" />
    <glyph glyph-name="Aacute" unicode="&#xc1;" horiz-adv-x="815" 
d="M402 734c-6 -1 -11 -1 -17 -1c-12 -1 -25 -2 -31 -2c18 18 32 34 44 48c12 13 23 26 33 39l36 43l7 3c6 0 13 0 23 1c9 0 18 0 27 1c19 0 39 1 51 3c-21 -20 -37 -35 -50 -48l-17 -17c-9 -11 -22 -24 -39 -43c-10 -9 -18 -18 -26 -26l-28 -1h-13zM590 266
c28 -87 58 -174 96 -263l-74 6c-27 2 -53 4 -75 5c-9 38 -17 75 -25 114c-50 1 -99 1 -149 1c-53 0 -98 0 -151 -1c-7 -19 -16 -38 -25 -58c-10 -20 -20 -38 -28 -56c-10 -1 -21 -2 -33 -2l-38 -3c-13 -1 -25 -2 -38 -3l-33 -3c96 165 173 331 246 489c32 71 69 150 102 218
h96c18 -60 37 -127 54 -188c24 -85 48 -170 75 -256zM488 248l-24 100c-7 33 -15 66 -24 100l-18 78c-6 26 -12 53 -19 79l-58 -145c-30 -72 -58 -140 -89 -212h58h57h33h32h52z" />
    <glyph glyph-name="Acircumflex" unicode="&#xc2;" horiz-adv-x="815" 
d="M278 743h-13h-9c25 22 44 40 60 57s28 33 41 49l21 26h94l15 -23c10 -17 20 -34 34 -51c13 -18 29 -37 52 -58h-9h-12h-13h-8c-12 1 -28 1 -40 1c-23 21 -40 43 -58 66l-6 6c-1 1 -3 4 -6 7l-7 -8c-24 -23 -47 -47 -76 -71c-12 0 -27 0 -39 -1h-8h-13zM590 266
c28 -87 58 -174 96 -263l-74 6c-27 2 -53 4 -75 5c-9 38 -17 75 -25 114c-50 1 -99 1 -149 1c-53 0 -98 0 -151 -1c-7 -19 -16 -38 -25 -58c-10 -20 -20 -38 -28 -56c-10 -1 -21 -2 -33 -2l-38 -3c-13 -1 -25 -2 -38 -3l-33 -3c96 165 173 331 246 489c32 71 69 150 102 218
h96c18 -60 37 -127 54 -188c24 -85 48 -170 75 -256zM488 248l-24 100c-7 33 -15 66 -24 100l-18 78c-6 26 -12 53 -19 79l-58 -145c-30 -72 -58 -140 -89 -212h58h57h33h32h52z" />
    <glyph glyph-name="Atilde" unicode="&#xc3;" horiz-adv-x="815" 
d="M326 749h-11c-3 -1 -7 -1 -10 -1h-9l13 31c4 7 6 14 10 22c3 7 6 14 11 21c16 25 43 37 66 37h8c33 0 57 -14 83 -30v1l6 -5c9 -6 18 -10 32 -10c0 0 1 2 4 4c7 5 16 11 27 17c5 2 8 5 11 6l-5 17c12 1 24 1 36 1h7c3 0 6 0 9 1h9h7l-12 -26c-9 -20 -19 -41 -33 -57
c-14 -17 -31 -28 -56 -28c-31 0 -50 8 -73 20c-6 3 -11 6 -16 9c-12 8 -24 16 -37 16c-10 0 -18 -6 -24 -15s-11 -20 -14 -30l-17 3c0 -2 -2 -3 -4 -3c-6 -1 -12 -1 -18 -1zM590 266c28 -87 58 -174 96 -263l-74 6c-27 2 -53 4 -75 5c-9 38 -17 75 -25 114
c-50 1 -99 1 -149 1c-53 0 -98 0 -151 -1c-7 -19 -16 -38 -25 -58c-10 -20 -20 -38 -28 -56c-10 -1 -21 -2 -33 -2l-38 -3c-13 -1 -25 -2 -38 -3l-33 -3c96 165 173 331 246 489c32 71 69 150 102 218h96c18 -60 37 -127 54 -188c24 -85 48 -170 75 -256zM488 248l-24 100
c-7 33 -15 66 -24 100l-18 78c-6 26 -12 53 -19 79l-58 -145c-30 -72 -58 -140 -89 -212h58h57h33h32h52z" />
    <glyph glyph-name="Adieresis" unicode="&#xc4;" horiz-adv-x="815" 
d="M268 929l-9 -12c3 -11 4 -22 4 -34c0 -18 -5 -41 -20 -68c8 0 17 0 28 1h32c21 1 43 1 59 1c6 29 9 56 9 82l-1 28c-16 0 -33 0 -51 1c-18 0 -35 0 -51 1zM466 927l-8 -8c-6 -23 -9 -47 -9 -70c0 -8 0 -17 2 -31c15 -1 40 -2 55 -2l61 -1c-7 20 -11 35 -11 46
c0 18 8 42 21 68l-63 -1c-16 0 -32 -1 -48 -1zM461 710h-96c-33 -68 -70 -147 -102 -218c-73 -158 -150 -324 -246 -489l33 3c13 1 25 2 38 3l38 3c12 0 23 1 33 2c8 18 18 36 28 56c9 20 18 39 25 58c53 1 98 1 151 1c50 0 99 0 149 -1c8 -39 16 -76 25 -114
c22 -1 48 -3 75 -5l74 -6c-38 89 -68 176 -96 263c-27 86 -51 171 -75 256c-17 61 -36 128 -54 188zM422 526l18 -78c9 -34 17 -67 24 -100l24 -100h-52h-32h-33h-57h-58c31 72 59 140 89 212l58 145c7 -26 13 -53 19 -79z" />
    <glyph glyph-name="Aring" unicode="&#xc5;" horiz-adv-x="815" 
d="M317 625l-17 -36c-44 -96 -90 -196 -137 -295c-48 -100 -97 -198 -147 -292c7 1 16 2 26 4l62 6c11 0 20 1 27 2c29 58 59 121 86 180c59 2 110 3 169 3c45 0 87 0 132 -2c17 -61 35 -120 56 -181c8 0 16 -1 26 -2l30 -3c20 -2 40 -4 55 -6c-35 90 -64 178 -90 265
c-27 86 -51 171 -74 254l-39 139c41 29 67 75 67 125c0 32 -13 61 -34 82c-21 20 -51 32 -83 32c-40 0 -77 -14 -103 -39s-43 -59 -43 -100c0 -39 18 -75 47 -99c-5 -12 -10 -24 -16 -37zM482 771v-1c-2 -18 -10 -34 -23 -46s-29 -20 -46 -20s-32 6 -43 17
c-12 11 -18 25 -18 42c0 20 8 38 22 50c13 13 31 20 50 20c16 0 31 -5 42 -15s17 -25 17 -41v-3c0 -1 0 -2 -1 -3zM435 486l27 -101c9 -34 18 -69 28 -102h-28h-25h-26h-28h-62c-20 0 -41 0 -62 -1c20 44 39 84 57 125c9 20 18 41 28 61c9 21 18 42 28 64l31 70z" />
    <glyph glyph-name="AE" unicode="&#xc6;" horiz-adv-x="1047" 
d="M968 712l-10 12c-145 -10 -288 -14 -433 -14h-71c-25 0 -49 1 -72 1l-56 -119c-45 -97 -90 -195 -140 -292c-50 -98 -105 -197 -169 -297l46 3c33 2 68 4 102 6c16 0 31 1 45 2l13 95l3 27c81 2 153 3 233 3v-9c-1 -5 -1 -8 -1 -13c-1 -3 -1 -6 -1 -9
c-3 -27 -6 -63 -8 -90c74 0 155 -1 235 -3c80 -3 159 -7 233 -11c-1 19 -4 43 -5 67c-2 24 -4 48 -4 67c-114 5 -232 8 -345 9l4 58l5 60c107 0 210 0 317 -2c1 14 2 36 4 51c0 2 0 5 1 9v10c1 8 1 15 1 20h-316c4 46 8 90 13 135c4 44 8 88 14 135c115 1 228 4 344 10
c5 25 11 55 18 79zM402 515l48 113c9 -1 18 -1 27 -1h25c-12 -136 -23 -266 -35 -401c-34 0 -67 0 -98 -1c-31 0 -63 -1 -97 -1c47 98 87 192 130 291z" />
    <glyph glyph-name="Ccedilla" unicode="&#xc7;" horiz-adv-x="747" 
d="M670 663l12 -1c-1 -7 -3 -16 -4 -25c-2 -10 -4 -19 -5 -29c-4 -20 -6 -40 -8 -55c-55 55 -125 84 -194 84c-33 0 -67 -4 -100 -13c-33 -10 -64 -26 -90 -52h1c-33 -35 -53 -75 -65 -118s-16 -87 -16 -126c0 -25 2 -49 9 -71s18 -42 35 -58v1c24 -20 53 -31 84 -37
c31 -7 64 -9 94 -9c34 0 71 8 107 23c35 15 71 37 104 66c-2 -23 -2 -52 -3 -80c-1 -29 -2 -58 -2 -80v-21c-69 -43 -145 -58 -218 -58c-12 0 -24 0 -36 1c6 -14 9 -29 9 -45c0 -13 -3 -29 -10 -43s-17 -26 -31 -34c-30 -13 -61 -14 -85 -14c-25 0 -52 3 -81 8
c3 14 7 37 9 51l3 23c25 -14 46 -16 65 -16h7c1 -1 3 -1 5 -1c11 0 24 4 32 11c9 7 15 17 15 30s-4 27 -11 41c-10 2 -20 5 -30 8c-44 15 -84 38 -116 73c-23 29 -38 63 -48 99c-9 35 -13 74 -13 112c0 50 7 109 23 167c17 56 43 112 84 154c37 36 82 60 130 75
c47 14 97 19 144 19c72 0 145 -14 203 -55z" />
    <glyph glyph-name="Egrave" unicode="&#xc8;" horiz-adv-x="748" 
d="M305 860l-7 4c-6 0 -14 0 -22 1c-9 0 -18 0 -27 1c-18 0 -37 1 -49 3c5 -5 9 -11 15 -17c11 -14 23 -29 34 -42c5 -8 10 -14 15 -19c7 -8 14 -18 22 -28s16 -19 23 -28h19c7 -1 16 -1 24 -1c17 -1 33 -2 43 -2c-16 19 -27 33 -36 46c-9 14 -16 24 -23 36
c-10 16 -20 31 -31 46zM224 725l-12 -10c-2 -234 -22 -469 -63 -712c84 10 164 15 239 15c72 0 150 -5 230 -15v38c0 14 0 27 1 42c0 27 1 55 2 78c-79 6 -152 9 -222 9c-41 0 -82 -1 -123 -2c1 15 3 30 5 44c1 15 3 29 5 43c3 29 5 57 7 88h150h84h84c0 3 0 7 1 12v13
c2 19 5 46 8 65c-67 -1 -143 -3 -210 -3c-38 0 -72 1 -109 1c3 34 5 67 7 98c3 31 5 63 6 96c45 -2 82 -3 129 -3c68 0 140 3 215 11c2 15 6 36 8 52l7 40c-82 -10 -160 -15 -234 -15c-72 0 -144 5 -215 15z" />
    <glyph glyph-name="Eacute" unicode="&#xc9;" horiz-adv-x="704" 
d="M446 1134l-7 -3c-23 -26 -44 -52 -66 -79c-16 -18 -34 -40 -53 -62c-20 -22 -39 -44 -55 -62c6 1 13 1 22 2c8 0 17 1 26 1c18 1 37 2 48 2c30 28 61 61 89 91c8 9 16 18 26 28l30 31c21 21 42 41 59 57c-16 -2 -38 -3 -60 -3c-11 -1 -22 -1 -32 -2c-10 0 -19 -1 -27 -1z
M179 725l-11 -10c-2 -234 -22 -469 -63 -712c84 10 164 15 238 15c73 0 150 -5 231 -15v38v42c1 27 1 55 3 78c-79 6 -152 9 -223 9c-41 0 -81 -1 -123 -2c2 15 4 30 5 44c2 15 4 29 5 43c3 29 6 57 8 88h150h84h84v12c1 6 1 10 1 13c1 19 4 46 8 65c-67 -1 -144 -3 -211 -3
c-37 0 -71 1 -108 1c2 34 4 67 7 98l6 96c45 -2 82 -3 128 -3c69 0 140 3 216 11c2 15 5 36 8 52l6 40c-82 -10 -159 -15 -233 -15c-73 0 -145 5 -216 15z" />
    <glyph glyph-name="Ecircumflex" unicode="&#xca;" horiz-adv-x="704" 
d="M313 865l-21 -26c-13 -16 -25 -31 -41 -48c-16 -18 -35 -36 -60 -58h9h13h13h8c12 1 27 1 39 1c29 24 52 48 76 72l7 7l6 -6c1 -1 3 -3 6 -7c18 -23 35 -45 58 -66c12 0 28 0 40 -1h8h13h13h8c-23 21 -39 40 -52 58c-14 18 -24 34 -34 51l-15 23h-94zM179 725l-11 -10
c-2 -234 -22 -469 -63 -712c84 10 164 15 238 15c73 0 150 -5 231 -15v38v42c1 27 1 55 3 78c-79 6 -152 9 -223 9c-41 0 -81 -1 -123 -2c2 15 4 30 5 44c2 15 4 29 5 43c3 29 6 57 8 88h150h84h84v12c1 6 1 10 1 13c1 19 4 46 8 65c-67 -1 -144 -3 -211 -3
c-37 0 -71 1 -108 1c2 34 4 67 7 98l6 96c45 -2 82 -3 128 -3c69 0 140 3 216 11c2 15 5 36 8 52l6 40c-82 -10 -159 -15 -233 -15c-73 0 -145 5 -216 15z" />
    <glyph glyph-name="Edieresis" unicode="&#xcb;" horiz-adv-x="704" 
d="M261 854l-10 -13c4 -10 5 -19 5 -30c0 -18 -5 -39 -18 -63h17c6 0 13 0 19 1h20h16s11 0 19 1h18c6 27 9 52 9 77v3c-1 1 -1 3 -1 4v18c-14 0 -30 0 -46 1c-17 0 -33 0 -48 1zM444 852l-8 -7c-6 -23 -9 -44 -9 -66l1 -29h19c8 -1 14 -1 19 -1h17h19c6 -1 12 -1 19 -1h16
c-6 18 -10 32 -10 43c0 17 8 38 20 63h-24c-9 -1 -18 -1 -27 -1c-18 -1 -38 -1 -52 -1zM179 725l-11 -10c-2 -234 -22 -469 -63 -712c84 10 164 15 238 15c73 0 150 -5 231 -15v38v42c1 27 1 55 3 78c-79 6 -152 9 -223 9c-41 0 -81 -1 -123 -2c2 15 4 30 5 44
c2 15 4 29 5 43c3 29 6 57 8 88h150h84h84v12c1 6 1 10 1 13c1 19 4 46 8 65c-67 -1 -144 -3 -211 -3c-37 0 -71 1 -108 1c2 34 4 67 7 98l6 96c45 -2 82 -3 128 -3c69 0 140 3 216 11c2 15 5 36 8 52l6 40c-82 -10 -159 -15 -233 -15c-73 0 -145 5 -216 15z" />
    <glyph glyph-name="Igrave" unicode="&#xcc;" horiz-adv-x="540" 
d="M305 860l-7 4c-6 0 -14 0 -22 1c-9 0 -18 0 -27 1c-18 0 -37 1 -49 3c5 -5 9 -11 15 -17c11 -14 23 -29 34 -42c5 -8 10 -14 15 -19c7 -8 14 -18 22 -28s16 -19 23 -28h19c7 -1 16 -1 24 -1c17 -1 33 -2 43 -2c-16 19 -27 33 -36 46c-9 14 -16 24 -23 36
c-10 16 -20 31 -31 46zM373 716l-13 -8c-22 -232 -48 -478 -77 -710c27 13 49 20 66 20s37 -7 60 -20c6 116 14 240 24 364c9 124 19 248 29 364c-23 -10 -41 -16 -55 -16c-11 0 -23 3 -34 6z" />
    <glyph glyph-name="Iacute" unicode="&#xcd;" horiz-adv-x="459" 
d="M294 910l-36 -43c-10 -13 -21 -26 -32 -39c-13 -15 -27 -30 -44 -48c6 0 18 1 30 2c6 0 12 0 17 1h13c8 0 20 1 28 1l26 26c17 19 30 32 39 43c5 5 11 11 18 17c12 13 28 28 49 47c-12 -1 -31 -2 -50 -2c-10 -1 -19 -1 -28 -1c-10 -1 -17 -1 -23 -1zM292 716l-13 -8
c-22 -232 -48 -478 -77 -710c27 13 49 20 66 20s37 -7 60 -20c6 116 14 240 24 364c9 124 19 248 29 364c-23 -10 -41 -16 -55 -16c-12 0 -23 3 -34 6z" />
    <glyph glyph-name="Icircumflex" unicode="&#xce;" horiz-adv-x="525" 
d="M272 839h1c-13 -16 -26 -31 -42 -48c-15 -18 -34 -36 -60 -58h9h13h14h8c12 1 27 1 38 1c30 24 53 48 76 72l8 7c2 -3 4 -5 5 -6s3 -3 6 -7c18 -23 36 -45 59 -66c11 0 28 0 39 -1h9h12h13h8c-23 21 -38 40 -51 58c-14 18 -24 34 -35 51l-14 23h-94zM358 716l-13 -8
c-22 -232 -48 -478 -77 -710c26 13 49 20 66 20s37 -7 60 -20c6 116 14 240 23 364c10 124 20 248 30 364c-23 -10 -41 -16 -55 -16c-12 0 -23 3 -34 6z" />
    <glyph glyph-name="Idieresis" unicode="&#xcf;" horiz-adv-x="452" 
d="M204 854l-10 -13c4 -10 5 -19 5 -30c0 -18 -5 -39 -18 -63h17c6 0 12 0 19 1h20h16s11 0 18 1h19c5 27 9 52 9 77v3c-1 1 -1 3 -1 4v18c-14 0 -30 0 -47 1c-17 0 -32 0 -47 1zM387 852l-9 -7c-5 -23 -8 -44 -8 -66l1 -29h19c8 -1 14 -1 19 -1h17h19c6 -1 12 -1 18 -1h17
c-6 18 -10 32 -10 43c0 17 8 38 20 63h-24c-9 -1 -18 -1 -28 -1c-18 -1 -37 -1 -51 -1zM271 716l-12 -8c-22 -232 -49 -478 -78 -710c27 13 49 20 67 20c17 0 37 -7 59 -20c6 116 14 240 24 364c9 124 20 248 30 364c-23 -10 -42 -16 -56 -16c-11 0 -22 3 -34 6z" />
    <glyph glyph-name="Eth" unicode="&#xd0;" horiz-adv-x="818" 
d="M750 540c9 -34 12 -71 12 -106c0 -34 -2 -73 -8 -113c-5 -41 -15 -83 -31 -121c-16 -39 -39 -75 -72 -103c-45 -35 -94 -54 -147 -65c-52 -11 -105 -13 -156 -14c-33 0 -68 -1 -103 -2c-36 -2 -71 -3 -103 -5c21 116 35 223 45 326h-88c1 5 1 11 1 19c1 8 1 14 2 18v10
c1 3 1 7 1 11s0 8 1 11v10h20c15 -1 30 -1 44 -1c7 -1 16 -1 25 -1c8 99 11 195 11 294l10 9c57 -4 112 -5 169 -6h13c4 -1 8 -1 11 -1c51 -1 104 -2 155 -13s99 -30 137 -66c26 -26 41 -58 51 -91zM643 288c11 45 13 92 13 131c0 26 -2 53 -9 78s-18 48 -34 67
c-25 24 -56 40 -91 48c-35 9 -71 12 -106 12l-108 1l-6 -105c-2 -34 -4 -70 -8 -106h151l-7 -76h-75c-25 0 -50 0 -75 -1c-2 -20 -4 -40 -5 -59c-4 -39 -8 -77 -13 -116c-2 -19 -5 -39 -8 -60c18 1 36 1 53 2c36 0 71 0 108 3s74 11 108 27c16 8 32 18 46 32
c34 31 54 76 66 122z" />
    <glyph glyph-name="Ntilde" unicode="&#xd1;" horiz-adv-x="771" 
d="M411 770c23 -12 42 -20 73 -20c25 0 42 11 57 28c13 16 23 37 32 57l12 26h-7h-9c-3 -1 -6 -1 -9 -1h-7c-11 0 -24 0 -36 -1l5 -17c-2 -1 -6 -4 -11 -6c-11 -6 -20 -12 -27 -17c-3 -2 -4 -4 -4 -4c-14 0 -23 4 -32 10l-6 5v-1c-25 16 -50 30 -83 30h-7
c-24 0 -51 -12 -67 -37c-5 -7 -8 -14 -11 -21c-3 -8 -6 -15 -10 -22l-13 -31h9c3 0 7 0 11 1h10c6 0 12 0 18 1c2 0 4 1 4 3l17 -3c3 10 8 21 14 30s14 15 24 15c13 0 25 -8 37 -16c5 -3 10 -6 16 -9zM175 708l-11 -9c-6 -228 -32 -458 -82 -696c19 2 43 5 66 7
c12 0 24 1 35 2s22 2 31 2c18 195 28 381 30 568c18 -40 35 -79 51 -118s33 -78 50 -119c47 -110 96 -222 150 -329c21 -2 47 -3 73 -5s52 -5 73 -7l-1 66c0 214 23 433 64 656c-6 0 -14 -1 -22 -2l-27 -3c-9 -1 -19 -2 -27 -2c-9 -1 -17 -2 -23 -2
c-35 -184 -58 -366 -71 -548c-10 20 -18 39 -26 56c-16 33 -30 65 -45 99c-7 17 -16 35 -25 55c-46 106 -95 217 -148 320c-3 0 -7 0 -12 1h-12c-31 2 -60 4 -91 8z" />
    <glyph glyph-name="Ograve" unicode="&#xd2;" 
d="M369 909l-8 4c-6 0 -13 0 -22 1c-8 0 -17 0 -26 1c-19 0 -37 1 -49 2c4 -4 9 -10 14 -17c12 -13 23 -28 35 -42c5 -7 10 -13 14 -18c7 -8 14 -18 23 -28c8 -10 15 -20 23 -28h19c7 -1 15 -1 24 -1c16 -1 32 -2 42 -2l-36 46c-9 13 -15 24 -23 36c-9 15 -19 31 -30 46z
M444 723c-44 0 -89 -6 -131 -21c-42 -14 -82 -38 -114 -73h1c-43 -45 -68 -100 -83 -158c-15 -57 -20 -117 -20 -169c0 -37 4 -73 13 -108s22 -68 44 -95c25 -34 59 -57 98 -72s81 -22 123 -22c45 0 91 6 134 20s83 38 116 73c40 46 65 100 81 157s22 116 22 170
c0 36 -3 73 -12 108c-9 34 -23 67 -45 95c-25 35 -61 58 -101 73c-39 15 -83 22 -126 22zM438 637c59 0 115 -23 147 -70c28 -45 37 -99 37 -155c0 -28 -2 -65 -11 -99c-10 -36 -27 -69 -57 -88c-47 -26 -105 -35 -158 -35c-26 0 -53 2 -79 7c-25 5 -51 13 -72 27
c-17 10 -28 27 -34 46c-6 18 -8 39 -8 60c0 38 5 81 16 122s29 81 56 113c20 26 46 43 74 55s59 17 89 17z" />
    <glyph glyph-name="Oacute" unicode="&#xd3;" 
d="M390 910l-36 -43c-10 -13 -21 -26 -33 -39c-12 -15 -26 -30 -44 -48c6 0 18 1 31 2c5 0 11 0 17 1h13c8 0 19 1 28 1c8 8 16 17 26 26l39 43l17 17c13 13 29 28 50 47c-12 -1 -32 -2 -51 -2c-9 -1 -18 -1 -28 -1c-9 -1 -16 -1 -23 -1zM444 723c-44 0 -89 -6 -131 -21
c-42 -14 -82 -38 -114 -73h1c-43 -45 -68 -100 -83 -158c-15 -57 -20 -117 -20 -169c0 -37 4 -73 13 -108s22 -68 44 -95c25 -34 59 -57 98 -72s81 -22 123 -22c45 0 91 6 134 20s83 38 116 73c40 46 65 100 81 157s22 116 22 170c0 36 -3 73 -12 108c-9 34 -23 67 -45 95
c-25 35 -61 58 -101 73c-39 15 -83 22 -126 22zM438 637c59 0 115 -23 147 -70c28 -45 37 -99 37 -155c0 -28 -2 -65 -11 -99c-10 -36 -27 -69 -57 -88c-47 -26 -105 -35 -158 -35c-26 0 -53 2 -79 7c-25 5 -51 13 -72 27c-17 10 -28 27 -34 46c-6 18 -8 39 -8 60
c0 38 5 81 16 122s29 81 56 113c20 26 46 43 74 55s59 17 89 17z" />
    <glyph glyph-name="Ocircumflex" unicode="&#xd4;" 
d="M351 839h1c-14 -16 -26 -31 -42 -48c-16 -18 -35 -36 -60 -58h9h13h13h8c12 1 27 1 39 1c29 24 52 48 76 72l8 7c2 -3 4 -5 5 -6s3 -3 6 -7c18 -23 35 -45 58 -66c12 0 28 0 40 -1h8h13h13h8c-23 21 -39 40 -52 58c-14 18 -24 34 -34 51l-15 23h-93zM444 723
c-44 0 -89 -6 -131 -21c-42 -14 -82 -38 -114 -73h1c-43 -45 -68 -100 -83 -158c-15 -57 -20 -117 -20 -169c0 -37 4 -73 13 -108s22 -68 44 -95c25 -34 59 -57 98 -72s81 -22 123 -22c45 0 91 6 134 20s83 38 116 73c40 46 65 100 81 157s22 116 22 170c0 36 -3 73 -12 108
c-9 34 -23 67 -45 95c-25 35 -61 58 -101 73c-39 15 -83 22 -126 22zM438 637c59 0 115 -23 147 -70c28 -45 37 -99 37 -155c0 -28 -2 -65 -11 -99c-10 -36 -27 -69 -57 -88c-47 -26 -105 -35 -158 -35c-26 0 -53 2 -79 7c-25 5 -51 13 -72 27c-17 10 -28 27 -34 46
c-6 18 -8 39 -8 60c0 38 5 81 16 122s29 81 56 113c20 26 46 43 74 55s59 17 89 17z" />
    <glyph glyph-name="Otilde" unicode="&#xd5;" 
d="M476 770h1c23 -12 41 -20 72 -20c25 0 43 11 57 28c14 16 23 37 33 57l11 26h-6h-9c-4 -1 -7 -1 -10 -1h-6c-12 0 -25 0 -37 -1l5 -17c-2 -1 -6 -4 -11 -6c-10 -6 -20 -12 -26 -17c-4 -2 -5 -4 -4 -4c-14 0 -24 4 -33 10c-1 2 -4 3 -6 5l1 -1c-26 16 -50 30 -83 30h-8
c-24 0 -51 -12 -67 -37c-4 -7 -8 -14 -11 -21l-9 -22l-13 -31h8c4 0 7 0 11 1h10c7 0 13 0 18 1c3 0 4 1 4 3l18 -3c2 10 7 21 13 30c7 9 15 15 24 15c14 0 25 -8 37 -16c6 -3 11 -6 16 -9zM444 723c-44 0 -89 -6 -131 -21c-42 -14 -82 -38 -114 -73h1
c-43 -45 -68 -100 -83 -158c-15 -57 -20 -117 -20 -169c0 -37 4 -73 13 -108s22 -68 44 -95c25 -34 59 -57 98 -72s81 -22 123 -22c45 0 91 6 134 20s83 38 116 73c40 46 65 100 81 157s22 116 22 170c0 36 -3 73 -12 108c-9 34 -23 67 -45 95c-25 35 -61 58 -101 73
c-39 15 -83 22 -126 22zM438 637c59 0 115 -23 147 -70c28 -45 37 -99 37 -155c0 -28 -2 -65 -11 -99c-10 -36 -27 -69 -57 -88c-47 -26 -105 -35 -158 -35c-26 0 -53 2 -79 7c-25 5 -51 13 -72 27c-17 10 -28 27 -34 46c-6 18 -8 39 -8 60c0 38 5 81 16 122s29 81 56 113
c20 26 46 43 74 55s59 17 89 17z" />
    <glyph glyph-name="Odieresis" unicode="&#xd6;" 
d="M320 854l-10 -13c3 -10 5 -19 5 -30c0 -18 -5 -39 -19 -63h17c7 0 13 0 20 1h20h16c4 0 10 0 18 1h18c6 27 10 52 10 77v3c-1 1 -1 3 -1 4v18c-15 0 -30 0 -47 1c-17 0 -33 0 -47 1zM503 852l-9 -7c-6 -23 -8 -44 -8 -66c0 -7 0 -23 1 -29h19c8 -1 14 -1 19 -1h17h19
c6 -1 12 -1 18 -1h17c-7 18 -10 32 -10 43c0 17 7 38 19 63h-23c-10 -1 -19 -1 -28 -1c-18 -1 -37 -1 -51 -1zM444 723c-44 0 -89 -6 -131 -21c-42 -14 -82 -38 -114 -73h1c-43 -45 -68 -100 -83 -158c-15 -57 -20 -117 -20 -169c0 -37 4 -73 13 -108s22 -68 44 -95
c25 -34 59 -57 98 -72s81 -22 123 -22c45 0 91 6 134 20s83 38 116 73c40 46 65 100 81 157s22 116 22 170c0 36 -3 73 -12 108c-9 34 -23 67 -45 95c-25 35 -61 58 -101 73c-39 15 -83 22 -126 22zM438 637c59 0 115 -23 147 -70c28 -45 37 -99 37 -155
c0 -28 -2 -65 -11 -99c-10 -36 -27 -69 -57 -88c-47 -26 -105 -35 -158 -35c-26 0 -53 2 -79 7c-25 5 -51 13 -72 27c-17 10 -28 27 -34 46c-6 18 -8 39 -8 60c0 38 5 81 16 122s29 81 56 113c20 26 46 43 74 55s59 17 89 17z" />
    <glyph glyph-name="multiply" unicode="&#xd7;" horiz-adv-x="695" 
d="M436 323l196 184c-3 4 -7 9 -10 14c-4 4 -8 9 -12 14l-23 26h1l-26 31c-66 -59 -138 -123 -203 -184c-18 21 -35 41 -52 59l-55 58l-47 52l-28 -27c-8 -8 -18 -17 -28 -28c-11 -10 -20 -20 -28 -28l99 -115c9 -9 17 -18 25 -27c8 -10 17 -19 25 -28
c-32 -30 -58 -53 -89 -83l-101 -95c2 -3 4 -5 6 -8l8 -9c2 -4 5 -6 8 -9c2 -4 4 -6 6 -9l41 -49c66 57 133 118 197 177c54 -61 109 -120 166 -177c6 5 13 12 21 21l21 21c6 6 12 13 21 21l21 21c-52 56 -109 120 -160 177z" />
    <glyph glyph-name="Oslash" unicode="&#xd8;" 
d="M780 708l-27 -28c-10 -11 -20 -20 -27 -28l-42 -44c32 -57 44 -123 44 -190c0 -53 -7 -111 -23 -167c-16 -55 -42 -108 -81 -153c-33 -35 -72 -58 -115 -73c-43 -14 -89 -20 -132 -20c-70 0 -141 19 -194 62c-6 -6 -13 -13 -19 -20c-14 -14 -26 -27 -46 -47
c-10 -11 -18 -20 -26 -27l-10 10c-5 4 -9 9 -13 13c-5 4 -9 9 -13 13c-5 4 -8 8 -11 11c16 17 37 39 53 55l41 44c-32 56 -43 121 -43 186c0 51 6 111 21 168c16 56 41 112 82 155c31 34 71 58 114 73c42 15 87 21 130 21c36 0 72 -4 106 -14c33 -11 64 -26 91 -49
c29 31 63 65 92 94c3 -3 8 -7 14 -12c5 -6 10 -11 14 -14l6 -6c4 -4 8 -8 14 -13zM190 356c0 -46 19 -90 47 -127l143 153c61 66 127 137 190 203c-13 21 -30 41 -53 52c-28 11 -66 18 -99 18c-29 0 -58 -6 -85 -17c-27 -13 -52 -30 -72 -54c-25 -31 -43 -69 -54 -109
c-12 -39 -17 -81 -17 -119zM624 403c1 10 1 20 1 30c0 33 -7 62 -19 91l-139 -150c-29 -32 -60 -64 -92 -99c-31 -35 -62 -68 -93 -100c13 -8 28 -15 45 -17c23 -1 48 -1 70 -1c25 4 53 9 79 19c25 9 50 22 69 40c23 23 39 52 51 82c11 31 19 62 27 93v6c1 2 1 4 1 6z" />
    <glyph glyph-name="Ugrave" unicode="&#xd9;" horiz-adv-x="744" 
d="M349 909l-7 4c-7 0 -14 0 -22 1c-9 0 -18 0 -27 1c-18 0 -37 1 -49 2c5 -4 9 -10 15 -17c11 -13 23 -28 34 -42c5 -7 10 -13 15 -18l22 -28c8 -10 16 -20 23 -28h19c7 -1 16 -1 24 -1c17 -1 33 -2 43 -2c-16 19 -27 33 -36 46s-16 24 -23 36c-10 15 -20 31 -31 46z
M167 715v-34c0 -135 -8 -267 -21 -404c-2 -20 -4 -40 -4 -62c0 -27 3 -53 10 -78c7 -26 18 -51 37 -72c24 -25 56 -41 89 -49c34 -9 70 -12 105 -12s73 3 109 13s71 27 101 56c26 28 44 61 54 96c11 35 16 72 19 106c11 147 26 294 57 450l-37 -3c-21 -3 -49 -5 -70 -7
c-5 -28 -10 -57 -13 -88c-9 -60 -17 -122 -22 -183c-4 -30 -7 -60 -10 -89c-2 -26 -6 -55 -14 -82s-19 -53 -36 -75c-15 -17 -36 -28 -58 -35c-23 -7 -47 -9 -69 -9s-46 2 -67 8c-22 6 -40 18 -53 35h1c-20 30 -25 67 -25 105c0 16 1 34 2 51c10 119 18 244 20 361
c-29 2 -64 6 -94 10z" />
    <glyph glyph-name="Uacute" unicode="&#xda;" horiz-adv-x="744" 
d="M549 1134l-7 -3c-23 -26 -44 -52 -66 -79c-16 -18 -34 -40 -53 -62c-20 -22 -39 -44 -55 -62c6 1 13 1 22 2c8 0 17 1 26 1c18 1 37 2 48 2c30 28 61 61 89 91c8 9 16 18 26 28l30 31c21 21 42 41 59 57c-16 -2 -38 -3 -60 -3c-11 -1 -22 -1 -32 -2c-10 0 -19 -1 -27 -1z
M167 715v-34c0 -135 -8 -267 -21 -404c-2 -20 -4 -40 -4 -62c0 -27 3 -53 10 -78c7 -26 18 -51 37 -72c24 -25 56 -41 89 -49c34 -9 70 -12 105 -12s73 3 109 13s71 27 101 56c26 28 44 61 54 96c11 35 16 72 19 106c11 147 26 294 57 450l-37 -3c-21 -3 -49 -5 -70 -7
c-5 -28 -10 -57 -13 -88c-9 -60 -17 -122 -22 -183c-4 -30 -7 -60 -10 -89c-2 -26 -6 -55 -14 -82s-19 -53 -36 -75c-15 -17 -36 -28 -58 -35c-23 -7 -47 -9 -69 -9s-46 2 -67 8c-22 6 -40 18 -53 35h1c-20 30 -25 67 -25 105c0 16 1 34 2 51c10 119 18 244 20 361
c-29 2 -64 6 -94 10z" />
    <glyph glyph-name="Ucircumflex" unicode="&#xdb;" horiz-adv-x="744" 
d="M353 865l-21 -26c-13 -16 -26 -31 -41 -48c-16 -18 -35 -36 -61 -58h9h13h14h8c12 1 27 1 39 1c29 24 52 48 75 72l8 7c2 -3 4 -5 5 -6s3 -3 6 -7c18 -23 36 -45 59 -66c12 0 28 0 39 -1h9h12h13h8c-23 21 -38 40 -51 58c-14 18 -24 34 -35 51l-14 23h-94zM167 715v-34
c0 -135 -8 -267 -21 -404c-2 -20 -4 -40 -4 -62c0 -27 3 -53 10 -78c7 -26 18 -51 37 -72c24 -25 56 -41 89 -49c34 -9 70 -12 105 -12s73 3 109 13s71 27 101 56c26 28 44 61 54 96c11 35 16 72 19 106c11 147 26 294 57 450l-37 -3c-21 -3 -49 -5 -70 -7
c-5 -28 -10 -57 -13 -88c-9 -60 -17 -122 -22 -183c-4 -30 -7 -60 -10 -89c-2 -26 -6 -55 -14 -82s-19 -53 -36 -75c-15 -17 -36 -28 -58 -35c-23 -7 -47 -9 -69 -9s-46 2 -67 8c-22 6 -40 18 -53 35h1c-20 30 -25 67 -25 105c0 16 1 34 2 51c10 119 18 244 20 361
c-29 2 -64 6 -94 10z" />
    <glyph glyph-name="Udieresis" unicode="&#xdc;" horiz-adv-x="744" 
d="M300 854l-9 -13c3 -10 4 -19 4 -30c0 -18 -5 -39 -18 -63h17c6 0 13 0 19 1h20h16c5 0 11 0 19 1h18c6 27 9 52 9 77v3v4v18c-15 0 -31 0 -47 1c-17 0 -33 0 -48 1zM483 852l-8 -7c-6 -23 -9 -44 -9 -66l1 -29h19c8 -1 14 -1 19 -1h17h19c6 -1 12 -1 19 -1h16
c-6 18 -10 32 -10 43c0 17 8 38 20 63h-24c-9 -1 -18 -1 -27 -1c-18 -1 -37 -1 -52 -1zM167 715v-34c0 -135 -8 -267 -21 -404c-2 -20 -4 -40 -4 -62c0 -27 3 -53 10 -78c7 -26 18 -51 37 -72c24 -25 56 -41 89 -49c34 -9 70 -12 105 -12s73 3 109 13s71 27 101 56
c26 28 44 61 54 96c11 35 16 72 19 106c11 147 26 294 57 450l-37 -3c-21 -3 -49 -5 -70 -7c-5 -28 -10 -57 -13 -88c-9 -60 -17 -122 -22 -183c-4 -30 -7 -60 -10 -89c-2 -26 -6 -55 -14 -82s-19 -53 -36 -75c-15 -17 -36 -28 -58 -35c-23 -7 -47 -9 -69 -9s-46 2 -67 8
c-22 6 -40 18 -53 35h1c-20 30 -25 67 -25 105c0 16 1 34 2 51c10 119 18 244 20 361c-29 2 -64 6 -94 10z" />
    <glyph glyph-name="Yacute" unicode="&#xdd;" horiz-adv-x="754" 
d="M470 861l-36 -43c-10 -13 -21 -26 -33 -39c-12 -14 -26 -30 -44 -48c6 0 18 1 31 2c6 0 11 0 17 1h13c8 0 20 1 28 1c8 8 16 17 26 26l39 43l17 17c13 13 29 28 50 48c-12 -2 -32 -3 -51 -3c-9 -1 -18 -1 -27 -1c-10 -1 -17 -1 -23 -1zM176 725l-9 -14
c71 -150 130 -302 191 -455c-4 -39 -7 -79 -12 -119l-12 -119h11h12h12h10h35c17 0 43 0 60 -1c5 77 9 161 17 239c7 12 13 24 21 36c7 13 14 25 21 37c37 65 78 133 119 201s83 134 125 196l-38 -3c-25 -3 -53 -5 -78 -6c-78 -113 -152 -233 -224 -350
c-27 60 -53 118 -80 175c-26 58 -54 115 -84 173c-31 3 -65 6 -97 10z" />
    <glyph glyph-name="Thorn" unicode="&#xde;" horiz-adv-x="645" 
d="M581 488c9 -24 13 -50 13 -74c0 -31 -4 -66 -15 -99s-28 -65 -55 -88s-57 -37 -88 -44c-32 -8 -63 -10 -93 -10c-40 0 -71 -1 -112 -2c-2 -25 -5 -52 -9 -79c-2 -14 -4 -28 -5 -41c-2 -13 -4 -26 -5 -37l-37 -3c-5 -1 -10 -1 -17 -2c-6 0 -12 -1 -18 -2
c-13 -1 -26 -3 -36 -4c41 244 62 479 64 712l11 10c29 -5 57 -9 94 -10c-1 -14 -2 -29 -2 -47c-1 -17 -2 -32 -2 -45c-1 -6 -1 -11 -1 -16c-1 -4 -1 -9 -1 -16c37 -2 73 -2 111 -2c27 -1 55 -2 81 -7c27 -6 52 -15 75 -30c23 -18 38 -41 47 -64zM479 341c7 20 9 40 9 59
c0 41 -16 66 -38 82c-23 16 -52 21 -78 21c-37 0 -73 0 -110 2c-2 -21 -3 -42 -5 -62c-3 -41 -7 -82 -10 -122l-6 -63c18 0 36 1 54 1h54c32 0 67 6 92 28c19 15 31 34 38 54z" />
    <glyph glyph-name="germandbls" unicode="&#xdf;" horiz-adv-x="664" 
d="M135 543c-19 -175 -45 -355 -86 -540c10 1 21 2 34 4l37 3c26 2 51 4 71 5c15 173 24 351 28 523v-2c7 39 17 78 45 107v-1c25 24 58 29 91 29c27 0 56 -3 79 -14c25 -22 38 -56 49 -90c-21 -4 -43 -9 -64 -17s-41 -20 -57 -38c-28 -33 -38 -75 -38 -114
c0 -23 6 -44 16 -63c9 -20 22 -38 34 -56c11 -7 23 -16 34 -25c14 -10 30 -21 43 -34c12 -13 20 -29 20 -48c0 -22 -15 -35 -34 -42c-20 -8 -44 -9 -62 -9c-45 0 -92 10 -140 27l-7 -63c-2 -17 -5 -42 -6 -59c45 -12 89 -20 132 -22c23 0 46 1 70 5c23 4 48 11 73 24
c26 14 44 37 54 62s14 52 14 78c0 40 -14 70 -34 96c-21 24 -48 44 -73 63c-2 1 -5 3 -7 6l-8 5v-1c-12 9 -26 18 -36 30c-11 12 -19 26 -19 42c0 36 23 62 53 78c31 17 69 26 100 28c1 14 2 27 2 43c0 42 -9 84 -40 124c-19 18 -41 29 -65 36c-23 7 -49 10 -74 10
c-29 0 -58 -2 -87 -8c-29 -7 -56 -18 -80 -38c-22 -18 -37 -41 -47 -66c-9 -25 -14 -53 -15 -78z" />
    <glyph glyph-name="agrave" unicode="&#xe0;" horiz-adv-x="623" 
d="M304 996l-7 4c-14 0 -33 1 -51 2c-18 0 -36 1 -49 2c15 -25 26 -47 36 -67c9 -19 17 -38 25 -56l14 -31c5 -11 10 -22 14 -31h22c8 0 18 0 29 -1c10 0 21 0 32 -1c11 0 22 -1 33 -1c10 -1 20 -1 28 -2c-18 22 -33 42 -45 61c-25 36 -43 64 -58 87c-7 12 -15 23 -23 34z
M506 309c2 17 3 35 3 53c0 47 -9 94 -42 133c-21 20 -47 32 -74 40c-27 7 -58 9 -85 9c-59 0 -121 -12 -183 -31c-2 -14 -2 -28 -2 -41v-8c-1 -4 -1 -8 -1 -12v-11c-1 -4 -1 -7 -1 -9c60 28 118 40 172 40c36 -3 74 -13 104 -36c16 -17 23 -42 23 -65v-7c-1 -5 -1 -8 -1 -11
c-1 -1 -1 -3 -1 -4v-4h-54h-55c-51 0 -101 -6 -153 -32c-34 -17 -57 -45 -73 -77c-15 -32 -21 -69 -21 -101c0 -35 9 -69 32 -94c31 -31 74 -40 117 -40c34 0 69 4 102 16c32 12 61 30 86 58c-1 -5 -1 -9 -1 -10v-4v-4v-9l-1 -37l48 -3c18 -2 36 -3 48 -5l-1 54
c0 84 5 167 14 252zM366 274v-7c-1 -1 -1 -3 -1 -6l-2 -12c-3 -33 -8 -66 -30 -90c-14 -9 -30 -14 -46 -17s-34 -4 -49 -4c-23 0 -45 3 -67 7c-18 4 -26 22 -26 41c2 25 13 52 35 67c8 4 16 8 25 11c17 5 36 8 54 8c10 1 18 1 28 1c2 0 4 0 6 1h6h67z" />
    <glyph glyph-name="aacute" unicode="&#xe1;" horiz-adv-x="623" 
d="M435 965l-7 -3c-23 -26 -44 -52 -66 -79c-16 -18 -34 -40 -53 -62c-20 -22 -39 -44 -55 -62c6 1 13 1 22 2c8 0 17 1 26 1c18 1 37 2 48 2c30 28 61 61 89 91c8 9 16 18 26 28l30 31c21 21 42 41 59 57c-16 -2 -38 -3 -60 -3c-11 -1 -22 -1 -32 -2c-10 0 -19 -1 -27 -1z
M506 309c2 17 3 35 3 53c0 47 -9 94 -42 133c-21 20 -47 32 -74 40c-27 7 -58 9 -85 9c-59 0 -121 -12 -183 -31c-2 -14 -2 -28 -2 -41v-8c-1 -4 -1 -8 -1 -12v-11c-1 -4 -1 -7 -1 -9c60 28 118 40 172 40c36 -3 74 -13 104 -36c16 -17 23 -42 23 -65v-7c-1 -5 -1 -8 -1 -11
c-1 -1 -1 -3 -1 -4v-4h-54h-55c-51 0 -101 -6 -153 -32c-34 -17 -57 -45 -73 -77c-15 -32 -21 -69 -21 -101c0 -35 9 -69 32 -94c31 -31 74 -40 117 -40c34 0 69 4 102 16c32 12 61 30 86 58c-1 -5 -1 -9 -1 -10v-4v-4v-9l-1 -37l48 -3c18 -2 36 -3 48 -5l-1 54
c0 84 5 167 14 252zM366 274v-7c-1 -1 -1 -3 -1 -6l-2 -12c-3 -33 -8 -66 -30 -90c-14 -9 -30 -14 -46 -17s-34 -4 -49 -4c-23 0 -45 3 -67 7c-18 4 -26 22 -26 41c2 25 13 52 35 67c8 4 16 8 25 11c17 5 36 8 54 8c10 1 18 1 28 1c2 0 4 0 6 1h6h67z" />
    <glyph glyph-name="acircumflex" unicode="&#xe2;" horiz-adv-x="674" 
d="M287 790l-20 -29c-7 -10 -14 -19 -20 -28c-14 -19 -26 -38 -42 -59c-17 -21 -36 -43 -60 -69l49 1l32 1c32 33 56 63 81 93h-1l13 16l9 -13c20 -32 40 -64 66 -96l31 -1l49 -1c-22 27 -39 53 -53 77s-26 47 -38 70l-19 38h-77zM506 309c2 17 3 35 3 53
c0 47 -9 94 -42 133c-21 20 -47 32 -74 40c-27 7 -58 9 -85 9c-59 0 -121 -12 -183 -31c-2 -14 -2 -28 -2 -41v-8c-1 -4 -1 -8 -1 -12v-11c-1 -4 -1 -7 -1 -9c60 28 118 40 172 40c36 -3 74 -13 104 -36c16 -17 23 -42 23 -65v-7c-1 -5 -1 -8 -1 -11c-1 -1 -1 -3 -1 -4v-4
h-54h-55c-51 0 -101 -6 -153 -32c-34 -17 -57 -45 -73 -77c-15 -32 -21 -69 -21 -101c0 -35 9 -69 32 -94c31 -31 74 -40 117 -40c34 0 69 4 102 16c32 12 61 30 86 58c-1 -5 -1 -9 -1 -10v-4v-4v-9l-1 -37l48 -3c18 -2 36 -3 48 -5l-1 54c0 84 5 167 14 252zM366 274v-7
c-1 -1 -1 -3 -1 -6l-2 -12c-3 -33 -8 -66 -30 -90c-14 -9 -30 -14 -46 -17s-34 -4 -49 -4c-23 0 -45 3 -67 7c-18 4 -26 22 -26 41c2 25 13 52 35 67c8 4 16 8 25 11c17 5 36 8 54 8c10 1 18 1 28 1c2 0 4 0 6 1h6h67z" />
    <glyph glyph-name="atilde" unicode="&#xe3;" horiz-adv-x="623" 
d="M323 851l22 -25c19 -19 43 -30 72 -30c26 0 43 11 56 28c14 17 22 39 32 62c2 6 6 16 11 26l6 14c2 5 4 9 5 12h-6h-10c-3 -1 -6 -1 -9 -1h-7h-20h-19c-4 -9 -6 -15 -7 -18s-3 -6 -4 -11c-8 -19 -17 -39 -34 -44c-10 2 -18 9 -25 16l-24 26c-19 19 -44 30 -72 30
c-27 0 -55 -19 -70 -50c-5 -11 -11 -26 -16 -38c-1 -2 -1 -3 -1 -3h2v-1c0 0 -1 -2 -2 -6c-2 -3 -4 -8 -7 -15c-4 -7 -9 -17 -15 -29h8h12h12h9c8 0 22 1 30 2c6 13 9 19 11 27v-1c3 10 7 20 13 28s12 15 20 17c10 -1 19 -8 27 -16zM506 309c2 17 3 35 3 53
c0 47 -9 94 -42 133c-21 20 -47 32 -74 40c-27 7 -58 9 -85 9c-59 0 -121 -12 -183 -31c-2 -14 -2 -28 -2 -41v-8c-1 -4 -1 -8 -1 -12v-11c-1 -4 -1 -7 -1 -9c60 28 118 40 172 40c36 -3 74 -13 104 -36c16 -17 23 -42 23 -65v-7c-1 -5 -1 -8 -1 -11c-1 -1 -1 -3 -1 -4v-4
h-54h-55c-51 0 -101 -6 -153 -32c-34 -17 -57 -45 -73 -77c-15 -32 -21 -69 -21 -101c0 -35 9 -69 32 -94c31 -31 74 -40 117 -40c34 0 69 4 102 16c32 12 61 30 86 58c-1 -5 -1 -9 -1 -10v-4v-4v-9l-1 -37l48 -3c18 -2 36 -3 48 -5l-1 54c0 84 5 167 14 252zM366 274v-7
c-1 -1 -1 -3 -1 -6l-2 -12c-3 -33 -8 -66 -30 -90c-14 -9 -30 -14 -46 -17s-34 -4 -49 -4c-23 0 -45 3 -67 7c-18 4 -26 22 -26 41c2 25 13 52 35 67c8 4 16 8 25 11c17 5 36 8 54 8c10 1 18 1 28 1c2 0 4 0 6 1h6h67z" />
    <glyph glyph-name="adieresis" unicode="&#xe4;" horiz-adv-x="623" 
d="M172 760l-9 -12c3 -11 4 -22 4 -34c0 -18 -5 -41 -20 -68c8 0 17 0 28 1h32c21 1 43 1 59 1c6 29 9 56 9 82l-1 28c-16 0 -33 0 -51 1c-18 0 -35 0 -51 1zM370 758l-8 -8c-6 -23 -9 -47 -9 -70c0 -8 0 -17 2 -31c15 -1 40 -2 55 -2l61 -1c-7 20 -11 35 -11 46
c0 18 8 42 21 68l-63 -1c-16 0 -32 -1 -48 -1zM506 309c2 17 3 35 3 53c0 47 -9 94 -42 133c-21 20 -47 32 -74 40c-27 7 -58 9 -85 9c-59 0 -121 -12 -183 -31c-2 -14 -2 -28 -2 -41v-8c-1 -4 -1 -8 -1 -12v-11c-1 -4 -1 -7 -1 -9c60 28 118 40 172 40
c36 -3 74 -13 104 -36c16 -17 23 -42 23 -65v-7c-1 -5 -1 -8 -1 -11c-1 -1 -1 -3 -1 -4v-4h-54h-55c-51 0 -101 -6 -153 -32c-34 -17 -57 -45 -73 -77c-15 -32 -21 -69 -21 -101c0 -35 9 -69 32 -94c31 -31 74 -40 117 -40c34 0 69 4 102 16c32 12 61 30 86 58
c-1 -5 -1 -9 -1 -10v-4v-4v-9l-1 -37l48 -3c18 -2 36 -3 48 -5l-1 54c0 84 5 167 14 252zM366 274v-7c-1 -1 -1 -3 -1 -6l-2 -12c-3 -33 -8 -66 -30 -90c-14 -9 -30 -14 -46 -17s-34 -4 -49 -4c-23 0 -45 3 -67 7c-18 4 -26 22 -26 41c2 25 13 52 35 67c8 4 16 8 25 11
c17 5 36 8 54 8c10 1 18 1 28 1c2 0 4 0 6 1h6h67z" />
    <glyph glyph-name="aring" unicode="&#xe5;" horiz-adv-x="623" 
d="M442 734v7v9c0 34 -12 63 -33 83s-49 31 -82 31c-43 0 -78 -16 -103 -43c-24 -26 -38 -63 -38 -102c0 -35 13 -64 33 -84s49 -31 83 -31c39 0 72 13 96 36c25 23 40 55 44 94zM377 738v-3c-4 -18 -11 -34 -23 -46s-28 -20 -47 -20c-32 0 -56 22 -56 56c0 21 8 39 20 52
s30 21 50 21c33 -2 56 -23 56 -56v-2v-2zM506 309c2 17 3 35 3 53c0 47 -9 94 -42 133c-21 20 -47 32 -74 40c-27 7 -58 9 -85 9c-59 0 -121 -12 -183 -31c-2 -14 -2 -28 -2 -41v-8c-1 -4 -1 -8 -1 -12v-11c-1 -4 -1 -7 -1 -9c60 28 118 40 172 40c36 -3 74 -13 104 -36
c16 -17 23 -42 23 -65v-7c-1 -5 -1 -8 -1 -11c-1 -1 -1 -3 -1 -4v-4h-54h-55c-51 0 -101 -6 -153 -32c-34 -17 -57 -45 -73 -77c-15 -32 -21 -69 -21 -101c0 -35 9 -69 32 -94c31 -31 74 -40 117 -40c34 0 69 4 102 16c32 12 61 30 86 58c-1 -5 -1 -9 -1 -10v-4v-4v-9
l-1 -37l48 -3c18 -2 36 -3 48 -5l-1 54c0 84 5 167 14 252zM366 274v-7c-1 -1 -1 -3 -1 -6l-2 -12c-3 -33 -8 -66 -30 -90c-14 -9 -30 -14 -46 -17s-34 -4 -49 -4c-23 0 -45 3 -67 7c-18 4 -26 22 -26 41c2 25 13 52 35 67c8 4 16 8 25 11c17 5 36 8 54 8c10 1 18 1 28 1
c2 0 4 0 6 1h6h67z" />
    <glyph glyph-name="ae" unicode="&#xe6;" horiz-adv-x="980" 
d="M854 480h-1c25 -35 36 -79 36 -123c0 -16 -2 -32 -4 -47c0 -5 -1 -10 -1 -17c-1 -7 -1 -13 -2 -17c-125 0 -248 -1 -373 -1c2 -36 17 -70 40 -96c16 -16 37 -27 59 -34c23 -8 47 -11 71 -11c55 0 116 16 177 49v-6v-10c-1 -3 -1 -6 -1 -9v-6v-14c0 -26 1 -55 5 -91
l-28 -10c-26 -10 -52 -19 -77 -26c-26 -8 -53 -12 -81 -12c-45 0 -91 7 -132 24c-40 18 -75 44 -99 82c-27 -35 -60 -62 -98 -80s-81 -27 -122 -27c-22 0 -46 2 -68 8s-42 16 -57 33c-20 23 -28 55 -28 86c0 14 1 27 3 40c5 28 11 59 22 87c10 29 26 56 51 77
c25 18 54 29 84 35s60 8 89 8h31c9 -1 19 -1 29 -1h51c0 1 0 2 1 2v2c0 25 -17 48 -33 68v-1c-26 30 -67 41 -108 41c-51 0 -107 -12 -162 -41c0 5 0 10 -1 16c0 7 0 13 -1 21c0 6 0 13 -1 20v15c57 20 115 32 170 32c37 0 76 -4 111 -17s66 -34 86 -66c29 30 63 51 101 64
c37 14 77 19 115 19c28 0 57 -4 83 -15c25 -10 47 -27 63 -51zM519 350h28c84 0 167 0 251 2c1 2 1 4 1 6v5c0 32 -9 64 -26 87c-18 24 -43 39 -75 39c-45 0 -90 -13 -125 -48c-26 -26 -45 -56 -54 -91zM424 296h-85c-42 -1 -85 -1 -126 -18c-17 -7 -28 -24 -35 -41
c-8 -18 -11 -38 -11 -54c0 -19 10 -34 26 -44c15 -10 35 -15 54 -15c45 0 89 9 125 40c17 16 29 35 37 57c8 21 12 45 14 67z" />
    <glyph glyph-name="ccedilla" unicode="&#xe7;" horiz-adv-x="593" 
d="M498 512l13 2c-2 -9 -4 -18 -5 -26c-2 -9 -4 -17 -5 -27v1l-4 -29c-45 23 -93 35 -136 35c-24 0 -48 -4 -71 -12c-24 -8 -45 -21 -61 -41c-18 -19 -29 -43 -37 -68c-8 -26 -13 -52 -15 -76c0 -17 2 -34 7 -49s13 -29 25 -38h-1c32 -21 72 -26 113 -29h-1l72 -2h5
c20 0 45 7 73 20c-1 -13 -2 -28 -2 -45c-1 -17 -1 -34 -1 -46c0 -17 0 -39 1 -56c-47 -17 -92 -25 -136 -26c4 -12 7 -25 7 -39s-3 -29 -10 -44c-7 -14 -17 -26 -31 -33c-29 -13 -61 -15 -85 -15c-25 0 -52 3 -81 9c3 14 7 36 9 50l3 23c25 -13 46 -16 65 -16h7h5
c11 0 24 4 32 11c9 7 15 17 15 29c0 9 -2 19 -6 29c-17 2 -34 6 -50 11c-35 10 -67 28 -90 58v-1c-18 22 -29 47 -37 74c-7 26 -9 54 -9 83c0 38 4 84 16 127s33 85 65 117c30 27 66 45 104 56c37 12 76 16 113 16c46 0 90 -8 132 -24z" />
    <glyph glyph-name="egrave" unicode="&#xe8;" horiz-adv-x="640" 
d="M263 640l-14 31c-8 18 -16 37 -25 56c-10 20 -21 42 -37 67c14 -1 32 -2 50 -2c18 -1 36 -2 50 -2l8 -4c8 -11 16 -22 23 -34c15 -23 32 -51 57 -87c12 -19 28 -39 46 -61c-8 1 -18 1 -29 2c-11 0 -21 1 -33 1c-11 1 -22 1 -32 1c-11 1 -20 1 -29 1h-21
c-5 9 -9 20 -14 31zM545 349v-5c-1 -2 -1 -4 -1 -6v-11h1c-1 -4 -1 -7 -1 -9c0 -3 0 -6 -1 -8l-2 -19c-79 -2 -164 -2 -243 -2c-11 0 -22 0 -33 1h-35h-58v-3c-1 -9 -1 -16 -1 -25c0 -19 2 -37 7 -54s13 -32 27 -42v1c40 -25 92 -32 139 -32h9c25 0 51 0 78 4
c27 3 55 10 85 25v-16c-1 -12 -1 -25 -1 -37v-16c0 -18 0 -43 1 -61c-68 -23 -135 -33 -200 -33c-33 3 -69 9 -103 20c-33 12 -66 29 -89 52c-19 21 -31 47 -39 74c-7 27 -11 56 -11 83c0 38 6 83 19 125c13 43 33 85 63 117c25 26 56 44 90 55c33 12 69 16 102 17
c27 -2 56 -5 83 -13s52 -20 72 -40c18 -19 28 -42 35 -66c5 -25 7 -51 7 -76zM234 371h47c62 0 125 1 187 2c-4 32 -16 62 -38 83c-21 21 -50 34 -85 34c-41 0 -83 -11 -114 -40c-23 -21 -40 -49 -44 -78c16 -1 32 -1 47 -1z" />
    <glyph glyph-name="eacute" unicode="&#xe9;" horiz-adv-x="640" 
d="M324 762c-9 0 -18 -1 -26 -1c-9 -1 -16 -1 -22 -2c16 18 35 40 55 62c19 22 37 44 53 62c22 27 43 53 66 79l7 3c8 0 17 1 27 1c10 1 21 1 32 2c22 0 44 1 60 3c-17 -16 -38 -36 -59 -57l-30 -31c-10 -10 -18 -19 -26 -28c-28 -30 -59 -63 -89 -91c-11 0 -30 -1 -48 -2z
M503 491c18 -19 28 -42 35 -66c5 -25 7 -51 7 -76v-5c-1 -2 -1 -4 -1 -6v-11h1c-1 -4 -1 -7 -1 -9c0 -3 0 -6 -1 -8l-2 -19c-79 -2 -164 -2 -243 -2c-11 0 -22 0 -33 1h-35h-58v-3c-1 -9 -1 -16 -1 -25c0 -19 2 -37 7 -54s13 -32 27 -42v1c40 -25 92 -32 139 -32h9
c25 0 51 0 78 4c27 3 55 10 85 25v-16c-1 -12 -1 -25 -1 -37v-16c0 -18 0 -43 1 -61c-68 -23 -135 -33 -200 -33c-33 3 -69 9 -103 20c-33 12 -66 29 -89 52c-19 21 -31 47 -39 74c-7 27 -11 56 -11 83c0 38 6 83 19 125c13 43 33 85 63 117c25 26 56 44 90 55
c33 12 69 16 102 17c27 -2 56 -5 83 -13s52 -20 72 -40zM234 371h47c62 0 125 1 187 2c-4 32 -16 62 -38 83c-21 21 -50 34 -85 34c-41 0 -83 -11 -114 -40c-23 -21 -40 -49 -44 -78c16 -1 32 -1 47 -1z" />
    <glyph glyph-name="ecircumflex" unicode="&#xea;" horiz-adv-x="640" 
d="M186 558l-50 -1c25 26 44 48 60 69s29 40 42 59c7 8 13 18 21 28c7 10 13 19 20 28h76l20 -37c11 -24 23 -47 38 -71c14 -24 31 -49 52 -76l-48 1l-32 1c-25 31 -46 64 -66 95l-8 14l-13 -17c-25 -29 -48 -59 -80 -92zM545 349v-5c-1 -2 -1 -4 -1 -6v-11h1
c-1 -4 -1 -7 -1 -9c0 -3 0 -6 -1 -8l-2 -19c-79 -2 -164 -2 -243 -2c-11 0 -22 0 -33 1h-35h-58v-3c-1 -9 -1 -16 -1 -25c0 -19 2 -37 7 -54s13 -32 27 -42v1c40 -25 92 -32 139 -32h9c25 0 51 0 78 4c27 3 55 10 85 25v-16c-1 -12 -1 -25 -1 -37v-16c0 -18 0 -43 1 -61
c-68 -23 -135 -33 -200 -33c-33 3 -69 9 -103 20c-33 12 -66 29 -89 52c-19 21 -31 47 -39 74c-7 27 -11 56 -11 83c0 38 6 83 19 125c13 43 33 85 63 117c25 26 56 44 90 55c33 12 69 16 102 17c27 -2 56 -5 83 -13s52 -20 72 -40c18 -19 28 -42 35 -66c5 -25 7 -51 7 -76z
M234 371h47c62 0 125 1 187 2c-4 32 -16 62 -38 83c-21 21 -50 34 -85 34c-41 0 -83 -11 -114 -40c-23 -21 -40 -49 -44 -78c16 -1 32 -1 47 -1z" />
    <glyph glyph-name="edieresis" unicode="&#xeb;" horiz-adv-x="640" 
d="M247 599h-33c-10 -1 -19 -1 -27 -1c15 27 20 50 20 68c0 11 -1 22 -4 33l9 12c16 0 33 -1 51 -1s35 0 50 -1c1 -5 1 -21 1 -27c0 -26 -2 -54 -8 -82c-16 0 -38 0 -59 -1zM511 598l-61 1c-15 0 -40 1 -55 2c-2 14 -2 23 -2 30c0 23 3 47 9 71l8 7c16 1 32 1 48 1l63 1
c-13 -25 -21 -49 -21 -67c0 -12 3 -27 11 -46zM545 349v-5c-1 -2 -1 -4 -1 -6v-11h1c-1 -4 -1 -7 -1 -9c0 -3 0 -6 -1 -8l-2 -19c-79 -2 -164 -2 -243 -2c-11 0 -22 0 -33 1h-35h-58v-3c-1 -9 -1 -16 -1 -25c0 -19 2 -37 7 -54s13 -32 27 -42v1c40 -25 92 -32 139 -32h9
c25 0 51 0 78 4c27 3 55 10 85 25v-16c-1 -12 -1 -25 -1 -37v-16c0 -18 0 -43 1 -61c-68 -23 -135 -33 -200 -33c-33 3 -69 9 -103 20c-33 12 -66 29 -89 52c-19 21 -31 47 -39 74c-7 27 -11 56 -11 83c0 38 6 83 19 125c13 43 33 85 63 117c25 26 56 44 90 55
c33 12 69 16 102 17c27 -2 56 -5 83 -13s52 -20 72 -40c18 -19 28 -42 35 -66c5 -25 7 -51 7 -76zM234 371h47c62 0 125 1 187 2c-4 32 -16 62 -38 83c-21 21 -50 34 -85 34c-41 0 -83 -11 -114 -40c-23 -21 -40 -49 -44 -78c16 -1 32 -1 47 -1z" />
    <glyph glyph-name="igrave" unicode="&#xec;" horiz-adv-x="575" 
d="M292 786l-7 4c-14 0 -33 1 -51 2c-18 0 -36 1 -49 2c15 -25 26 -47 36 -67c9 -19 17 -38 25 -56l14 -31c5 -11 10 -22 14 -31h22c8 0 18 0 29 -1c10 0 21 0 32 -1c11 0 22 -1 33 -1c10 -1 20 -1 28 -2c-18 22 -33 42 -45 61c-25 36 -43 64 -58 87c-7 12 -15 23 -23 34z
M409 541l-15 -8c-12 -174 -29 -362 -48 -535c22 11 40 17 52 17c13 0 27 -6 45 -17c6 86 14 181 22 276c9 95 18 189 27 275c-22 -12 -39 -18 -52 -18c-12 0 -22 3 -31 10z" />
    <glyph glyph-name="iacute" unicode="&#xed;" horiz-adv-x="331" 
d="M321 871l-7 -3c-23 -26 -44 -52 -66 -79c-16 -18 -34 -40 -53 -62c-20 -22 -39 -44 -55 -62c6 1 13 1 22 2c8 0 17 1 26 1c18 1 37 2 48 2c30 28 61 61 89 91c8 9 16 18 26 28l30 31c21 21 42 41 59 57c-16 -2 -38 -3 -60 -3c-11 -1 -22 -1 -32 -2c-10 0 -19 -1 -27 -1z
M144 541l-15 -8c-12 -174 -29 -362 -48 -535c22 11 40 17 52 17c13 0 27 -6 45 -17c6 86 14 181 22 276s18 189 27 275c-22 -12 -39 -18 -52 -18c-12 0 -22 3 -31 10z" />
    <glyph glyph-name="icircumflex" unicode="&#xee;" horiz-adv-x="537" 
d="M287 790l-20 -29c-7 -10 -14 -19 -20 -28c-14 -19 -26 -38 -42 -59c-17 -21 -36 -43 -60 -69l49 1l32 1c32 33 56 63 81 93h-1l13 16l9 -13c20 -32 40 -64 66 -96l31 -1l49 -1c-22 27 -39 53 -53 77s-26 47 -38 70l-19 38h-77zM371 541l-15 -8
c-12 -174 -29 -362 -48 -535c22 11 40 17 52 17c13 0 27 -6 45 -17c6 86 14 181 22 276c9 95 18 189 27 275c-22 -12 -39 -18 -52 -18c-12 0 -22 3 -31 10z" />
    <glyph glyph-name="idieresis" unicode="&#xef;" horiz-adv-x="476" 
d="M181 746l-9 -13c3 -10 4 -22 4 -33c0 -18 -5 -41 -20 -68c8 0 17 0 28 1h32c21 1 43 1 59 1c6 29 9 56 9 82l-1 28c-16 0 -33 0 -51 1c-18 0 -35 0 -51 1zM379 744l-8 -8c-6 -24 -9 -48 -9 -70c0 -8 0 -17 2 -31c15 -1 40 -2 55 -2l61 -1c-7 19 -11 35 -11 46
c0 18 8 42 21 68l-63 -1c-16 0 -32 -1 -48 -1zM283 541l-15 -8c-12 -174 -29 -362 -48 -535c22 11 40 17 52 17c13 0 27 -6 45 -17c6 86 14 181 22 276c9 95 18 189 27 275c-22 -12 -39 -18 -52 -18c-12 0 -22 3 -31 10z" />
    <glyph glyph-name="eth" unicode="&#xf0;" horiz-adv-x="621" 
d="M399 621l61 -78c55 -68 83 -148 83 -243c0 -39 -4 -80 -16 -119c-11 -40 -30 -78 -60 -109c-25 -24 -53 -40 -84 -51s-64 -16 -95 -16c-32 0 -65 5 -94 16c-30 10 -56 27 -77 51c-33 41 -43 93 -43 146c0 38 6 81 18 123c13 41 33 81 63 113c21 24 49 41 78 53
s60 17 90 17h12c6 0 11 -1 17 -1c2 -1 6 -1 11 -2l-21 27c-7 8 -12 15 -17 21c-5 7 -11 14 -17 21c-12 -3 -24 -7 -36 -11c-25 -8 -52 -15 -77 -22c-13 -4 -25 -7 -37 -11c-1 8 -6 25 -9 33l-5 23c31 8 71 19 103 28l25 8l-42 51c-7 9 -14 18 -21 26c-7 9 -13 16 -19 23
l60 -3c22 -1 44 -2 60 -2c4 -5 9 -10 14 -17c5 -6 9 -11 13 -17c10 -9 19 -21 27 -31l7 2c12 5 25 9 38 14c27 9 53 19 80 28l38 15l11 -54c-47 -19 -90 -35 -139 -52zM436 216c8 31 11 61 11 89c0 46 -6 91 -31 128v1l-3 2l3 -3c-27 9 -52 14 -80 14
c-41 0 -83 -15 -112 -47c-21 -24 -35 -52 -43 -83c-8 -30 -11 -62 -11 -89c0 -36 6 -68 25 -97c22 -33 61 -46 102 -45c38 0 77 17 102 46c18 24 29 54 37 84z" />
    <glyph glyph-name="ntilde" unicode="&#xf1;" horiz-adv-x="687" 
d="M312 636l22 -25c19 -20 43 -30 72 -30c26 0 43 10 56 27c14 17 22 39 32 63v-1c2 7 6 17 11 27l6 14c2 4 4 8 5 11h-6h-10h-9h-7h-20c-7 -1 -14 -1 -19 -1c-4 -8 -6 -14 -7 -17s-3 -7 -4 -11c-8 -19 -17 -40 -34 -44c-10 1 -18 8 -25 16l-24 25c-19 19 -44 31 -72 31
c-27 0 -55 -19 -70 -50c-5 -11 -11 -26 -16 -38l-1 -4h2c0 -1 -1 -3 -2 -6c-2 -3 -4 -9 -7 -16c-4 -6 -9 -16 -15 -28h8h12h12h9c8 0 22 1 30 2c6 13 9 19 11 26c3 10 7 19 13 28c6 8 12 15 20 17c10 -2 19 -8 27 -16zM556 327c0 12 1 24 1 36c0 38 -5 77 -22 116
c-13 24 -32 41 -55 51s-49 15 -75 15c-67 0 -124 -24 -180 -63v5c0 1 0 2 1 2v2v5l1 43c-6 1 -14 1 -22 2c-8 0 -17 1 -25 1c-18 2 -36 3 -48 5c-3 -182 -22 -362 -63 -544l31 3c23 2 46 3 69 5c11 0 21 1 31 2c10 97 17 200 21 298v-1c3 41 14 84 43 116c15 16 35 26 55 32
c21 6 43 8 63 8c14 0 27 -2 39 -7c13 -6 23 -14 31 -28v1c8 -19 10 -39 10 -60c0 -11 0 -22 -2 -33v-5v-4c-16 -103 -30 -214 -37 -317c19 -1 43 -2 67 -4s48 -3 67 -5c-5 55 -8 105 -8 153c0 57 3 113 7 170z" />
    <glyph glyph-name="ograve" unicode="&#xf2;" horiz-adv-x="633" 
d="M292 786l-7 4c-14 0 -33 1 -51 2c-18 0 -36 1 -49 2c15 -25 26 -47 36 -67c9 -19 17 -38 25 -56l14 -31c5 -11 10 -22 14 -31h22c8 0 18 0 29 -1c10 0 21 0 32 -1c11 0 22 -1 33 -1c10 -1 20 -1 28 -2c-18 22 -33 42 -45 61c-25 36 -43 64 -58 87c-7 12 -15 23 -23 34z
M348 544c-31 0 -65 -5 -97 -17c-31 -11 -62 -28 -85 -52c-31 -35 -50 -79 -61 -123c-11 -45 -15 -91 -15 -130c0 -54 9 -108 41 -151c18 -27 45 -44 75 -54c29 -11 62 -16 93 -16c32 0 66 5 98 16c33 11 62 28 86 54c30 35 49 79 60 124c12 45 16 91 16 130
c0 53 -10 106 -41 149c-19 27 -46 45 -75 55c-30 11 -63 15 -95 15zM343 472c39 0 77 -16 96 -48c18 -30 24 -68 24 -105c0 -18 -1 -46 -6 -73c-7 -27 -19 -53 -40 -68c-31 -18 -68 -23 -104 -23c-35 0 -70 3 -100 22h1c-22 17 -26 45 -26 73s2 60 10 90c7 30 19 59 38 84
c26 33 67 48 107 48z" />
    <glyph glyph-name="oacute" unicode="&#xf3;" horiz-adv-x="619" 
d="M454 965l-7 -3c-23 -26 -44 -52 -66 -79c-16 -18 -34 -40 -53 -62c-20 -22 -39 -44 -55 -62c6 1 13 1 22 2c8 0 17 1 26 1c18 1 37 2 48 2c30 28 61 61 89 91c8 9 16 18 26 28l30 31c21 21 42 41 59 57c-16 -2 -38 -3 -60 -3c-11 -1 -22 -1 -32 -2c-10 0 -19 -1 -27 -1z
M334 544c-31 0 -65 -5 -97 -17c-31 -11 -62 -28 -86 -52c-30 -35 -49 -79 -60 -123c-11 -45 -15 -91 -15 -130c0 -54 9 -108 41 -151c18 -27 45 -44 74 -54c30 -11 63 -16 94 -16c32 0 66 5 98 16c33 11 62 28 86 54c30 35 49 79 60 124c12 45 15 91 15 130
c0 53 -9 106 -40 149c-20 27 -46 45 -75 55c-30 11 -63 15 -95 15zM329 472c39 0 77 -16 96 -48c18 -30 24 -68 24 -105c0 -18 -1 -46 -7 -73s-18 -53 -40 -68h1c-31 -18 -69 -23 -104 -23s-70 3 -100 22h1c-22 17 -26 45 -26 73s2 60 10 90c7 30 19 59 38 84
c26 33 67 48 107 48z" />
    <glyph glyph-name="ocircumflex" unicode="&#xf4;" horiz-adv-x="619" 
d="M311 790l-20 -29c-7 -10 -14 -19 -20 -28c-14 -19 -26 -38 -42 -59c-17 -21 -36 -43 -61 -69l50 1l32 1c32 33 56 63 81 93h-1l13 16l9 -13c20 -32 40 -64 65 -96l32 -1l49 -1c-22 27 -39 53 -53 77s-27 47 -38 70l-19 38h-77zM334 544c-31 0 -65 -5 -97 -17
c-31 -11 -62 -28 -86 -52c-30 -35 -49 -79 -60 -123c-11 -45 -15 -91 -15 -130c0 -54 9 -108 41 -151c18 -27 45 -44 74 -54c30 -11 63 -16 94 -16c32 0 66 5 98 16c33 11 62 28 86 54c30 35 49 79 60 124c12 45 15 91 15 130c0 53 -9 106 -40 149c-20 27 -46 45 -75 55
c-30 11 -63 15 -95 15zM329 472c39 0 77 -16 96 -48c18 -30 24 -68 24 -105c0 -18 -1 -46 -7 -73s-18 -53 -40 -68h1c-31 -18 -69 -23 -104 -23s-70 3 -100 22h1c-22 17 -26 45 -26 73s2 60 10 90c7 30 19 59 38 84c26 33 67 48 107 48z" />
    <glyph glyph-name="otilde" unicode="&#xf5;" horiz-adv-x="619" 
d="M331 636l23 -25c19 -20 43 -30 72 -30c26 0 43 10 56 27s22 39 31 63v-1l11 27c2 5 4 10 6 14s4 8 6 11h-7h-9h-10h-7h-19c-7 -1 -14 -1 -20 -1c-3 -8 -6 -14 -6 -17c-2 -3 -3 -7 -5 -11c-7 -19 -16 -40 -34 -44c-9 1 -17 8 -24 16l-24 25c-19 19 -44 31 -72 31
s-55 -19 -70 -50c-6 -11 -12 -26 -16 -38c-1 -3 -2 -4 -1 -4c0 0 1 0 1 1c1 0 1 -1 1 -1c-1 -1 -1 -3 -3 -6c-1 -3 -3 -9 -7 -16c-3 -6 -8 -16 -15 -28h9h11h12h9c9 0 22 1 31 2c6 13 8 19 10 26c4 10 8 19 14 28c5 8 11 15 20 17c9 -2 18 -8 26 -16zM334 544
c-31 0 -65 -5 -97 -17c-31 -11 -62 -28 -86 -52c-30 -35 -49 -79 -60 -123c-11 -45 -15 -91 -15 -130c0 -54 9 -108 41 -151c18 -27 45 -44 74 -54c30 -11 63 -16 94 -16c32 0 66 5 98 16c33 11 62 28 86 54c30 35 49 79 60 124c12 45 15 91 15 130c0 53 -9 106 -40 149
c-20 27 -46 45 -75 55c-30 11 -63 15 -95 15zM329 472c39 0 77 -16 96 -48c18 -30 24 -68 24 -105c0 -18 -1 -46 -7 -73s-18 -53 -40 -68h1c-31 -18 -69 -23 -104 -23s-70 3 -100 22h1c-22 17 -26 45 -26 73s2 60 10 90c7 30 19 59 38 84c26 33 67 48 107 48z" />
    <glyph glyph-name="odieresis" unicode="&#xf6;" horiz-adv-x="619" 
d="M244 663l-9 -12c3 -11 4 -22 4 -33c0 -18 -5 -41 -20 -69c8 1 17 1 28 1c10 0 21 0 32 1c21 0 43 1 59 1c6 28 9 55 9 81l-1 28c-16 1 -33 1 -51 1s-35 1 -51 1zM442 661l-8 -7c-6 -24 -9 -48 -9 -71c0 -8 0 -17 2 -31l55 -1l61 -1c-7 19 -11 34 -11 45c0 18 8 42 21 68
l-63 -1c-16 0 -32 0 -48 -1zM334 544c-31 0 -65 -5 -97 -17c-31 -11 -62 -28 -86 -52c-30 -35 -49 -79 -60 -123c-11 -45 -15 -91 -15 -130c0 -54 9 -108 41 -151c18 -27 45 -44 74 -54c30 -11 63 -16 94 -16c32 0 66 5 98 16c33 11 62 28 86 54c30 35 49 79 60 124
c12 45 15 91 15 130c0 53 -9 106 -40 149c-20 27 -46 45 -75 55c-30 11 -63 15 -95 15zM329 472c39 0 77 -16 96 -48c18 -30 24 -68 24 -105c0 -18 -1 -46 -7 -73s-18 -53 -40 -68h1c-31 -18 -69 -23 -104 -23s-70 3 -100 22h1c-22 17 -26 45 -26 73s2 60 10 90
c7 30 19 59 38 84c26 33 67 48 107 48z" />
    <glyph glyph-name="divide" unicode="&#xf7;" horiz-adv-x="764" 
d="M345 568l-10 -9c-2 -43 -5 -95 -9 -137h18c6 -1 12 -1 19 -1h19h17h36c13 0 25 0 35 1c1 10 3 22 4 35c2 12 3 24 5 38c1 13 2 26 4 38c1 12 3 24 4 35h-20c-8 -1 -15 -1 -23 -1h-23h-21h-27c-9 0 -19 0 -28 1zM100 360l-10 -9c-1 -16 -2 -34 -4 -53
c-1 -19 -3 -36 -4 -52c113 1 235 2 349 2c82 0 173 0 255 -2c0 16 2 37 4 57l3 30c0 10 1 19 2 27c-105 -2 -218 -3 -323 -3c-91 0 -181 1 -272 3zM298 111l-9 -73h49c6 0 13 0 19 1h19c20 0 46 -1 65 -1c0 21 2 46 4 72c1 26 3 52 5 73h-42c-5 0 -11 0 -15 1h-17h-30h-16
c-5 -1 -10 -1 -16 -1l-9 -9z" />
    <glyph glyph-name="oslash" unicode="&#xf8;" horiz-adv-x="619" 
d="M599 543l-28 -29c-10 -12 -19 -22 -28 -31v1c-5 -6 -9 -11 -13 -15c-3 -4 -8 -9 -13 -15c19 -39 27 -89 27 -134c0 -39 -4 -84 -16 -128c-11 -44 -30 -87 -60 -121c-24 -25 -53 -42 -84 -53c-32 -12 -65 -17 -96 -17c-52 0 -103 12 -142 43l-23 -24
c-15 -16 -27 -28 -39 -41c-6 -7 -12 -13 -16 -17l-20 17c-4 3 -8 7 -13 12c-6 5 -10 9 -14 11l29 30c10 11 19 21 27 30l28 30c-22 41 -28 89 -28 136c0 38 4 84 15 127s30 86 60 120c24 24 55 41 86 52c32 12 67 16 98 16c51 0 100 -10 139 -41l33 34l44 48
c8 -6 22 -19 30 -25h-1zM171 232c0 -21 1 -41 7 -60l49 55c16 18 33 37 49 55c45 51 89 100 135 150c-23 22 -53 31 -87 31c-18 0 -38 -5 -56 -14s-35 -21 -47 -36c-19 -26 -32 -58 -39 -89c-8 -32 -11 -63 -11 -92zM439 223c7 32 9 66 9 95c0 19 -1 37 -7 55l-50 -56
c-16 -19 -33 -38 -50 -57c-23 -26 -45 -50 -66 -73c-21 -24 -43 -49 -66 -74c22 -22 53 -31 86 -31c39 0 79 17 102 50c22 26 34 57 42 91z" />
    <glyph glyph-name="ugrave" unicode="&#xf9;" horiz-adv-x="661" 
d="M283 738l-8 3c-13 0 -32 1 -50 2l-50 3c16 -26 27 -48 37 -67l25 -56c4 -9 9 -20 14 -31l14 -31h22c8 0 18 0 28 -1c11 0 21 0 33 -1c11 0 22 -1 32 -1c11 -1 21 -1 29 -2c-18 22 -34 42 -46 60c-25 37 -42 65 -57 88c-7 11 -15 23 -23 34zM117 219c-2 -16 -3 -33 -3 -50
c0 -35 5 -69 20 -104c12 -23 33 -40 56 -50c24 -10 50 -15 77 -15h13c61 0 119 31 160 78c-2 -21 -3 -47 -5 -67c6 0 14 0 22 -1c17 -1 35 -2 52 -4c8 0 15 -1 22 -1c0 179 20 358 59 539c-15 -2 -35 -3 -56 -5c-20 -2 -41 -3 -56 -4c-13 -72 -25 -150 -33 -222
c-7 -42 -21 -84 -50 -116c-29 -31 -68 -41 -107 -41c-28 0 -56 10 -72 39v-1c-12 26 -15 56 -15 85v4v5v6c6 79 10 164 11 242l-35 3l-10 1c-5 1 -9 1 -13 2c-5 0 -8 0 -12 1c-4 0 -8 0 -11 1v-32c0 -4 0 -7 1 -11v-10c0 -92 -6 -181 -15 -272z" />
    <glyph glyph-name="uacute" unicode="&#xfa;" horiz-adv-x="661" 
d="M476 965l-7 -3c-23 -26 -44 -52 -66 -79c-16 -18 -34 -40 -53 -62c-20 -22 -39 -44 -55 -62c6 1 13 1 22 2c8 0 17 1 26 1c18 1 37 2 48 2c30 28 61 61 89 91c8 9 16 18 26 28l30 31c21 21 42 41 59 57c-16 -2 -38 -3 -60 -3c-11 -1 -22 -1 -32 -2c-10 0 -19 -1 -27 -1z
M117 219c-2 -16 -3 -33 -3 -50c0 -35 5 -69 20 -104c12 -23 33 -40 56 -50c24 -10 50 -15 77 -15h13c61 0 119 31 160 78c-2 -21 -3 -47 -5 -67c6 0 14 0 22 -1c17 -1 35 -2 52 -4c8 0 15 -1 22 -1c0 179 20 358 59 539c-15 -2 -35 -3 -56 -5c-20 -2 -41 -3 -56 -4
c-13 -72 -25 -150 -33 -222c-7 -42 -21 -84 -50 -116c-29 -31 -68 -41 -107 -41c-28 0 -56 10 -72 39v-1c-12 26 -15 56 -15 85v4v5v6c6 79 10 164 11 242l-35 3l-10 1c-5 1 -9 1 -13 2c-5 0 -8 0 -12 1c-4 0 -8 0 -11 1v-32c0 -4 0 -7 1 -11v-10c0 -92 -6 -181 -15 -272z
" />
    <glyph glyph-name="ucircumflex" unicode="&#xfb;" horiz-adv-x="681" 
d="M287 790l-20 -29c-7 -10 -14 -19 -20 -28c-14 -19 -26 -38 -42 -59c-17 -21 -36 -43 -60 -69l49 1l32 1c32 33 56 63 81 93h-1l13 16l9 -13c20 -32 40 -64 66 -96l31 -1l49 -1c-22 27 -39 53 -53 77s-26 47 -38 70l-19 38h-77zM137 219c-2 -16 -3 -33 -3 -50
c0 -35 5 -69 20 -104c12 -23 33 -40 56 -50c24 -10 50 -15 77 -15h13c61 0 119 31 160 78c-2 -21 -3 -47 -5 -67c6 0 14 0 22 -1c17 -1 35 -2 52 -4c8 0 15 -1 22 -1c0 179 20 358 59 539c-15 -2 -35 -3 -56 -5c-20 -2 -41 -3 -56 -4c-13 -72 -25 -150 -33 -222
c-7 -42 -21 -84 -50 -116c-29 -31 -68 -41 -107 -41c-28 0 -56 10 -72 39v-1c-12 26 -15 56 -15 85v4v5v6c6 79 10 164 11 242l-35 3l-10 1c-5 1 -9 1 -13 2c-5 0 -8 0 -12 1c-4 0 -8 0 -11 1v-32c0 -4 0 -7 1 -11v-10c0 -92 -6 -181 -15 -272z" />
    <glyph glyph-name="udieresis" unicode="&#xfc;" horiz-adv-x="661" 
d="M250 711l-10 -12c3 -11 5 -22 5 -33c0 -18 -6 -41 -21 -68c8 0 18 0 28 1h32c22 1 44 1 59 1c6 28 9 56 9 82c0 6 0 22 -1 27c-16 1 -33 1 -51 1s-35 1 -50 1zM448 709l-9 -7c-5 -24 -9 -48 -9 -71c0 -7 0 -16 2 -30c16 -1 40 -2 56 -2l60 -1c-7 19 -10 34 -10 46
c0 18 7 42 21 67l-64 -1c-16 0 -32 0 -47 -1zM117 219c-2 -16 -3 -33 -3 -50c0 -35 5 -69 20 -104c12 -23 33 -40 56 -50c24 -10 50 -15 77 -15h13c61 0 119 31 160 78c-2 -21 -3 -47 -5 -67c6 0 14 0 22 -1c17 -1 35 -2 52 -4c8 0 15 -1 22 -1c0 179 20 358 59 539
c-15 -2 -35 -3 -56 -5c-20 -2 -41 -3 -56 -4c-13 -72 -25 -150 -33 -222c-7 -42 -21 -84 -50 -116c-29 -31 -68 -41 -107 -41c-28 0 -56 10 -72 39v-1c-12 26 -15 56 -15 85v4v5v6c6 79 10 164 11 242l-35 3l-10 1c-5 1 -9 1 -13 2c-5 0 -8 0 -12 1c-4 0 -8 0 -11 1v-32
c0 -4 0 -7 1 -11v-10c0 -92 -6 -181 -15 -272z" />
    <glyph glyph-name="yacute" unicode="&#xfd;" horiz-adv-x="679" 
d="M360 789l-7 -3c-23 -26 -44 -52 -66 -79c-16 -18 -34 -40 -53 -62c-20 -22 -39 -44 -55 -62c6 1 13 1 22 2c8 0 17 1 26 1c18 1 37 2 48 2c30 28 61 61 89 91c8 9 16 18 26 28l30 31c21 21 42 41 59 57c-16 -2 -38 -3 -60 -3c-11 -1 -22 -1 -32 -2c-10 0 -19 -1 -27 -1z
M384 -34l59 129c68 147 143 306 221 449c-7 -1 -15 -2 -24 -2l-29 -3c-20 -3 -39 -5 -53 -6c-57 -94 -116 -199 -168 -295c-26 52 -52 100 -77 148c-26 49 -52 96 -80 147c-14 0 -32 3 -51 5c-18 2 -37 4 -51 6c30 -69 60 -146 90 -224l85 -227l13 -35l-9 -16
c-11 -18 -22 -37 -32 -55c-15 -16 -29 -31 -46 -45c-23 -17 -50 -18 -80 -19c-4 -1 -10 -1 -17 -1c-8 -1 -14 -1 -18 -2c-1 -7 -3 -15 -4 -24c-2 -10 -3 -18 -4 -25c-2 -10 -4 -24 -5 -38c-3 -13 -5 -27 -7 -37c3 0 7 1 11 1l29 3c4 0 9 0 12 1c24 1 48 3 71 8
c23 4 46 12 67 27c23 18 41 39 56 61s29 46 41 69z" />
    <glyph glyph-name="thorn" unicode="&#xfe;" horiz-adv-x="677" 
d="M363 1h13c28 0 57 7 83 19c27 12 50 30 69 53h-1c30 35 49 75 60 118s15 86 15 126c0 56 -10 109 -40 154c-30 46 -83 71 -139 71h-13c-58 0 -116 -30 -155 -75c2 25 4 48 5 70c3 43 5 85 7 129c1 22 2 44 4 69c-14 1 -31 4 -48 7c-9 1 -17 2 -26 4c-8 1 -15 2 -22 4
c-8 -313 -35 -630 -83 -947c15 1 22 2 27 3c21 4 44 6 71 8c11 85 21 174 31 260c14 -25 34 -43 59 -55s54 -18 83 -18zM506 273c-4 -43 -15 -91 -39 -128s-59 -64 -109 -64c-39 0 -78 13 -96 48c-19 31 -25 67 -25 105c0 29 3 60 11 92c7 31 20 62 40 87c23 31 61 49 98 49
c43 0 74 -17 93 -45c20 -27 29 -65 29 -106c0 -14 -1 -25 -2 -38z" />
    <glyph glyph-name="ydieresis" unicode="&#xff;" horiz-adv-x="679" 
d="M280 711l-9 -12c2 -11 4 -22 4 -33c0 -18 -5 -41 -21 -68c9 0 18 0 28 1h32c22 1 44 1 60 1c5 28 8 56 8 82c0 6 0 22 -1 27c-15 1 -32 1 -50 1s-36 1 -51 1zM478 709l-8 -7c-6 -24 -10 -48 -10 -71c0 -7 0 -16 2 -30c16 -1 40 -2 56 -2l61 -1c-8 19 -11 34 -11 46
c0 18 8 42 21 67l-64 -1c-15 0 -31 0 -47 -1zM384 -34l59 129c68 147 143 306 221 449c-7 -1 -15 -2 -24 -2l-29 -3c-20 -3 -39 -5 -53 -6c-57 -94 -116 -199 -168 -295c-26 52 -52 100 -77 148c-26 49 -52 96 -80 147c-14 0 -32 3 -51 5c-18 2 -37 4 -51 6
c30 -69 60 -146 90 -224l85 -227l13 -35l-9 -16c-11 -18 -22 -37 -32 -55c-15 -16 -29 -31 -46 -45c-23 -17 -50 -18 -80 -19c-4 -1 -10 -1 -17 -1c-8 -1 -14 -1 -18 -2c-1 -7 -3 -15 -4 -24c-2 -10 -3 -18 -4 -25c-2 -10 -4 -24 -5 -38c-3 -13 -5 -27 -7 -37c3 0 7 1 11 1
l29 3c4 0 9 0 12 1c24 1 48 3 71 8c23 4 46 12 67 27c23 18 41 39 56 61s29 46 41 69z" />
    <glyph glyph-name="Cacute" unicode="&#x106;" horiz-adv-x="747" 
d="M397 910l-36 -43c-10 -13 -21 -26 -32 -39c-13 -15 -27 -30 -44 -48c6 0 18 1 30 2c6 0 12 0 17 1h13c8 0 20 1 28 1l26 26c18 19 30 32 39 43c5 5 11 11 18 17c12 13 28 28 49 47c-12 -1 -31 -2 -50 -2c-10 -1 -19 -1 -28 -1c-10 -1 -17 -1 -23 -1zM670 663l9 5
c-58 41 -131 55 -203 55c-47 0 -97 -5 -144 -19c-48 -15 -93 -39 -130 -75c-41 -42 -67 -98 -84 -154c-16 -58 -23 -117 -23 -167c0 -38 4 -77 13 -112c10 -36 25 -70 48 -99c32 -35 72 -58 116 -73c44 -14 92 -20 139 -20c73 0 149 15 218 58v21c0 22 1 51 2 80
c1 28 1 57 3 80c-33 -29 -69 -51 -104 -66c-36 -15 -73 -23 -107 -23c-30 0 -63 2 -94 9c-31 6 -60 17 -84 37v-1c-17 16 -28 36 -35 58s-9 46 -9 71c0 39 4 83 16 126s32 83 65 118h-1c26 26 57 42 90 52c33 9 67 13 100 13c69 0 139 -29 194 -84c2 15 4 35 8 55
c1 10 3 19 5 29c1 9 3 18 4 25z" />
    <glyph glyph-name="cacute" unicode="&#x107;" horiz-adv-x="593" 
d="M345 789l-7 -3c-23 -26 -44 -52 -66 -79l-53 -62c-19 -22 -39 -44 -55 -62c6 1 13 1 22 2c8 0 17 1 26 1c18 1 37 2 49 2c29 28 61 61 88 91l26 28l31 31c21 21 41 41 58 57c-15 -2 -37 -3 -59 -3c-11 -1 -22 -1 -32 -2c-11 0 -20 -1 -28 -1zM498 512l8 9
c-42 16 -86 24 -132 24c-37 0 -76 -4 -113 -16c-38 -11 -74 -29 -104 -56c-32 -32 -53 -74 -65 -117s-16 -89 -16 -127c0 -29 2 -57 9 -83c8 -27 19 -52 37 -74v1c23 -30 55 -48 90 -58c35 -11 73 -15 109 -15c47 0 96 7 147 26c-1 17 -1 39 -1 56c0 12 0 29 1 46
c0 17 1 32 2 45c-28 -13 -53 -20 -73 -20h-5l-72 2h1c-41 3 -81 8 -113 29h1c-12 9 -20 23 -25 38s-7 32 -7 49c2 24 7 50 15 76c8 25 19 49 37 68c16 20 37 33 61 41c23 8 47 12 71 12c43 0 91 -12 136 -35l4 29v-1c1 10 3 18 5 27c1 8 3 17 5 26z" />
    <glyph glyph-name="Ccaron" unicode="&#x10c;" horiz-adv-x="747" 
d="M454 777l18 27c32 45 69 99 126 159l-53 -2h1l-32 -1c-30 -31 -52 -58 -75 -87l-18 -23l-1 1c-23 36 -44 71 -73 109h-17c-8 1 -15 1 -22 1c-16 0 -31 1 -40 2c40 -55 63 -98 86 -143l23 -43h77zM670 663l9 5c-58 41 -131 55 -203 55c-47 0 -97 -5 -144 -19
c-48 -15 -93 -39 -130 -75c-41 -42 -67 -98 -84 -154c-16 -58 -23 -117 -23 -167c0 -38 4 -77 13 -112c10 -36 25 -70 48 -99c32 -35 72 -58 116 -73c44 -14 92 -20 139 -20c73 0 149 15 218 58v21c0 22 1 51 2 80c1 28 1 57 3 80c-33 -29 -69 -51 -104 -66
c-36 -15 -73 -23 -107 -23c-30 0 -63 2 -94 9c-31 6 -60 17 -84 37v-1c-17 16 -28 36 -35 58s-9 46 -9 71c0 39 4 83 16 126s32 83 65 118h-1c26 26 57 42 90 52c33 9 67 13 100 13c69 0 139 -29 194 -84c2 15 4 35 8 55c1 10 3 19 5 29c1 9 3 18 4 25z" />
    <glyph glyph-name="ccaron" unicode="&#x10d;" horiz-adv-x="621" 
d="M284 560h76c6 7 14 19 19 27c32 45 69 99 125 159l-52 -3h1l-32 -1c-30 -31 -52 -57 -75 -87l-18 -22l-1 1c-23 35 -44 71 -74 108c-4 0 -10 0 -17 1c-7 0 -14 0 -22 1c-15 0 -30 1 -40 2c41 -55 64 -99 87 -143zM526 512l9 9c-42 16 -87 24 -133 24
c-37 0 -76 -4 -113 -16c-38 -11 -74 -29 -103 -56c-33 -32 -54 -74 -65 -117c-13 -43 -17 -89 -17 -127c0 -29 2 -57 10 -83c7 -27 18 -52 36 -74v1c23 -30 55 -48 90 -58c35 -11 73 -15 109 -15c47 0 96 7 147 26c0 17 -1 39 -1 56c0 12 1 29 1 46c1 17 2 32 2 45
c-27 -13 -53 -20 -72 -20h-6l-71 2c-40 3 -81 8 -112 29c-12 9 -20 23 -25 38c-4 15 -7 32 -7 49c3 24 7 50 16 76c8 25 19 49 36 68c16 20 37 33 61 41c23 8 48 12 71 12c44 0 91 -12 136 -35l4 29v-1c2 10 4 18 5 27c2 8 3 17 5 26z" />
    <glyph glyph-name="dcroat" unicode="&#x111;" horiz-adv-x="649" 
d="M315 547h-12c-57 0 -114 -26 -151 -73l1 1c-31 -37 -51 -82 -63 -127c-11 -45 -15 -92 -15 -132c0 -51 8 -100 36 -141c14 -24 36 -42 60 -54c25 -11 52 -17 79 -17h5h2h3h6c61 0 121 31 161 79c0 -15 -1 -24 -1 -34v-14v-19c17 0 42 -2 60 -3l35 -2c2 201 20 400 45 593
l58 5h6h6c1 5 2 12 3 19l3 19l4 32l-71 -7c1 12 3 24 5 35l6 34l-28 -2c-21 -2 -48 -3 -69 -3l-10 -69c-25 -1 -50 -1 -75 -1h-75l-3 -33c0 -4 -1 -9 -1 -17c-1 -7 -1 -13 -1 -17c47 0 100 0 147 2c-2 -21 -5 -41 -6 -59l-6 -58l-1 -13c-15 25 -36 43 -61 56
c-25 14 -53 20 -82 20zM174 293c5 46 16 93 47 130c25 30 62 44 99 44c38 0 76 -12 97 -44c21 -29 26 -65 26 -101c0 -25 -2 -52 -9 -79c-8 -27 -20 -53 -38 -74c-29 -33 -69 -45 -110 -45c-36 0 -71 13 -90 43c-18 27 -24 60 -24 94c0 11 0 21 2 32z" />
    <glyph glyph-name="Gbreve" unicode="&#x11e;" horiz-adv-x="791" 
d="M347 820c-20 17 -29 36 -36 57c2 10 4 17 7 22c4 10 8 15 12 16c2 1 3 1 5 1c4 1 9 1 13 1c5 0 8 -1 10 -1l7 -7c10 -30 42 -45 75 -45h3h2h2h2h2h3c16 0 33 4 48 13c16 9 29 21 39 39c11 0 25 1 36 1h6h9h10h5l-15 -31c-11 -22 -20 -44 -41 -61c-18 -14 -36 -21 -54 -25
s-37 -5 -54 -5c-34 0 -69 4 -96 25zM306 894l5 -17c0 -2 -1 -3 -1 -3zM596 711c41 -8 79 -23 115 -46l-4 -26l-3 -17c-1 -8 -2 -15 -3 -22c-3 -14 -5 -29 -6 -39c-63 58 -142 85 -218 85c-33 0 -68 -4 -102 -14c-34 -9 -66 -25 -92 -49c-31 -33 -51 -74 -63 -116
s-16 -85 -16 -124c0 -25 1 -52 7 -76c7 -24 18 -46 37 -62v1c23 -18 53 -28 84 -34c30 -6 62 -8 93 -8c12 0 24 0 37 1c26 0 52 3 74 11c10 3 20 9 27 16l1 1c1 12 2 23 2 35c1 11 2 22 2 33c-23 1 -47 1 -71 1h-72l10 109h127c20 0 41 0 64 1h64c-9 -102 -14 -201 -14 -299
c-81 -51 -171 -68 -258 -68c-46 0 -96 5 -142 18c-45 14 -87 37 -119 73c-23 28 -37 61 -47 96c-10 36 -14 73 -14 109c0 52 5 113 21 172c16 58 42 115 87 158c35 33 81 57 128 71c47 15 97 21 142 21c41 0 82 -3 122 -12zM564 191l-1 -1c1 0 1 1 1 1z" />
    <glyph glyph-name="gbreve" unicode="&#x11f;" horiz-adv-x="633" 
d="M256 770l-8 7c-2 0 -6 1 -10 1c-4 -1 -8 -1 -12 -1c-8 0 -16 0 -18 -5l-18 -1l3 -10c1 -4 2 -8 3 -11c7 -28 14 -58 39 -87c25 -23 62 -28 97 -28c36 0 76 6 109 37c19 20 31 44 42 69l17 38h-6h-9c-4 -1 -6 -1 -9 -1h-6c-12 0 -28 -1 -37 -1c-8 -19 -21 -37 -37 -49
c-16 -13 -34 -21 -53 -21h-4s-1 0 -1 1h-2h-1c-1 -1 -2 -1 -2 -1h-3c-18 0 -35 6 -48 18c-13 11 -23 27 -26 45zM509 57l3 18c15 150 37 306 70 469l-66 -8l-32 -2l-13 -53c0 -2 -1 -6 -2 -9c-2 -4 -3 -7 -3 -11c-16 24 -39 43 -64 57c-26 14 -56 22 -86 22h-14
c-28 0 -57 -6 -84 -17s-51 -28 -71 -50c-27 -32 -44 -71 -54 -111c-10 -41 -14 -83 -14 -118c0 -56 10 -116 41 -162c14 -22 36 -40 60 -53c25 -12 52 -19 79 -19c63 0 118 22 161 67c-1 -6 -1 -12 -1 -16c-9 -32 -27 -60 -52 -85c-15 -18 -35 -28 -56 -35
c-21 -6 -44 -9 -65 -9c-47 0 -96 9 -144 37c-2 -12 -4 -25 -5 -39l-6 -43c-4 -29 -8 -58 -11 -82c54 -15 105 -19 154 -19c34 0 71 1 106 9s68 23 96 51c27 29 43 65 54 101c10 36 15 74 19 110zM407 281v1c-2 -19 -5 -40 -12 -60c-8 -19 -19 -37 -36 -48
c-32 -13 -69 -19 -104 -19c-16 0 -32 1 -48 3s-31 7 -43 15c-10 12 -16 27 -19 43c-4 15 -5 33 -6 50v7c-1 3 -1 5 -1 8c2 23 6 49 13 73c7 23 16 47 32 66c24 30 64 45 101 45s69 -12 91 -36c21 -24 34 -61 34 -112c0 -12 0 -24 -2 -36z" />
    <glyph glyph-name="Idotaccent" unicode="&#x130;" horiz-adv-x="355" 
d="M206 894v-13c0 -25 -4 -52 -10 -85c4 0 8 0 13 1h16c10 1 21 1 28 1c14 0 38 -1 52 -2c-1 6 -2 22 -2 28c0 22 4 50 11 81c-23 -3 -43 -4 -56 -4c-14 0 -28 1 -42 2zM188 716l-13 -8c-22 -232 -48 -478 -77 -710c27 13 49 20 66 20s37 -7 60 -20c6 116 14 240 24 364
c9 124 19 248 29 364c-23 -10 -41 -16 -55 -16c-12 0 -23 3 -34 6z" />
    <glyph glyph-name="dotlessi" unicode="&#x131;" horiz-adv-x="310" 
d="M144 541l-15 -8c-12 -174 -29 -362 -48 -535c22 11 40 17 52 17c13 0 27 -6 45 -17c6 86 14 181 22 276s18 189 27 275c-22 -12 -39 -18 -52 -18c-12 0 -22 3 -31 10z" />
    <glyph glyph-name="Lslash" unicode="&#x141;" horiz-adv-x="728" 
d="M215 715l-10 -10c-3 -117 -9 -228 -20 -345c-18 -12 -36 -25 -54 -38c-19 -13 -37 -26 -55 -38c5 -6 12 -20 16 -27c1 -4 4 -8 8 -14l10 -18l9 6c7 5 14 10 20 15c7 4 14 10 24 16c4 4 9 7 14 10c-10 -89 -20 -170 -33 -259c57 3 124 5 181 5c90 0 179 -5 273 -14l-1 46
v22v23c-96 8 -184 11 -271 11h-33h-32c3 21 5 41 7 61c4 39 8 78 11 117l6 60c12 9 25 17 37 25l36 25l116 78l-18 29l-19 30c-5 -4 -11 -8 -17 -11c-6 -5 -13 -9 -20 -13c-6 -5 -12 -9 -19 -13c-6 -5 -12 -9 -18 -13l-71 -46c9 95 14 181 20 276c-29 1 -67 2 -97 4z" />
    <glyph glyph-name="lslash" unicode="&#x142;" horiz-adv-x="404" 
d="M217 734l-10 -9c-8 -109 -16 -216 -26 -325l-21 -15l-36 -25c-14 -9 -26 -18 -38 -27l14 -23c5 -9 10 -17 19 -35c8 6 17 12 27 19c9 7 19 14 28 20c-4 -51 -8 -100 -13 -148l-8 -74c-2 -25 -5 -50 -7 -75c14 1 38 2 52 2c12 0 33 -1 45 -2c7 118 17 245 28 364
c31 21 67 46 98 69l-14 21c-6 9 -12 17 -20 35l-47 -34l-9 -6l6 68c4 45 8 88 13 133c2 22 4 45 7 68c-13 -2 -36 -2 -50 -2h-19c-6 0 -12 0 -19 1z" />
    <glyph glyph-name="OE" unicode="&#x152;" horiz-adv-x="1105" 
d="M1026 712l-9 12c-157 -10 -309 -14 -464 -14c-56 0 -117 0 -177 -11c-60 -12 -119 -34 -172 -77c-44 -39 -71 -93 -87 -149c-15 -56 -20 -115 -20 -164c0 -38 4 -77 15 -114c11 -36 29 -70 58 -99c40 -34 88 -54 139 -64c50 -11 104 -14 155 -14c169 0 344 -3 512 -14
c-7 53 -9 99 -11 143c-112 6 -231 7 -344 9l3 56c2 36 5 72 9 107c1 18 3 37 5 56l325 1c0 6 1 13 2 21l3 24c1 9 2 17 3 24c0 8 1 14 2 20c-52 -1 -107 -2 -163 -2c-28 0 -56 0 -84 -1h-80c1 16 2 31 4 46c1 14 3 29 5 44c3 29 6 58 10 89c117 2 230 5 347 12
c2 9 5 18 7 30c2 11 5 21 7 29zM506 641h55c-4 -42 -8 -82 -11 -122c-4 -41 -8 -81 -11 -121c-7 -80 -15 -160 -21 -242h-55c-37 0 -75 3 -111 12c-37 9 -70 24 -96 50c-33 33 -54 79 -54 128c0 6 1 12 1 18c4 37 9 77 22 115c12 37 30 72 59 99c31 25 68 40 107 50
c38 9 78 13 115 13z" />
    <glyph glyph-name="oe" unicode="&#x153;" horiz-adv-x="1021" 
d="M916 433c7 -18 12 -36 12 -56v-6v-7v-1c-1 -3 -1 -6 -2 -9c0 -3 0 -6 -1 -9l-3 -27c-125 -1 -249 -2 -374 -2v-11c0 -8 -1 -17 -1 -27v-16c0 -23 2 -46 7 -67c5 -22 13 -40 27 -56c35 -25 85 -32 130 -32c57 0 119 15 181 48v-26c0 -30 2 -62 5 -95
c-62 -24 -122 -35 -181 -35c-46 0 -91 5 -131 21c-40 15 -76 40 -102 77c-27 -34 -61 -58 -99 -74s-79 -24 -119 -24c-30 0 -60 4 -87 16c-28 11 -51 28 -66 55c-28 41 -34 92 -34 142c0 39 2 87 11 134c10 47 27 93 57 131c21 25 47 43 77 54c28 11 60 15 90 15
c40 0 79 -7 114 -24c34 -16 64 -40 84 -75c29 33 66 58 107 75c40 17 84 24 125 24c29 0 58 -4 84 -15c25 -10 47 -27 63 -51c9 -15 19 -30 26 -47zM559 386c76 0 151 0 228 2h51c0 10 -4 22 -8 33s-11 21 -16 30c-19 23 -51 37 -82 37c-43 0 -88 -12 -122 -41
c-20 -17 -41 -38 -51 -61zM439 245c8 26 12 53 12 78c0 39 -9 76 -28 107c-24 30 -60 48 -101 48h-5c-37 0 -75 -14 -98 -45c-18 -24 -29 -52 -35 -80c-6 -30 -8 -60 -8 -85c0 -36 6 -69 23 -99c18 -29 52 -44 88 -44c43 0 85 15 114 48c17 21 30 46 38 72z" />
    <glyph glyph-name="Scedilla" unicode="&#x15e;" horiz-adv-x="678" 
d="M598 690l-4 -28c-1 -5 -2 -10 -2 -16l-3 -19c-2 -12 -4 -24 -5 -34c-63 27 -127 44 -190 44c-38 0 -77 -5 -114 -24h1c-35 -23 -49 -56 -49 -90c0 -21 7 -43 20 -57c13 -10 29 -18 46 -23c17 -6 35 -10 51 -14l28 -6c49 -9 97 -20 140 -49c25 -18 43 -41 54 -66
c12 -26 17 -55 17 -83c0 -30 -4 -63 -14 -93c-11 -30 -30 -58 -57 -78c-34 -22 -69 -33 -104 -40c-33 -6 -66 -9 -98 -9c5 -14 8 -28 8 -44c0 -14 -3 -29 -10 -44c-7 -14 -17 -26 -31 -33c-30 -13 -61 -15 -85 -15c-25 0 -52 3 -81 9c3 14 7 36 9 50l3 23
c25 -13 46 -16 65 -16h7h5c11 0 24 4 32 11c9 7 15 17 15 29c0 10 -2 21 -7 32c-54 4 -108 14 -162 31c3 24 8 52 12 81c4 28 9 57 11 80c68 -39 140 -59 212 -59c41 0 85 7 121 30c10 6 22 16 30 26c9 10 15 21 15 33c0 33 -25 55 -57 71c-32 15 -71 23 -98 28l-16 4
c-26 5 -53 12 -77 22c-25 11 -48 25 -67 44c-28 32 -38 76 -38 119c0 28 5 59 16 87c11 27 29 52 56 71c28 20 59 31 91 38c31 8 64 10 96 10c69 0 137 -9 203 -26l-3 -6z" />
    <glyph glyph-name="scedilla" unicode="&#x15f;" horiz-adv-x="569" 
d="M481 517l-3 -26c-2 -7 -3 -16 -5 -26c0 -4 -1 -9 -2 -13c-1 -5 -1 -9 -2 -12c-55 25 -108 33 -160 33c-27 0 -58 -5 -81 -17c-24 -12 -42 -33 -42 -65c0 -28 19 -45 44 -57s56 -18 77 -22l9 -2c22 -6 44 -12 65 -19c20 -9 40 -20 56 -35c24 -23 32 -58 32 -89
c0 -24 -4 -50 -14 -72s-26 -42 -49 -56c-26 -17 -54 -26 -83 -31c-13 -3 -27 -4 -40 -5c5 -13 8 -27 8 -42c0 -14 -3 -29 -10 -44c-7 -14 -17 -26 -31 -33c-30 -13 -61 -15 -85 -15c-25 0 -52 3 -82 9c4 14 7 36 9 50l4 23c25 -13 46 -16 65 -16h6h5c12 0 24 4 33 11
s15 17 15 29c0 8 -2 17 -5 26c-51 2 -104 11 -157 24c4 20 7 45 11 69c3 25 7 49 9 69c55 -30 111 -45 167 -45h11c2 -1 4 -1 6 -1h6c20 0 44 4 64 13c19 10 34 25 36 49c-2 2 -2 3 -3 4c-3 5 -6 11 -9 17c-2 5 -5 10 -9 15c-12 9 -27 15 -43 20s-33 9 -48 12l-18 4
c-19 5 -38 10 -57 18c-18 7 -37 16 -51 30c-22 21 -28 55 -28 86c0 27 5 55 18 80c13 24 32 44 61 56c48 19 88 23 131 23c56 0 112 -3 165 -21l-8 -8z" />
    <glyph glyph-name="Scaron" unicode="&#x160;" horiz-adv-x="678" 
d="M449 796l18 27c32 45 69 99 126 159l-53 -2h1l-32 -1c-30 -31 -52 -58 -75 -87l-18 -23l-1 1c-23 36 -44 71 -73 109h-17c-8 1 -15 1 -22 1c-16 0 -31 1 -40 2c40 -55 63 -98 86 -143l23 -43h77zM590 691l3 6c-66 17 -134 26 -203 26c-32 0 -65 -2 -96 -10
c-32 -7 -63 -18 -91 -38c-27 -19 -45 -44 -56 -71c-11 -28 -16 -59 -16 -87c0 -43 10 -87 38 -119c19 -19 42 -33 67 -44c24 -10 51 -17 77 -22l16 -4c27 -5 66 -13 98 -28c32 -16 57 -38 57 -71c0 -12 -6 -23 -15 -33c-8 -10 -20 -20 -30 -26c-36 -23 -80 -30 -121 -30
c-72 0 -144 20 -212 59c-2 -23 -7 -52 -11 -80c-4 -29 -9 -57 -12 -81c74 -23 149 -33 224 -33c35 0 70 2 106 9c35 7 70 18 104 40c27 20 46 48 57 78c10 30 14 63 14 93c0 28 -5 57 -17 83c-11 25 -29 48 -54 66c-43 29 -91 40 -140 49l-28 6c-16 4 -34 8 -51 14
c-17 5 -33 13 -46 23c-13 14 -20 36 -20 57c0 34 14 67 49 90h-1c37 19 76 24 114 24c63 0 127 -17 190 -44c1 10 3 22 5 34l3 19c0 6 1 11 2 16l4 28z" />
    <glyph glyph-name="scaron" unicode="&#x161;" horiz-adv-x="569" 
d="M383 608l18 27c32 45 69 99 126 159l-53 -2h1l-32 -1c-30 -31 -52 -58 -75 -87l-18 -23l-1 1c-23 36 -44 71 -73 109h-17c-8 1 -15 1 -22 1c-16 0 -31 1 -40 2c40 -55 63 -98 86 -143l23 -43h77zM483 521l-6 2c-53 18 -109 21 -165 21c-43 0 -83 -4 -131 -23
c-29 -12 -48 -32 -61 -56c-13 -25 -18 -53 -18 -80c0 -31 6 -65 28 -86c14 -14 33 -23 51 -30c19 -8 38 -13 57 -18l18 -4c15 -3 32 -7 48 -12s33 -11 45 -20c7 -8 15 -20 19 -36c5 -25 -17 -39 -36 -49c-20 -9 -44 -13 -64 -13h-6c-2 0 -4 0 -6 1h-11
c-56 0 -112 15 -167 45c-2 -20 -6 -44 -9 -69c-4 -24 -7 -49 -11 -69c60 -15 121 -24 178 -24c28 0 57 1 87 7c29 5 57 14 83 31c23 14 39 34 49 56s14 48 14 72c0 31 -8 66 -32 89c-16 15 -36 26 -56 35c-21 7 -43 13 -65 19l-9 2c-21 4 -52 10 -77 22s-44 29 -44 57
c0 32 18 53 42 65c23 12 54 17 81 17c52 0 105 -8 160 -33c1 3 1 7 2 12c1 4 2 9 2 13c2 10 3 19 5 26z" />
    <glyph glyph-name="Ydieresis" unicode="&#x178;" horiz-adv-x="754" 
d="M534 900l-9 -6c-5 -23 -8 -44 -8 -66l1 -30h19h19h17c6 -1 12 -1 19 -1h18c7 -1 12 -1 17 -1c-6 19 -10 33 -10 43c0 17 8 39 20 64c-8 -1 -15 -1 -24 -1s-18 0 -28 -1c-18 0 -37 -1 -51 -1zM351 902l-10 -12c4 -10 5 -19 5 -31c0 -17 -5 -38 -18 -63c5 0 10 0 17 1h19
c7 0 13 0 20 1h16h18h19c5 28 9 53 9 77v4c-1 1 -1 2 -1 4v17c-14 1 -30 1 -47 1s-32 1 -47 1zM176 725l-9 -14c71 -150 130 -302 191 -455c-4 -39 -7 -79 -12 -119l-12 -119h11h12h12h10h35c17 0 43 0 60 -1c5 77 9 161 17 239c7 12 13 24 21 36c7 13 14 25 21 37
c37 65 78 133 119 201s83 134 125 196l-38 -3c-25 -3 -53 -5 -78 -6c-78 -113 -152 -233 -224 -350c-27 60 -53 118 -80 175c-26 58 -54 115 -84 173c-31 3 -65 6 -97 10z" />
    <glyph glyph-name="Zcaron" unicode="&#x17d;" horiz-adv-x="815" 
d="M463 777l18 27c32 45 69 99 126 159l-53 -2h1l-32 -1c-30 -31 -52 -58 -75 -87l-18 -23l-1 1c-23 36 -44 71 -73 109h-17c-8 1 -15 1 -22 1c-16 0 -31 1 -40 2c40 -55 63 -98 86 -143l23 -43h77zM167 714v-81c94 -8 181 -11 267 -11c50 0 101 1 152 3
c-82 -82 -159 -159 -235 -237c-77 -79 -153 -158 -232 -241c-4 -21 -8 -46 -13 -72c-4 -25 -9 -50 -13 -72c106 10 205 15 299 15c95 0 192 -5 293 -14c-1 29 -2 67 -2 96l1 57c-88 6 -184 9 -273 9c-53 0 -107 -1 -160 -3c21 21 41 40 59 59c37 37 72 74 109 111l58 60
c41 41 82 83 123 125c41 41 82 83 122 125l7 36c0 6 2 15 4 23l3 13c0 4 1 7 2 10c-104 -10 -203 -15 -295 -15c-89 0 -177 4 -265 13z" />
    <glyph glyph-name="zcaron" unicode="&#x17e;" horiz-adv-x="625" 
d="M356 608l18 27c32 45 69 99 126 159l-53 -2h1l-32 -1c-30 -31 -52 -58 -75 -87l-18 -23l-1 1c-23 36 -44 71 -73 109h-17c-8 1 -15 1 -22 1c-16 0 -31 1 -40 2c40 -55 63 -98 86 -143l23 -43h77zM128 530v-64c63 -5 123 -7 185 -7c37 0 74 0 111 2
c-29 -28 -59 -55 -87 -82l-84 -78c-56 -53 -111 -106 -170 -163l-11 -67c-4 -24 -9 -48 -13 -68c82 8 156 12 225 12c68 0 138 -4 212 -11c-1 22 -1 55 -1 77c0 14 0 36 1 50c-61 4 -132 6 -194 6h-39h-39c17 17 34 33 49 49c31 31 60 62 90 94c15 15 31 32 48 50
c20 20 40 41 60 63l61 62c1 6 3 13 4 21c2 7 3 15 5 24c2 15 5 31 8 43c-82 -8 -156 -12 -226 -12c-62 0 -123 3 -184 9z" />
    <glyph glyph-name="florin" unicode="&#x192;" horiz-adv-x="636" 
d="M646 723l5 7c-20 6 -41 8 -62 8h-10h-11h-5c-1 -1 -3 -1 -5 -1c-50 -2 -95 -25 -130 -59s-61 -80 -73 -125c-9 -31 -17 -60 -25 -92c-2 -8 -5 -17 -8 -27s-5 -19 -7 -27l-126 -9c-1 -9 -3 -25 -3 -36c-1 -2 -1 -5 -1 -8c0 -4 0 -8 -1 -11c0 -8 -1 -15 -1 -20l110 9
c-9 -41 -18 -79 -26 -117l-28 -117v1c-10 -33 -23 -67 -42 -94c-19 -26 -46 -45 -83 -45c-26 0 -54 11 -82 28l-18 -57c-10 -33 -24 -73 -35 -105c27 -10 52 -14 74 -14c69 0 135 24 185 75c31 31 52 70 67 109c15 40 25 81 35 121c2 12 5 25 9 37c3 13 5 26 8 38h-1
c12 48 22 93 32 141c48 4 94 7 141 11l8 76l-127 -12l19 71c4 12 7 23 10 35s7 24 11 37c8 33 22 63 44 85s51 36 86 36c19 0 41 -7 64 -22c0 2 1 5 1 10c1 7 3 16 4 24c0 4 1 7 1 10l6 30z" />
    <glyph glyph-name="circumflex" unicode="&#x2c6;" horiz-adv-x="476" 
d="M287 790l-20 -29c-7 -10 -14 -19 -20 -28c-14 -19 -26 -38 -42 -59c-17 -21 -36 -43 -60 -69l49 1l32 1c32 33 56 63 81 93h-1l13 16l9 -13c20 -32 40 -64 66 -96l31 -1l49 -1c-22 27 -39 53 -53 77s-26 47 -38 70l-19 38h-77z" />
    <glyph glyph-name="caron" unicode="&#x2c7;" horiz-adv-x="477" 
d="M371 608l18 27c32 45 69 99 126 159l-53 -2h1l-32 -1c-30 -31 -52 -58 -75 -87l-18 -23l-1 1c-23 36 -44 71 -73 109h-17c-8 1 -15 1 -22 1c-16 0 -31 1 -40 2c40 -55 63 -98 86 -143l23 -43h77z" />
    <glyph glyph-name="breve" unicode="&#x2d8;" horiz-adv-x="455" 
d="M246 770l-8 7c-3 0 -6 1 -10 1c-4 -1 -8 -1 -13 -1c-7 0 -15 0 -17 -5l-18 -1l3 -10c1 -4 2 -8 3 -11c6 -28 14 -58 39 -87c25 -23 62 -28 97 -28s76 6 109 37c19 20 30 44 42 69l16 38h-6h-8c-4 -1 -7 -1 -9 -1h-7c-11 0 -27 -1 -37 -1c-7 -19 -21 -37 -36 -49
c-16 -13 -34 -21 -53 -21h-4s-1 0 -1 1h-2h-1c-1 -1 -2 -1 -2 -1h-3c-18 0 -35 6 -49 18c-13 11 -22 27 -25 45z" />
    <glyph glyph-name="dotaccent" unicode="&#x2d9;" horiz-adv-x="266" 
d="M174 734v-4v-3c0 -21 -4 -49 -11 -82c4 0 8 0 14 1h16c11 0 21 1 29 1c7 0 16 -1 26 -1h13c5 -1 8 -1 11 -1v3v5v5v3v6c0 23 4 52 11 86c-23 -2 -43 -3 -56 -3c-14 0 -29 0 -43 2l-10 -9v-9z" />
    <glyph glyph-name="ring" unicode="&#x2da;" horiz-adv-x="404" 
d="M428 734v7v9c0 34 -12 63 -33 83s-49 31 -82 31c-43 0 -78 -16 -103 -43c-24 -26 -38 -63 -38 -102c0 -35 13 -64 33 -84s49 -31 83 -31c39 0 72 13 96 36c25 23 40 55 44 94zM363 738v-3c-4 -18 -11 -34 -23 -46s-28 -20 -47 -20c-32 0 -56 22 -56 56c0 21 8 39 20 52
s30 21 50 21c33 -2 56 -23 56 -56v-2v-2z" />
    <glyph glyph-name="ogonek" unicode="&#x2db;" horiz-adv-x="338" 
d="M55 11l-7 -3c-10 -12 -24 -29 -34 -49c-11 -20 -19 -43 -19 -65c0 -23 7 -47 33 -61c21 -10 44 -11 67 -13h4h3c21 0 44 3 69 7v15v4c-1 1 -1 3 -1 4c0 3 0 7 1 12v14c0 5 0 10 1 15v11c-29 -13 -50 -17 -68 -17c-20 0 -36 12 -36 30c0 14 8 30 18 47c11 17 24 33 36 48
h-15h-19c-6 0 -12 0 -18 1h-15z" />
    <glyph glyph-name="tilde" unicode="&#x2dc;" horiz-adv-x="462" 
d="M291 684l22 -25c19 -19 43 -30 72 -30c26 0 43 11 56 28c14 17 22 39 32 62c2 6 6 16 11 26l6 14c2 5 4 9 5 12h-6h-10c-3 -1 -6 -1 -9 -1h-7h-20h-19c-4 -9 -6 -15 -7 -18s-3 -6 -4 -11c-8 -19 -17 -39 -34 -44c-10 2 -18 9 -25 16l-24 26c-19 19 -44 30 -72 30
c-27 0 -55 -19 -70 -50c-5 -11 -11 -26 -16 -38c-1 -2 -1 -3 -1 -3h2v-1c0 0 -1 -2 -2 -6c-2 -3 -4 -8 -7 -15c-4 -7 -9 -17 -15 -29h8h12h12h9c8 0 22 1 30 2c6 13 9 19 11 27v-1c3 10 7 20 13 28s12 15 20 17c10 -1 19 -8 27 -16z" />
    <glyph glyph-name="hungarumlaut" unicode="&#x2dd;" horiz-adv-x="483" 
d="M492 793h29c-63 -65 -104 -126 -145 -186l-24 1h-52l41 65v-1c25 40 48 80 76 115l8 4c18 0 36 0 54 1c3 0 8 0 13 1zM317 738c-4 -7 -7 -11 -10 -16c-23 -34 -52 -78 -83 -115c-5 0 -11 0 -18 -1h-22c-16 -1 -31 -2 -40 -2c53 65 85 124 112 181l9 5h20h24h24h20
c-7 -10 -16 -22 -23 -34c-5 -6 -9 -12 -13 -18z" />
    <glyph glyph-name="pi" unicode="&#x3c0;" horiz-adv-x="705" 
d="M644 439l7 5c6 13 11 26 17 40l17 37c-48 -4 -100 -7 -151 -9c-52 -2 -104 -4 -151 -4c-43 0 -85 1 -128 2c-19 0 -38 1 -57 -3c-20 -3 -39 -9 -56 -23c-14 -11 -22 -26 -29 -43c-6 -17 -10 -35 -14 -52l-4 -16c14 0 38 -2 51 -2l30 -1c1 10 4 26 12 39c7 13 18 24 36 24
h9h4h4l-4 -11c-23 -68 -47 -135 -73 -205c-26 -69 -56 -139 -91 -211c10 0 22 1 35 1c13 1 26 2 39 2c13 1 26 1 39 2c13 0 24 0 35 1c43 137 78 280 113 419h27h27h43c14 0 28 0 42 1l-34 -84c-10 -27 -21 -55 -32 -84c-11 -27 -23 -55 -32 -84s-15 -57 -15 -86
c0 -36 17 -67 44 -88c26 -22 61 -35 96 -35c14 0 32 3 49 7l3 24c2 19 5 39 8 58l3 24c-18 -2 -34 -3 -45 -3h-6c-1 -1 -3 -1 -5 -1c-20 0 -34 16 -34 35c0 22 6 45 13 68l7 27v-1c23 75 45 152 72 226l22 1c10 1 19 1 29 2c9 0 18 0 28 1z" />
    <glyph glyph-name="endash" unicode="&#x2013;" horiz-adv-x="689" 
d="M104 315l-7 -16c6 -5 9 -11 9 -20c0 -10 -13 -24 -40 -42c20 0 42 0 65 1h141h65h65h142c23 -1 45 -1 65 -1c-25 15 -37 27 -37 35c0 5 4 11 11 19s18 16 31 25c-40 -1 -88 -1 -136 -1c-24 -1 -48 -1 -71 -1h-65c-80 0 -159 0 -238 1z" />
    <glyph glyph-name="emdash" unicode="&#x2014;" horiz-adv-x="1126" 
d="M83 315l-4 -18c8 -4 19 -10 22 -22c-4 -8 -15 -13 -24 -18l-7 -4l4 -16c161 1 324 1 486 1s324 0 486 -1l3 17c-10 5 -24 10 -26 23c4 8 15 13 24 18h-1l7 3l-3 17c-161 -1 -323 -1 -485 -1c-160 0 -321 0 -482 1z" />
    <glyph glyph-name="quoteleft" unicode="&#x2018;" horiz-adv-x="302" 
d="M243 444l10 9c1 30 3 62 6 93c10 31 21 64 33 97c13 33 25 66 37 96c-32 -4 -60 -6 -88 -8l-40 -65c-14 -24 -28 -49 -39 -68l-30 -52l-3 -25c-2 -10 -3 -20 -4 -29c-2 -19 -6 -38 -8 -54c33 4 64 6 91 6h18h17z" />
    <glyph glyph-name="quoteright" unicode="&#x2019;" horiz-adv-x="300" 
d="M185 719l-3 -40c-1 -13 -2 -27 -3 -40l-9 -30c-8 -25 -19 -53 -28 -81c-11 -28 -21 -56 -31 -80c10 2 19 3 26 4c15 2 25 3 33 3c4 0 8 0 12 1h7h7c12 18 23 36 34 56l54 91c7 12 14 24 21 35l3 23c2 17 5 34 7 51c2 8 3 16 4 22c-37 -5 -65 -6 -92 -6h-17h-16z" />
    <glyph glyph-name="quotesinglbase" unicode="&#x201a;" horiz-adv-x="274" 
d="M64 131l-10 -9c-1 -25 -3 -50 -5 -75c-8 -24 -18 -52 -28 -79c-9 -28 -20 -55 -29 -79c10 2 18 3 26 4l34 3h12c30 48 62 103 90 151c1 13 3 29 6 45c1 9 2 16 4 24l3 21c-31 -5 -57 -7 -78 -7h-12c-4 0 -9 0 -13 1z" />
    <glyph glyph-name="quotedblleft" unicode="&#x201c;" horiz-adv-x="541" 
d="M476 426l10 11c-2 17 -3 32 -3 49c0 14 1 30 2 45c18 60 40 122 79 194c-5 0 -12 0 -20 -1c-7 0 -15 -1 -23 -1c-17 -1 -34 -2 -45 -2c-41 -55 -72 -111 -105 -166l-14 -22c-3 -31 -4 -73 -5 -104c6 0 14 0 23 -1c20 0 38 -1 63 -1c12 0 25 -1 38 -1zM233 428l10 8
c6 31 10 63 13 94c12 33 22 65 32 98c2 6 4 14 7 21c2 8 5 16 8 24c5 16 10 32 15 45h-11c-8 0 -18 1 -26 1h-10c-12 0 -28 1 -40 1c-31 -61 -66 -129 -102 -188c-4 -33 -12 -70 -24 -109l65 3c22 0 44 1 63 2z" />
    <glyph glyph-name="quotedblright" unicode="&#x201d;" horiz-adv-x="516" 
d="M419 720l-9 -8c-6 -30 -9 -58 -13 -87l-15 -43c-9 -30 -19 -61 -28 -91c-5 -15 -9 -30 -14 -43h10c7 -1 16 -1 25 -1h9h19c7 -1 13 -1 18 -1c30 63 62 120 96 177c5 31 11 64 23 102c-18 -2 -39 -2 -60 -3c-22 -1 -42 -2 -61 -2zM193 722l-10 -10c0 -3 0 -6 1 -9v-10
c0 -13 1 -25 1 -38c0 -11 -1 -20 -1 -31c-17 -57 -37 -115 -75 -183c7 1 17 2 29 2c5 0 11 0 16 1h13l25 1c37 50 66 98 96 149l16 28c2 28 5 67 6 96c-5 1 -13 1 -22 1c-19 1 -36 1 -59 2c-12 0 -24 0 -36 1z" />
    <glyph glyph-name="quotedblbase" unicode="&#x201e;" horiz-adv-x="544" 
d="M315 183l-6 -48c-3 -16 -5 -32 -7 -47c-10 -29 -21 -63 -31 -95c-11 -34 -21 -66 -30 -96h8h10c3 -1 6 -1 10 -1h7h51c31 63 65 127 104 189c6 36 12 71 24 111c-19 -2 -42 -3 -65 -4c-22 -1 -45 -2 -65 -2zM80 192l-10 -10c1 -16 2 -32 2 -48c0 -17 -1 -31 -1 -47
c-19 -63 -41 -126 -78 -195l38 1c7 0 15 1 25 1c8 0 17 0 24 1c36 48 67 100 96 149l24 40c3 29 4 61 6 90v8v7c-10 0 -20 0 -30 1h-32c-22 0 -44 1 -64 2z" />
    <glyph glyph-name="dagger" unicode="&#x2020;" horiz-adv-x="577" 
d="M317 708l-10 -9c-1 -24 -3 -49 -5 -73l-6 -73c-1 -12 -2 -26 -4 -37c-52 0 -106 3 -165 9l-2 -35c0 -13 -1 -35 -3 -47c51 -4 112 -7 164 -7c-14 -172 -30 -339 -46 -511h31c4 0 8 0 11 1h11c10 0 30 -1 40 -1c12 168 27 342 42 511c55 0 110 2 165 6c1 10 2 25 4 41
l3 23c1 7 2 13 2 18c-52 -4 -113 -8 -166 -8c0 7 1 15 2 22c0 7 1 14 2 21c1 13 2 26 4 43l10 107c-11 -1 -31 -1 -42 -1h-21h-21z" />
    <glyph glyph-name="daggerdbl" unicode="&#x2021;" horiz-adv-x="624" 
d="M501 78l11 9c0 11 1 21 2 32c0 10 1 21 2 32l2 42c-51 3 -105 4 -156 5l5 75c1 27 3 54 4 81s3 55 4 82c55 0 110 2 165 6c1 10 2 25 4 41l3 23c1 7 2 13 2 18c-52 -4 -113 -8 -166 -8c1 15 2 29 4 43c0 6 1 13 2 20c0 7 1 14 2 23c2 16 3 34 5 53c2 20 4 38 5 54
c-10 -1 -30 -1 -42 -1c-14 0 -37 0 -51 1l-12 -156c-1 -12 -2 -26 -4 -37c-52 0 -106 3 -165 9l-2 -35c0 -13 -1 -35 -3 -47c51 -4 111 -7 164 -7c-1 -9 -2 -16 -2 -21l-3 -20c-8 -66 -16 -131 -25 -197c-52 -2 -104 -3 -155 -5l-7 -62c-1 -4 -1 -8 -2 -12
c0 -5 -1 -10 -2 -15c-1 -10 -2 -21 -3 -27c47 4 102 7 149 8c-3 -13 -5 -24 -6 -34s-3 -22 -5 -35l-15 -92c10 0 24 1 39 1c6 0 13 0 20 1h18c23 0 53 -1 75 -1v25v24v41v35c0 12 0 23 1 35c46 0 92 -3 138 -7z" />
    <glyph glyph-name="bullet" unicode="&#x2022;" horiz-adv-x="424" 
d="M96 373v-8v-8c0 -41 13 -72 35 -93c23 -22 54 -33 91 -33s75 12 104 39c31 31 46 77 46 118c0 37 -14 68 -35 90c-22 21 -54 33 -89 33c-38 0 -78 -11 -108 -38c-25 -27 -40 -65 -44 -100z" />
    <glyph glyph-name="ellipsis" unicode="&#x2026;" horiz-adv-x="999" 
d="M144 186l-88 2c17 -29 25 -56 25 -80c0 -31 -13 -67 -42 -104c12 1 25 1 40 1c14 0 29 0 45 1c30 0 61 1 84 1c17 35 27 72 27 107c0 22 -5 46 -12 71c-12 0 -25 0 -39 1h-40zM721 186l-9 -6c-17 -32 -25 -67 -25 -102c0 -23 4 -46 14 -71c24 0 54 -1 84 -1
c15 -1 30 -1 45 -1c14 0 27 0 39 -1c-19 29 -29 56 -29 78c0 32 15 69 45 106c-24 0 -53 -1 -82 -1c-14 -1 -29 -1 -43 -1h-39zM552 184h-165c0 -57 -4 -115 -16 -176h166c-2 21 -2 30 -2 40c0 42 6 87 17 136z" />
    <glyph glyph-name="perthousand" unicode="&#x2030;" horiz-adv-x="1356" 
d="M288 730h-3h-2c-20 0 -40 -3 -58 -11c-19 -9 -37 -21 -49 -38c-16 -21 -25 -45 -30 -69s-7 -49 -7 -73c2 -51 9 -103 36 -145c25 -34 66 -53 109 -53c46 0 91 14 123 51c20 21 33 47 42 74c8 27 10 55 10 81c0 49 -15 94 -44 127c-29 34 -71 55 -122 56h-5zM810 723h-89
c-31 -40 -61 -81 -91 -123l-89 -125c-57 -79 -113 -158 -173 -238c-61 -80 -126 -160 -199 -241c17 0 39 1 62 2c23 0 46 1 62 2c59 70 113 141 164 213s99 143 147 216c17 23 33 48 50 72c17 25 34 51 52 76c35 50 70 100 104 146zM291 661h4c24 0 46 -11 60 -28
c14 -16 23 -39 23 -63v-2c-1 -1 -1 -2 -1 -3v-11c0 -21 -7 -42 -21 -59c-13 -17 -32 -29 -54 -29c-2 0 -4 0 -5 1h-5c-23 0 -42 12 -54 29c-12 18 -18 41 -18 62v5v2v7c0 20 5 42 18 65c14 16 33 24 53 24zM1108 387c-45 0 -89 -16 -120 -53v1c-20 -21 -33 -46 -41 -72
c-8 -27 -11 -55 -11 -81c0 -47 12 -94 43 -128c33 -41 84 -56 138 -56c19 0 40 3 58 11s34 21 46 38h-1c16 21 25 45 30 69c6 25 7 50 7 73c0 51 -8 102 -37 144c-26 37 -67 54 -112 54zM750 386c-43 0 -88 -16 -120 -52c-21 -23 -35 -52 -45 -82c-9 -29 -13 -60 -13 -89
c0 -38 9 -76 32 -106c14 -19 34 -32 56 -40c21 -8 46 -12 69 -12c21 0 43 4 63 13c21 9 40 21 54 38c18 21 31 48 39 76c8 27 11 56 11 81c0 44 -8 86 -34 121c-25 35 -67 52 -112 52zM740 318h12c19 0 36 -8 47 -22c12 -13 18 -31 18 -50c0 -24 -6 -49 -20 -68
c-13 -19 -32 -32 -59 -32h-2h-5h-4h-3c-19 0 -35 7 -47 21c-11 13 -19 29 -19 48c0 24 8 50 21 70c14 19 34 33 61 33zM1098 318h11c21 0 37 -9 49 -24s18 -35 18 -55v-4v-5v-6v-2c0 -20 -8 -40 -20 -55c-12 -16 -30 -26 -50 -26h-3c-1 0 -3 0 -4 1h-7c-21 0 -39 9 -52 23
c-14 14 -21 33 -21 54v6v4v6c0 21 9 41 23 57c15 16 34 26 56 26z" />
    <glyph glyph-name="guilsinglleft" unicode="&#x2039;" horiz-adv-x="407" 
d="M326 500l-16 9c-43 -41 -87 -77 -133 -114c-31 -25 -63 -53 -94 -79l-3 -43c27 -29 61 -60 90 -89l61 -59c21 -22 42 -44 59 -62v23v30c0 19 1 40 2 53c-36 39 -76 77 -113 114c-2 1 -3 3 -5 5c-1 2 -3 4 -5 5l28 24c39 33 80 67 117 102c1 8 3 20 4 30c1 9 2 17 4 26
c1 8 2 17 4 25z" />
    <glyph glyph-name="guilsinglright" unicode="&#x203a;" horiz-adv-x="401" 
d="M139 509l-16 -6c0 -26 -1 -56 -3 -82c29 -35 63 -66 92 -95l31 -31c-9 -7 -17 -14 -23 -20c-7 -5 -15 -12 -24 -20c-33 -27 -67 -55 -98 -85c-1 -4 -2 -10 -2 -16c-1 -7 -2 -12 -2 -17c-1 -4 -2 -9 -3 -16l-3 -22c-2 -7 -3 -15 -4 -21c-1 -8 -2 -13 -2 -17
c19 18 44 41 72 64c27 23 54 47 75 65c33 27 68 56 100 83l3 43l-73 72c-41 39 -81 78 -120 121z" />
    <glyph glyph-name="fraction" unicode="&#x2044;" horiz-adv-x="593" 
d="M532 731l-6 -4c-87 -119 -174 -247 -255 -368c-21 -29 -42 -60 -63 -91c-21 -32 -42 -63 -64 -95c-44 -64 -88 -127 -131 -185c4 1 9 1 15 2c7 1 13 2 20 2c6 1 13 2 19 2c7 1 12 1 16 2l21 2c84 115 165 234 244 353l134 196c46 66 93 133 138 193c-6 0 -13 -1 -20 -2
l-24 -3c-8 -1 -16 -2 -24 -2c-8 -1 -14 -2 -20 -2z" />
    <glyph glyph-name="trademark" unicode="&#x2122;" horiz-adv-x="836" 
d="M427 709l-10 10c-79 1 -168 2 -247 6l5 -30l5 -26c28 -1 61 -2 91 -2c-2 -72 -15 -147 -45 -225h10h14s10 0 14 1h12h22c8 1 15 1 22 1c10 55 15 109 15 160c0 21 -1 41 -2 62h23h23h24h23v26c0 3 0 6 1 9v8zM477 719l-7 -46c-12 -73 -24 -155 -36 -228h93
c-1 19 -1 49 -1 68c0 44 1 87 3 131c17 -58 35 -116 62 -177h51c21 60 45 118 76 171c-11 -43 -16 -87 -16 -131c0 -20 1 -42 4 -65h9h12h13c4 -1 7 -1 10 -1l49 -2c-12 43 -18 82 -18 118c0 51 11 108 33 167h-9c-8 0 -16 -1 -24 -1h-10c-16 -1 -33 -1 -48 -1
c-42 -48 -73 -94 -104 -146c-10 22 -17 41 -23 59c-7 18 -13 36 -21 60v-1l-8 25h-90z" />
    <glyph glyph-name="Omega" unicode="&#x2126;" horiz-adv-x="852" 
d="M719 118l-9 10c-43 3 -86 5 -129 7c17 15 36 32 54 52c18 19 34 38 48 58c18 29 29 63 36 97s9 69 9 100c0 70 -16 136 -61 189c-26 31 -60 53 -97 67c-38 14 -79 21 -121 21c-44 0 -88 -6 -131 -20c-42 -14 -82 -36 -117 -68c-35 -39 -60 -84 -76 -132
c-17 -49 -24 -100 -24 -147c0 -38 4 -74 20 -107c21 -42 49 -78 82 -111c-25 0 -48 -1 -70 -2s-44 -3 -69 -5c-1 -8 -3 -18 -5 -28c-3 -11 -5 -22 -7 -33c-4 -23 -9 -45 -13 -62c46 4 98 7 149 9c52 3 103 4 149 5l4 42c3 22 6 52 8 75c-49 16 -86 47 -110 87
c-24 39 -36 86 -36 137c0 37 4 79 15 120c11 40 30 79 57 110c22 21 49 36 77 47s59 16 86 16c28 0 58 -5 83 -14c26 -11 49 -26 66 -48c30 -39 39 -89 39 -140c0 -64 -13 -131 -43 -188s-79 -104 -148 -126c-1 -11 -2 -24 -2 -37c-1 -14 -2 -26 -2 -37l-3 -44
c99 -1 197 -6 294 -14c-1 35 -3 79 -3 114z" />
    <glyph glyph-name="partialdiff" unicode="&#x2202;" horiz-adv-x="525" 
d="M259 396c-44 0 -81 -15 -112 -39c-30 -23 -54 -56 -69 -92c-16 -37 -24 -77 -24 -116c0 -36 7 -71 32 -98h-1c28 -34 71 -47 115 -47c37 0 71 10 103 27c31 18 57 43 78 74v-1c34 47 56 104 70 160c13 57 18 115 18 166c0 47 -6 92 -29 133v-1c-11 22 -29 40 -51 51
c-21 12 -47 18 -72 18c-24 0 -56 -5 -83 -16c-27 -12 -49 -32 -50 -61c0 -6 0 -11 3 -15c3 -5 11 -9 25 -11h6c11 0 23 7 28 18c18 14 43 16 67 18c4 1 9 2 14 2c5 1 9 1 13 2c20 -1 32 -10 40 -24c7 -14 10 -33 10 -52c0 -55 -13 -113 -26 -169c-17 43 -57 73 -105 73z
M317 268c-4 -41 -17 -85 -40 -120c-23 -34 -57 -58 -102 -58c-15 0 -31 3 -44 13c-12 10 -21 26 -21 51c0 7 0 14 1 21c6 41 18 86 41 121s56 60 103 60c19 0 35 -9 46 -22c12 -14 17 -32 17 -50c0 -5 0 -10 -1 -16z" />
    <glyph glyph-name="Delta" unicode="&#x2206;" horiz-adv-x="822" 
d="M641 135c16 -44 33 -88 51 -132c-116 10 -224 15 -329 15c-54 0 -114 -2 -173 -4c-59 -3 -119 -7 -173 -11c95 163 169 325 241 480c15 35 33 73 50 110s35 74 51 108h69l44 1c8 -29 17 -58 26 -89c17 -62 36 -133 61 -218c24 -86 51 -173 82 -260zM462 164
c28 -1 57 -2 88 -2c-31 99 -59 198 -88 299c-17 60 -34 119 -52 180c-31 -66 -62 -132 -92 -198c-43 -95 -85 -188 -132 -282c62 2 125 3 187 3h45h44z" />
    <glyph glyph-name="product" unicode="&#x220f;" horiz-adv-x="857" 
d="M176 715l-10 -10c-2 -290 -28 -587 -80 -889c9 1 19 2 30 4l33 3c22 2 44 4 62 5c37 257 60 514 72 769c58 -4 107 -5 165 -5c59 0 118 2 177 5c-32 -251 -54 -506 -61 -768c9 0 19 -1 29 -2c22 -2 44 -5 65 -7c11 -2 21 -3 29 -4c0 297 27 599 79 900
c-107 -13 -210 -19 -310 -19c-94 0 -186 5 -280 18z" />
    <glyph glyph-name="summation" unicode="&#x2211;" horiz-adv-x="879" 
d="M165 686v-22v-23c74 -77 158 -158 236 -232l141 -135c-57 -43 -104 -79 -161 -120c-97 -71 -195 -144 -289 -219c-2 -15 -5 -31 -8 -49c-3 -17 -6 -33 -8 -49l-5 -21c113 12 220 19 323 19c101 0 205 -6 315 -19v15c-1 11 -1 22 -1 33v15v17v18v42
c-104 9 -202 13 -298 13c-51 0 -102 0 -153 -2l40 29c24 18 48 34 72 52c12 9 26 18 40 29c88 63 184 133 270 199c-115 113 -241 232 -359 343c14 0 27 -1 38 -1c11 -1 22 -1 34 -1c10 -1 22 -1 33 -1h39c96 0 193 5 296 15c2 12 5 30 8 42c0 3 1 6 1 10c1 3 2 7 2 11
s1 8 2 12c0 3 1 6 1 9c-109 -12 -212 -18 -314 -18c-95 0 -189 5 -285 16l-10 -10v-17z" />
    <glyph glyph-name="minus" unicode="&#x2212;" horiz-adv-x="813" 
d="M112 360l-6 -17c8 -6 12 -15 12 -25c0 -5 -4 -13 -11 -22c-7 -8 -19 -18 -34 -27c49 1 108 1 166 2h87h80h80h87c58 -1 116 -1 167 -2c-14 9 -25 17 -32 24c-6 7 -9 13 -9 18c0 6 4 13 12 22s19 18 35 27c-51 0 -109 -1 -167 -1h-87c-29 -1 -55 -1 -80 -1
c-100 0 -200 1 -300 2z" />
    <glyph glyph-name="middot.001" unicode="&#x2219;" horiz-adv-x="306" 
d="M119 448l-10 -10c0 -48 -4 -100 -15 -157c30 3 54 4 72 4c20 0 42 -1 69 -4v18v5c-1 1 -1 3 -1 4c0 43 7 90 16 141c-29 -3 -56 -5 -74 -5c-19 0 -37 2 -57 4z" />
    <glyph glyph-name="radical" unicode="&#x221a;" horiz-adv-x="686" 
d="M629 796l-8 -5c-75 -144 -145 -300 -210 -447l-41 -92c-15 -31 -28 -62 -42 -92c-3 12 -7 24 -9 34c-6 21 -11 41 -16 62l-9 33c-15 60 -34 128 -50 188l-40 -14c-30 -10 -47 -16 -69 -24c-10 -3 -20 -7 -28 -9l4 -23l6 -26l7 3c3 1 6 2 9 4l16 5c4 2 9 3 13 4l12 5
c14 -55 27 -106 40 -160c19 -78 41 -164 62 -243c2 0 5 0 9 1h22h8c24 49 47 100 70 151c23 52 46 102 68 152c66 149 130 294 206 440l28 3c10 2 19 3 27 4c1 2 2 6 2 12c1 5 2 9 2 12c1 1 1 4 2 7c1 6 3 12 4 18c0 3 0 5 1 7c-29 -4 -68 -8 -96 -10z" />
    <glyph glyph-name="infinity" unicode="&#x221e;" horiz-adv-x="727" 
d="M429 146c26 -20 56 -29 91 -29c37 0 65 15 85 38c21 23 34 54 42 86s11 65 11 92c0 39 -9 77 -28 106s-48 48 -90 48c-39 0 -71 -14 -100 -36c-28 -22 -52 -51 -70 -82c-14 31 -33 60 -57 81c-23 22 -55 35 -94 35c-37 0 -65 -15 -85 -38c-21 -23 -34 -54 -42 -87
c-8 -32 -10 -65 -10 -92c0 -39 8 -77 27 -106s49 -47 91 -47c38 0 71 13 99 35c28 21 52 50 70 80c16 -31 33 -61 60 -84zM404 317h1c17 31 36 64 60 90c24 25 52 43 87 43c22 0 38 -8 50 -22c11 -14 17 -34 17 -56c0 -32 -9 -64 -26 -89c-18 -25 -44 -42 -79 -42
c-52 0 -91 31 -110 76zM338 317l-2 -4c-8 -15 -16 -31 -27 -44c-11 -14 -23 -26 -39 -33l1 1c-25 -8 -48 -11 -72 -11c-25 0 -42 12 -54 29c-12 18 -17 42 -17 65c0 28 8 56 24 78c16 21 39 36 70 36s55 -17 71 -39c18 -26 34 -51 45 -78z" />
    <glyph glyph-name="integral" unicode="&#x222b;" horiz-adv-x="515" 
d="M119 -84c0 33 -14 55 -45 55c-22 0 -42 -8 -56 -22c-14 -13 -23 -33 -23 -54c0 -20 8 -34 21 -43c13 -10 29 -14 47 -14c64 0 111 28 145 73c33 44 54 103 68 166c14 62 22 126 30 180l9 76c8 76 16 153 35 234c2 4 3 9 4 14l3 14c4 15 9 32 16 48c7 15 16 27 30 35
c2 -1 2 -7 2 -11c0 -37 12 -59 47 -59c22 0 40 9 54 23s21 33 21 53s-8 34 -20 44c-12 9 -29 13 -47 13c-64 0 -109 -28 -143 -71s-55 -102 -70 -164c-16 -63 -24 -129 -31 -185c-1 -5 -2 -9 -2 -15c-1 -5 -2 -11 -2 -15l-3 -22c0 -8 -1 -16 -1 -23
c-9 -71 -18 -150 -34 -230c-1 -3 -2 -5 -2 -8c-1 -2 -2 -5 -2 -7c-3 -13 -6 -28 -15 -50c-3 -9 -7 -20 -12 -29c-6 -10 -13 -17 -22 -19c-2 1 -2 7 -2 13z" />
    <glyph glyph-name="approxequal" unicode="&#x2248;" horiz-adv-x="763" 
d="M699 497l16 -9c-8 -26 -16 -54 -21 -85c-28 -20 -58 -38 -89 -51c-31 -14 -63 -21 -96 -21c-41 1 -79 11 -114 26h1c-4 1 -9 4 -15 6h-1c-35 16 -73 33 -113 33c-27 0 -55 -9 -83 -23c-29 -14 -58 -34 -83 -56c1 9 1 17 2 25c0 7 0 13 1 18v15v12v29c53 42 116 67 179 67
c41 -5 81 -17 119 -32l8 -4h-1l10 -4c34 -13 71 -25 108 -26c31 0 66 10 98 26c31 15 59 36 74 54zM598 260c26 13 50 31 73 50l13 -15c-3 -2 -4 -9 -5 -18v-14v-12v-16v-16c-49 -41 -109 -68 -169 -68c-43 0 -91 13 -130 28l-12 5l-3 2c-35 15 -72 31 -111 31
c-31 0 -64 -10 -97 -27s-66 -39 -98 -60c13 40 23 74 28 101c28 20 59 38 90 52c31 13 63 21 96 21c40 -5 82 -16 118 -33l9 -4h-1c1 -1 1 -1 2 -1c37 -15 75 -29 115 -29c28 0 56 9 82 23z" />
    <glyph glyph-name="notequal" unicode="&#x2260;" horiz-adv-x="770" 
d="M121 456l-10 -9c-1 -12 -2 -26 -2 -40c-1 -14 -2 -28 -2 -39c89 -4 186 -4 277 -4c-10 -11 -17 -18 -23 -26c-7 -7 -13 -15 -23 -25l-43 -49h-99c-34 -1 -67 -1 -99 -1c0 -6 -1 -13 -2 -21l-3 -25c-2 -17 -5 -33 -7 -45c20 0 41 1 64 2c23 0 44 1 65 2l-23 -25
c-7 -7 -14 -15 -21 -23c-7 -7 -14 -15 -22 -22c-7 -7 -14 -16 -23 -24c20 -19 33 -33 45 -43l14 -10c45 46 96 99 140 148h79c89 0 184 -2 272 -5c1 8 1 17 1 29c1 11 1 20 2 28l1 34c-89 1 -187 2 -277 2c9 9 16 18 23 26c14 17 29 32 43 48l22 25c65 1 134 2 199 3l6 50
c1 2 1 5 2 9c1 7 2 15 2 22c1 3 1 6 1 9c-20 -1 -42 -2 -64 -2l-66 -3l6 6c1 2 2 3 3 4l3 3c1 2 3 4 6 7c22 24 50 54 73 78c-9 6 -24 20 -32 27c-6 6 -20 18 -27 24l-23 -25c-41 -42 -79 -82 -118 -125h-17c-5 -1 -11 -1 -17 -1h-39c-90 0 -178 2 -267 6z" />
    <glyph glyph-name="lessequal" unicode="&#x2264;" horiz-adv-x="800" 
d="M706 508l8 38c4 15 7 29 10 38c-91 -31 -186 -60 -282 -87c-96 -28 -193 -54 -285 -78l-55 -14c-1 -7 -1 -14 -2 -22c0 -8 0 -16 -1 -22l-2 -43c83 -27 173 -55 257 -80c51 -15 104 -31 157 -48c53 -16 107 -34 156 -51v22c0 17 1 34 2 51c1 8 1 15 1 21
c-90 30 -190 60 -282 87l-125 38c78 21 148 41 217 61c70 20 140 41 216 67l7 8zM76 96l-9 -8c-2 -6 -3 -13 -4 -20c-3 -15 -6 -30 -10 -45c-1 -7 -3 -13 -4 -19c103 7 215 11 318 11c99 0 205 -4 303 -11l-1 24c-1 19 -2 48 -2 67c-95 6 -198 8 -293 8
c-100 0 -199 -2 -298 -7z" />
    <glyph glyph-name="greaterequal" unicode="&#x2265;" horiz-adv-x="840" 
d="M143 496l6 -9c117 -43 244 -81 365 -116l43 -13l-41 -11c-24 -7 -47 -14 -71 -21c-12 -3 -27 -7 -42 -12h1l-138 -39c-47 -13 -93 -27 -138 -41c-2 -12 -3 -30 -5 -48c-3 -18 -5 -35 -7 -47c56 18 117 37 178 55c61 17 123 35 180 52c79 23 164 47 242 71l3 20
c1 8 2 16 3 23c2 16 4 32 6 44l-123 34c-148 42 -307 86 -465 145c0 -12 1 -28 2 -43v-23c1 -8 1 -15 1 -21zM707 86l-9 10c-94 5 -189 7 -284 7c-100 0 -206 -2 -306 -8c-1 -6 -3 -13 -4 -21l-10 -49c-2 -8 -4 -15 -5 -21c103 7 215 11 318 11c99 0 205 -4 303 -11l-1 24
c-1 19 -2 38 -2 58z" />
    <glyph glyph-name="lozenge" unicode="&#x25ca;" horiz-adv-x="603" 
d="M340 769l17 -1c61 -159 120 -318 177 -478c-42 -80 -88 -165 -134 -250c-46 -86 -92 -171 -137 -249c-31 78 -64 163 -95 249c-32 85 -63 171 -90 252c84 160 172 319 262 477zM284 42l30 40c55 72 104 137 157 210c-43 119 -88 239 -133 358
c-68 -121 -133 -239 -198 -360c39 -71 78 -138 119 -208z" />
    <glyph glyph-name="c6459" horiz-adv-x="452" 
d="M359 718l-9 -7c-6 -23 -8 -44 -8 -65c0 -7 0 -23 1 -30h19h19h16c7 -1 13 -1 20 -1h18c6 -1 12 -1 17 -1c-7 19 -10 33 -10 43c0 17 7 39 19 64c-7 -1 -15 -1 -23 -1c-10 0 -19 0 -28 -1c-18 0 -37 -1 -51 -1zM176 720l-10 -12c3 -10 5 -20 5 -31c0 -17 -5 -38 -19 -63
c5 0 11 0 17 1h20c6 0 13 0 19 1h17h18h18c6 28 10 52 10 77v4c-1 1 -1 2 -1 4v17c-15 1 -30 1 -47 1s-33 1 -47 1z" />
    <glyph glyph-name="c6460" horiz-adv-x="338" 
d="M255 728l-36 -43c-10 -13 -21 -26 -32 -39c-13 -15 -27 -30 -44 -48c5 0 18 1 30 2c6 0 12 0 17 1h13c8 0 20 1 28 1l26 26c17 18 30 32 39 42c5 6 11 12 17 18c13 13 29 28 50 47l-50 -3c-10 0 -19 0 -28 -1h-23z" />
    <glyph glyph-name="c6461" horiz-adv-x="456" 
d="M290 646l16 -10c23 -11 42 -20 73 -20c25 0 42 12 57 29c13 16 23 37 32 57l12 26h-7h-9c-3 -1 -6 -1 -9 -1h-7c-11 0 -24 0 -36 -1l5 -17c-2 -1 -6 -4 -11 -6c-10 -6 -20 -13 -27 -17c-3 -2 -4 -4 -4 -4c-14 0 -23 4 -32 10l-6 4c-25 15 -50 30 -83 30h-7
c-24 0 -51 -12 -67 -38c-5 -6 -8 -13 -11 -21c-3 -7 -6 -14 -10 -21l-13 -31h9h11h10c6 0 12 1 18 1c2 1 4 2 4 4l17 -3c3 10 8 21 14 30s14 15 24 15c13 0 25 -8 37 -16z" />
    <glyph glyph-name="c6462" horiz-adv-x="370" 
d="M270 731h-22c-9 1 -18 1 -27 1l-49 3c4 -5 9 -10 15 -17c11 -13 22 -28 34 -42c5 -7 10 -13 14 -18c7 -9 15 -18 23 -28s15 -20 23 -28h19c7 -1 15 -1 24 -1c16 -1 32 -2 43 -2c-16 19 -27 33 -36 46c-10 13 -16 24 -23 36c-10 15 -20 31 -31 46z" />
    <glyph glyph-name="c6463" horiz-adv-x="463" 
d="M244 706h1c-14 -16 -26 -32 -42 -49c-15 -17 -35 -35 -60 -57h9h13h13h9c11 1 26 1 38 1c29 24 52 48 76 71l8 8l5 -7l6 -6c18 -23 35 -45 58 -66c12 0 28 0 40 -1h8h13h13h8c-23 21 -39 40 -52 58c-13 17 -24 34 -34 51v-1l-15 24h-93z" />
    <glyph glyph-name="c6466" horiz-adv-x="462" 
d="M479 734h8c-27 -23 -48 -44 -66 -63c-17 -20 -32 -39 -46 -57l-11 -12h-23h-23h-24h-23l-20 30c-10 15 -20 31 -32 48c-12 16 -28 34 -47 54h8h12h12h8c12 -1 27 -1 39 -1c25 -25 46 -49 65 -74l3 -2c0 -1 1 -2 2 -3l6 7c23 23 50 49 78 72c12 0 27 0 38 1h9h13h14z" />
    <glyph glyph-name="c6467" horiz-adv-x="473" 
d="M408 468h14c4 -1 8 -1 12 -1c-1 -4 -1 -9 -2 -16c0 -8 -1 -13 -1 -18s-1 -16 -2 -25h-14c-4 0 -9 0 -12 1h-10c-7 1 -15 1 -24 1c-1 -27 -2 -61 -2 -86c-5 0 -11 0 -17 1h-21c-15 1 -30 1 -39 1c0 9 1 21 2 33c0 13 1 24 1 34l2 18h-28c-50 0 -110 -2 -160 -4
c1 4 1 9 2 15c2 11 3 23 5 35c0 5 1 10 2 14c63 82 129 163 196 241l7 3l82 3c-15 -90 -22 -169 -28 -249h5h5c6 0 16 -1 25 -1zM267 470h32c4 56 9 113 15 170c-17 -20 -33 -41 -49 -61s-33 -40 -49 -61l-40 -49c6 0 13 0 21 1h25h25h20z" />
    <glyph glyph-name="c6468" horiz-adv-x="443" 
d="M227 727l-7 6c-3 1 -6 1 -11 1h-12c-2 0 -4 -1 -6 -1c-3 -2 -8 -6 -12 -16c-2 -5 -4 -12 -7 -22c8 -21 16 -40 36 -57c27 -21 62 -25 97 -25c17 0 35 1 53 5s37 11 54 25c21 17 30 39 42 61l15 31h-6h-9c-4 -1 -7 -1 -9 -1h-7c-11 0 -25 0 -36 -1
c-10 -17 -23 -29 -38 -38c-16 -9 -32 -13 -49 -13h-4h-2h-2h-2h-3c-33 0 -65 15 -75 45zM167 712l5 -17c0 -2 -1 -3 -1 -4z" />
    <glyph glyph-name="c6469" horiz-adv-x="267" 
d="M167 711v-12c0 -25 -3 -52 -10 -85c4 0 9 0 13 1h16c11 1 21 1 29 1c14 0 37 -1 51 -2l-1 28c0 22 3 49 10 81c-23 -3 -43 -4 -56 -4s-28 1 -42 2z" />
    <glyph glyph-name="Abreve" unicode="&#x102;" horiz-adv-x="815" 
d="M322 939l-8 7c-3 0 -6 1 -10 1c-4 -1 -8 -1 -13 -1c-7 0 -15 0 -17 -5l-18 -1l3 -10c1 -4 2 -8 3 -11c6 -28 14 -58 39 -87c25 -23 62 -28 97 -28s76 6 109 37c19 20 30 44 42 69l16 38h-6h-8c-4 -1 -7 -1 -9 -1h-7c-11 0 -27 -1 -37 -1c-7 -19 -21 -37 -36 -49
c-16 -13 -34 -21 -53 -21h-4s-1 0 -1 1h-2h-1c-1 -1 -2 -1 -2 -1h-3c-18 0 -35 6 -49 18c-13 11 -22 27 -25 45zM461 710h-96c-33 -68 -70 -147 -102 -218c-73 -158 -150 -324 -246 -489l33 3c13 1 25 2 38 3l38 3c12 0 23 1 33 2c8 18 18 36 28 56c9 20 18 39 25 58
c53 1 98 1 151 1c50 0 99 0 149 -1c8 -39 16 -76 25 -114c22 -1 48 -3 75 -5l74 -6c-38 89 -68 176 -96 263c-27 86 -51 171 -75 256c-17 61 -36 128 -54 188zM422 526l18 -78c9 -34 17 -67 24 -100l24 -100h-52h-32h-33h-57h-58c31 72 59 140 89 212l58 145
c7 -26 13 -53 19 -79z" />
    <glyph glyph-name="Abreveacute" unicode="&#x1eae;" horiz-adv-x="815" 
d="M531 1134l-7 -3c-23 -26 -44 -52 -66 -79c-16 -18 -34 -40 -53 -62c-20 -22 -39 -44 -55 -62c6 1 13 1 22 2c8 0 17 1 26 1c18 1 37 2 48 2c30 28 61 61 89 91c8 9 16 18 26 28l30 31c21 21 42 41 59 57c-16 -2 -38 -3 -60 -3c-11 -1 -22 -1 -32 -2c-10 0 -19 -1 -27 -1z
M322 939l-8 7c-3 0 -6 1 -10 1c-4 -1 -8 -1 -13 -1c-7 0 -15 0 -17 -5l-18 -1l3 -10c1 -4 2 -8 3 -11c6 -28 14 -58 39 -87c25 -23 62 -28 97 -28s76 6 109 37c19 20 30 44 42 69l16 38h-6h-8c-4 -1 -7 -1 -9 -1h-7c-11 0 -27 -1 -37 -1c-7 -19 -21 -37 -36 -49
c-16 -13 -34 -21 -53 -21h-4s-1 0 -1 1h-2h-1c-1 -1 -2 -1 -2 -1h-3c-18 0 -35 6 -49 18c-13 11 -22 27 -25 45zM461 710h-96c-33 -68 -70 -147 -102 -218c-73 -158 -150 -324 -246 -489l33 3c13 1 25 2 38 3l38 3c12 0 23 1 33 2c8 18 18 36 28 56c9 20 18 39 25 58
c53 1 98 1 151 1c50 0 99 0 149 -1c8 -39 16 -76 25 -114c22 -1 48 -3 75 -5l74 -6c-38 89 -68 176 -96 263c-27 86 -51 171 -75 256c-17 61 -36 128 -54 188zM422 526l18 -78c9 -34 17 -67 24 -100l24 -100h-52h-32h-33h-57h-58c31 72 59 140 89 212l58 145
c7 -26 13 -53 19 -79z" />
    <glyph glyph-name="Abrevedotbelow" unicode="&#x1eb6;" horiz-adv-x="815" 
d="M322 939l-8 7c-3 0 -6 1 -10 1c-4 -1 -8 -1 -13 -1c-7 0 -15 0 -17 -5l-18 -1l3 -10c1 -4 2 -8 3 -11c6 -28 14 -58 39 -87c25 -23 62 -28 97 -28s76 6 109 37c19 20 30 44 42 69l16 38h-6h-8c-4 -1 -7 -1 -9 -1h-7c-11 0 -27 -1 -37 -1c-7 -19 -21 -37 -36 -49
c-16 -13 -34 -21 -53 -21h-4s-1 0 -1 1h-2h-1c-1 -1 -2 -1 -2 -1h-3c-18 0 -35 6 -49 18c-13 11 -22 27 -25 45zM461 710h-96c-33 -68 -70 -147 -102 -218c-73 -158 -150 -324 -246 -489l33 3c13 1 25 2 38 3l38 3c12 0 23 1 33 2c8 18 18 36 28 56c9 20 18 39 25 58
c53 1 98 1 151 1c50 0 99 0 149 -1c8 -39 16 -76 25 -114c22 -1 48 -3 75 -5l74 -6c-38 89 -68 176 -96 263c-27 86 -51 171 -75 256c-17 61 -36 128 -54 188zM422 526l18 -78c9 -34 17 -67 24 -100l24 -100h-52h-32h-33h-57h-58c31 72 59 140 89 212l58 145
c7 -26 13 -53 19 -79zM286 -36v-4v-3c0 -21 -4 -49 -11 -82c4 0 8 0 14 1h16c11 0 21 1 29 1c7 0 16 -1 26 -1h13c5 -1 8 -1 11 -1v3v5v5v3v6c0 23 4 52 11 86c-23 -2 -43 -3 -56 -3c-14 0 -29 0 -43 2l-10 -9v-9z" />
    <glyph glyph-name="Abrevegrave" unicode="&#x1eb0;" horiz-adv-x="815" 
d="M400 1165l-7 4c-14 0 -33 1 -51 2c-18 0 -36 1 -49 2c15 -25 26 -47 36 -67c9 -19 17 -38 25 -56l14 -31c5 -11 10 -22 14 -31h22c8 0 18 0 29 -1c10 0 21 0 32 -1c11 0 22 -1 33 -1c10 -1 20 -1 28 -2c-18 22 -33 42 -45 61c-25 36 -43 64 -58 87c-7 12 -15 23 -23 34z
M322 939l-8 7c-3 0 -6 1 -10 1c-4 -1 -8 -1 -13 -1c-7 0 -15 0 -17 -5l-18 -1l3 -10c1 -4 2 -8 3 -11c6 -28 14 -58 39 -87c25 -23 62 -28 97 -28s76 6 109 37c19 20 30 44 42 69l16 38h-6h-8c-4 -1 -7 -1 -9 -1h-7c-11 0 -27 -1 -37 -1c-7 -19 -21 -37 -36 -49
c-16 -13 -34 -21 -53 -21h-4s-1 0 -1 1h-2h-1c-1 -1 -2 -1 -2 -1h-3c-18 0 -35 6 -49 18c-13 11 -22 27 -25 45zM461 710h-96c-33 -68 -70 -147 -102 -218c-73 -158 -150 -324 -246 -489l33 3c13 1 25 2 38 3l38 3c12 0 23 1 33 2c8 18 18 36 28 56c9 20 18 39 25 58
c53 1 98 1 151 1c50 0 99 0 149 -1c8 -39 16 -76 25 -114c22 -1 48 -3 75 -5l74 -6c-38 89 -68 176 -96 263c-27 86 -51 171 -75 256c-17 61 -36 128 -54 188zM422 526l18 -78c9 -34 17 -67 24 -100l24 -100h-52h-32h-33h-57h-58c31 72 59 140 89 212l58 145
c7 -26 13 -53 19 -79z" />
    <glyph glyph-name="Abrevehookabove" unicode="&#x1eb2;" horiz-adv-x="815" 
d="M262 919l-3 11c-1 3 -2 7 -3 10l18 1c2 5 10 5 17 5c5 0 9 0 13 1c4 0 7 -1 10 -1l8 -7c3 -18 12 -34 25 -45c14 -12 31 -18 49 -18h3s1 0 3 1h2c0 -1 1 -1 1 -1h4c19 0 37 8 53 21c15 12 29 30 36 49l37 1h7c2 0 5 0 9 1h8h6l-16 -38c-12 -25 -23 -49 -42 -69
c-16 -15 -33 -24 -51 -29l3 -2c10 -7 16 -16 16 -26s-7 -20 -21 -31l-11 -7c-6 -4 -8 -7 -9 -8c-1 -3 -2 -7 -2 -12h-28v3c0 6 1 12 3 16c3 5 8 9 16 15l11 9c7 5 11 11 11 17s-9 14 -32 14c-15 0 -29 -5 -45 -13v19c-25 2 -49 10 -67 26c-25 29 -33 59 -39 87zM590 266
c28 -87 58 -174 96 -263l-74 6c-27 2 -53 4 -75 5c-9 38 -17 75 -25 114c-50 1 -99 1 -149 1c-53 0 -98 0 -151 -1c-7 -19 -16 -38 -25 -58c-10 -20 -20 -38 -28 -56c-10 -1 -21 -2 -33 -2l-38 -3c-13 -1 -25 -2 -38 -3l-33 -3c96 165 173 331 246 489c32 71 69 150 102 218
h96c18 -60 37 -127 54 -188c24 -85 48 -170 75 -256zM488 248l-24 100c-7 33 -15 66 -24 100l-18 78c-6 26 -12 53 -19 79l-58 -145c-30 -72 -58 -140 -89 -212h58h57h33h32h52z" />
    <glyph glyph-name="Abrevetilde" unicode="&#x1eb4;" horiz-adv-x="815" 
d="M419 1020l22 -25c19 -19 43 -30 72 -30c26 0 43 11 56 28c14 17 22 39 32 62c2 6 6 16 11 26l6 14c2 5 4 9 5 12h-6h-10c-3 -1 -6 -1 -9 -1h-7h-20h-19c-4 -9 -6 -15 -7 -18s-3 -6 -4 -11c-8 -19 -17 -39 -34 -44c-10 2 -18 9 -25 16l-24 26c-19 19 -44 30 -72 30
c-27 0 -55 -19 -70 -50c-5 -11 -11 -26 -16 -38c-1 -2 -1 -3 -1 -3h2v-1c0 0 -1 -2 -2 -6c-2 -3 -4 -8 -7 -15c-4 -7 -9 -17 -15 -29h8h12h12h9c8 0 22 1 30 2c6 13 9 19 11 27v-1c3 10 7 20 13 28s12 15 20 17c10 -1 19 -8 27 -16zM322 939l-8 7c-3 0 -6 1 -10 1
c-4 -1 -8 -1 -13 -1c-7 0 -15 0 -17 -5l-18 -1l3 -10c1 -4 2 -8 3 -11c6 -28 14 -58 39 -87c25 -23 62 -28 97 -28s76 6 109 37c19 20 30 44 42 69l16 38h-6h-8c-4 -1 -7 -1 -9 -1h-7c-11 0 -27 -1 -37 -1c-7 -19 -21 -37 -36 -49c-16 -13 -34 -21 -53 -21h-4s-1 0 -1 1h-2
h-1c-1 -1 -2 -1 -2 -1h-3c-18 0 -35 6 -49 18c-13 11 -22 27 -25 45zM461 710h-96c-33 -68 -70 -147 -102 -218c-73 -158 -150 -324 -246 -489l33 3c13 1 25 2 38 3l38 3c12 0 23 1 33 2c8 18 18 36 28 56c9 20 18 39 25 58c53 1 98 1 151 1c50 0 99 0 149 -1
c8 -39 16 -76 25 -114c22 -1 48 -3 75 -5l74 -6c-38 89 -68 176 -96 263c-27 86 -51 171 -75 256c-17 61 -36 128 -54 188zM422 526l18 -78c9 -34 17 -67 24 -100l24 -100h-52h-32h-33h-57h-58c31 72 59 140 89 212l58 145c7 -26 13 -53 19 -79z" />
    <glyph glyph-name="Acaron" unicode="&#x1cd;" horiz-adv-x="815" 
d="M453 777l18 27c32 45 69 99 126 159l-53 -2h1l-32 -1c-30 -31 -52 -58 -75 -87l-18 -23l-1 1c-23 36 -44 71 -73 109h-17c-8 1 -15 1 -22 1c-16 0 -31 1 -40 2c40 -55 63 -98 86 -143l23 -43h77zM461 710h-96c-33 -68 -70 -147 -102 -218c-73 -158 -150 -324 -246 -489
l33 3c13 1 25 2 38 3l38 3c12 0 23 1 33 2c8 18 18 36 28 56c9 20 18 39 25 58c53 1 98 1 151 1c50 0 99 0 149 -1c8 -39 16 -76 25 -114c22 -1 48 -3 75 -5l74 -6c-38 89 -68 176 -96 263c-27 86 -51 171 -75 256c-17 61 -36 128 -54 188zM422 526l18 -78
c9 -34 17 -67 24 -100l24 -100h-52h-32h-33h-57h-58c31 72 59 140 89 212l58 145c7 -26 13 -53 19 -79z" />
    <glyph glyph-name="Acircumflexacute" unicode="&#x1ea4;" horiz-adv-x="815" 
d="M295 775l-49 -1c24 26 43 48 60 69c16 21 28 40 42 59c6 9 13 18 20 28c-7 -1 -13 -1 -18 -2c16 18 35 40 55 62c19 22 37 44 53 62c22 27 43 53 66 79l7 3c8 0 17 1 27 1c10 1 21 1 32 2c22 0 44 1 60 3c-17 -16 -38 -36 -59 -57l-30 -31c-10 -10 -18 -19 -26 -28
c-21 -23 -44 -47 -67 -70l16 -33c12 -23 24 -46 38 -70s31 -50 53 -77l-49 1l-31 1c-26 32 -46 64 -66 96l-9 13l-13 -16h1c-25 -30 -49 -60 -81 -93zM590 266c28 -87 58 -174 96 -263l-74 6c-27 2 -53 4 -75 5c-9 38 -17 75 -25 114c-50 1 -99 1 -149 1
c-53 0 -98 0 -151 -1c-7 -19 -16 -38 -25 -58c-10 -20 -20 -38 -28 -56c-10 -1 -21 -2 -33 -2l-38 -3c-13 -1 -25 -2 -38 -3l-33 -3c96 165 173 331 246 489c32 71 69 150 102 218h96c18 -60 37 -127 54 -188c24 -85 48 -170 75 -256zM488 248l-24 100c-7 33 -15 66 -24 100
l-18 78c-6 26 -12 53 -19 79l-58 -145c-30 -72 -58 -140 -89 -212h58h57h33h32h52z" />
    <glyph glyph-name="Acircumflexdotbelow" unicode="&#x1eac;" horiz-adv-x="815" 
d="M388 959l-20 -29c-7 -10 -14 -19 -20 -28c-14 -19 -26 -38 -42 -59c-17 -21 -36 -43 -60 -69l49 1l32 1c32 33 56 63 81 93h-1l13 16l9 -13c20 -32 40 -64 66 -96l31 -1l49 -1c-22 27 -39 53 -53 77s-26 47 -38 70l-19 38h-77zM461 710h-96c-33 -68 -70 -147 -102 -218
c-73 -158 -150 -324 -246 -489l33 3c13 1 25 2 38 3l38 3c12 0 23 1 33 2c8 18 18 36 28 56c9 20 18 39 25 58c53 1 98 1 151 1c50 0 99 0 149 -1c8 -39 16 -76 25 -114c22 -1 48 -3 75 -5l74 -6c-38 89 -68 176 -96 263c-27 86 -51 171 -75 256c-17 61 -36 128 -54 188z
M422 526l18 -78c9 -34 17 -67 24 -100l24 -100h-52h-32h-33h-57h-58c31 72 59 140 89 212l58 145c7 -26 13 -53 19 -79zM286 -36v-4v-3c0 -21 -4 -49 -11 -82c4 0 8 0 14 1h16c11 0 21 1 29 1c7 0 16 -1 26 -1h13c5 -1 8 -1 11 -1v3v5v5v3v6c0 23 4 52 11 86
c-23 -2 -43 -3 -56 -3c-14 0 -29 0 -43 2l-10 -9v-9z" />
    <glyph glyph-name="Acircumflexgrave" unicode="&#x1ea6;" horiz-adv-x="815" 
d="M400 1165l-7 4c-14 0 -33 1 -51 2c-18 0 -36 1 -49 2c15 -25 26 -47 36 -67c9 -19 17 -38 25 -56l14 -31c5 -11 10 -22 14 -31h22c8 0 18 0 29 -1c10 0 21 0 32 -1c11 0 22 -1 33 -1c10 -1 20 -1 28 -2c-18 22 -33 42 -45 61c-25 36 -43 64 -58 87c-7 12 -15 23 -23 34z
M388 959l-20 -29c-7 -10 -14 -19 -20 -28c-14 -19 -26 -38 -42 -59c-17 -21 -36 -43 -60 -69l49 1l32 1c32 33 56 63 81 93h-1l13 16l9 -13c20 -32 40 -64 66 -96l31 -1l49 -1c-22 27 -39 53 -53 77s-26 47 -38 70l-19 38h-77zM461 710h-96c-33 -68 -70 -147 -102 -218
c-73 -158 -150 -324 -246 -489l33 3c13 1 25 2 38 3l38 3c12 0 23 1 33 2c8 18 18 36 28 56c9 20 18 39 25 58c53 1 98 1 151 1c50 0 99 0 149 -1c8 -39 16 -76 25 -114c22 -1 48 -3 75 -5l74 -6c-38 89 -68 176 -96 263c-27 86 -51 171 -75 256c-17 61 -36 128 -54 188z
M422 526l18 -78c9 -34 17 -67 24 -100l24 -100h-52h-32h-33h-57h-58c31 72 59 140 89 212l58 145c7 -26 13 -53 19 -79z" />
    <glyph glyph-name="Acircumflexhookabove" unicode="&#x1ea8;" horiz-adv-x="815" 
d="M388 959l-20 -29c-7 -10 -14 -19 -20 -28c-14 -19 -26 -38 -42 -59c-17 -21 -36 -43 -60 -69l49 1l32 1c32 33 56 63 81 93h-1l13 16l9 -13c20 -32 40 -64 66 -96l31 -1l49 -1c-22 27 -39 53 -53 77s-26 47 -38 70l-19 38h-77zM368 808v-21c16 8 30 13 45 13
c23 0 32 -8 32 -14s-4 -12 -11 -17l-11 -9c-8 -6 -13 -10 -16 -15c-2 -4 -3 -10 -3 -16v-3h28c0 5 1 9 2 12c1 1 3 4 9 8l11 7c14 11 21 21 21 31s-6 19 -16 26c-10 6 -23 10 -40 10c-16 0 -33 -4 -51 -12zM461 710h-96c-33 -68 -70 -147 -102 -218
c-73 -158 -150 -324 -246 -489l33 3c13 1 25 2 38 3l38 3c12 0 23 1 33 2c8 18 18 36 28 56c9 20 18 39 25 58c53 1 98 1 151 1c50 0 99 0 149 -1c8 -39 16 -76 25 -114c22 -1 48 -3 75 -5l74 -6c-38 89 -68 176 -96 263c-27 86 -51 171 -75 256c-17 61 -36 128 -54 188z
M422 526l18 -78c9 -34 17 -67 24 -100l24 -100h-52h-32h-33h-57h-58c31 72 59 140 89 212l58 145c7 -26 13 -53 19 -79z" />
    <glyph glyph-name="Acircumflextilde" unicode="&#x1eaa;" horiz-adv-x="815" 
d="M419 1020l22 -25c19 -19 43 -30 72 -30c26 0 43 11 56 28c14 17 22 39 32 62c2 6 6 16 11 26l6 14c2 5 4 9 5 12h-6h-10c-3 -1 -6 -1 -9 -1h-7h-20h-19c-4 -9 -6 -15 -7 -18s-3 -6 -4 -11c-8 -19 -17 -39 -34 -44c-10 2 -18 9 -25 16l-24 26c-19 19 -44 30 -72 30
c-27 0 -55 -19 -70 -50c-5 -11 -11 -26 -16 -38c-1 -2 -1 -3 -1 -3h2v-1c0 0 -1 -2 -2 -6c-2 -3 -4 -8 -7 -15c-4 -7 -9 -17 -15 -29h8h12h12h9c8 0 22 1 30 2c6 13 9 19 11 27v-1c3 10 7 20 13 28s12 15 20 17c10 -1 19 -8 27 -16zM388 959l-20 -29c-7 -10 -14 -19 -20 -28
c-14 -19 -26 -38 -42 -59c-17 -21 -36 -43 -60 -69l49 1l32 1c32 33 56 63 81 93h-1l13 16l9 -13c20 -32 40 -64 66 -96l31 -1l49 -1c-22 27 -39 53 -53 77s-26 47 -38 70l-19 38h-77zM461 710h-96c-33 -68 -70 -147 -102 -218c-73 -158 -150 -324 -246 -489l33 3
c13 1 25 2 38 3l38 3c12 0 23 1 33 2c8 18 18 36 28 56c9 20 18 39 25 58c53 1 98 1 151 1c50 0 99 0 149 -1c8 -39 16 -76 25 -114c22 -1 48 -3 75 -5l74 -6c-38 89 -68 176 -96 263c-27 86 -51 171 -75 256c-17 61 -36 128 -54 188zM422 526l18 -78c9 -34 17 -67 24 -100
l24 -100h-52h-32h-33h-57h-58c31 72 59 140 89 212l58 145c7 -26 13 -53 19 -79z" />
    <glyph glyph-name="Adieresismacron" unicode="&#x1de;" horiz-adv-x="815" 
d="M303 816h-32c-11 -1 -20 -1 -28 -1c15 27 20 50 20 68c0 12 -1 23 -4 34l9 12c16 -1 33 -1 51 -1c18 -1 35 -1 51 -1l1 -20h42c11 0 24 0 37 1h5c1 4 2 7 3 11l8 8c16 0 32 1 48 1l63 1l-9 -20h2l-5 -7c-6 -15 -9 -29 -9 -41c0 -8 2 -18 6 -30l1 -2h-1l5 -14l-61 1
c-15 0 -40 1 -55 2l-1 12h-5h-37h-37h-6c-1 -4 -2 -9 -3 -13c-16 0 -38 0 -59 -1zM590 266c28 -87 58 -174 96 -263l-74 6c-27 2 -53 4 -75 5c-9 38 -17 75 -25 114c-50 1 -99 1 -149 1c-53 0 -98 0 -151 -1c-7 -19 -16 -38 -25 -58c-10 -20 -20 -38 -28 -56
c-10 -1 -21 -2 -33 -2l-38 -3c-13 -1 -25 -2 -38 -3l-33 -3c96 165 173 331 246 489c32 71 69 150 102 218h96c18 -60 37 -127 54 -188c24 -85 48 -170 75 -256zM488 248l-24 100c-7 33 -15 66 -24 100l-18 78c-6 26 -12 53 -19 79l-58 -145c-30 -72 -58 -140 -89 -212h58
h57h33h32h52z" />
    <glyph glyph-name="Adotbelow" unicode="&#x1ea0;" horiz-adv-x="815" 
d="M461 710h-96c-33 -68 -70 -147 -102 -218c-73 -158 -150 -324 -246 -489l33 3c13 1 25 2 38 3l38 3c12 0 23 1 33 2c8 18 18 36 28 56c9 20 18 39 25 58c53 1 98 1 151 1c50 0 99 0 149 -1c8 -39 16 -76 25 -114c22 -1 48 -3 75 -5l74 -6c-38 89 -68 176 -96 263
c-27 86 -51 171 -75 256c-17 61 -36 128 -54 188zM422 526l18 -78c9 -34 17 -67 24 -100l24 -100h-52h-32h-33h-57h-58c31 72 59 140 89 212l58 145c7 -26 13 -53 19 -79zM286 -36v-4v-3c0 -21 -4 -49 -11 -82c4 0 8 0 14 1h16c11 0 21 1 29 1c7 0 16 -1 26 -1h13
c5 -1 8 -1 11 -1v3v5v5v3v6c0 23 4 52 11 86c-23 -2 -43 -3 -56 -3c-14 0 -29 0 -43 2l-10 -9v-9z" />
    <glyph glyph-name="Ahookabove" unicode="&#x1ea2;" horiz-adv-x="815" 
d="M368 808v-21c16 8 30 13 45 13c23 0 32 -8 32 -14s-4 -12 -11 -17l-11 -9c-8 -6 -13 -10 -16 -15c-2 -4 -3 -10 -3 -16v-3h28c0 5 1 9 2 12c1 1 3 4 9 8l11 7c14 11 21 21 21 31s-6 19 -16 26c-10 6 -23 10 -40 10c-16 0 -33 -4 -51 -12zM461 710h-96
c-33 -68 -70 -147 -102 -218c-73 -158 -150 -324 -246 -489l33 3c13 1 25 2 38 3l38 3c12 0 23 1 33 2c8 18 18 36 28 56c9 20 18 39 25 58c53 1 98 1 151 1c50 0 99 0 149 -1c8 -39 16 -76 25 -114c22 -1 48 -3 75 -5l74 -6c-38 89 -68 176 -96 263c-27 86 -51 171 -75 256
c-17 61 -36 128 -54 188zM422 526l18 -78c9 -34 17 -67 24 -100l24 -100h-52h-32h-33h-57h-58c31 72 59 140 89 212l58 145c7 -26 13 -53 19 -79z" />
    <glyph glyph-name="Amacron" unicode="&#x100;" horiz-adv-x="815" 
d="M276 909l-9 -14c4 -7 5 -14 5 -21c0 -11 -7 -26 -21 -45c11 0 24 0 38 1h82h37h37h81c13 -1 26 -1 37 -1c-11 16 -15 27 -15 34c0 11 8 27 22 46c-24 0 -51 -1 -79 -1h-41c-13 -1 -26 -1 -37 -1c-47 0 -92 1 -137 2zM461 710h-96c-33 -68 -70 -147 -102 -218
c-73 -158 -150 -324 -246 -489l33 3c13 1 25 2 38 3l38 3c12 0 23 1 33 2c8 18 18 36 28 56c9 20 18 39 25 58c53 1 98 1 151 1c50 0 99 0 149 -1c8 -39 16 -76 25 -114c22 -1 48 -3 75 -5l74 -6c-38 89 -68 176 -96 263c-27 86 -51 171 -75 256c-17 61 -36 128 -54 188z
M422 526l18 -78c9 -34 17 -67 24 -100l24 -100h-52h-32h-33h-57h-58c31 72 59 140 89 212l58 145c7 -26 13 -53 19 -79z" />
    <glyph glyph-name="Aogonek" unicode="&#x104;" horiz-adv-x="815" 
d="M554 -85c0 -18 16 -30 36 -30c18 0 39 4 68 17v-11c-1 -5 -1 -10 -1 -15v-14c-1 -5 -1 -9 -1 -12c0 -1 0 -3 1 -4v-4v-15c-25 -4 -48 -7 -69 -7h-3h-4c-23 2 -46 3 -67 13c-26 14 -33 38 -33 61c0 22 8 45 19 65c10 20 24 37 34 49l7 3h15c6 -1 12 -1 18 -1h19h6
c-23 2 -44 3 -62 4c-9 38 -17 75 -25 114c-50 1 -99 1 -149 1c-53 0 -98 0 -151 -1c-7 -19 -16 -38 -25 -58c-10 -20 -20 -38 -28 -56c-10 -1 -21 -2 -33 -2l-38 -3c-13 -1 -25 -2 -38 -3l-33 -3c96 165 173 331 246 489c32 71 69 150 102 218h96c18 -60 37 -127 54 -188
c24 -85 48 -170 75 -256c28 -87 58 -174 96 -263l-74 6h-5c-11 -14 -24 -30 -35 -47c-10 -17 -18 -33 -18 -47zM488 248l-24 100c-7 33 -15 66 -24 100l-18 78c-6 26 -12 53 -19 79l-58 -145c-30 -72 -58 -140 -89 -212h58h57h33h32h52z" />
    <glyph glyph-name="Bdotbelow" unicode="&#x1e04;" horiz-adv-x="723" 
d="M594 334c25 -27 40 -64 40 -104c0 -30 -4 -63 -15 -92c-12 -29 -31 -55 -60 -75c-29 -19 -61 -30 -93 -37c-32 -6 -67 -8 -98 -8c-84 0 -170 -4 -264 -15c43 242 64 480 64 712l11 10c71 -10 142 -13 214 -15c45 0 87 -4 127 -19c28 -11 50 -29 64 -51s21 -48 21 -74
c0 -35 -9 -72 -26 -104c-18 -32 -45 -59 -81 -70c38 -10 72 -30 96 -58zM270 642c-2 -73 -6 -139 -12 -213c21 -1 43 -1 64 -1h64c31 0 67 5 94 23c15 11 26 28 33 45c8 17 11 34 11 48c0 36 -15 60 -37 74c-23 15 -53 20 -82 20c-45 0 -90 1 -135 4zM513 219
c6 15 8 31 8 46c0 20 -15 37 -28 50c-14 12 -30 19 -47 23c-18 4 -37 6 -55 6h-141l-1 -21c-6 -55 -10 -106 -18 -162c47 1 96 3 143 3c36 0 75 2 109 19h-1c14 7 24 21 31 36zM25 -25l10 9c14 -2 29 -2 43 -2c13 0 33 1 56 3c-7 -34 -11 -63 -11 -86v-6v-3v-5v-5v-3
c-3 0 -6 0 -11 1h-13c-10 0 -19 1 -26 1c-8 0 -18 -1 -29 -1h-16c-6 -1 -10 -1 -14 -1c7 33 11 61 11 82v3v4v9z" />
    <glyph glyph-name="Cdotaccent" unicode="&#x10a;" horiz-adv-x="747" 
d="M362 903v-4v-3c0 -21 -4 -49 -11 -82c4 0 8 0 14 1h16c11 0 21 1 29 1c7 0 16 -1 26 -1h13c5 -1 8 -1 11 -1v3v5v5v3v6c0 23 4 52 11 86c-23 -2 -43 -3 -56 -3c-14 0 -29 0 -43 2l-10 -9v-9zM670 663l9 5c-58 41 -131 55 -203 55c-47 0 -97 -5 -144 -19
c-48 -15 -93 -39 -130 -75c-41 -42 -67 -98 -84 -154c-16 -58 -23 -117 -23 -167c0 -38 4 -77 13 -112c10 -36 25 -70 48 -99c32 -35 72 -58 116 -73c44 -14 92 -20 139 -20c73 0 149 15 218 58v21c0 22 1 51 2 80c1 28 1 57 3 80c-33 -29 -69 -51 -104 -66
c-36 -15 -73 -23 -107 -23c-30 0 -63 2 -94 9c-31 6 -60 17 -84 37v-1c-17 16 -28 36 -35 58s-9 46 -9 71c0 39 4 83 16 126s32 83 65 118h-1c26 26 57 42 90 52c33 9 67 13 100 13c69 0 139 -29 194 -84c2 15 4 35 8 55c1 10 3 19 5 29c1 9 3 18 4 25z" />
    <glyph glyph-name="Dcaron" unicode="&#x10e;" 
d="M361 777l-23 43c-23 45 -46 88 -86 143c9 -1 24 -2 40 -2c7 0 14 0 22 -1h17c29 -38 50 -73 73 -109l1 -1l18 23c23 29 45 56 75 87l32 1h-1l53 2c-57 -60 -94 -114 -126 -159l-18 -27h-77zM714 539c10 -34 14 -70 14 -106c0 -50 -4 -113 -20 -174s-44 -120 -93 -161
c-45 -35 -95 -54 -147 -65c-53 -12 -107 -14 -158 -16c-33 -2 -67 -3 -102 -5c-36 -3 -71 -5 -104 -9c43 222 64 438 64 651v31v30l10 10c65 -8 127 -12 191 -13c50 -3 105 -5 156 -17c51 -11 99 -30 138 -65c25 -26 42 -57 51 -91zM625 375c2 15 2 31 2 46
c0 49 -11 101 -41 139c-25 25 -59 41 -94 50c-36 10 -74 14 -109 15c-36 0 -72 1 -108 3c-5 -146 -15 -286 -33 -431c35 2 70 2 105 3h7h8c31 1 62 3 92 7s60 13 87 29c23 15 40 38 53 62c13 25 23 52 31 77z" />
    <glyph glyph-name="Dcircumflexbelow" unicode="&#x1e12;" 
d="M714 539c10 -34 14 -70 14 -106c0 -50 -4 -113 -20 -174s-44 -120 -93 -161c-45 -35 -95 -54 -147 -65c-53 -12 -107 -14 -158 -16c-33 -2 -67 -3 -102 -5c-36 -3 -71 -5 -104 -9c43 222 64 438 64 651v31v30l10 10c65 -8 127 -12 191 -13c50 -3 105 -5 156 -17
c51 -11 99 -30 138 -65c25 -26 42 -57 51 -91zM625 375c2 15 2 31 2 46c0 49 -11 101 -41 139c-25 25 -59 41 -94 50c-36 10 -74 14 -109 15c-36 0 -72 1 -108 3c-5 -146 -15 -286 -33 -431c35 2 70 2 105 3h7h8c31 1 62 3 92 7s60 13 87 29c23 15 40 38 53 62
c13 25 23 52 31 77zM396 -56l19 -38c12 -23 24 -46 38 -70s31 -50 53 -77l-49 1l-31 1c-26 32 -46 64 -66 96l-9 13l-13 -16h1c-25 -30 -49 -60 -81 -93l-32 -1l-49 -1c24 26 43 48 60 69c16 21 28 40 42 59c6 9 13 18 20 28l20 29h77z" />
    <glyph glyph-name="Dcroat" unicode="&#x110;" 
d="M274 830c-14 -1 -27 -1 -38 -1c14 19 21 34 21 45c0 7 -1 14 -5 21l9 14c45 -1 90 -2 137 -2c11 0 24 0 37 1h41c28 0 55 1 79 1c-14 -19 -22 -35 -22 -46c0 -7 4 -18 15 -34c-11 0 -24 0 -37 1h-81h-37h-37h-82zM714 539c10 -34 14 -70 14 -106c0 -50 -4 -113 -20 -174
s-44 -120 -93 -161c-45 -35 -95 -54 -147 -65c-53 -12 -107 -14 -158 -16c-33 -2 -67 -3 -102 -5c-36 -3 -71 -5 -104 -9c43 222 64 438 64 651v31v30l10 10c65 -8 127 -12 191 -13c50 -3 105 -5 156 -17c51 -11 99 -30 138 -65c25 -26 42 -57 51 -91zM625 375
c2 15 2 31 2 46c0 49 -11 101 -41 139c-25 25 -59 41 -94 50c-36 10 -74 14 -109 15c-36 0 -72 1 -108 3c-5 -146 -15 -286 -33 -431c35 2 70 2 105 3h7h8c31 1 62 3 92 7s60 13 87 29c23 15 40 38 53 62c13 25 23 52 31 77z" />
    <glyph glyph-name="Ddotbelow" unicode="&#x1e0c;" 
d="M714 539c10 -34 14 -70 14 -106c0 -50 -4 -113 -20 -174s-44 -120 -93 -161c-45 -35 -95 -54 -147 -65c-53 -12 -107 -14 -158 -16c-33 -2 -67 -3 -102 -5c-36 -3 -71 -5 -104 -9c43 222 64 438 64 651v31v30l10 10c65 -8 127 -12 191 -13c50 -3 105 -5 156 -17
c51 -11 99 -30 138 -65c25 -26 42 -57 51 -91zM625 375c2 15 2 31 2 46c0 49 -11 101 -41 139c-25 25 -59 41 -94 50c-36 10 -74 14 -109 15c-36 0 -72 1 -108 3c-5 -146 -15 -286 -33 -431c35 2 70 2 105 3h7h8c31 1 62 3 92 7s60 13 87 29c23 15 40 38 53 62
c13 25 23 52 31 77zM294 -44l10 9c14 -2 29 -2 43 -2c13 0 33 1 56 3c-7 -34 -11 -63 -11 -86v-6v-3v-5v-5v-3c-3 0 -6 0 -11 1h-13c-10 0 -19 1 -26 1c-8 0 -18 -1 -29 -1h-16c-6 -1 -10 -1 -14 -1c7 33 11 61 11 82v3v4v9z" />
    <glyph glyph-name="Dlinebelow" unicode="&#x1e0e;" 
d="M714 539c10 -34 14 -70 14 -106c0 -50 -4 -113 -20 -174s-44 -120 -93 -161c-45 -35 -95 -54 -147 -65c-53 -12 -107 -14 -158 -16c-33 -2 -67 -3 -102 -5c-36 -3 -71 -5 -104 -9c43 222 64 438 64 651v31v30l10 10c65 -8 127 -12 191 -13c50 -3 105 -5 156 -17
c51 -11 99 -30 138 -65c25 -26 42 -57 51 -91zM625 375c2 15 2 31 2 46c0 49 -11 101 -41 139c-25 25 -59 41 -94 50c-36 10 -74 14 -109 15c-36 0 -72 1 -108 3c-5 -146 -15 -286 -33 -431c35 2 70 2 105 3h7h8c31 1 62 3 92 7s60 13 87 29c23 15 40 38 53 62
c13 25 23 52 31 77zM376 -61h41c28 0 55 1 79 1c-14 -19 -22 -35 -22 -46c0 -7 4 -18 15 -34c-11 0 -24 0 -37 1h-81h-37h-37h-82c-14 -1 -27 -1 -38 -1c14 19 21 34 21 45c0 7 -1 14 -5 21l9 14c45 -1 90 -2 137 -2c11 0 24 0 37 1z" />
    <glyph glyph-name="Ecaron" unicode="&#x11a;" horiz-adv-x="704" 
d="M368 777l18 27c32 45 69 99 126 159l-53 -2h1l-32 -1c-30 -31 -52 -58 -75 -87l-18 -23l-1 1c-23 36 -44 71 -73 109h-17c-8 1 -15 1 -22 1c-16 0 -31 1 -40 2c40 -55 63 -98 86 -143l23 -43h77zM179 725l-11 -10c-2 -234 -22 -469 -63 -712c84 10 164 15 238 15
c73 0 150 -5 231 -15v38v42c1 27 1 55 3 78c-79 6 -152 9 -223 9c-41 0 -81 -1 -123 -2c2 15 4 30 5 44c2 15 4 29 5 43c3 29 6 57 8 88h150h84h84v12c1 6 1 10 1 13c1 19 4 46 8 65c-67 -1 -144 -3 -211 -3c-37 0 -71 1 -108 1c2 34 4 67 7 98l6 96c45 -2 82 -3 128 -3
c69 0 140 3 216 11c2 15 5 36 8 52l6 40c-82 -10 -159 -15 -233 -15c-73 0 -145 5 -216 15z" />
    <glyph glyph-name="uni0228" unicode="&#x228;" horiz-adv-x="704" 
d="M179 725l-11 -10c-2 -234 -22 -469 -63 -712c84 10 164 15 238 15c73 0 150 -5 231 -15v38v42c1 27 1 55 3 78c-79 6 -152 9 -223 9c-41 0 -81 -1 -123 -2c2 15 4 30 5 44c2 15 4 29 5 43c3 29 6 57 8 88h150h84h84v12c1 6 1 10 1 13c1 19 4 46 8 65
c-67 -1 -144 -3 -211 -3c-37 0 -71 1 -108 1c2 34 4 67 7 98l6 96c45 -2 82 -3 128 -3c69 0 140 3 216 11c2 15 5 36 8 52l6 40c-82 -10 -159 -15 -233 -15c-73 0 -145 5 -216 15zM384 12h-14c-10 -1 -23 -1 -33 -1h-14c8 -14 17 -29 24 -43s11 -29 11 -42
c0 -12 -6 -22 -15 -29c-8 -7 -21 -11 -32 -11h-5h-7c-19 0 -40 3 -65 16l-3 -23c-2 -14 -6 -36 -9 -50c29 -6 57 -9 81 -9s56 2 85 15c14 7 24 19 31 34c7 14 10 29 10 43c0 37 -18 68 -37 96z" />
    <glyph glyph-name="Ecircumflexacute" unicode="&#x1ebe;" horiz-adv-x="704" 
d="M210 775l-49 -1c24 26 43 48 60 69c16 21 28 40 42 59c6 9 13 18 20 28c-7 -1 -13 -1 -18 -2c16 18 35 40 55 62c19 22 37 44 53 62c22 27 43 53 66 79l7 3c8 0 17 1 27 1c10 1 21 1 32 2c22 0 44 1 60 3c-17 -16 -38 -36 -59 -57l-30 -31c-10 -10 -18 -19 -26 -28
c-21 -23 -44 -47 -67 -70l16 -33c12 -23 24 -46 38 -70s31 -50 53 -77l-49 1l-31 1c-26 32 -46 64 -66 96l-9 13l-13 -16h1c-25 -30 -49 -60 -81 -93zM395 710c74 0 151 5 233 15l-6 -40c-3 -16 -6 -37 -8 -52c-76 -8 -147 -11 -216 -11c-46 0 -83 1 -128 3l-6 -96
c-3 -31 -5 -64 -7 -98c37 0 71 -1 108 -1c67 0 144 2 211 3c-4 -19 -7 -46 -8 -65c0 -3 0 -7 -1 -13v-12h-84h-84h-150c-2 -31 -5 -59 -8 -88c-1 -14 -3 -28 -5 -43c-1 -14 -3 -29 -5 -44c42 1 82 2 123 2c71 0 144 -3 223 -9c-2 -23 -2 -51 -3 -78v-42v-38
c-81 10 -158 15 -231 15c-74 0 -154 -5 -238 -15c41 243 61 478 63 712l11 10c71 -10 143 -15 216 -15z" />
    <glyph glyph-name="Ecircumflexdotbelow" unicode="&#x1ec6;" horiz-adv-x="704" 
d="M303 959l-20 -29c-7 -10 -14 -19 -20 -28c-14 -19 -26 -38 -42 -59c-17 -21 -36 -43 -60 -69l49 1l32 1c32 33 56 63 81 93h-1l13 16l9 -13c20 -32 40 -64 66 -96l31 -1l49 -1c-22 27 -39 53 -53 77s-26 47 -38 70l-19 38h-77zM179 725l-11 -10
c-2 -234 -22 -469 -63 -712c84 10 164 15 238 15c73 0 150 -5 231 -15v38v42c1 27 1 55 3 78c-79 6 -152 9 -223 9c-41 0 -81 -1 -123 -2c2 15 4 30 5 44c2 15 4 29 5 43c3 29 6 57 8 88h150h84h84v12c1 6 1 10 1 13c1 19 4 46 8 65c-67 -1 -144 -3 -211 -3
c-37 0 -71 1 -108 1c2 34 4 67 7 98l6 96c45 -2 82 -3 128 -3c69 0 140 3 216 11c2 15 5 36 8 52l6 40c-82 -10 -159 -15 -233 -15c-73 0 -145 5 -216 15zM259 -43v-4v-3c0 -21 -4 -49 -11 -82c4 0 8 0 14 1h16c11 0 21 1 29 1c7 0 16 -1 26 -1h13c5 -1 8 -1 11 -1v3v5v5v3
v6c0 23 4 52 11 86c-23 -2 -43 -3 -56 -3c-14 0 -29 0 -43 2l-10 -9v-9z" />
    <glyph glyph-name="Ecircumflexgrave" unicode="&#x1ec0;" horiz-adv-x="704" 
d="M315 1165l-7 4c-14 0 -33 1 -51 2c-18 0 -36 1 -49 2c15 -25 26 -47 36 -67c9 -19 17 -38 25 -56l14 -31c5 -11 10 -22 14 -31h22c8 0 18 0 29 -1c10 0 21 0 32 -1c11 0 22 -1 33 -1c10 -1 20 -1 28 -2c-18 22 -33 42 -45 61c-25 36 -43 64 -58 87c-7 12 -15 23 -23 34z
M303 959l-20 -29c-7 -10 -14 -19 -20 -28c-14 -19 -26 -38 -42 -59c-17 -21 -36 -43 -60 -69l49 1l32 1c32 33 56 63 81 93h-1l13 16l9 -13c20 -32 40 -64 66 -96l31 -1l49 -1c-22 27 -39 53 -53 77s-26 47 -38 70l-19 38h-77zM179 725l-11 -10c-2 -234 -22 -469 -63 -712
c84 10 164 15 238 15c73 0 150 -5 231 -15v38v42c1 27 1 55 3 78c-79 6 -152 9 -223 9c-41 0 -81 -1 -123 -2c2 15 4 30 5 44c2 15 4 29 5 43c3 29 6 57 8 88h150h84h84v12c1 6 1 10 1 13c1 19 4 46 8 65c-67 -1 -144 -3 -211 -3c-37 0 -71 1 -108 1c2 34 4 67 7 98l6 96
c45 -2 82 -3 128 -3c69 0 140 3 216 11c2 15 5 36 8 52l6 40c-82 -10 -159 -15 -233 -15c-73 0 -145 5 -216 15z" />
    <glyph glyph-name="Ecircumflexhookabove" unicode="&#x1ec2;" horiz-adv-x="704" 
d="M303 959l-20 -29c-7 -10 -14 -19 -20 -28c-14 -19 -26 -38 -42 -59c-17 -21 -36 -43 -60 -69l49 1l32 1c32 33 56 63 81 93h-1l13 16l9 -13c20 -32 40 -64 66 -96l31 -1l49 -1c-22 27 -39 53 -53 77s-26 47 -38 70l-19 38h-77zM283 808v-21c16 8 30 13 45 13
c23 0 32 -8 32 -14s-4 -12 -11 -17l-11 -9c-8 -6 -13 -10 -16 -15c-2 -4 -3 -10 -3 -16v-3h28c0 5 1 9 2 12c1 1 3 4 9 8l11 7c14 11 21 21 21 31s-6 19 -16 26c-10 6 -23 10 -40 10c-16 0 -33 -4 -51 -12zM179 725l-11 -10c-2 -234 -22 -469 -63 -712c84 10 164 15 238 15
c73 0 150 -5 231 -15v38v42c1 27 1 55 3 78c-79 6 -152 9 -223 9c-41 0 -81 -1 -123 -2c2 15 4 30 5 44c2 15 4 29 5 43c3 29 6 57 8 88h150h84h84v12c1 6 1 10 1 13c1 19 4 46 8 65c-67 -1 -144 -3 -211 -3c-37 0 -71 1 -108 1c2 34 4 67 7 98l6 96c45 -2 82 -3 128 -3
c69 0 140 3 216 11c2 15 5 36 8 52l6 40c-82 -10 -159 -15 -233 -15c-73 0 -145 5 -216 15z" />
    <glyph glyph-name="Ecircumflextilde" unicode="&#x1ec4;" horiz-adv-x="704" 
d="M334 1020l22 -25c19 -19 43 -30 72 -30c26 0 43 11 56 28c14 17 22 39 32 62c2 6 6 16 11 26l6 14c2 5 4 9 5 12h-6h-10c-3 -1 -6 -1 -9 -1h-7h-20h-19c-4 -9 -6 -15 -7 -18s-3 -6 -4 -11c-8 -19 -17 -39 -34 -44c-10 2 -18 9 -25 16l-24 26c-19 19 -44 30 -72 30
c-27 0 -55 -19 -70 -50c-5 -11 -11 -26 -16 -38c-1 -2 -1 -3 -1 -3h2v-1c0 0 -1 -2 -2 -6c-2 -3 -4 -8 -7 -15c-4 -7 -9 -17 -15 -29h8h12h12h9c8 0 22 1 30 2c6 13 9 19 11 27v-1c3 10 7 20 13 28s12 15 20 17c10 -1 19 -8 27 -16zM303 959l-20 -29c-7 -10 -14 -19 -20 -28
c-14 -19 -26 -38 -42 -59c-17 -21 -36 -43 -60 -69l49 1l32 1c32 33 56 63 81 93h-1l13 16l9 -13c20 -32 40 -64 66 -96l31 -1l49 -1c-22 27 -39 53 -53 77s-26 47 -38 70l-19 38h-77zM179 725l-11 -10c-2 -234 -22 -469 -63 -712c84 10 164 15 238 15c73 0 150 -5 231 -15
v38v42c1 27 1 55 3 78c-79 6 -152 9 -223 9c-41 0 -81 -1 -123 -2c2 15 4 30 5 44c2 15 4 29 5 43c3 29 6 57 8 88h150h84h84v12c1 6 1 10 1 13c1 19 4 46 8 65c-67 -1 -144 -3 -211 -3c-37 0 -71 1 -108 1c2 34 4 67 7 98l6 96c45 -2 82 -3 128 -3c69 0 140 3 216 11
c2 15 5 36 8 52l6 40c-82 -10 -159 -15 -233 -15c-73 0 -145 5 -216 15z" />
    <glyph glyph-name="Edotaccent" unicode="&#x116;" horiz-adv-x="704" 
d="M276 903v-4v-3c0 -21 -4 -49 -11 -82c4 0 8 0 14 1h16c11 0 21 1 29 1c7 0 16 -1 26 -1h13c5 -1 8 -1 11 -1v3v5v5v3v6c0 23 4 52 11 86c-23 -2 -43 -3 -56 -3c-14 0 -29 0 -43 2l-10 -9v-9zM179 725l-11 -10c-2 -234 -22 -469 -63 -712c84 10 164 15 238 15
c73 0 150 -5 231 -15v38v42c1 27 1 55 3 78c-79 6 -152 9 -223 9c-41 0 -81 -1 -123 -2c2 15 4 30 5 44c2 15 4 29 5 43c3 29 6 57 8 88h150h84h84v12c1 6 1 10 1 13c1 19 4 46 8 65c-67 -1 -144 -3 -211 -3c-37 0 -71 1 -108 1c2 34 4 67 7 98l6 96c45 -2 82 -3 128 -3
c69 0 140 3 216 11c2 15 5 36 8 52l6 40c-82 -10 -159 -15 -233 -15c-73 0 -145 5 -216 15z" />
    <glyph glyph-name="Edotbelow" unicode="&#x1eb8;" horiz-adv-x="704" 
d="M179 725l-11 -10c-2 -234 -22 -469 -63 -712c84 10 164 15 238 15c73 0 150 -5 231 -15v38v42c1 27 1 55 3 78c-79 6 -152 9 -223 9c-41 0 -81 -1 -123 -2c2 15 4 30 5 44c2 15 4 29 5 43c3 29 6 57 8 88h150h84h84v12c1 6 1 10 1 13c1 19 4 46 8 65
c-67 -1 -144 -3 -211 -3c-37 0 -71 1 -108 1c2 34 4 67 7 98l6 96c45 -2 82 -3 128 -3c69 0 140 3 216 11c2 15 5 36 8 52l6 40c-82 -10 -159 -15 -233 -15c-73 0 -145 5 -216 15zM259 -43v-4v-3c0 -21 -4 -49 -11 -82c4 0 8 0 14 1h16c11 0 21 1 29 1c7 0 16 -1 26 -1h13
c5 -1 8 -1 11 -1v3v5v5v3v6c0 23 4 52 11 86c-23 -2 -43 -3 -56 -3c-14 0 -29 0 -43 2l-10 -9v-9z" />
    <glyph glyph-name="Ehookabove" unicode="&#x1eba;" horiz-adv-x="704" 
d="M283 808v-21c16 8 30 13 45 13c23 0 32 -8 32 -14s-4 -12 -11 -17l-11 -9c-8 -6 -13 -10 -16 -15c-2 -4 -3 -10 -3 -16v-3h28c0 5 1 9 2 12c1 1 3 4 9 8l11 7c14 11 21 21 21 31s-6 19 -16 26c-10 6 -23 10 -40 10c-16 0 -33 -4 -51 -12zM179 725l-11 -10
c-2 -234 -22 -469 -63 -712c84 10 164 15 238 15c73 0 150 -5 231 -15v38v42c1 27 1 55 3 78c-79 6 -152 9 -223 9c-41 0 -81 -1 -123 -2c2 15 4 30 5 44c2 15 4 29 5 43c3 29 6 57 8 88h150h84h84v12c1 6 1 10 1 13c1 19 4 46 8 65c-67 -1 -144 -3 -211 -3
c-37 0 -71 1 -108 1c2 34 4 67 7 98l6 96c45 -2 82 -3 128 -3c69 0 140 3 216 11c2 15 5 36 8 52l6 40c-82 -10 -159 -15 -233 -15c-73 0 -145 5 -216 15z" />
    <glyph glyph-name="Emacron" unicode="&#x112;" horiz-adv-x="704" 
d="M191 909l-9 -14c4 -7 5 -14 5 -21c0 -11 -7 -26 -21 -45c11 0 24 0 38 1h82h37h37h81c13 -1 26 -1 37 -1c-11 16 -15 27 -15 34c0 11 8 27 22 46c-24 0 -51 -1 -79 -1h-41c-13 -1 -26 -1 -37 -1c-47 0 -92 1 -137 2zM179 725l-11 -10c-2 -234 -22 -469 -63 -712
c84 10 164 15 238 15c73 0 150 -5 231 -15v38v42c1 27 1 55 3 78c-79 6 -152 9 -223 9c-41 0 -81 -1 -123 -2c2 15 4 30 5 44c2 15 4 29 5 43c3 29 6 57 8 88h150h84h84v12c1 6 1 10 1 13c1 19 4 46 8 65c-67 -1 -144 -3 -211 -3c-37 0 -71 1 -108 1c2 34 4 67 7 98l6 96
c45 -2 82 -3 128 -3c69 0 140 3 216 11c2 15 5 36 8 52l6 40c-82 -10 -159 -15 -233 -15c-73 0 -145 5 -216 15z" />
    <glyph glyph-name="Eogonek" unicode="&#x118;" horiz-adv-x="704" 
d="M395 710c74 0 151 5 233 15l-6 -40c-3 -16 -6 -37 -8 -52c-76 -8 -147 -11 -216 -11c-46 0 -83 1 -128 3l-6 -96c-3 -31 -5 -64 -7 -98c37 0 71 -1 108 -1c67 0 144 2 211 3c-4 -19 -7 -46 -8 -65c0 -3 0 -7 -1 -13v-12h-84h-84h-150c-2 -31 -5 -59 -8 -88
c-1 -14 -3 -28 -5 -43c-1 -14 -3 -29 -5 -44c42 1 82 2 123 2c71 0 144 -3 223 -9c-2 -23 -2 -51 -3 -78v-42v-38l-28 3c-11 -14 -23 -28 -33 -44c-10 -17 -18 -33 -18 -47c0 -18 16 -30 36 -30c18 0 39 4 68 17v-11c-1 -5 -1 -10 -1 -15v-14c-1 -5 -1 -9 -1 -12
c0 -1 0 -3 1 -4v-4v-15c-25 -4 -48 -7 -69 -7h-3h-4c-23 2 -46 3 -67 13c-26 14 -33 38 -33 61c0 22 8 45 19 65c10 20 24 37 34 49l7 3h15c4 -1 8 -1 12 -1c-58 5 -113 8 -166 8c-74 0 -154 -5 -238 -15c41 243 61 478 63 712l11 10c71 -10 143 -15 216 -15z" />
    </font>
</defs>
</svg>
